<svg width="204" height="190" viewBox="0 0 204 190" fill="none" xmlns="http://www.w3.org/2000/svg">
<path d="M91.3357 189L110.346 170.304L50.3077 152.279L33.1965 170.975L91.3357 189Z" fill="#F57C00" stroke="#263238" stroke-linecap="round" stroke-linejoin="round"/>
<path d="M89.5221 184.03L102.287 171.797L56.6145 157.471L43.8496 170.602L89.5221 184.03Z" fill="#263238" stroke="#263238" stroke-linecap="round" stroke-linejoin="round"/>
<path d="M82.82 100.865C82.82 100.865 73.3969 103.082 69.4281 106.414C65.4592 109.745 63.633 115.9 63.633 115.9C63.633 115.9 58.2945 119.934 55.7927 121.145C53.7562 122.058 51.9447 123.322 50.4638 124.863C48.9829 126.405 47.8622 128.193 47.167 130.123C45.1217 135.574 42.626 147.883 42.626 147.883L48.981 150.511C48.981 150.511 49.0967 147.266 54.7761 142.339C60.4555 137.413 63.9678 129.019 64.4244 128.819C64.8809 128.619 74.87 122.768 74.87 122.768C74.87 122.768 82.5948 127.505 91.336 128.819C100.077 130.134 109.732 128.717 109.732 128.717L107.005 136.185C107.005 136.185 100.759 138.603 99.1703 141.528C97.5815 144.454 90.0881 155.551 90.0881 155.551L95.4266 159.386C99.6463 156.596 104.127 154.132 108.819 152.02C116.653 148.488 118.558 145.968 120.853 141.831C122.936 137.712 124.681 133.465 126.076 129.122C126.192 128.414 128.462 126.602 128.803 122.259L129.144 117.933L141.063 108.453C147.605 105.878 153.481 102.136 158.326 97.4581C166.16 89.7895 167.408 86.0579 168.206 79.1951C169.003 72.3323 172.181 45.2001 172.29 44.7945C172.4 44.3889 173.428 42.3771 174.792 42.1716C176.156 41.9661 183.649 47.823 184.672 48.4287C185.694 49.0344 187.715 49.3373 187.959 47.4174C188.202 45.4975 186.37 40.7601 180.581 35.617C174.792 30.474 170.586 29.6682 169.228 30.9769C167.871 32.2857 168.772 35.1087 167.865 39.2458C166.958 43.383 161.278 58.3146 158.436 65.3775C155.593 72.4404 156.506 82.0235 156.506 82.0235C154.173 82.7748 151.959 83.7909 149.92 85.0466C147.199 86.8637 142.998 89.373 142.998 89.373L141.866 88.8593C141.866 88.8593 148.227 83.2079 150.157 79.9793C152.087 76.7507 152.653 76.5506 151.63 74.6361C150.607 72.7217 142.323 63.4414 138.689 59.2989C135.055 55.1563 130.623 48.2016 129.692 46.1844C128.861 44.4508 128.82 42.4987 129.576 40.7385C130.258 39.327 136.619 36.504 136.735 32.1667C136.85 27.8294 133.691 29.0354 130.714 29.944C127.738 30.8525 119.812 37.7154 117.998 42.0526C116.184 46.3899 117.767 47.8014 120.95 50.4243C124.134 53.0472 128.012 58.3957 130.057 63.4415C132.102 68.4872 134.714 73.3274 138.914 74.6415C138.914 74.6415 132.218 77.4645 127.786 80.2875C123.355 83.1105 121.2 84.4247 121.2 84.4247C121.2 84.4247 115.18 85.9389 112.909 88.5618C111.694 89.9089 110.63 91.3579 109.732 92.8883C109.732 92.8883 89.1811 96.0195 82.82 100.865Z" fill="white"/>
<mask id="mask0_239_2436" style="mask-type:luminance" maskUnits="userSpaceOnUse" x="42" y="29" width="146" height="131">
<path d="M82.82 100.865C82.82 100.865 73.3969 103.082 69.4281 106.414C65.4592 109.745 63.633 115.9 63.633 115.9C63.633 115.9 58.2945 119.934 55.7927 121.145C53.7562 122.058 51.9447 123.322 50.4638 124.863C48.9829 126.405 47.8622 128.193 47.167 130.123C45.1217 135.574 42.626 147.883 42.626 147.883L48.981 150.511C48.981 150.511 49.0967 147.266 54.7761 142.339C60.4555 137.413 63.9678 129.019 64.4244 128.819C64.8809 128.619 74.87 122.768 74.87 122.768C74.87 122.768 82.5948 127.505 91.336 128.819C100.077 130.134 109.732 128.717 109.732 128.717L107.005 136.185C107.005 136.185 100.759 138.603 99.1703 141.528C97.5815 144.454 90.0881 155.551 90.0881 155.551L95.4266 159.386C99.6463 156.596 104.127 154.132 108.819 152.02C116.653 148.488 118.558 145.968 120.853 141.831C122.936 137.712 124.681 133.465 126.076 129.122C126.192 128.414 128.462 126.602 128.803 122.259L129.144 117.933L141.063 108.453C147.605 105.878 153.481 102.136 158.326 97.4581C166.16 89.7895 167.408 86.0579 168.206 79.1951C169.003 72.3323 172.181 45.2001 172.29 44.7945C172.4 44.3889 173.428 42.3771 174.792 42.1716C176.156 41.9661 183.649 47.823 184.672 48.4287C185.694 49.0344 187.715 49.3373 187.959 47.4174C188.202 45.4975 186.37 40.7601 180.581 35.617C174.792 30.474 170.586 29.6682 169.228 30.9769C167.871 32.2857 168.772 35.1087 167.865 39.2458C166.958 43.383 161.278 58.3146 158.436 65.3775C155.593 72.4404 156.506 82.0235 156.506 82.0235C154.173 82.7748 151.959 83.7909 149.92 85.0466C147.199 86.8637 142.998 89.373 142.998 89.373L141.866 88.8593C141.866 88.8593 148.227 83.2079 150.157 79.9793C152.087 76.7507 152.653 76.5506 151.63 74.6361C150.607 72.7217 142.323 63.4414 138.689 59.2989C135.055 55.1563 130.623 48.2016 129.692 46.1844C128.861 44.4508 128.82 42.4987 129.576 40.7385C130.258 39.327 136.619 36.504 136.735 32.1667C136.85 27.8294 133.691 29.0354 130.714 29.944C127.738 30.8525 119.812 37.7154 117.998 42.0526C116.184 46.3899 117.767 47.8014 120.95 50.4243C124.134 53.0472 128.012 58.3957 130.057 63.4415C132.102 68.4872 134.714 73.3274 138.914 74.6415C138.914 74.6415 132.218 77.4645 127.786 80.2875C123.355 83.1105 121.2 84.4247 121.2 84.4247C121.2 84.4247 115.18 85.9389 112.909 88.5618C111.694 89.9089 110.63 91.3579 109.732 92.8883C109.732 92.8883 89.1811 96.0195 82.82 100.865Z" fill="white"/>
</mask>
<g mask="url(#mask0_239_2436)">
<path opacity="0.2" d="M137.148 110.432L127.451 114.428C127.451 114.428 127.92 120.945 125.321 124.309C122.722 127.673 121.772 128.722 121.772 128.722C121.772 128.722 121.535 133.767 119.879 136.92C118.223 140.073 115.618 141.122 115.618 141.122C115.621 142.305 115.35 143.475 114.821 144.56C114.292 145.645 113.517 146.622 112.544 147.428C109.232 150.165 100.978 154.578 95.7429 157.52C95.2011 157.828 94.6837 158.152 94.1846 158.488L95.402 159.375C99.6216 156.585 104.102 154.121 108.794 152.009C116.628 148.477 118.534 145.957 120.828 141.82C122.911 137.701 124.657 133.454 126.051 129.111C126.167 128.403 128.437 126.591 128.778 122.248L129.119 117.922L137.836 110.989L137.148 110.432Z" fill="black"/>
<path opacity="0.2" d="M91.3424 128.809C99.2558 129.998 107.936 128.949 109.495 128.744C109.994 127.581 110.31 126.278 109.495 125.78C108.076 124.936 108.551 122.627 108.551 122.627C108.551 122.627 107.37 124.936 97.9045 124.936C88.4388 124.936 75.6617 117.792 75.6617 117.792C75.6617 117.792 74.7182 120.313 72.1129 121.156C69.5075 122 62.4098 125.569 62.4098 125.569C62.4098 125.569 62.1724 131.453 57.4426 135.028C52.7129 138.603 47.2587 146.926 47.2587 146.926L46.4004 149.429L48.9814 150.511C48.9814 150.511 49.097 147.266 54.7764 142.34C60.4558 137.413 63.9681 129.019 64.4247 128.819C64.8812 128.619 74.8704 122.768 74.8704 122.768C74.8704 122.768 82.5951 127.494 91.3424 128.809Z" fill="black"/>
</g>
<path d="M82.82 100.865C82.82 100.865 73.3969 103.082 69.4281 106.414C65.4592 109.745 63.633 115.9 63.633 115.9C63.633 115.9 58.2945 119.934 55.7927 121.145C53.7562 122.058 51.9447 123.322 50.4638 124.863C48.9829 126.405 47.8622 128.193 47.167 130.123C45.1217 135.574 42.626 147.883 42.626 147.883L48.981 150.511C48.981 150.511 49.0967 147.266 54.7761 142.339C60.4555 137.413 63.9678 129.019 64.4244 128.819C64.8809 128.619 74.87 122.768 74.87 122.768C74.87 122.768 82.5948 127.505 91.336 128.819C100.077 130.134 109.732 128.717 109.732 128.717L107.005 136.185C107.005 136.185 100.759 138.603 99.1703 141.528C97.5815 144.454 90.0881 155.551 90.0881 155.551L95.4266 159.386C99.6463 156.596 104.127 154.132 108.819 152.02C116.653 148.488 118.558 145.968 120.853 141.831C122.936 137.712 124.681 133.465 126.076 129.122C126.192 128.414 128.462 126.602 128.803 122.259L129.144 117.933L141.063 108.453C147.605 105.878 153.481 102.136 158.326 97.4581C166.16 89.7895 167.408 86.0579 168.206 79.1951C169.003 72.3323 172.181 45.2001 172.29 44.7945C172.4 44.3889 173.428 42.3771 174.792 42.1716C176.156 41.9661 183.649 47.823 184.672 48.4287C185.694 49.0344 187.715 49.3373 187.959 47.4174C188.202 45.4975 186.37 40.7601 180.581 35.617C174.792 30.474 170.586 29.6682 169.228 30.9769C167.871 32.2857 168.772 35.1087 167.865 39.2458C166.958 43.383 161.278 58.3146 158.436 65.3775C155.593 72.4404 156.506 82.0235 156.506 82.0235C154.173 82.7748 151.959 83.7909 149.92 85.0466C147.199 86.8637 142.998 89.373 142.998 89.373L141.866 88.8593C141.866 88.8593 148.227 83.2079 150.157 79.9793C152.087 76.7507 152.653 76.5506 151.63 74.6361C150.607 72.7217 142.323 63.4414 138.689 59.2989C135.055 55.1563 130.623 48.2016 129.692 46.1844C128.861 44.4508 128.82 42.4987 129.576 40.7385C130.258 39.327 136.619 36.504 136.735 32.1667C136.85 27.8294 133.691 29.0354 130.714 29.944C127.738 30.8525 119.812 37.7154 117.998 42.0526C116.184 46.3899 117.767 47.8014 120.95 50.4243C124.134 53.0472 128.012 58.3957 130.057 63.4415C132.102 68.4872 134.714 73.3274 138.914 74.6415C138.914 74.6415 132.218 77.4645 127.786 80.2875C123.355 83.1105 121.2 84.4247 121.2 84.4247C121.2 84.4247 115.18 85.9389 112.909 88.5618C111.694 89.9089 110.63 91.3579 109.732 92.8883C109.732 92.8883 89.1811 96.0195 82.82 100.865Z" stroke="#263238" stroke-linecap="round" stroke-linejoin="round"/>
<path d="M116.908 89.3622C115.478 89.3622 113.707 89.4812 112.039 89.6326C111.18 90.6577 110.417 91.7428 109.756 92.8774C109.756 92.8774 89.1811 96.0195 82.8199 100.865C82.8199 100.865 73.3969 103.082 69.428 106.414C65.4591 109.745 63.6329 115.899 63.6329 115.899C63.6329 115.899 60.8024 118.036 58.3005 119.685C60.2667 119.561 63.5721 119.631 65.3313 121.264C67.0905 122.898 66.9931 125.829 66.7374 127.516C69.8176 125.737 74.87 122.779 74.87 122.779C74.87 122.779 82.5947 127.516 91.336 128.83C100.077 130.144 109.732 128.727 109.732 128.727L109.293 129.928C110.931 128.846 114.467 127.224 119.611 129.03C120.772 129.396 121.82 129.998 122.673 130.788C123.526 131.577 124.16 132.533 124.524 133.578C125.4 131.291 126.033 129.457 126.082 129.133C126.198 128.425 128.468 126.613 128.809 122.27L129.15 117.944L139.194 109.951C139.407 108.009 139.133 105.024 137.1 100.892C133.125 92.7909 120.402 89.3622 116.908 89.3622Z" fill="#F57C00"/>
<mask id="mask1_239_2436" style="mask-type:luminance" maskUnits="userSpaceOnUse" x="58" y="89" width="82" height="45">
<path d="M116.908 89.3622C115.478 89.3622 113.707 89.4812 112.039 89.6326C111.18 90.6577 110.417 91.7428 109.756 92.8774C109.756 92.8774 89.1811 96.0195 82.8199 100.865C82.8199 100.865 73.3969 103.082 69.428 106.414C65.4591 109.745 63.6329 115.899 63.6329 115.899C63.6329 115.899 60.8024 118.036 58.3005 119.685C60.2667 119.561 63.5721 119.631 65.3313 121.264C67.0905 122.898 66.9931 125.829 66.7374 127.516C69.8176 125.737 74.87 122.779 74.87 122.779C74.87 122.779 82.5947 127.516 91.336 128.83C100.077 130.144 109.732 128.727 109.732 128.727L109.293 129.928C110.931 128.846 114.467 127.224 119.611 129.03C120.772 129.396 121.82 129.998 122.673 130.788C123.526 131.577 124.16 132.533 124.524 133.578C125.4 131.291 126.033 129.457 126.082 129.133C126.198 128.425 128.468 126.613 128.809 122.27L129.15 117.944L139.194 109.951C139.407 108.009 139.133 105.024 137.1 100.892C133.125 92.7909 120.402 89.3622 116.908 89.3622Z" fill="white"/>
</mask>
<g mask="url(#mask1_239_2436)">
<path opacity="0.2" d="M91.3424 128.809C99.2558 129.998 107.936 128.949 109.495 128.744C109.994 127.581 110.31 126.278 109.495 125.78C108.076 124.936 108.551 122.627 108.551 122.627C108.551 122.627 107.37 124.936 97.9045 124.936C88.4388 124.936 75.6617 117.792 75.6617 117.792C75.6617 117.792 74.7182 120.313 72.1129 121.156C69.5075 122 62.4098 125.569 62.4098 125.569C62.4098 125.569 62.1724 131.453 57.4426 135.028C52.7129 138.603 47.2587 146.926 47.2587 146.926L46.4004 149.429L48.9814 150.511C48.9814 150.511 49.097 147.266 54.7764 142.34C60.4558 137.413 63.9681 129.019 64.4247 128.819C64.8812 128.619 74.8704 122.768 74.8704 122.768C74.8704 122.768 82.5951 127.494 91.3424 128.809Z" fill="black"/>
<path opacity="0.2" d="M137.148 110.432L127.451 114.428C127.451 114.428 127.92 120.945 125.321 124.309C122.722 127.673 121.772 128.722 121.772 128.722C121.772 128.722 121.535 133.767 119.879 136.92C118.223 140.073 115.618 141.122 115.618 141.122C115.621 142.305 115.35 143.475 114.821 144.56C114.292 145.645 113.517 146.622 112.544 147.428C109.232 150.165 100.978 154.578 95.7429 157.52C95.2011 157.828 94.6837 158.152 94.1846 158.488L95.402 159.375C99.6216 156.585 104.102 154.121 108.794 152.009C116.628 148.477 118.534 145.957 120.828 141.82C122.911 137.701 124.657 133.454 126.051 129.111C126.167 128.403 128.437 126.591 128.778 122.248L129.119 117.922L137.836 110.989L137.148 110.432Z" fill="black"/>
</g>
<path d="M116.908 89.3622C115.478 89.3622 113.707 89.4812 112.039 89.6326C111.18 90.6577 110.417 91.7428 109.756 92.8774C109.756 92.8774 89.1811 96.0195 82.8199 100.865C82.8199 100.865 73.3969 103.082 69.428 106.414C65.4591 109.745 63.6329 115.899 63.6329 115.899C63.6329 115.899 60.8024 118.036 58.3005 119.685C60.2667 119.561 63.5721 119.631 65.3313 121.264C67.0905 122.898 66.9931 125.829 66.7374 127.516C69.8176 125.737 74.87 122.779 74.87 122.779C74.87 122.779 82.5947 127.516 91.336 128.83C100.077 130.144 109.732 128.727 109.732 128.727L109.293 129.928C110.931 128.846 114.467 127.224 119.611 129.03C120.772 129.396 121.82 129.998 122.673 130.788C123.526 131.577 124.16 132.533 124.524 133.578C125.4 131.291 126.033 129.457 126.082 129.133C126.198 128.425 128.468 126.613 128.809 122.27L129.15 117.944L139.194 109.951C139.407 108.009 139.133 105.024 137.1 100.892C133.125 92.7909 120.402 89.3622 116.908 89.3622Z" stroke="#263238" stroke-linecap="round" stroke-linejoin="round"/>
<path d="M113.591 115.591C111.341 116.956 109.727 119.001 109.05 121.345C107.918 125.277 109.165 127.597 109.165 127.597" stroke="#263238" stroke-linecap="round" stroke-linejoin="round"/>
<path d="M78.3885 99.3293C78.3885 99.3293 73.2935 101.363 71.51 100.46C69.7264 99.5564 69.9821 95.7059 72.1187 93.5535C74.2553 91.4011 78.492 91.174 77.092 90.8495C75.6919 90.525 73.0135 89.8274 75.9415 87.7939C78.8694 85.7605 87.4098 83.9434 94.4223 85.7551C101.435 87.5668 103.979 90.9631 104.485 92.5476C104.749 93.2485 104.921 93.9745 104.996 94.7108C104.996 94.7108 108.039 93.5805 108.563 94.4891C108.714 94.7238 108.771 94.9971 108.724 95.2643C108.678 95.5314 108.531 95.7767 108.307 95.9601C108.307 95.9601 109.458 96.9768 109.707 99.3563C109.957 101.736 108.179 103.883 107.163 104.764C106.146 105.646 104.612 105.9 102.829 104.543C101.045 103.185 100.029 98.5397 98.8782 98.5397C97.7277 98.5397 92.8883 98.7669 92.7909 97.9989L92.6692 97.2093L79.6669 100.151L78.3885 99.3293Z" fill="#263238" stroke="#263238" stroke-linecap="round" stroke-linejoin="round"/>
<path d="M104.965 109.237C104.965 109.237 105.872 118.923 102.804 123.763C99.7363 128.603 94.1726 125.174 92.9247 124.066C91.6768 122.957 98.7197 118.317 100.309 114.683C101.897 111.048 104.393 107.247 104.965 109.237Z" fill="white"/>
<mask id="mask2_239_2436" style="mask-type:luminance" maskUnits="userSpaceOnUse" x="92" y="108" width="14" height="19">
<path d="M104.965 109.237C104.965 109.237 105.872 118.923 102.804 123.763C99.7363 128.603 94.1726 125.174 92.9247 124.066C91.6768 122.957 98.7197 118.317 100.309 114.683C101.897 111.048 104.393 107.247 104.965 109.237Z" fill="white"/>
</mask>
<g mask="url(#mask2_239_2436)">
<path opacity="0.2" d="M104.965 109.237C104.965 109.237 105.872 118.923 102.804 123.763C99.7363 128.603 94.1726 125.174 92.9247 124.066C91.6768 122.957 98.7197 118.317 100.309 114.683C101.897 111.048 104.393 107.247 104.965 109.237Z" fill="black"/>
</g>
<path d="M104.965 109.237C104.965 109.237 105.872 118.923 102.804 123.763C99.7363 128.603 94.1726 125.174 92.9247 124.066C91.6768 122.957 98.7197 118.317 100.309 114.683C101.897 111.048 104.393 107.247 104.965 109.237Z" stroke="#263238" stroke-linecap="round" stroke-linejoin="round"/>
<path d="M78.3882 99.3292C78.7236 104.698 79.9249 109.996 81.9553 115.061C85.2668 123.098 90.8731 125.818 93.2958 125.931C95.7185 126.045 100.302 121.967 102.341 118.117C103.709 115.438 104.86 112.677 105.787 109.853C105.787 109.853 108.715 108.95 109.482 106.571C110.249 104.191 110.09 102.044 108.076 101.817C106.061 101.59 105.148 104.196 105.148 104.196C103.455 103.102 102.204 101.553 101.581 99.7781C100.558 96.8361 102.597 94.5702 101.581 95.138C100.564 95.7059 98.5369 97.5176 97.5021 97.1768C96.4673 96.8361 98.1108 94.2349 98.1108 94.2349C98.1108 94.2349 81.6022 98.08 78.3882 99.3292Z" fill="white" stroke="#263238" stroke-linecap="round" stroke-linejoin="round"/>
<path d="M100.052 105.327L105.659 103.401" stroke="#263238" stroke-linecap="round" stroke-linejoin="round"/>
<path d="M86.8006 105.895L75.5879 104.083C75.5879 104.083 75.7157 107.252 77.4993 109.064C79.2828 110.875 82.9778 111.103 84.3779 110.648C85.7779 110.194 85.5223 106.684 87.0562 107.025C88.5902 107.366 88.3285 108.837 88.9676 110.194C89.6068 111.551 90.2399 111.438 93.04 111.779C95.8401 112.119 98.5185 111.892 99.5412 110.648C100.564 109.404 101.069 105.554 100.052 105.327C99.0359 105.1 95.5905 105.554 91.8956 105.667C88.2006 105.781 86.8006 105.895 86.8006 105.895Z" fill="white"/>
<mask id="mask3_239_2436" style="mask-type:luminance" maskUnits="userSpaceOnUse" x="75" y="104" width="26" height="8">
<path d="M86.8006 105.895L75.5879 104.083C75.5879 104.083 75.7157 107.252 77.4993 109.064C79.2828 110.875 82.9778 111.103 84.3779 110.648C85.7779 110.194 85.5223 106.684 87.0562 107.025C88.5902 107.366 88.3285 108.837 88.9676 110.194C89.6068 111.551 90.2399 111.438 93.04 111.779C95.8401 112.119 98.5185 111.892 99.5412 110.648C100.564 109.404 101.069 105.554 100.052 105.327C99.0359 105.1 95.5905 105.554 91.8956 105.667C88.2006 105.781 86.8006 105.895 86.8006 105.895Z" fill="white"/>
</mask>
<g mask="url(#mask3_239_2436)">
<path d="M93.0401 111.778C95.8463 112.119 98.5186 111.892 99.5413 110.648C100.278 109.745 100.759 107.484 100.564 106.214L89.6069 111.081C90.1609 111.524 91.0618 111.54 93.0401 111.778Z" fill="#F57C00"/>
<path d="M84.378 110.648C85.778 110.194 85.5224 106.684 87.0564 107.025C87.9634 107.23 88.2434 107.836 88.4564 108.582L92.3157 105.651H91.8957C90.8 105.684 89.9052 105.716 89.193 105.748L78.1021 109.534C78.999 110.105 80.0227 110.5 81.1049 110.692C82.187 110.884 83.3028 110.869 84.378 110.648Z" fill="#F57C00"/>
</g>
<path d="M86.8006 105.895L75.5879 104.083C75.5879 104.083 75.7157 107.252 77.4993 109.064C79.2828 110.875 82.9778 111.103 84.3779 110.648C85.7779 110.194 85.5223 106.684 87.0562 107.025C88.5902 107.366 88.3285 108.837 88.9676 110.194C89.6068 111.551 90.2399 111.438 93.04 111.779C95.8401 112.119 98.5185 111.892 99.5412 110.648C100.564 109.404 101.069 105.554 100.052 105.327C99.0359 105.1 95.5905 105.554 91.8956 105.667C88.2006 105.781 86.8006 105.895 86.8006 105.895Z" stroke="#263238" stroke-linecap="round" stroke-linejoin="round"/>
<path d="M86.0338 109.518C86.0338 109.518 85.906 112.46 85.906 114.271C85.906 116.083 86.673 116.083 88.0731 115.97C88.8529 115.927 89.6037 115.691 90.2401 115.288" stroke="#263238" stroke-linecap="round" stroke-linejoin="round"/>
<path d="M90.4955 119.144C90.4955 119.144 93.1678 115.975 95.8462 116.31C98.5246 116.646 98.5185 118.804 97.1184 119.599C95.7184 120.394 92.1513 120.842 91.2564 120.615C90.3616 120.388 89.9842 119.593 90.4955 119.144Z" stroke="#263238" stroke-linecap="round" stroke-linejoin="round"/>
<path d="M97.2469 117.1C97.2469 117.1 93.9355 119.593 90.624 119.701" stroke="#263238" stroke-linecap="round" stroke-linejoin="round"/>
<path d="M87.4338 103.288C87.4338 103.288 89.0896 104.872 89.7287 104.423C90.3679 103.974 92.6628 101.93 95.3351 101.719C98.0074 101.508 98.3787 101.946 98.0135 101.492C97.6482 101.038 95.8464 100.248 93.6793 100.475C91.5123 100.703 89.9844 102.639 89.2174 102.963C88.653 103.175 88.0467 103.286 87.4338 103.288Z" fill="#263238" stroke="#263238" stroke-linecap="round" stroke-linejoin="round"/>
<path d="M84.506 102.839C84.506 102.839 84.2504 103.742 83.8669 103.856C83.4834 103.969 83.3556 103.969 81.1946 103.401C79.0336 102.833 78.3884 102.725 78.3884 102.725C78.3884 102.725 78.2605 101.817 79.7884 101.703C81.3163 101.59 83.2338 102.612 83.2338 102.612C83.2338 102.612 84.1225 103.174 84.506 102.839Z" fill="#263238" stroke="#263238" stroke-linecap="round" stroke-linejoin="round"/>
<path d="M99.4136 87.5557C99.4136 87.5557 105.148 89.7189 105.659 98.1933L106.803 98.0798C106.804 95.4736 106.197 92.8956 105.02 90.5085C103.109 86.8743 99.4136 87.5557 99.4136 87.5557Z" fill="white" stroke="#263238" stroke-linecap="round" stroke-linejoin="round"/>
<path d="M104.418 101.752C103.995 101.743 103.589 101.603 103.269 101.358C102.949 101.112 102.735 100.776 102.664 100.406C102.592 100.036 102.667 99.6548 102.876 99.3283C103.084 99.0018 103.414 98.7498 103.809 98.6153L109.172 96.9117C109.61 96.8189 110.071 96.8731 110.467 97.064C110.863 97.2549 111.165 97.5689 111.316 97.9459C111.467 98.3228 111.456 98.7361 111.285 99.1062C111.114 99.4763 110.795 99.7772 110.389 99.9511L105.026 101.655C104.831 101.718 104.625 101.751 104.418 101.752Z" fill="white" stroke="#263238" stroke-miterlimit="10"/>
<path d="M104.965 99.9347C105.257 100.632 105.026 101.357 104.442 101.557C103.857 101.757 103.145 101.346 102.847 100.643C102.548 99.9401 102.786 99.2208 103.37 99.0207C103.955 98.8206 104.667 99.237 104.965 99.9347Z" fill="white" stroke="#263238" stroke-linecap="round" stroke-linejoin="round"/>
<path d="M104.326 108.945C104.326 109.232 104.198 109.507 103.969 109.71C103.741 109.912 103.431 110.026 103.109 110.026C102.786 110.026 102.476 109.912 102.248 109.71C102.019 109.507 101.891 109.232 101.891 108.945C101.891 108.344 103.109 105.954 103.109 105.954C103.109 105.954 104.326 108.328 104.326 108.945Z" stroke="#263238" stroke-linecap="round" stroke-linejoin="round"/>
<path d="M169.258 30.9553C167.895 32.264 168.802 35.087 167.895 39.2242C166.988 43.3614 161.308 58.293 158.466 65.3559C155.623 72.4188 156.536 82.0019 156.536 82.0019C154.203 82.7532 151.989 83.7693 149.95 85.025C147.229 86.8421 143.028 89.3514 143.028 89.3514L141.866 88.8593C141.866 88.8593 148.227 83.2079 150.157 79.9793C152.086 76.7507 152.652 76.5506 151.63 74.6361C150.607 72.7217 142.322 63.4414 138.688 59.2989C135.054 55.1563 130.623 48.2016 129.691 46.1844C128.861 44.4508 128.819 42.4987 129.576 40.7385C130.257 39.327 136.619 36.504 136.734 32.1667C136.85 27.8294 133.691 29.0354 130.714 29.944C127.737 30.8525 119.812 37.7154 117.998 42.0526C116.184 46.3899 117.766 47.8014 120.95 50.4243C124.134 53.0472 128.011 58.3957 130.057 63.4415C132.102 68.4872 134.713 73.3274 138.913 74.6415C138.913 74.6415 132.218 77.4645 127.786 80.2875C123.354 83.1105 121.2 84.4247 121.2 84.4247C121.2 84.4247 115.179 85.9389 112.909 88.5618C111.919 89.686 111.018 90.8696 110.212 92.1041C112.805 91.2605 119.087 89.9679 126.422 93.8022C135.523 98.5559 137.453 106.446 137.453 111.308L141.068 108.431C147.611 105.857 153.487 102.114 158.332 97.4364C166.166 89.7678 167.414 86.0363 168.211 79.1735C169.009 72.3106 172.186 45.1785 172.296 44.7729C172.405 44.3673 173.434 42.3555 174.798 42.15C176.161 41.9445 183.655 47.8014 184.677 48.4071C185.7 49.0128 187.721 49.3156 187.964 47.3958C188.208 45.4759 186.376 40.7385 180.587 35.5954C174.798 30.4523 170.591 29.6411 169.258 30.9553Z" fill="#263238" stroke="#263238" stroke-linecap="round" stroke-linejoin="round"/>
<path d="M129.941 85.2251C129.941 85.2251 141.981 86.642 148.336 95.3165" stroke="white" stroke-linecap="round" stroke-linejoin="round"/>
<path d="M187.964 47.3955C188.196 45.481 186.376 40.7382 180.587 35.5951C174.798 30.4521 170.591 29.6463 169.234 30.955C167.877 32.2638 168.777 35.0868 167.87 39.2239C167.749 39.7647 167.536 40.5327 167.262 41.4304C168.595 41.2679 169.949 41.5618 171.048 42.2524C171.738 42.6442 172.354 43.1296 172.874 43.691C173.325 43.015 174 42.2687 174.804 42.1497C176.161 41.9496 183.661 47.8011 184.683 48.4068C185.706 49.0125 187.739 49.3153 187.964 47.3955Z" fill="#263238" stroke="#263238" stroke-linecap="round" stroke-linejoin="round"/>
<path d="M120.974 50.4243C121.667 51.006 122.317 51.6255 122.922 52.2792C124.53 52.2892 126.11 51.9117 127.495 51.187C128.88 50.4623 130.018 49.4174 130.787 48.1637C130.294 47.3255 129.917 46.6278 129.716 46.1844C128.885 44.4508 128.844 42.4987 129.6 40.7385C130.282 39.327 136.643 36.504 136.759 32.1667C136.874 27.8294 133.715 29.0354 130.738 29.944C127.762 30.8525 119.836 37.7154 118.022 42.0526C116.208 46.3899 117.791 47.8014 120.974 50.4243Z" fill="#263238" stroke="#263238" stroke-linecap="round" stroke-linejoin="round"/>
<path d="M130.738 29.944C127.786 30.8525 119.836 37.7153 118.022 42.0526C116.592 45.4542 117.273 47.0604 119.167 48.8559C120.03 48.6504 120.837 48.2917 121.541 47.8013C124.268 45.9842 125.4 42.7556 127.104 41.647C128.072 41.0142 129.813 40.0246 131.578 38.97C133.685 37.3854 136.679 35.1303 136.759 32.1667C136.868 27.824 133.691 29.0354 130.738 29.944Z" fill="white" stroke="#263238" stroke-linecap="round" stroke-linejoin="round"/>
<path d="M130.738 29.9437C127.786 30.8523 119.836 37.7151 118.022 42.0523C117.006 44.4697 117.054 45.9786 117.846 47.2981C118.456 47.3952 119.082 47.3729 119.681 47.2328C120.281 47.0927 120.838 46.8382 121.315 46.4869C125.059 44.0695 123.696 41.544 126.989 40.1325C130.388 38.6517 133.491 36.686 136.174 34.3134C136.539 33.6362 136.746 32.9004 136.783 32.1502C136.868 27.8238 133.691 29.0352 130.738 29.9437Z" fill="white" stroke="#263238" stroke-linecap="round" stroke-linejoin="round"/>
<path d="M187.964 47.3955C188.196 45.481 186.376 40.7382 180.587 35.5951C174.798 30.4521 170.591 29.6463 169.234 30.955C168.832 31.3856 168.584 31.9128 168.522 32.4693C169.593 32.1286 171.395 31.9285 173.775 32.8695C177.75 34.4919 185.012 42.5553 186.15 44.7672C186.814 46.0651 186.625 47.6605 186.467 48.8503C187.197 48.8394 187.843 48.4284 187.964 47.3955Z" fill="white" stroke="#263238" stroke-linecap="round" stroke-linejoin="round"/>
<path d="M142.578 103.959L137.264 107.787C137.212 107.826 137.17 107.875 137.143 107.931C137.116 107.986 137.103 108.046 137.106 108.106L137.288 112.282C137.293 112.353 137.32 112.423 137.366 112.482C137.412 112.541 137.476 112.588 137.55 112.618C137.624 112.647 137.705 112.658 137.786 112.65C137.866 112.641 137.943 112.613 138.007 112.568L143.485 108.642C143.545 108.608 143.596 108.562 143.632 108.507C143.668 108.453 143.688 108.391 143.692 108.328L143.327 104.234C143.327 104.157 143.301 104.082 143.253 104.017C143.205 103.953 143.137 103.903 143.056 103.874C142.976 103.844 142.888 103.836 142.803 103.852C142.718 103.867 142.639 103.904 142.578 103.959Z" fill="#263238" stroke="#263238" stroke-linecap="round" stroke-linejoin="round"/>
<path d="M140.162 61.0942C139.999 40.8177 139.999 20.7862 140.162 1" stroke="#263238" stroke-linecap="round" stroke-linejoin="round"/>
<path d="M140.161 105.608V61.0944" stroke="white" stroke-linecap="round" stroke-linejoin="round"/>
<path d="M107.005 93.2992C107.126 62.4733 107.126 31.6474 107.005 1.01624" stroke="#263238" stroke-linecap="round" stroke-linejoin="round"/>
<path d="M101.556 147.044C98.9207 145.795 97.4658 145.535 96.6866 145.525C95.7005 147.061 94.5805 148.769 93.5396 150.338C95.4144 150.608 98.2145 151.23 99.9433 152.604C100.9 153.356 101.745 154.214 102.457 155.156C103.906 154.372 105.501 153.534 107.278 152.712C106.329 151.052 104.442 148.413 101.556 147.044Z" fill="#263238" stroke="#263238" stroke-linecap="round" stroke-linejoin="round"/>
<path d="M102.19 143.783L93.2778 153.312L98.7259 156.395L109.287 147.007L102.19 143.783Z" fill="#263238" stroke="#263238" stroke-linecap="round" stroke-linejoin="round"/>
<path d="M102.682 145.443L95.9744 152.485L98.6101 153.853L106.317 146.909L102.682 145.443Z" fill="white" stroke="#263238" stroke-linecap="round" stroke-linejoin="round"/>
<path d="M43.5388 155.378C43.5997 152.89 42.3214 149.251 42.0109 148.461C41.2987 146.509 39.7161 145.703 38.4621 146.714C37.4638 147.531 38.0664 149.364 38.3038 150.348C38.6362 152.113 39.1081 153.856 39.716 155.562C39.99 156.243 40.3248 157.536 41.2683 157.725C42.9301 158.039 43.4962 156.935 43.5388 155.378Z" fill="white" stroke="#263238" stroke-linecap="round" stroke-linejoin="round"/>
<path d="M40.0509 157.466C40.0996 155.594 39.1196 152.863 38.9065 152.268C38.3648 150.803 37.1778 150.197 36.2403 150.96C35.4855 151.571 35.9421 152.95 36.1186 153.691C36.3679 155.016 36.7218 156.325 37.1778 157.606C37.3847 158.115 37.6343 159.083 38.3465 159.229C39.6005 159.456 40.0205 158.623 40.0509 157.466Z" fill="white" stroke="#263238" stroke-linecap="round" stroke-linejoin="round"/>
<path d="M50.4356 149.251C50.4356 149.251 53.0166 152.074 55.1958 152.339C56.006 152.404 56.7878 152.637 57.4781 153.019C58.1685 153.401 58.7483 153.922 59.1708 154.54C59.8647 155.513 57.582 158.774 57.4785 159.921C57.375 161.067 56.4863 161.246 55.2993 160.629C54.1123 160.013 53.7105 158.336 54.0818 157.098C54.4532 155.859 54.6906 155.513 54.3801 155.421C53.1651 155.138 51.9716 154.785 50.8069 154.367C50.1373 154.015 50.4356 149.251 50.4356 149.251Z" fill="white" stroke="#263238" stroke-linecap="round" stroke-linejoin="round"/>
<path d="M47.5444 154.61C47.6053 152.123 46.327 148.483 46.0165 147.693C45.3043 145.741 43.7156 144.935 42.4677 145.947C41.4694 146.763 42.072 148.597 42.3094 149.581C42.6418 151.346 43.1137 153.088 43.7217 154.794C43.9956 155.476 44.3304 156.768 45.2739 156.957C46.9357 157.26 47.514 156.157 47.5444 154.61Z" fill="white" stroke="#263238" stroke-linecap="round" stroke-linejoin="round"/>
<path d="M52.3044 155.605C52.3653 153.118 51.087 149.473 50.7765 148.689C50.0643 146.736 48.4756 145.93 47.2277 146.942C46.2294 147.753 46.832 149.592 47.0633 150.576C47.3977 152.341 47.8717 154.083 48.4816 155.789C48.7556 156.465 49.0904 157.763 50.0339 157.953C51.6957 158.255 52.2618 157.152 52.3044 155.605Z" fill="white" stroke="#263238" stroke-linecap="round" stroke-linejoin="round"/>
<path d="M89.8078 166.957C90.6661 164.204 93.3749 160.797 93.9715 160.062C95.4385 158.25 97.3925 158.077 98.3177 159.743C99.0604 161.084 97.7455 162.825 97.1368 163.799C96.1412 165.562 94.9997 167.258 93.7219 168.871C93.1862 169.488 92.3583 170.764 91.287 170.532C89.4547 170.126 89.2721 168.666 89.8078 166.957Z" fill="white" stroke="#263238" stroke-linecap="round" stroke-linejoin="round"/>
<path d="M94.428 168.682C95.0732 166.616 97.1063 164.058 97.5507 163.506C98.6586 162.144 100.12 162.014 100.813 163.269C101.373 164.274 100.387 165.578 99.9308 166.308C99.1858 167.634 98.3291 168.909 97.3681 170.121C96.9602 170.586 96.3454 171.543 95.5419 171.364C94.1601 171.062 94.0262 169.98 94.428 168.682Z" fill="white" stroke="#263238" stroke-linecap="round" stroke-linejoin="round"/>
<path d="M86.6548 155.032C86.6548 155.032 82.9172 156.968 80.5371 156.276C78.157 155.584 76.6657 156.162 75.5821 156.909C74.4986 157.655 75.6613 162.257 75.3386 163.56C75.016 164.864 75.8865 165.453 77.3535 165.307C78.8205 165.161 79.8615 163.512 79.9102 161.981C79.9589 160.451 79.8797 159.975 80.2206 160.013C80.5615 160.051 83.4834 160.554 84.3417 160.456C85.2 160.359 86.6548 155.032 86.6548 155.032Z" fill="white" stroke="#263238" stroke-linecap="round" stroke-linejoin="round"/>
<path d="M87.6896 162.198C88.5479 159.445 91.2507 156.038 91.8472 155.302C93.3203 153.491 95.2682 153.318 96.1935 154.989C96.9362 156.324 95.6274 158.066 95.0126 159.039C94.0213 160.804 92.8818 162.499 91.6037 164.112C91.062 164.734 90.2402 166.005 89.1688 165.772C87.3244 165.367 87.1418 163.912 87.6896 162.198Z" fill="white" stroke="#263238" stroke-linecap="round" stroke-linejoin="round"/>
<path d="M82.3454 161.154C83.2037 158.401 85.9125 154.994 86.509 154.259C87.9761 152.447 89.9301 152.274 90.8553 153.94C91.598 155.281 90.2831 157.022 89.6744 157.996C88.6787 159.759 87.5373 161.455 86.2595 163.068C85.7238 163.685 84.8959 164.961 83.8246 164.729C81.9923 164.323 81.8097 162.863 82.3454 161.154Z" fill="white" stroke="#263238" stroke-linecap="round" stroke-linejoin="round"/>
<path d="M22.3555 144.643L33.1968 170.975L91.336 189L88.0063 163.847L22.3555 144.643Z" fill="#F57C00" stroke="#263238" stroke-linecap="round" stroke-linejoin="round"/>
<path d="M153.383 129.647H171.858" stroke="#263238" stroke-linecap="round" stroke-linejoin="round"/>
<path d="M140.192 129.647H146.644" stroke="#263238" stroke-linecap="round" stroke-linejoin="round"/>
<path d="M168.631 132.643H171.857" stroke="#263238" stroke-linecap="round" stroke-linejoin="round"/>
<path d="M159.543 132.643H165.995" stroke="#263238" stroke-linecap="round" stroke-linejoin="round"/>
<path d="M140.192 132.643H155.142" stroke="#263238" stroke-linecap="round" stroke-linejoin="round"/>
<path d="M155.44 135.633H171.858" stroke="#263238" stroke-linecap="round" stroke-linejoin="round"/>
<path d="M140.192 135.633H151.922" stroke="#263238" stroke-linecap="round" stroke-linejoin="round"/>
<path d="M164.821 138.63H171.857" stroke="#263238" stroke-linecap="round" stroke-linejoin="round"/>
<path d="M147.228 138.63H161.886" stroke="#263238" stroke-linecap="round" stroke-linejoin="round"/>
<path d="M140.192 138.63H144.003" stroke="#263238" stroke-linecap="round" stroke-linejoin="round"/>
<path d="M153.383 141.247H171.858" stroke="#263238" stroke-linecap="round" stroke-linejoin="round"/>
<path d="M140.192 141.247H146.644" stroke="#263238" stroke-linecap="round" stroke-linejoin="round"/>
<path d="M168.631 144.243H171.857" stroke="#263238" stroke-linecap="round" stroke-linejoin="round"/>
<path d="M159.543 144.243H165.995" stroke="#263238" stroke-linecap="round" stroke-linejoin="round"/>
<path d="M140.192 144.243H155.142" stroke="#263238" stroke-linecap="round" stroke-linejoin="round"/>
<path d="M155.44 147.234H171.858" stroke="#263238" stroke-linecap="round" stroke-linejoin="round"/>
<path d="M140.192 147.234H151.922" stroke="#263238" stroke-linecap="round" stroke-linejoin="round"/>
<path d="M168.631 152.858H171.857" stroke="#263238" stroke-linecap="round" stroke-linejoin="round"/>
<path d="M159.543 152.858H165.995" stroke="#263238" stroke-linecap="round" stroke-linejoin="round"/>
<path d="M140.192 152.858H155.142" stroke="#263238" stroke-linecap="round" stroke-linejoin="round"/>
<path d="M155.44 155.849H171.858" stroke="#263238" stroke-linecap="round" stroke-linejoin="round"/>
<path d="M140.192 155.849H151.922" stroke="#263238" stroke-linecap="round" stroke-linejoin="round"/>
<path d="M164.821 158.845H171.857" stroke="#263238" stroke-linecap="round" stroke-linejoin="round"/>
<path d="M147.228 158.845H161.886" stroke="#263238" stroke-linecap="round" stroke-linejoin="round"/>
<path d="M140.192 158.845H144.003" stroke="#263238" stroke-linecap="round" stroke-linejoin="round"/>
<path d="M153.383 161.462H171.858" stroke="#263238" stroke-linecap="round" stroke-linejoin="round"/>
<path d="M140.192 161.462H146.644" stroke="#263238" stroke-linecap="round" stroke-linejoin="round"/>
<path d="M168.631 164.453H171.857" stroke="#263238" stroke-linecap="round" stroke-linejoin="round"/>
<path d="M159.543 164.453H165.995" stroke="#263238" stroke-linecap="round" stroke-linejoin="round"/>
<path d="M140.192 164.453H155.142" stroke="#263238" stroke-linecap="round" stroke-linejoin="round"/>
<path d="M175.711 169.915L178.085 160.408L180.465 166.394L183.637 140.695L187.995 160.408L193.145 126.256L198.696 165.686L201.07 161.814L202.257 169.564" stroke="#263238" stroke-linecap="round" stroke-linejoin="round"/>
<path d="M142.682 123.866L156.311 111.762L166.337 119.755L174.822 112.903L187.417 121.356L201.046 108.561" stroke="#263238" stroke-linecap="round" stroke-linejoin="round"/>
<path d="M158.107 111.762C158.113 111.439 158.01 111.122 157.812 110.851C157.613 110.58 157.328 110.368 156.994 110.242C156.659 110.115 156.289 110.081 155.932 110.143C155.575 110.205 155.247 110.36 154.989 110.588C154.732 110.817 154.558 111.108 154.488 111.425C154.419 111.743 154.457 112.071 154.599 112.369C154.741 112.666 154.98 112.919 155.285 113.095C155.59 113.272 155.947 113.363 156.311 113.358C156.785 113.351 157.237 113.18 157.572 112.883C157.907 112.585 158.099 112.183 158.107 111.762Z" fill="#F57C00" stroke="#263238" stroke-linecap="round" stroke-linejoin="round"/>
<path d="M176.618 112.903C176.618 112.581 176.51 112.267 176.308 111.999C176.106 111.732 175.819 111.524 175.483 111.402C175.148 111.28 174.779 111.25 174.424 111.314C174.069 111.379 173.744 111.536 173.489 111.766C173.235 111.996 173.064 112.287 172.997 112.604C172.93 112.92 172.97 113.247 173.113 113.543C173.256 113.839 173.495 114.091 173.799 114.266C174.104 114.441 174.46 114.531 174.822 114.526C175.301 114.519 175.758 114.345 176.094 114.041C176.43 113.738 176.618 113.329 176.618 112.903Z" fill="#F57C00" stroke="#263238" stroke-linecap="round" stroke-linejoin="round"/>
<path d="M187.417 122.957C188.412 122.957 189.219 122.24 189.219 121.356C189.219 120.472 188.412 119.755 187.417 119.755C186.422 119.755 185.615 120.472 185.615 121.356C185.615 122.24 186.422 122.957 187.417 122.957Z" fill="#F57C00" stroke="#263238" stroke-linecap="round" stroke-linejoin="round"/>
<path d="M202.592 108.561C202.592 108.24 202.485 107.926 202.284 107.659C202.084 107.393 201.798 107.185 201.465 107.062C201.131 106.939 200.764 106.907 200.41 106.97C200.055 107.032 199.73 107.187 199.475 107.414C199.219 107.64 199.045 107.93 198.975 108.244C198.904 108.559 198.94 108.885 199.079 109.182C199.217 109.478 199.451 109.731 199.751 109.91C200.052 110.088 200.405 110.183 200.766 110.183C201.25 110.183 201.715 110.012 202.057 109.708C202.4 109.404 202.592 108.991 202.592 108.561Z" fill="#F57C00" stroke="#263238" stroke-linecap="round" stroke-linejoin="round"/>
<path d="M142.681 125.466C143.676 125.466 144.483 124.75 144.483 123.866C144.483 122.981 143.676 122.265 142.681 122.265C141.686 122.265 140.879 122.981 140.879 123.866C140.879 124.75 141.686 125.466 142.681 125.466Z" fill="#F57C00" stroke="#263238" stroke-linecap="round" stroke-linejoin="round"/>
<path d="M166.337 120.896C167.332 120.896 168.139 120.18 168.139 119.296C168.139 118.412 167.332 117.695 166.337 117.695C165.342 117.695 164.535 118.412 164.535 119.296C164.535 120.18 165.342 120.896 166.337 120.896Z" fill="#F57C00" stroke="#263238" stroke-linecap="round" stroke-linejoin="round"/>
<path d="M45.0481 71.5967L50.344 68.8818" stroke="#263238" stroke-linecap="round" stroke-linejoin="round"/>
<path d="M19.2263 68.8819V84.8411L34.7853 92.8234L50.3443 84.8411V68.8819L34.7853 60.8997L19.2263 68.8819Z" stroke="#263238" stroke-linecap="round" stroke-linejoin="round"/>
<path d="M24.5161 71.5967V82.1261L34.7853 87.3936L45.0483 82.1261V71.5967L34.7853 66.3292L24.5161 71.5967Z" stroke="#263238" stroke-linecap="round" stroke-linejoin="round"/>
<path d="M34.7849 60.8995V49.045" stroke="#263238" stroke-linecap="round" stroke-linejoin="round"/>
<path d="M34.785 50.7865C36.2339 50.7865 37.4086 49.7429 37.4086 48.4556C37.4086 47.1683 36.2339 46.1248 34.785 46.1248C33.336 46.1248 32.1614 47.1683 32.1614 48.4556C32.1614 49.7429 33.336 50.7865 34.785 50.7865Z" fill="#F57C00" stroke="#263238" stroke-linecap="round" stroke-linejoin="round"/>
<path d="M34.7849 92.4879V104.342" stroke="#263238" stroke-linecap="round" stroke-linejoin="round"/>
<path d="M32.1558 104.932C32.1546 105.394 32.3078 105.846 32.596 106.231C32.8842 106.616 33.2945 106.917 33.7749 107.094C34.2553 107.272 34.7842 107.319 35.2947 107.229C35.8052 107.14 36.2744 106.918 36.6428 106.591C37.0111 106.265 37.2622 105.848 37.3642 105.395C37.4661 104.942 37.4144 104.472 37.2155 104.045C37.0167 103.617 36.6796 103.252 36.2471 102.995C35.8145 102.738 35.3058 102.601 34.7854 102.601C34.0891 102.601 33.4211 102.846 32.9281 103.283C32.4351 103.72 32.1574 104.313 32.1558 104.932Z" fill="#F57C00" stroke="#263238" stroke-linecap="round" stroke-linejoin="round"/>
<path d="M24.5161 71.5967L19.2263 68.8818" stroke="#263238" stroke-linecap="round" stroke-linejoin="round"/>
<path d="M66.7554 25.2498H73.7922" stroke="#263238" stroke-linecap="round" stroke-linejoin="round"/>
<path d="M49.1636 25.2498H63.8277" stroke="#263238" stroke-linecap="round" stroke-linejoin="round"/>
<path d="M42.1262 25.2498H45.9368" stroke="#263238" stroke-linecap="round" stroke-linejoin="round"/>
<path d="M55.3235 27.8671H73.7921" stroke="#263238" stroke-linecap="round" stroke-linejoin="round"/>
<path d="M42.1262 27.8671H48.5787" stroke="#263238" stroke-linecap="round" stroke-linejoin="round"/>
<path d="M70.572 30.8634H73.7922" stroke="#263238" stroke-linecap="round" stroke-linejoin="round"/>
<path d="M61.478 30.8634H67.9305" stroke="#263238" stroke-linecap="round" stroke-linejoin="round"/>
<path d="M42.1262 30.8634H57.0826" stroke="#263238" stroke-linecap="round" stroke-linejoin="round"/>
<path d="M57.375 33.8539H73.7923" stroke="#263238" stroke-linecap="round" stroke-linejoin="round"/>
<path d="M42.1262 33.8539H53.8563" stroke="#263238" stroke-linecap="round" stroke-linejoin="round"/>
<path d="M66.7554 36.8497H73.7922" stroke="#263238" stroke-linecap="round" stroke-linejoin="round"/>
<path d="M49.1636 36.8497H63.8277" stroke="#263238" stroke-linecap="round" stroke-linejoin="round"/>
<path d="M42.1262 36.8497H45.9368" stroke="#263238" stroke-linecap="round" stroke-linejoin="round"/>
<path d="M55.3235 39.4675H73.7921" stroke="#263238" stroke-linecap="round" stroke-linejoin="round"/>
<path d="M42.1262 39.4675H48.5787" stroke="#263238" stroke-linecap="round" stroke-linejoin="round"/>
<path d="M70.572 42.4581H73.7922" stroke="#263238" stroke-linecap="round" stroke-linejoin="round"/>
<path d="M61.478 42.4581H67.9305" stroke="#263238" stroke-linecap="round" stroke-linejoin="round"/>
<path d="M42.1262 42.4581H57.0826" stroke="#263238" stroke-linecap="round" stroke-linejoin="round"/>
<path d="M57.375 45.4541H73.7923" stroke="#263238" stroke-linecap="round" stroke-linejoin="round"/>
<path d="M42.1262 45.4541H53.8563" stroke="#263238" stroke-linecap="round" stroke-linejoin="round"/>
<path d="M66.7554 48.4447H73.7922" stroke="#263238" stroke-linecap="round" stroke-linejoin="round"/>
<path d="M49.1636 48.4447H63.8277" stroke="#263238" stroke-linecap="round" stroke-linejoin="round"/>
<path d="M42.1262 48.4447H45.9368" stroke="#263238" stroke-linecap="round" stroke-linejoin="round"/>
<path d="M55.3235 51.0676H73.7921" stroke="#263238" stroke-linecap="round" stroke-linejoin="round"/>
<path d="M42.1262 51.0676H48.5787" stroke="#263238" stroke-linecap="round" stroke-linejoin="round"/>
<path d="M73.7922 54.0582H70.572" stroke="#263238" stroke-linecap="round" stroke-linejoin="round"/>
<path d="M61.478 54.0582H67.9305" stroke="#263238" stroke-linecap="round" stroke-linejoin="round"/>
<path d="M42.1262 54.0582H57.0826" stroke="#263238" stroke-linecap="round" stroke-linejoin="round"/>
<path d="M57.375 57.0544H73.7923" stroke="#263238" stroke-linecap="round" stroke-linejoin="round"/>
<path d="M31.9327 80.5304V79.7634L34.8134 76.6099C35.1515 76.2406 35.4299 75.9196 35.6486 75.6469C35.8674 75.3713 36.0293 75.1128 36.1344 74.8713C36.2424 74.627 36.2963 74.3713 36.2963 74.1043C36.2963 73.7974 36.2225 73.5318 36.0748 73.3074C35.9299 73.083 35.731 72.9097 35.4782 72.7875C35.2253 72.6653 34.9412 72.6043 34.6259 72.6043C34.2907 72.6043 33.998 72.6739 33.748 72.8131C33.5009 72.9494 33.3091 73.1412 33.1728 73.3883C33.0392 73.6355 32.9725 73.9253 32.9725 74.2577H31.9668C31.9668 73.7463 32.0847 73.2974 32.3205 72.9111C32.5563 72.5247 32.8773 72.2236 33.2836 72.0077C33.6926 71.7918 34.1515 71.6838 34.66 71.6838C35.1713 71.6838 35.6245 71.7918 36.0194 72.0077C36.4142 72.2236 36.7239 72.5148 36.9483 72.8812C37.1728 73.2477 37.285 73.6554 37.285 74.1043C37.285 74.4253 37.2267 74.7392 37.1103 75.046C36.9966 75.35 36.7978 75.6895 36.5137 76.0645C36.2324 76.4366 35.8418 76.8912 35.3418 77.4281L33.3816 79.5247V79.5929H37.4384V80.5304H31.9327Z" fill="#F57C00"/>
<path d="M42.1262 57.0544H53.8563" stroke="#263238" stroke-linecap="round" stroke-linejoin="round"/>
<path d="M66.7554 60.045H73.7922" stroke="#263238" stroke-linecap="round" stroke-linejoin="round"/>
<path d="M49.1636 60.045H63.8277" stroke="#263238" stroke-linecap="round" stroke-linejoin="round"/>
<path d="M42.1262 60.045H45.9368" stroke="#263238" stroke-linecap="round" stroke-linejoin="round"/>
</svg>
