<svg width="200" height="147" viewBox="0 0 200 147" fill="none" xmlns="http://www.w3.org/2000/svg">
<path d="M29.2892 134.326C68.3392 150.776 131.661 150.776 170.711 134.326C209.761 117.877 209.765 91.2087 170.711 74.7592C131.656 58.3098 68.3392 58.3098 29.2892 74.7592C-9.76076 91.2087 -9.7654 117.877 29.2892 134.326Z" fill="#F5F5F5"/>
<path d="M130.518 130.166C142.294 130.166 151.84 126.498 151.84 121.973C151.84 117.448 142.294 113.78 130.518 113.78C118.742 113.78 109.195 117.448 109.195 121.973C109.195 126.498 118.742 130.166 130.518 130.166Z" fill="#EBEBEB"/>
<path d="M168.29 111.481C177.376 111.481 184.741 108.651 184.741 105.161C184.741 101.67 177.376 98.8399 168.29 98.8399C159.205 98.8399 151.84 101.67 151.84 105.161C151.84 108.651 159.205 111.481 168.29 111.481Z" fill="#EBEBEB"/>
<path d="M51.0428 103.389C50.114 99.4353 46.7143 93.7998 42.5668 90.6582C38.5773 87.6402 32.6557 86.588 30.2964 87.9809C27.937 89.3739 29.4836 92.3844 34.063 96.054C39.2322 100.192 49.1572 111.672 51.0428 118.176V103.389Z" fill="#F57C00"/>
<g opacity="0.2">
<path d="M51.0424 103.389C50.1135 99.4352 46.7138 93.7998 42.5663 90.6582C38.5768 87.6402 32.6552 86.588 30.2959 87.9809C27.9365 89.3738 29.4831 92.3844 34.0625 96.054C39.2317 100.192 49.1567 111.672 51.0424 118.176V103.389Z" fill="black"/>
</g>
<path d="M51.0429 112.904C50.9847 112.903 50.9288 112.885 50.886 112.854C50.8432 112.822 50.8163 112.779 50.8106 112.732C49.6402 102.772 41.0017 91.5756 32.6975 89.2428C32.6396 89.2258 32.5921 89.1913 32.5652 89.1465C32.5383 89.1018 32.5341 89.0504 32.5536 89.0032C32.5746 88.9564 32.6174 88.9181 32.6729 88.8965C32.7285 88.8748 32.7923 88.8714 32.8508 88.8871C41.4615 91.3023 50.0768 102.431 51.2844 112.698C51.2896 112.748 51.2707 112.797 51.2317 112.835C51.1927 112.874 51.1366 112.898 51.0754 112.904H51.0429Z" fill="white"/>
<path d="M51.0431 122.958C51.0431 122.958 49.4361 123.991 44.0765 123.587C38.7169 123.183 35.9535 120.093 35.9535 118.768C35.9535 117.442 40.8812 117.214 41.9494 113.926C40.8628 114.865 39.4173 115.484 37.8437 115.683C35.0571 116.106 32.8185 115.387 32.1822 111.294C33.5557 111.456 34.9569 111.362 36.2786 111.021C38.4847 110.448 39.0095 109.47 38.4336 109.261C37.8577 109.051 34.7831 109.261 32.8139 108.658C30.8447 108.055 32.3494 99.7872 33.6406 99.1994C34.9317 98.6115 41.0391 99.9969 42.228 100.738C43.287 101.397 44.7732 102.539 44.0858 104.955C44.9 104.341 45.5346 103.589 45.9436 102.753C46.5195 101.63 46.9375 101.892 47.8013 102.322C48.32 102.558 48.7703 102.88 49.1219 103.268C49.4736 103.655 49.7185 104.099 49.8402 104.569C50.0492 105.617 49.7102 109.235 47.8803 110.41C47.8803 110.41 49.6358 110.59 51.071 108.201C51.071 108.201 53.8576 109.107 54.4892 110.575C55.1209 112.043 55.8082 119.229 51.0431 122.958Z" fill="#F57C00"/>
<path d="M51.5169 123.774C51.4601 123.774 51.4054 123.757 51.3628 123.727C51.3202 123.696 51.2924 123.655 51.2847 123.61C50.0585 115.518 42.4278 104.887 34.9457 100.896C34.894 100.868 34.8581 100.825 34.8459 100.775C34.8337 100.726 34.8462 100.675 34.8807 100.633C34.9152 100.592 34.9688 100.563 35.0298 100.553C35.0907 100.543 35.1541 100.553 35.2058 100.581C42.7808 104.644 50.5323 115.383 51.7444 123.565C51.7524 123.614 51.7358 123.663 51.6983 123.703C51.6609 123.742 51.6057 123.768 51.5447 123.774H51.5169Z" fill="white"/>
<path d="M51.987 124.905C51.7099 124.75 51.4815 124.546 51.3203 124.307C51.159 124.068 51.0692 123.803 51.0581 123.531V34.0718C51.0771 33.7903 51.1782 33.5163 51.3534 33.2723C51.5285 33.0283 51.7727 32.8211 52.0659 32.6676L121.732 0.232993C122.023 0.0857409 122.358 0.00527158 122.702 0.000243372C123.046 -0.00478484 123.384 0.0658174 123.682 0.204455C123.98 0.343092 124.225 0.544519 124.391 0.787066C124.557 1.02961 124.638 1.3041 124.625 1.581L53.9376 124.875C53.6383 125.004 53.3057 125.073 52.9667 125.078C52.6278 125.084 52.2921 125.024 51.987 124.905Z" fill="#E0E0E0"/>
<path d="M52.9296 35.7718L81.2278 20.8426L79.3422 19.9626L52.0518 32.6676C51.7585 32.8211 51.5143 33.0283 51.3392 33.2723C51.1641 33.5163 51.0629 33.7903 51.0439 34.0718V34.8918L52.9296 35.7718Z" fill="#37474F"/>
<path opacity="0.2" d="M52.9296 35.7718L81.2278 20.8426L79.3422 19.9626L52.0518 32.6676C51.7585 32.8211 51.5143 33.0283 51.3392 33.2723C51.1641 33.5163 51.0629 33.7903 51.0439 34.0718V34.8918L52.9296 35.7718Z" fill="#37474F"/>
<path d="M62.3811 38.4041L51.3367 33.2817C51.1568 33.5232 51.0561 33.7977 51.0441 34.0793V123.523C51.0321 123.8 51.1138 124.074 51.2804 124.316C51.4469 124.558 51.692 124.759 51.9895 124.897C52.2869 125.035 52.6254 125.106 52.9686 125.1C53.3118 125.095 53.6468 125.015 53.9376 124.868L62.3811 120.955V38.4041Z" fill="#263238"/>
<path opacity="0.4" d="M62.3811 38.4041L51.3367 33.2817C51.1568 33.5232 51.0561 33.7977 51.0441 34.0793V123.523C51.0321 123.8 51.1138 124.074 51.2804 124.316C51.4469 124.558 51.692 124.759 51.9895 124.897C52.2869 125.035 52.6254 125.106 52.9686 125.1C53.3118 125.095 53.6468 125.015 53.9376 124.868L62.3811 120.955V38.4041Z" fill="#263238"/>
<path d="M53.9375 124.875L123.603 92.4406C123.897 92.2871 124.141 92.0799 124.316 91.8359C124.491 91.5918 124.592 91.3179 124.611 91.0364V1.581C124.611 1.06427 124.147 0.854575 123.603 1.11294L53.9375 33.5476C53.6442 33.7011 53.4001 33.9083 53.225 34.1523C53.0498 34.3963 52.9486 34.6702 52.9297 34.9517V124.407C52.9297 124.924 53.3802 125.134 53.9375 124.875Z" fill="#455A64"/>
<path opacity="0.1" d="M53.9375 124.875L123.603 92.4406C123.897 92.2871 124.141 92.0799 124.316 91.8359C124.491 91.5918 124.592 91.3179 124.611 91.0364V1.581C124.611 1.06427 124.147 0.854575 123.603 1.11294L53.9375 33.5476C53.6442 33.7011 53.4001 33.9083 53.225 34.1523C53.0498 34.3963 52.9486 34.6702 52.9297 34.9517V124.407C52.9297 124.924 53.3802 125.134 53.9375 124.875Z" fill="#455A64"/>
<path d="M58.7166 55.6137L75.4364 47.8252C76.5464 47.3085 77.4474 47.6754 77.4474 48.6453C77.3978 49.1898 77.1899 49.7172 76.8405 50.1849C76.4911 50.6527 76.0101 51.0475 75.4364 51.3375L58.7166 59.126C57.6019 59.6428 56.7056 59.2758 56.7056 58.306C56.7541 57.7613 56.9616 57.2335 57.311 56.7656C57.6605 56.2978 58.1421 55.9031 58.7166 55.6137Z" fill="#F57C00"/>
<path d="M58.7166 61.1406L69.7842 55.9882C70.8942 55.4714 71.7952 55.8384 71.7952 56.8082C71.7455 57.3527 71.5376 57.8802 71.1883 58.3479C70.8389 58.8156 70.3579 59.2104 69.7842 59.5005L58.7166 64.6529C57.6019 65.1696 56.7056 64.8026 56.7056 63.8328C56.7541 63.2881 56.9616 62.7603 57.311 62.2924C57.6605 61.8246 58.1421 61.4299 58.7166 61.1406Z" fill="#F57C00"/>
<path d="M57.509 70.5991L59.6733 69.5918C60.1378 69.3859 60.4768 69.5544 60.4768 69.9663V71.9808C60.4617 72.2058 60.3811 72.4247 60.2415 72.6199C60.1019 72.815 59.9073 72.9809 59.6733 73.1041L57.509 74.0964C57.0446 74.3061 56.7056 74.1376 56.7056 73.722V71.7074C56.7238 71.4851 56.8059 71.2693 56.9454 71.077C57.0848 70.8846 57.2778 70.721 57.509 70.5991Z" fill="#F57C00"/>
<path opacity="0.2" d="M57.509 70.5991L59.6733 69.5918C60.1378 69.3859 60.4768 69.5544 60.4768 69.9663V71.9808C60.4617 72.2058 60.3811 72.4247 60.2415 72.6199C60.1019 72.815 59.9073 72.9809 59.6733 73.1041L57.509 74.0964C57.0446 74.3061 56.7056 74.1376 56.7056 73.722V71.7074C56.7238 71.4851 56.8059 71.2693 56.9454 71.077C57.0848 70.8846 57.2778 70.721 57.509 70.5991Z" fill="black"/>
<path d="M57.509 77.6274L59.6733 76.6202C60.1378 76.4105 60.4768 76.579 60.4768 76.9946V79.0092C60.4606 79.2339 60.3796 79.4525 60.2401 79.6475C60.1006 79.8426 59.9065 80.0086 59.6733 80.1325L57.509 81.1398C57.0446 81.3457 56.7056 81.1772 56.7056 80.7653V78.7508C56.7199 78.5257 56.8002 78.3065 56.9399 78.1113C57.0795 77.916 57.2746 77.7502 57.509 77.6274Z" fill="#F57C00"/>
<g opacity="0.2">
<path d="M57.509 77.6274L59.6733 76.6202C60.1378 76.4105 60.4768 76.579 60.4768 76.9946V79.0092C60.4606 79.2339 60.3796 79.4525 60.2401 79.6475C60.1006 79.8426 59.9065 80.0086 59.6733 80.1325L57.509 81.1398C57.0446 81.3457 56.7056 81.1772 56.7056 80.7653V78.7508C56.7199 78.5257 56.8002 78.3065 56.9399 78.1113C57.0795 77.916 57.2746 77.7502 57.509 77.6274Z" fill="black"/>
</g>
<path d="M63.3701 75.7777L76.4487 69.6854C77.006 69.4271 77.4566 69.6106 77.4566 70.0973C77.4313 70.3695 77.3269 70.633 77.1518 70.8665C76.9767 71.1001 76.7358 71.2971 76.4487 71.4416L63.3701 77.5338C62.8128 77.7922 62.3623 77.6087 62.3623 77.122C62.3875 76.8498 62.4919 76.5863 62.667 76.3528C62.8421 76.1192 63.083 75.9222 63.3701 75.7777Z" fill="#F57C00"/>
<path opacity="0.2" d="M63.3701 75.7777L76.4487 69.6854C77.006 69.4271 77.4566 69.6106 77.4566 70.0973C77.4313 70.3695 77.3269 70.633 77.1518 70.8665C76.9767 71.1001 76.7358 71.2971 76.4487 71.4416L63.3701 77.5338C62.8128 77.7922 62.3623 77.6087 62.3623 77.122C62.3875 76.8498 62.4919 76.5863 62.667 76.3528C62.8421 76.1192 63.083 75.9222 63.3701 75.7777Z" fill="black"/>
<path d="M57.509 84.6521L59.6733 83.6448C60.1378 83.4351 60.4768 83.6036 60.4768 84.0193V86.0338C60.461 86.2586 60.3801 86.4773 60.2406 86.6724C60.101 86.8675 59.9068 87.0335 59.6733 87.1571L57.509 88.1644C57.0446 88.3703 56.7056 88.2018 56.7056 87.7899V85.7754C56.7199 85.5503 56.8002 85.3312 56.9399 85.1359C57.0795 84.9406 57.2746 84.7748 57.509 84.6521Z" fill="#E0E0E0"/>
<path d="M63.3701 82.8023L76.4487 76.7175C77.006 76.4592 77.4566 76.6427 77.4566 77.1294C77.432 77.4017 77.3279 77.6655 77.1528 77.8991C76.9776 78.1327 76.7364 78.3296 76.4487 78.4737L63.3701 84.566C62.8128 84.8243 62.3623 84.6408 62.3623 84.1541C62.3861 83.8806 62.4898 83.6156 62.665 83.3807C62.8402 83.1457 63.0818 82.9476 63.3701 82.8023Z" fill="#F0F0F0"/>
<path d="M57.509 91.6954L59.6733 90.6882C60.1378 90.4785 60.4768 90.647 60.4768 91.0626V93.0771C60.461 93.302 60.3801 93.5207 60.2406 93.7158C60.101 93.9108 59.9068 94.0768 59.6733 94.2005L57.509 95.2077C57.0446 95.4137 56.7056 95.2452 56.7056 94.8333V92.8188C56.7199 92.5937 56.8002 92.3745 56.9399 92.1792C57.0795 91.984 57.2746 91.8182 57.509 91.6954Z" fill="#E0E0E0"/>
<path d="M63.3701 89.8457L76.4487 83.7571C77.006 83.495 77.4566 83.6823 77.4566 84.1653C77.432 84.4381 77.328 84.7024 77.1528 84.9366C76.9777 85.1708 76.7365 85.3684 76.4487 85.5133L63.3701 91.6018C62.8128 91.8602 62.3623 91.6767 62.3623 91.1899C62.3875 90.9178 62.4919 90.6543 62.667 90.4207C62.8421 90.1872 63.083 89.9902 63.3701 89.8457Z" fill="#F0F0F0"/>
<path d="M57.509 98.7201L59.6733 97.7128C60.1378 97.5031 60.4768 97.6716 60.4768 98.0872V100.102C60.461 100.327 60.3801 100.545 60.2406 100.74C60.101 100.935 59.9068 101.101 59.6733 101.225L57.509 102.232C57.0446 102.438 56.7056 102.27 56.7056 101.858V99.8434C56.7199 99.6183 56.8002 99.3991 56.9399 99.2039C57.0795 99.0086 57.2746 98.8428 57.509 98.7201Z" fill="#E0E0E0"/>
<path d="M63.3701 96.8703L76.4487 90.7818C77.006 90.5197 77.4566 90.7069 77.4566 91.1899C77.432 91.4627 77.328 91.727 77.1528 91.9612C76.9777 92.1955 76.7365 92.3931 76.4487 92.5379L63.3701 98.6264C62.8128 98.8848 62.3623 98.7013 62.3623 98.2146C62.3875 97.9424 62.4919 97.6789 62.667 97.4454C62.8421 97.2118 63.083 97.0148 63.3701 96.8703Z" fill="#F0F0F0"/>
<path d="M57.7088 105.632L66.9975 101.3C67.5549 101.042 68.0054 101.225 68.0054 101.712C67.9801 101.984 67.8757 102.248 67.7006 102.481C67.5255 102.715 67.2847 102.912 66.9975 103.056L57.7088 107.388C57.1561 107.647 56.7056 107.463 56.7056 106.98C56.73 106.708 56.8335 106.444 57.0077 106.21C57.182 105.976 57.4221 105.778 57.7088 105.632Z" fill="#F57C00"/>
<path d="M57.7088 109.145L76.4488 100.424C77.0062 100.165 77.4567 100.349 77.4567 100.832C77.4322 101.105 77.3281 101.369 77.153 101.603C76.9778 101.837 76.7366 102.035 76.4488 102.18L57.7088 110.901C57.1561 111.159 56.7056 110.976 56.7056 110.493C56.73 110.22 56.8335 109.956 57.0077 109.722C57.182 109.488 57.4221 109.29 57.7088 109.145Z" fill="#F57C00"/>
<path opacity="0.8" d="M57.7088 109.145L76.4488 100.424C77.0062 100.165 77.4567 100.349 77.4567 100.832C77.4322 101.105 77.3281 101.369 77.153 101.603C76.9778 101.837 76.7366 102.035 76.4488 102.18L57.7088 110.901C57.1561 111.159 56.7056 110.976 56.7056 110.493C56.73 110.22 56.8335 109.956 57.0077 109.722C57.182 109.488 57.4221 109.29 57.7088 109.145Z" fill="white"/>
<path d="M57.7088 109.145L70.792 103.056C71.3447 102.798 71.7952 102.981 71.7952 103.468C71.7701 103.74 71.6662 104.003 71.492 104.236C71.3178 104.47 71.078 104.667 70.792 104.812L57.7088 110.901C57.1561 111.159 56.7056 110.976 56.7056 110.493C56.73 110.22 56.8335 109.956 57.0077 109.722C57.182 109.488 57.4221 109.29 57.7088 109.145Z" fill="#F57C00"/>
<path d="M57.7088 112.664L66.9975 108.332C67.5549 108.074 68.0054 108.257 68.0054 108.744C67.9801 109.016 67.8757 109.28 67.7006 109.513C67.5255 109.747 67.2847 109.944 66.9975 110.088L57.7088 114.421C57.1561 114.679 56.7056 114.496 56.7056 114.012C56.73 113.74 56.8335 113.476 57.0077 113.242C57.182 113.008 57.4221 112.81 57.7088 112.664Z" fill="#F57C00"/>
<path d="M63.3701 68.7493L76.4487 62.6608C77.006 62.4024 77.4566 62.5859 77.4566 63.0727C77.4313 63.3448 77.3269 63.6083 77.1518 63.8419C76.9767 64.0754 76.7358 64.2724 76.4487 64.417L63.3701 70.5055C62.8128 70.7638 62.3623 70.5804 62.3623 70.0973C62.3868 69.8245 62.4909 69.5603 62.666 69.326C62.8412 69.0918 63.0824 68.8942 63.3701 68.7493Z" fill="#F57C00"/>
<path opacity="0.2" d="M63.3701 68.7493L76.4487 62.6608C77.006 62.4024 77.4566 62.5859 77.4566 63.0727C77.4313 63.3448 77.3269 63.6083 77.1518 63.8419C76.9767 64.0754 76.7358 64.2724 76.4487 64.417L63.3701 70.5055C62.8128 70.7638 62.3623 70.5804 62.3623 70.0973C62.3868 69.8245 62.4909 69.5603 62.666 69.326C62.8412 69.0918 63.0824 68.8942 63.3701 68.7493Z" fill="black"/>
<path d="M57.7088 112.664L66.9975 108.332C67.5549 108.074 68.0054 108.257 68.0054 108.744C67.9801 109.016 67.8757 109.28 67.7006 109.513C67.5255 109.747 67.2847 109.944 66.9975 110.088L57.7088 114.421C57.1561 114.679 56.7056 114.496 56.7056 114.012C56.73 113.74 56.8335 113.476 57.0077 113.242C57.182 113.008 57.4221 112.81 57.7088 112.664Z" fill="#F57C00"/>
<path d="M57.7088 116.166L76.4488 107.445C77.0062 107.186 77.4567 107.37 77.4567 107.853C77.4322 108.126 77.3281 108.39 77.153 108.624C76.9778 108.858 76.7366 109.056 76.4488 109.201L57.7088 117.907C57.1561 118.169 56.7056 117.982 56.7056 117.499C56.7328 117.229 56.8376 116.968 57.0117 116.736C57.1859 116.505 57.4245 116.31 57.7088 116.166Z" fill="#F57C00"/>
<path opacity="0.8" d="M57.7088 116.166L76.4488 107.445C77.0062 107.186 77.4567 107.37 77.4567 107.853C77.4322 108.126 77.3281 108.39 77.153 108.624C76.9778 108.858 76.7366 109.056 76.4488 109.201L57.7088 117.907C57.1561 118.169 56.7056 117.982 56.7056 117.499C56.7328 117.229 56.8376 116.968 57.0117 116.736C57.1859 116.505 57.4245 116.31 57.7088 116.166Z" fill="white"/>
<path d="M57.7088 116.166L74.5632 108.302C75.1206 108.044 75.5711 108.227 75.5711 108.714C75.5458 108.986 75.4414 109.25 75.2663 109.483C75.0912 109.717 74.8504 109.914 74.5632 110.058L57.7088 117.922C57.1561 118.184 56.7056 117.997 56.7056 117.514C56.73 117.241 56.8335 116.977 57.0077 116.743C57.182 116.509 57.4221 116.311 57.7088 116.166Z" fill="#F57C00"/>
<path d="M123.613 1.11294L81.228 20.8426V112.17L123.613 92.4443C123.906 92.2908 124.15 92.0836 124.325 91.8396C124.5 91.5956 124.602 91.3217 124.621 91.0402V1.581C124.616 1.07924 124.151 0.854575 123.613 1.11294Z" fill="#EBEBEB"/>
<path opacity="0.6" d="M123.613 1.11294L81.228 20.8426V112.17L123.613 92.4443C123.906 92.2908 124.15 92.0836 124.325 91.8396C124.5 91.5956 124.602 91.3217 124.621 91.0402V1.581C124.616 1.07924 124.151 0.854575 123.613 1.11294Z" fill="#FAFAFA"/>
<path d="M81.2278 24.3549V31.3795L77.4565 34.8918H81.2278V41.9165L120.844 23.4749V5.91336L81.2278 24.3549Z" fill="#F57C00"/>
<g opacity="0.6">
<path d="M86.4104 24.5983L102.461 17.1093C103.237 16.7349 103.855 17.0419 103.855 17.7646C103.829 18.1573 103.69 18.5396 103.448 18.881C103.206 19.2224 102.868 19.5133 102.461 19.7304L86.4104 27.2007C85.6301 27.5751 85.0171 27.2681 85.0171 26.5454C85.0451 26.1558 85.1857 25.7768 85.4276 25.4387C85.6695 25.1007 86.0061 24.8129 86.4104 24.5983Z" fill="white"/>
</g>
<path d="M85.5055 30.2861L116.572 15.825C116.85 15.6977 117.073 15.7875 117.073 16.0309C117.061 16.1671 117.01 16.2992 116.923 16.4163C116.835 16.5334 116.715 16.6323 116.572 16.7049L85.5055 31.1473C85.2268 31.2747 85.0039 31.1848 85.0039 30.9414C85.0194 30.8084 85.0727 30.6801 85.1597 30.5665C85.2467 30.4529 85.365 30.3569 85.5055 30.2861Z" fill="#F57C00"/>
<path d="M85.5055 30.2861L116.572 15.825C116.85 15.6977 117.073 15.7875 117.073 16.0309C117.061 16.1671 117.01 16.2992 116.923 16.4163C116.835 16.5334 116.715 16.6323 116.572 16.7049L85.5055 31.1473C85.2268 31.2747 85.0039 31.1848 85.0039 30.9414C85.0194 30.8084 85.0727 30.6801 85.1597 30.5665C85.2467 30.4529 85.365 30.3569 85.5055 30.2861Z" fill="#F57C00"/>
<path opacity="0.6" d="M85.5055 30.2861L116.572 15.825C116.85 15.6977 117.073 15.7875 117.073 16.0309C117.061 16.1671 117.01 16.2992 116.923 16.4163C116.835 16.5334 116.715 16.6323 116.572 16.7049L85.5055 31.1473C85.2268 31.2747 85.0039 31.1848 85.0039 30.9414C85.0194 30.8084 85.0727 30.6801 85.1597 30.5665C85.2467 30.4529 85.365 30.3569 85.5055 30.2861Z" fill="white"/>
<path d="M85.5055 32.9072L116.572 18.4461C116.85 18.315 117.073 18.4087 117.073 18.652C117.061 18.7878 117.01 18.9193 116.922 19.0358C116.835 19.1523 116.715 19.2505 116.572 19.3223L85.5055 33.7834C85.2268 33.9145 85.0039 33.8209 85.0039 33.5775C85.0159 33.4418 85.0676 33.3103 85.1548 33.1938C85.242 33.0773 85.3622 32.9791 85.5055 32.9072Z" fill="#F57C00"/>
<path opacity="0.6" d="M85.5055 32.9072L116.572 18.4461C116.85 18.315 117.073 18.4087 117.073 18.652C117.061 18.7878 117.01 18.9193 116.922 19.0358C116.835 19.1523 116.715 19.2505 116.572 19.3223L85.5055 33.7834C85.2268 33.9145 85.0039 33.8209 85.0039 33.5775C85.0159 33.4418 85.0676 33.3103 85.1548 33.1938C85.242 33.0773 85.3622 32.9791 85.5055 32.9072Z" fill="white"/>
<path opacity="0.6" d="M85.5055 35.5284L116.572 21.0672C116.85 20.9399 117.073 21.0298 117.073 21.2732C117.061 21.4094 117.01 21.5414 116.923 21.6585C116.835 21.7756 116.715 21.8745 116.572 21.9472L85.5055 36.4083C85.2268 36.5356 85.0039 36.4458 85.0039 36.2024C85.0159 36.0662 85.0676 35.9341 85.1547 35.817C85.2419 35.6999 85.3621 35.601 85.5055 35.5284Z" fill="white"/>
<path d="M86.6758 42.905L88.854 41.894C89.3184 41.6843 89.6575 41.8528 89.6575 42.2684V44.2829C89.642 44.5078 89.5613 44.7267 89.4217 44.9218C89.2822 45.1169 89.0877 45.2829 88.854 45.4063L86.6897 46.4135C86.2253 46.6195 85.8862 46.451 85.8862 46.0391V44.0283C85.899 43.8042 85.9772 43.5857 86.1144 43.3905C86.2515 43.1953 86.4439 43.029 86.6758 42.905Z" fill="#F57C00"/>
<path opacity="0.2" d="M86.6758 42.905L88.854 41.894C89.3184 41.6843 89.6575 41.8528 89.6575 42.2684V44.2829C89.642 44.5078 89.5613 44.7267 89.4217 44.9218C89.2822 45.1169 89.0877 45.2829 88.854 45.4063L86.6897 46.4135C86.2253 46.6195 85.8862 46.451 85.8862 46.0391V44.0283C85.899 43.8042 85.9772 43.5857 86.1144 43.3905C86.2515 43.1953 86.4439 43.029 86.6758 42.905Z" fill="white"/>
<path d="M92.5371 41.0552L105.616 34.963C106.173 34.7046 106.624 34.8881 106.624 35.3748C106.598 35.647 106.494 35.9105 106.319 36.144C106.144 36.3776 105.903 36.5746 105.616 36.7191L92.5371 42.8114C91.9798 43.0697 91.5293 42.8863 91.5293 42.3995C91.5545 42.1273 91.6589 41.8638 91.834 41.6303C92.0091 41.3967 92.25 41.1997 92.5371 41.0552Z" fill="#F57C00"/>
<path opacity="0.8" d="M92.5371 41.0552L105.616 34.963C106.173 34.7046 106.624 34.8881 106.624 35.3748C106.598 35.647 106.494 35.9105 106.319 36.144C106.144 36.3776 105.903 36.5746 105.616 36.7191L92.5371 42.8114C91.9798 43.0697 91.5293 42.8863 91.5293 42.3995C91.5545 42.1273 91.6589 41.8638 91.834 41.6303C92.0091 41.3967 92.25 41.1997 92.5371 41.0552Z" fill="white"/>
<path d="M86.3737 49.1957L119.349 33.8434C119.627 33.7123 119.85 33.8059 119.85 34.0456C119.839 34.1819 119.787 34.314 119.7 34.4312C119.613 34.5483 119.492 34.6471 119.349 34.7196L86.3737 50.0719C86.095 50.203 85.8721 50.1093 85.8721 49.8659C85.8841 49.7302 85.9358 49.5987 86.023 49.4822C86.1101 49.3657 86.2303 49.2675 86.3737 49.1957Z" fill="#F57C00"/>
<path d="M86.3737 51.828L119.349 36.4757C119.627 36.3484 119.85 36.4383 119.85 36.6817C119.838 36.8179 119.787 36.9499 119.7 37.067C119.612 37.1841 119.492 37.283 119.349 37.3557L86.3737 52.708C86.095 52.8353 85.8721 52.7454 85.8721 52.5021C85.8841 52.3658 85.9358 52.2338 86.0229 52.1167C86.1101 51.9996 86.2302 51.9007 86.3737 51.828Z" fill="#F57C00"/>
<path d="M86.3737 54.4642L119.349 39.1118C119.627 38.9808 119.85 39.0744 119.85 39.314C119.839 39.4503 119.787 39.5825 119.7 39.6996C119.613 39.8168 119.492 39.9156 119.349 39.988L86.3737 55.3404C86.095 55.4714 85.8721 55.3778 85.8721 55.1382C85.8837 55.0019 85.9352 54.8697 86.0224 54.7526C86.1096 54.6354 86.23 54.5366 86.3737 54.4642Z" fill="#F57C00"/>
<path d="M86.3737 57.104L119.349 41.7517C119.627 41.6244 119.85 41.7142 119.85 41.9576C119.838 42.0939 119.787 42.2259 119.7 42.343C119.612 42.4601 119.492 42.559 119.349 42.6316L86.3737 57.984C86.095 58.1113 85.8721 58.0214 85.8721 57.778C85.8841 57.6418 85.9358 57.5098 86.0229 57.3927C86.1101 57.2756 86.2302 57.1767 86.3737 57.104Z" fill="#F57C00"/>
<path d="M86.3737 49.1957L119.349 33.8434C119.627 33.7123 119.85 33.8059 119.85 34.0456C119.839 34.1819 119.787 34.314 119.7 34.4312C119.613 34.5483 119.492 34.6471 119.349 34.7196L86.3737 50.0719C86.095 50.203 85.8721 50.1093 85.8721 49.8659C85.8841 49.7302 85.9358 49.5987 86.023 49.4822C86.1101 49.3657 86.2303 49.2675 86.3737 49.1957Z" fill="#E0E0E0"/>
<path d="M86.3737 51.828L119.349 36.4757C119.627 36.3484 119.85 36.4383 119.85 36.6817C119.838 36.8179 119.787 36.9499 119.7 37.067C119.612 37.1841 119.492 37.283 119.349 37.3557L86.3737 52.708C86.095 52.8353 85.8721 52.7454 85.8721 52.5021C85.8841 52.3658 85.9358 52.2338 86.0229 52.1167C86.1101 51.9996 86.2302 51.9007 86.3737 51.828Z" fill="#E0E0E0"/>
<path d="M86.3737 54.4642L119.349 39.1118C119.627 38.9808 119.85 39.0744 119.85 39.314C119.839 39.4503 119.787 39.5825 119.7 39.6996C119.613 39.8168 119.492 39.9156 119.349 39.988L86.3737 55.3404C86.095 55.4714 85.8721 55.3778 85.8721 55.1382C85.8837 55.0019 85.9352 54.8697 86.0224 54.7526C86.1096 54.6354 86.23 54.5366 86.3737 54.4642Z" fill="#E0E0E0"/>
<path d="M86.3737 57.104L119.349 41.7517C119.627 41.6244 119.85 41.7142 119.85 41.9576C119.838 42.0939 119.787 42.2259 119.7 42.343C119.612 42.4601 119.492 42.559 119.349 42.6316L86.3737 57.984C86.095 58.1113 85.8721 58.0214 85.8721 57.778C85.8841 57.6418 85.9358 57.5098 86.0229 57.3927C86.1101 57.2756 86.2302 57.1767 86.3737 57.104Z" fill="#E0E0E0"/>
<path opacity="0.8" d="M86.3737 49.1957L119.349 33.8434C119.627 33.7123 119.85 33.8059 119.85 34.0456C119.839 34.1819 119.787 34.314 119.7 34.4312C119.613 34.5483 119.492 34.6471 119.349 34.7196L86.3737 50.0719C86.095 50.203 85.8721 50.1093 85.8721 49.8659C85.8841 49.7302 85.9358 49.5987 86.023 49.4822C86.1101 49.3657 86.2303 49.2675 86.3737 49.1957Z" fill="#E0E0E0"/>
<path opacity="0.8" d="M86.3737 51.828L119.349 36.4757C119.627 36.3484 119.85 36.4383 119.85 36.6817C119.838 36.8179 119.787 36.9499 119.7 37.067C119.612 37.1841 119.492 37.283 119.349 37.3557L86.3737 52.708C86.095 52.8353 85.8721 52.7454 85.8721 52.5021C85.8841 52.3658 85.9358 52.2338 86.0229 52.1167C86.1101 51.9996 86.2302 51.9007 86.3737 51.828Z" fill="#E0E0E0"/>
<path opacity="0.8" d="M86.3737 54.4642L119.349 39.1118C119.627 38.9808 119.85 39.0744 119.85 39.314C119.839 39.4503 119.787 39.5825 119.7 39.6996C119.613 39.8168 119.492 39.9156 119.349 39.988L86.3737 55.3404C86.095 55.4714 85.8721 55.3778 85.8721 55.1382C85.8837 55.0019 85.9352 54.8697 86.0224 54.7526C86.1096 54.6354 86.23 54.5366 86.3737 54.4642Z" fill="#E0E0E0"/>
<path opacity="0.8" d="M86.3737 57.104L119.349 41.7517C119.627 41.6244 119.85 41.7142 119.85 41.9576C119.838 42.0939 119.787 42.2259 119.7 42.343C119.612 42.4601 119.492 42.559 119.349 42.6316L86.3737 57.984C86.095 58.1113 85.8721 58.0214 85.8721 57.778C85.8841 57.6418 85.9358 57.5098 86.0229 57.3927C86.1101 57.2756 86.2302 57.1767 86.3737 57.104Z" fill="#E0E0E0"/>
<path d="M86.3737 68.2925L119.349 52.9402C119.627 52.8091 119.85 52.9027 119.85 53.1424C119.839 53.2787 119.787 53.4108 119.7 53.528C119.613 53.6451 119.492 53.7439 119.349 53.8164L86.3737 69.1687C86.095 69.2998 85.8721 69.2061 85.8721 68.9627C85.8841 68.827 85.9358 68.6955 86.023 68.579C86.1101 68.4625 86.2303 68.3643 86.3737 68.2925Z" fill="#E0E0E0"/>
<path d="M86.3737 70.9249L119.349 55.5725C119.627 55.4452 119.85 55.5351 119.85 55.7785C119.838 55.9147 119.787 56.0467 119.7 56.1638C119.612 56.2809 119.492 56.3798 119.349 56.4525L86.3737 71.8048C86.095 71.9321 85.8721 71.8422 85.8721 71.5989C85.8841 71.4626 85.9358 71.3306 86.0229 71.2135C86.1101 71.0964 86.2302 70.9975 86.3737 70.9249Z" fill="#E0E0E0"/>
<path d="M86.3737 73.561L119.349 58.2086C119.627 58.0776 119.85 58.1712 119.85 58.4108C119.839 58.5471 119.787 58.6793 119.7 58.7964C119.613 58.9136 119.492 59.0124 119.349 59.0848L86.3737 74.4372C86.095 74.5682 85.8721 74.4746 85.8721 74.235C85.8837 74.0987 85.9352 73.9665 86.0224 73.8494C86.1096 73.7322 86.23 73.6334 86.3737 73.561Z" fill="#E0E0E0"/>
<path d="M86.3737 76.2008L119.349 60.8485C119.627 60.7212 119.85 60.811 119.85 61.0544C119.838 61.1906 119.787 61.3227 119.7 61.4398C119.612 61.5569 119.492 61.6558 119.349 61.7284L86.3737 77.0808C86.095 77.2081 85.8721 77.1182 85.8721 76.8748C85.8841 76.7386 85.9358 76.6066 86.0229 76.4895C86.1101 76.3723 86.2302 76.2735 86.3737 76.2008Z" fill="#E0E0E0"/>
<path opacity="0.8" d="M86.3737 68.2925L119.349 52.9402C119.627 52.8091 119.85 52.9027 119.85 53.1424C119.839 53.2787 119.787 53.4108 119.7 53.528C119.613 53.6451 119.492 53.7439 119.349 53.8164L86.3737 69.1687C86.095 69.2998 85.8721 69.2061 85.8721 68.9627C85.8841 68.827 85.9358 68.6955 86.023 68.579C86.1101 68.4625 86.2303 68.3643 86.3737 68.2925Z" fill="#E0E0E0"/>
<path opacity="0.8" d="M86.3737 70.9249L119.349 55.5725C119.627 55.4452 119.85 55.5351 119.85 55.7785C119.838 55.9147 119.787 56.0467 119.7 56.1638C119.612 56.2809 119.492 56.3798 119.349 56.4525L86.3737 71.8048C86.095 71.9321 85.8721 71.8422 85.8721 71.5989C85.8841 71.4626 85.9358 71.3306 86.0229 71.2135C86.1101 71.0964 86.2302 70.9975 86.3737 70.9249Z" fill="#E0E0E0"/>
<path opacity="0.8" d="M86.3737 73.561L119.349 58.2086C119.627 58.0776 119.85 58.1712 119.85 58.4108C119.839 58.5471 119.787 58.6793 119.7 58.7964C119.613 58.9136 119.492 59.0124 119.349 59.0848L86.3737 74.4372C86.095 74.5682 85.8721 74.4746 85.8721 74.235C85.8837 74.0987 85.9352 73.9665 86.0224 73.8494C86.1096 73.7322 86.23 73.6334 86.3737 73.561Z" fill="#E0E0E0"/>
<path opacity="0.8" d="M86.3737 76.2008L119.349 60.8485C119.627 60.7212 119.85 60.811 119.85 61.0544C119.838 61.1906 119.787 61.3227 119.7 61.4398C119.612 61.5569 119.492 61.6558 119.349 61.7284L86.3737 77.0808C86.095 77.2081 85.8721 77.1182 85.8721 76.8748C85.8841 76.7386 85.9358 76.6066 86.0229 76.4895C86.1101 76.3723 86.2302 76.2735 86.3737 76.2008Z" fill="#E0E0E0"/>
<path d="M86.3737 87.7637L119.349 72.4114C119.627 72.2804 119.85 72.374 119.85 72.6136C119.839 72.7499 119.787 72.8821 119.7 72.9992C119.613 73.1164 119.492 73.2152 119.349 73.2876L86.3737 88.6399C86.095 88.771 85.8721 88.6774 85.8721 88.434C85.8841 88.2983 85.9358 88.1668 86.023 88.0503C86.1101 87.9338 86.2303 87.8356 86.3737 87.7637Z" fill="#E0E0E0"/>
<path d="M86.3737 90.3961L119.349 75.0438C119.627 74.9165 119.85 75.0063 119.85 75.2497C119.838 75.3859 119.787 75.518 119.7 75.6351C119.612 75.7522 119.492 75.8511 119.349 75.9237L86.3737 91.276C86.095 91.4034 85.8721 91.3135 85.8721 91.0701C85.8841 90.9339 85.9358 90.8019 86.0229 90.6847C86.1101 90.5676 86.2302 90.4687 86.3737 90.3961Z" fill="#E0E0E0"/>
<path d="M86.3737 93.0322L119.349 77.6799C119.627 77.5488 119.85 77.6424 119.85 77.8821C119.839 78.0184 119.787 78.1505 119.7 78.2677C119.613 78.3848 119.492 78.4837 119.349 78.5561L86.3737 93.9084C86.095 94.0395 85.8721 93.9459 85.8721 93.7062C85.8837 93.5699 85.9352 93.4378 86.0224 93.3206C86.1096 93.2035 86.23 93.1047 86.3737 93.0322Z" fill="#E0E0E0"/>
<path d="M86.3737 95.6721L119.349 80.3197C119.627 80.1924 119.85 80.2823 119.85 80.5257C119.838 80.6619 119.787 80.7939 119.7 80.911C119.612 81.0281 119.492 81.127 119.349 81.1997L86.3737 96.552C86.095 96.6793 85.8721 96.5895 85.8721 96.3461C85.8841 96.2099 85.9358 96.0778 86.0229 95.9607C86.1101 95.8436 86.2302 95.7447 86.3737 95.6721Z" fill="#E0E0E0"/>
<path opacity="0.8" d="M86.3737 87.7637L119.349 72.4114C119.627 72.2804 119.85 72.374 119.85 72.6136C119.839 72.7499 119.787 72.8821 119.7 72.9992C119.613 73.1164 119.492 73.2152 119.349 73.2876L86.3737 88.6399C86.095 88.771 85.8721 88.6774 85.8721 88.434C85.8841 88.2983 85.9358 88.1668 86.023 88.0503C86.1101 87.9338 86.2303 87.8356 86.3737 87.7637Z" fill="#E0E0E0"/>
<path opacity="0.8" d="M86.3737 90.3961L119.349 75.0438C119.627 74.9165 119.85 75.0063 119.85 75.2497C119.838 75.3859 119.787 75.518 119.7 75.6351C119.612 75.7522 119.492 75.8511 119.349 75.9237L86.3737 91.276C86.095 91.4034 85.8721 91.3135 85.8721 91.0701C85.8841 90.9339 85.9358 90.8019 86.0229 90.6847C86.1101 90.5676 86.2302 90.4687 86.3737 90.3961Z" fill="#E0E0E0"/>
<path opacity="0.8" d="M86.3737 93.0322L119.349 77.6799C119.627 77.5488 119.85 77.6424 119.85 77.8821C119.839 78.0184 119.787 78.1505 119.7 78.2677C119.613 78.3848 119.492 78.4837 119.349 78.5561L86.3737 93.9084C86.095 94.0395 85.8721 93.9459 85.8721 93.7062C85.8837 93.5699 85.9352 93.4378 86.0224 93.3206C86.1096 93.2035 86.23 93.1047 86.3737 93.0322Z" fill="#E0E0E0"/>
<path opacity="0.8" d="M86.3737 95.6721L119.349 80.3197C119.627 80.1924 119.85 80.2823 119.85 80.5257C119.838 80.6619 119.787 80.7939 119.7 80.911C119.612 81.0281 119.492 81.127 119.349 81.1997L86.3737 96.552C86.095 96.6793 85.8721 96.5895 85.8721 96.3461C85.8841 96.2099 85.9358 96.0778 86.0229 95.9607C86.1101 95.8436 86.2302 95.7447 86.3737 95.6721Z" fill="#E0E0E0"/>
<path d="M86.6758 62.2227L88.854 61.2154C89.3184 61.0095 89.6575 61.178 89.6575 61.5899V63.6119C89.6431 63.837 89.5628 64.0562 89.4232 64.2514C89.2835 64.4467 89.0885 64.6125 88.854 64.7352L86.6897 65.7425C86.2253 65.9485 85.8862 65.7837 85.8862 65.3681V63.3535C85.8979 63.1282 85.9756 62.9083 86.1128 62.7118C86.25 62.5153 86.4429 62.3477 86.6758 62.2227Z" fill="#F57C00"/>
<path opacity="0.2" d="M86.6758 62.2227L88.854 61.2154C89.3184 61.0095 89.6575 61.178 89.6575 61.5899V63.6119C89.6431 63.837 89.5628 64.0562 89.4232 64.2514C89.2835 64.4467 89.0885 64.6125 88.854 64.7352L86.6897 65.7425C86.2253 65.9485 85.8862 65.7837 85.8862 65.3681V63.3535C85.8979 63.1282 85.9756 62.9083 86.1128 62.7118C86.25 62.5153 86.4429 62.3477 86.6758 62.2227Z" fill="white"/>
<path d="M92.5371 60.3729L105.616 54.2844C106.173 54.0261 106.624 54.2095 106.624 54.6926C106.599 54.9654 106.495 55.2296 106.32 55.4639C106.145 55.6981 105.903 55.8957 105.616 56.0406L92.5371 62.1141C91.9798 62.3725 91.5293 62.189 91.5293 61.706C91.5567 61.4358 91.6621 61.1745 91.8371 60.943C92.0121 60.7116 92.2518 60.5163 92.5371 60.3729Z" fill="#F57C00"/>
<path opacity="0.8" d="M92.5371 60.3729L105.616 54.2844C106.173 54.0261 106.624 54.2095 106.624 54.6926C106.599 54.9654 106.495 55.2296 106.32 55.4639C106.145 55.6981 105.903 55.8957 105.616 56.0406L92.5371 62.1141C91.9798 62.3725 91.5293 62.189 91.5293 61.706C91.5567 61.4358 91.6621 61.1745 91.8371 60.943C92.0121 60.7116 92.2518 60.5163 92.5371 60.3729Z" fill="white"/>
<path d="M86.6758 81.5442L88.854 80.5369C89.3184 80.3272 89.6575 80.4957 89.6575 80.9114V82.9259C89.6428 83.1509 89.5623 83.37 89.4227 83.5652C89.2831 83.7604 89.0882 83.9262 88.854 84.0492L86.6897 85.0565C86.2253 85.2624 85.8862 85.0939 85.8862 84.682V82.6675C85.899 82.4434 85.9772 82.2249 86.1144 82.0297C86.2515 81.8345 86.4439 81.6682 86.6758 81.5442Z" fill="#F57C00"/>
<path opacity="0.2" d="M86.6758 81.5442L88.854 80.5369C89.3184 80.3272 89.6575 80.4957 89.6575 80.9114V82.9259C89.6428 83.1509 89.5623 83.37 89.4227 83.5652C89.2831 83.7604 89.0882 83.9262 88.854 84.0492L86.6897 85.0565C86.2253 85.2624 85.8862 85.0939 85.8862 84.682V82.6675C85.899 82.4434 85.9772 82.2249 86.1144 82.0297C86.2515 81.8345 86.4439 81.6682 86.6758 81.5442Z" fill="white"/>
<path d="M92.5371 79.7131L105.616 73.6209C106.173 73.3625 106.624 73.546 106.624 74.0328C106.599 74.3055 106.494 74.5696 106.319 74.8038C106.144 75.038 105.903 75.2357 105.616 75.3808L92.5371 81.4693C91.9798 81.7277 91.5293 81.5442 91.5293 81.0574C91.5545 80.7853 91.6589 80.5217 91.834 80.2882C92.0091 80.0547 92.25 79.8576 92.5371 79.7131Z" fill="#F57C00"/>
<path opacity="0.8" d="M92.5371 79.7131L105.616 73.6209C106.173 73.3625 106.624 73.546 106.624 74.0328C106.599 74.3055 106.494 74.5696 106.319 74.8038C106.144 75.038 105.903 75.2357 105.616 75.3808L92.5371 81.4693C91.9798 81.7277 91.5293 81.5442 91.5293 81.0574C91.5545 80.7853 91.6589 80.5217 91.834 80.2882C92.0091 80.0547 92.25 79.8576 92.5371 79.7131Z" fill="white"/>
<path d="M89.7551 98.5516L91.9194 97.5443C92.3839 97.3384 92.7275 97.5069 92.7275 97.9187V99.9333C92.7123 100.159 92.6312 100.378 92.4907 100.573C92.3503 100.768 92.1545 100.934 91.9194 101.057L89.7551 102.064C89.3139 102.274 88.9517 102.105 88.9517 101.689V99.6749C88.9678 99.4501 89.0489 99.2315 89.1884 99.0365C89.3279 98.8415 89.5219 98.6754 89.7551 98.5516Z" fill="#F57C00"/>
<path d="M86.3737 105.396L95.3048 101.24C95.5835 101.113 95.8064 101.203 95.8064 101.446C95.7944 101.582 95.7427 101.714 95.6556 101.831C95.5684 101.948 95.4482 102.047 95.3048 102.12L86.3737 106.276C86.095 106.404 85.8721 106.314 85.8721 106.07C85.8841 105.934 85.9358 105.802 86.0229 105.685C86.1101 105.568 86.2302 105.469 86.3737 105.396Z" fill="#E0E0E0"/>
<path d="M101.77 92.9573L103.934 91.95C104.376 91.7441 104.738 91.9126 104.738 92.3245V94.339C104.723 94.564 104.642 94.7829 104.503 94.9781C104.363 95.1733 104.168 95.3392 103.934 95.4624L101.77 96.4696C101.306 96.6756 100.962 96.5108 100.962 96.0952V94.0807C100.978 93.8554 101.059 93.6362 101.199 93.441C101.34 93.2458 101.535 93.0801 101.77 92.9573Z" fill="#F57C00"/>
<path d="M98.3844 99.8022L107.316 95.6458C107.594 95.5148 107.817 95.6084 107.817 95.8518C107.805 95.9875 107.753 96.119 107.666 96.2355C107.579 96.352 107.459 96.4502 107.316 96.5221L98.3844 100.682C98.1057 100.813 97.8828 100.72 97.8828 100.48C97.8937 100.343 97.9449 100.21 98.0321 100.092C98.1194 99.9744 98.2401 99.875 98.3844 99.8022Z" fill="#E0E0E0"/>
<path d="M113.781 87.3631L115.945 86.3558C116.386 86.1461 116.748 86.3146 116.748 86.7303V88.7448C116.732 88.9696 116.652 89.1883 116.512 89.3834C116.373 89.5785 116.178 89.7445 115.945 89.8681L113.781 90.8754C113.316 91.0813 112.977 90.9128 112.977 90.5009V88.4864C112.991 88.2613 113.072 88.0421 113.211 87.8469C113.351 87.6516 113.546 87.4858 113.781 87.3631Z" fill="#F57C00"/>
<path opacity="0.2" d="M89.7551 98.5516L91.9194 97.5443C92.3839 97.3384 92.7275 97.5069 92.7275 97.9187V99.9333C92.7123 100.159 92.6312 100.378 92.4907 100.573C92.3503 100.768 92.1545 100.934 91.9194 101.057L89.7551 102.064C89.3139 102.274 88.9517 102.105 88.9517 101.689V99.6749C88.9678 99.4501 89.0489 99.2315 89.1884 99.0365C89.3279 98.8415 89.5219 98.6754 89.7551 98.5516Z" fill="white"/>
<path opacity="0.2" d="M101.77 92.9573L103.934 91.95C104.376 91.7441 104.738 91.9126 104.738 92.3245V94.339C104.723 94.564 104.642 94.7829 104.503 94.9781C104.363 95.1733 104.168 95.3392 103.934 95.4624L101.77 96.4696C101.306 96.6756 100.962 96.5108 100.962 96.0952V94.0807C100.978 93.8554 101.059 93.6362 101.199 93.441C101.34 93.2458 101.535 93.0801 101.77 92.9573Z" fill="white"/>
<path opacity="0.2" d="M113.781 87.3631L115.945 86.3558C116.386 86.1461 116.748 86.3146 116.748 86.7303V88.7448C116.732 88.9696 116.652 89.1883 116.512 89.3834C116.373 89.5785 116.178 89.7445 115.945 89.8681L113.781 90.8754C113.316 91.0813 112.977 90.9128 112.977 90.5009V88.4864C112.991 88.2613 113.072 88.0421 113.211 87.8469C113.351 87.6516 113.546 87.4858 113.781 87.3631Z" fill="white"/>
<path d="M110.395 94.208L119.326 90.0516C119.604 89.9205 119.827 90.0142 119.827 90.2538C119.816 90.3901 119.764 90.5222 119.677 90.6394C119.59 90.7565 119.469 90.8554 119.326 90.9278L110.395 95.0842C110.121 95.2152 109.893 95.1216 109.893 94.8782C109.906 94.7427 109.958 94.6116 110.045 94.4952C110.132 94.3788 110.252 94.2805 110.395 94.208Z" fill="#E0E0E0"/>
<mask id="mask0_239_5666" style="mask-type:luminance" maskUnits="userSpaceOnUse" x="56" y="30" width="20" height="21">
<path d="M66.1383 31.7315C60.9273 34.098 56.7056 39.9955 56.7056 44.9008C56.7056 49.806 60.9273 51.8206 66.1383 49.3942C71.3493 46.9677 75.5711 41.0739 75.5711 36.2211C75.5711 31.3683 71.3447 29.3612 66.1383 31.7315Z" fill="white"/>
</mask>
<g mask="url(#mask0_239_5666)">
<path d="M66.1383 31.7315C60.9273 34.098 56.7056 39.9955 56.7056 44.9008C56.7056 49.806 60.9273 51.8206 66.1383 49.3942C71.3493 46.9677 75.5711 41.0739 75.5711 36.2211C75.5711 31.3683 71.3447 29.3612 66.1383 31.7315Z" fill="#FAFAFA"/>
<path d="M70.7083 46.8479L63.1566 48.4805C63.0265 48.5147 62.888 48.5222 62.7534 48.5023C62.6189 48.4824 62.4926 48.4358 62.3861 48.3666C62.2795 48.2975 62.1961 48.208 62.1433 48.1062C62.0905 48.0045 62.07 47.8937 62.0837 47.784V37.4193C62.1104 36.5614 62.4658 35.7312 63.1011 35.0426C63.7364 34.3541 64.6205 33.841 65.632 33.5738L68.2143 33.0158C70.1789 32.5927 71.7719 33.6262 71.7719 35.3224V45.6909C71.7635 45.9484 71.6569 46.1977 71.4666 46.4047C71.2763 46.6117 71.0116 46.7665 70.7083 46.8479Z" fill="#37474F"/>
<path d="M71.0705 49.5289L70.2763 46.7019C70.2763 46.7019 70.2763 42.8863 69.6029 42.5343C68.9294 42.1823 68.7344 42.1149 68.7344 42.1149C69.5982 41.8752 71.4188 41.6955 71.9854 43.036C72.5288 44.3017 73.3416 47.4208 73.7271 48.956L71.0705 49.5289Z" fill="#F28F8F"/>
<path d="M71.0058 49.5439L68.312 42.1486C69.5056 41.7741 71.0383 41.4633 71.7814 42.4556C72.4502 43.3468 73.5184 48.0162 73.7274 48.956L71.0058 49.5439Z" fill="#F57C00"/>
<g opacity="0.4">
<path d="M71.0058 49.5439L68.312 42.1486C69.5056 41.7741 71.0383 41.4633 71.7814 42.4556C72.4502 43.3468 73.5184 48.0162 73.7274 48.956L71.0058 49.5439Z" fill="black"/>
</g>
<path d="M71.368 49.4653L68.7207 50.0382C68.8273 49.4252 69.0779 48.8343 69.4592 48.297C69.989 47.6814 70.7514 47.2204 71.6327 46.9827C71.442 47.801 71.3533 48.6327 71.368 49.4653Z" fill="#F57C00"/>
<path d="M71.368 49.4653L68.7207 50.0382C68.8273 49.4252 69.0779 48.8343 69.4592 48.297C69.989 47.6814 70.7514 47.2204 71.6327 46.9827C71.442 47.801 71.3533 48.6327 71.368 49.4653Z" fill="#F57C00"/>
<g opacity="0.7">
<path d="M71.3685 49.4653L68.7212 50.0382C68.8278 49.4252 69.0784 48.8342 69.4597 48.297C69.9895 47.6814 70.7519 47.2204 71.6332 46.9827C71.4425 47.801 71.3538 48.6327 71.3685 49.4653Z" fill="black"/>
</g>
<path d="M70.8013 49.5888L63.3703 51.1877L62.5529 49.147C62.5529 49.147 64.7218 45.0543 62.042 44.0021C62.381 43.7962 65.2373 42.8975 65.2373 42.8975L68.3073 42.1486C68.8925 42.0213 71.2564 42.8675 71.8556 44.7435C72.0692 45.4063 71.9949 46.0016 70.792 49.454C70.8059 49.499 70.8013 49.5439 70.8013 49.5888Z" fill="#F57C00"/>
<path d="M70.188 34.2889C70.6989 34.4387 71.3305 35.4123 71.2701 37.7601C71.2191 39.7521 70.476 40.3812 70.1044 40.6208C69.5479 40.8455 68.934 40.9622 68.3117 40.9616V42.1486C68.3117 42.1486 69.2777 42.8975 69.2173 43.4666C69.1569 44.0358 67.824 44.4402 66.923 44.1032C66.2649 43.8041 65.6958 43.3926 65.2557 42.8975V40.164C65.1878 40.227 65.1051 40.2786 65.0123 40.3156C64.9195 40.3526 64.8186 40.3743 64.7152 40.3795C64.6119 40.3848 64.5084 40.3734 64.4106 40.346C64.3128 40.3186 64.2227 40.2759 64.1457 40.2202C64.0006 40.1401 63.877 40.0374 63.782 39.9182C63.6871 39.7989 63.6227 39.6655 63.5929 39.5259C63.563 39.3862 63.5681 39.2432 63.6081 39.1052C63.648 38.9671 63.7218 38.837 63.8252 38.7224C64.2896 38.2319 65.1024 38.1607 65.4182 38.6512C65.8114 37.8819 66.515 37.242 67.4153 36.8352C68.8829 36.1162 69.6818 35.4759 70.188 34.2889Z" fill="#FFA8A7"/>
<path d="M68.7157 37.8158C68.7177 37.8866 68.6925 37.9562 68.6434 38.0151C68.5944 38.0739 68.5239 38.1191 68.4417 38.1445C68.4068 38.1542 68.3694 38.157 68.3329 38.1525C68.2964 38.148 68.2618 38.1364 68.232 38.1188C68.2023 38.1011 68.1784 38.0779 68.1623 38.0512C68.1462 38.0244 68.1385 37.9949 68.1398 37.9652C68.1378 37.8944 68.163 37.8248 68.2121 37.7659C68.2611 37.7071 68.3316 37.6619 68.4138 37.6365C68.4487 37.6268 68.4861 37.624 68.5226 37.6285C68.5591 37.633 68.5937 37.6445 68.6234 37.6622C68.6532 37.6799 68.6771 37.7031 68.6932 37.7298C68.7092 37.7566 68.717 37.7861 68.7157 37.8158Z" fill="#37474F"/>
<path d="M68.7902 39.4788L69.459 39.5161C69.4394 39.5981 69.3862 39.6725 69.3079 39.7274C69.2296 39.7822 69.1307 39.8144 69.027 39.8187C68.8413 39.8075 68.7344 39.6469 68.7902 39.4788Z" fill="#F28F8F"/>
<path d="M71.0752 36.5421L70.4946 36.3217C70.5292 36.2495 70.5957 36.1901 70.6815 36.1549C70.7672 36.1197 70.8661 36.1113 70.9591 36.1312C71.0006 36.1518 71.0366 36.1788 71.065 36.2107C71.0934 36.2426 71.1136 36.2788 71.1244 36.317C71.1352 36.3553 71.1364 36.3949 71.128 36.4336C71.1195 36.4722 71.1016 36.5091 71.0752 36.5421Z" fill="#37474F"/>
<path d="M67.88 37.418L68.4605 36.9436C68.4297 36.9184 68.3926 36.8987 68.3517 36.8859C68.3108 36.8731 68.2669 36.8673 68.2231 36.8691C68.1792 36.8709 68.1363 36.8801 68.0972 36.8961C68.058 36.9122 68.0236 36.9347 67.9961 36.9623C67.9155 37.0165 67.8601 37.0911 67.839 37.1738C67.818 37.2566 67.8324 37.3427 67.88 37.418Z" fill="#37474F"/>
<path d="M70.9405 37.1568C70.9432 37.2277 70.9183 37.2976 70.8691 37.3565C70.82 37.4155 70.7491 37.4606 70.6665 37.4855C70.6312 37.4953 70.5934 37.4981 70.5565 37.4934C70.5196 37.4887 70.4847 37.4768 70.4548 37.4587C70.425 37.4407 70.4012 37.4169 70.3854 37.3897C70.3697 37.3624 70.3625 37.3325 70.3646 37.3024C70.3633 37.2317 70.3888 37.1624 70.4377 37.1036C70.4867 37.0449 70.5568 36.9996 70.6386 36.9737C70.6739 36.9638 70.7117 36.9611 70.7486 36.9658C70.7855 36.9705 70.8204 36.9824 70.8503 37.0005C70.8801 37.0186 70.904 37.0423 70.9197 37.0695C70.9354 37.0968 70.9426 37.1267 70.9405 37.1568Z" fill="#37474F"/>
<path d="M69.5845 37.307L69.6263 38.7935L70.5412 38.3517L69.5845 37.307Z" fill="#F28F8F"/>
<path d="M68.3119 40.9612C67.5781 41.0361 66.064 40.9874 65.8271 40.5235C65.913 40.7514 66.102 40.945 66.3566 41.066C66.821 41.3055 68.3119 41.3578 68.3119 41.3578V40.9612Z" fill="#F28F8F"/>
<path d="M63.4118 51.1833L63.1006 50.2928L63.918 51.0748L63.4118 51.1833Z" fill="#F57C00"/>
<path d="M62.8037 51.3151C62.4702 50.034 62.0184 48.7749 61.4522 47.5481C60.6719 45.8219 61.5451 44.3316 62.0699 44.0021C62.5947 43.6726 65.2652 42.8975 65.2652 42.8975C66.2312 45.1142 66.496 48.0836 66.5192 50.5137L62.8037 51.3151Z" fill="#F57C00"/>
<path opacity="0.4" d="M62.8037 51.3151C62.4702 50.034 62.0184 48.7749 61.4522 47.5481C60.6719 45.8219 61.5451 44.3316 62.0699 44.0021C62.5947 43.6726 65.2652 42.8975 65.2652 42.8975C66.2312 45.1142 66.496 48.0836 66.5192 50.5137L62.8037 51.3151Z" fill="black"/>
<path d="M61.4845 51.5996L58.8325 52.1725C58.7584 52.1323 58.6885 52.0872 58.6235 52.0377C58.6235 52.0377 59.8775 48.136 60.2769 46.8404C60.6764 45.5448 60.9829 44.6536 62.0604 44.0021C63.9971 45.0168 63.1007 47.8364 63.1007 47.8364L61.4845 51.5996Z" fill="#F57C00"/>
<path opacity="0.4" d="M61.4845 51.5996L58.8325 52.1725C58.7584 52.1323 58.6885 52.0872 58.6235 52.0377C58.6235 52.0377 59.8775 48.136 60.2769 46.8404C60.6764 45.5448 60.9829 44.6536 62.0604 44.0021C63.9971 45.0168 63.1007 47.8364 63.1007 47.8364L61.4845 51.5996Z" fill="black"/>
</g>
<path d="M22.8706 26.6652V19.2474C22.8427 17.8096 24.0038 16.3679 26.3585 15.2745C31.0029 13.1065 38.5547 13.1065 43.2084 15.2745C45.5631 16.3679 46.7242 17.8096 46.6963 19.2474V26.639C46.6963 28.0694 45.5538 30.6269 43.2084 31.7165C38.564 33.8846 31.0122 33.8846 26.3585 31.7165C24.0363 30.6381 22.8753 28.0994 22.8706 26.6802V26.6652Z" fill="#EBEBEB"/>
<path d="M34.7837 10.0435L54.4434 19.195L34.7837 28.3465L15.124 19.195L34.7837 10.0435Z" fill="#F5F5F5"/>
<path d="M24.9468 23.767L34.6303 19.3111C34.6703 19.2926 34.7143 19.2807 34.76 19.276C34.8057 19.2713 34.852 19.2739 34.8964 19.2836C34.9409 19.2934 34.9825 19.3101 35.0189 19.3328C35.0553 19.3555 35.0858 19.3837 35.1087 19.4159C35.1316 19.4481 35.1463 19.4837 35.1522 19.5205C35.158 19.5573 35.1548 19.5947 35.1427 19.6305C35.1307 19.6663 35.11 19.6998 35.0818 19.7292C35.0537 19.7586 35.0186 19.7832 34.9786 19.8016L25.6388 24.089L24.9468 23.767Z" fill="#E0E0E0"/>
<path d="M54.4434 19.195V19.8503L34.7837 28.998V28.3465L54.4434 19.195Z" fill="#E6E6E6"/>
<path d="M15.124 19.195V19.8503L34.7837 28.998V28.3465L15.124 19.195Z" fill="#F0F0F0"/>
<path d="M24.459 24.1935L25.0581 24.4704C25.1487 24.3512 25.2748 24.2522 25.425 24.1823L25.634 24.085L24.9513 23.7708C24.7496 23.8799 24.5813 24.0244 24.459 24.1935Z" fill="#E0E0E0"/>
<path d="M46.7195 23.445L34.7834 29.9791L22.8799 23.46L34.7834 28.998L46.7195 23.445Z" fill="#E0E0E0"/>
<path d="M23.6929 31.9C23.8595 31.9693 24.0442 32.0054 24.2317 32.0054C24.4191 32.0054 24.6039 31.9693 24.7704 31.9L25.6575 36.5169C25.6575 37.3894 22.8477 37.3894 22.8477 36.5169L23.6929 31.9Z" fill="#F5F5F5"/>
<path d="M23.6415 34.5361L23.465 37.0674C23.4071 37.0532 23.3511 37.0344 23.2979 37.0112L23.6415 34.5361Z" fill="#EBEBEB"/>
<path d="M24.9697 37.0861L24.5981 32.9672L25.1508 37.0262C25.092 37.049 25.0315 37.069 24.9697 37.0861Z" fill="#EBEBEB"/>
<path d="M24.3381 37.1685H24.1616L24.2545 33.8995L24.3381 37.1685Z" fill="#EBEBEB"/>
<path d="M24.2266 32.2851C24.4325 32.281 24.6319 32.2262 24.7979 32.128C24.8685 32.086 24.9164 32.0239 24.932 31.9543C24.9475 31.8847 24.9295 31.813 24.8815 31.7538C24.8308 31.6956 24.7539 31.6556 24.6672 31.6423C24.5804 31.6291 24.4907 31.6436 24.417 31.6828C24.3728 31.7173 24.3137 31.7366 24.2522 31.7366C24.1906 31.7366 24.1315 31.7173 24.0873 31.6828C24.0512 31.6568 24.0087 31.6373 23.9627 31.6253C23.9167 31.6133 23.8681 31.6092 23.82 31.6132C23.7719 31.6172 23.7253 31.6292 23.6833 31.6485C23.6413 31.6678 23.6047 31.6939 23.5759 31.7252C23.5471 31.7565 23.5267 31.7922 23.516 31.8302C23.5053 31.8682 23.5045 31.9076 23.5137 31.9459C23.5229 31.9841 23.542 32.0204 23.5695 32.0524C23.5971 32.0844 23.6327 32.1114 23.6739 32.1317C23.8338 32.2281 24.027 32.2817 24.2266 32.2851Z" fill="#E0E0E0"/>
<path d="M24.2502 31.5667C24.2957 31.5672 24.3409 31.5604 24.3831 31.5467C24.4254 31.533 24.4638 31.5127 24.4962 31.4869C24.5286 31.4611 24.5544 31.4304 24.5719 31.3966C24.5895 31.3627 24.5985 31.3263 24.5985 31.2896V24.7443C24.599 24.5971 24.6472 24.4526 24.7385 24.3252C24.8298 24.1977 24.9609 24.0918 25.1187 24.0179L34.9787 19.4871C35.057 19.4509 35.1146 19.3914 35.1389 19.3213C35.1632 19.2513 35.1524 19.1763 35.1088 19.1126C35.087 19.081 35.0577 19.0532 35.0225 19.0307C34.9873 19.0083 34.9469 18.9918 34.9037 18.982C34.8605 18.9722 34.8153 18.9695 34.7708 18.9739C34.7263 18.9784 34.6833 18.9899 34.6443 19.0078L24.7611 23.5461C24.4976 23.6687 24.2787 23.845 24.1263 24.0572C23.9739 24.2695 23.8933 24.5103 23.8926 24.7555V31.3009C23.8944 31.3373 23.905 31.373 23.924 31.4061C23.9429 31.4392 23.9698 31.4689 24.003 31.4936C24.0362 31.5183 24.0752 31.5375 24.1176 31.55C24.16 31.5626 24.2051 31.5682 24.2502 31.5667Z" fill="#FAFAFA"/>
<path d="M25.0116 31.2892C25.0125 31.1676 24.9687 31.0486 24.8855 30.9472C24.8024 30.8459 24.6838 30.7666 24.5447 30.7196C24.4056 30.6726 24.2523 30.6599 24.1042 30.6832C23.9562 30.7064 23.82 30.7645 23.713 30.8502C23.606 30.9359 23.533 31.0452 23.5033 31.1643C23.4735 31.2835 23.4883 31.407 23.5458 31.5194C23.6033 31.6317 23.7009 31.7278 23.8263 31.7954C23.9517 31.8629 24.0991 31.899 24.2499 31.899C24.3498 31.8995 24.4487 31.8841 24.5411 31.8537C24.6335 31.8233 24.7175 31.7784 24.7883 31.7217C24.859 31.6651 24.9152 31.5977 24.9536 31.5234C24.9919 31.4492 25.0116 31.3696 25.0116 31.2892Z" fill="#F5F5F5"/>
<path d="M23.4978 31.3228C23.5295 31.3861 23.5778 31.4432 23.6394 31.4901C23.701 31.537 23.7743 31.5727 23.8545 31.5947C23.9348 31.6167 24.0199 31.6246 24.1042 31.6177C24.1885 31.6108 24.27 31.5893 24.3431 31.5548C24.4364 31.5096 24.5135 31.4456 24.5671 31.3693C24.6207 31.2929 24.6488 31.2067 24.6488 31.1189C24.6488 31.0312 24.6207 30.945 24.5671 30.8686C24.5135 30.7922 24.4364 30.7283 24.3431 30.683C24.4852 30.6988 24.6188 30.7468 24.7283 30.8214C24.8379 30.896 24.9188 30.9941 24.9618 31.1043C25.0048 31.2146 25.0081 31.3324 24.9712 31.444C24.9343 31.5557 24.8588 31.6566 24.7535 31.735C24.6482 31.8135 24.5173 31.8662 24.3763 31.887C24.2352 31.9079 24.0897 31.896 23.9566 31.8528C23.8236 31.8097 23.7086 31.7369 23.6249 31.6431C23.5412 31.5492 23.4923 31.4382 23.4839 31.3228H23.4978Z" fill="#EBEBEB"/>
<path d="M158.803 27.6762L155.213 26.0099L157.187 25.6729L159.151 26.7776L158.803 27.6762Z" fill="#E0E0E0"/>
<path d="M152.518 12.762C152.518 8.26864 149.105 6.18297 144.911 8.13384L138.715 11.0171C134.535 12.9679 131.112 18.2252 131.112 22.7335C131.112 22.917 131.112 23.108 131.112 23.269C131.112 23.3701 131.112 23.4562 131.112 23.5536C131.112 23.6509 131.136 23.7296 131.145 23.8157C131.154 23.9018 131.173 24.0141 131.191 24.1115C131.285 24.6436 131.45 25.1659 131.684 25.6692C131.781 25.8564 131.883 26.0436 131.995 26.2009C132.046 26.2877 132.105 26.3716 132.171 26.4518L132.232 26.5304C132.335 26.6646 132.455 26.79 132.589 26.9049C132.664 26.9723 132.733 27.0434 132.812 27.1071L133.054 27.2943C133.137 27.3467 133.216 27.4104 133.304 27.4628C133.388 27.517 133.476 27.5658 133.569 27.6088L133.843 27.7361C134.198 27.8906 134.583 27.9957 134.981 28.0469C135.012 28.0409 135.043 28.0409 135.074 28.0469C135.181 28.0469 135.278 28.0657 135.385 28.0657C135.498 28.0731 135.611 28.0731 135.724 28.0657C136.023 28.0683 136.321 28.0419 136.611 27.987C136.785 27.9591 136.957 27.9241 137.127 27.8822C137.669 27.7481 138.19 27.5621 138.678 27.328L144.874 24.4447C145.298 24.246 145.705 24.0232 146.09 23.7782C146.09 23.7183 146.09 23.6659 146.09 23.6097C146.09 23.5536 146.09 23.4337 146.09 23.3663C146.09 23.2166 146.09 23.063 146.09 22.9095C146.077 19.0789 148.937 14.5593 152.518 12.762Z" fill="#E0E0E0"/>
<path d="M153.563 9.52304L149.964 7.853C149.987 7.853 150.331 9.87128 150.331 9.87128L153.001 10.1259L153.563 9.52304Z" fill="#E0E0E0"/>
<path d="M136.932 29.1478L133.606 27.6275L135.608 26.9348L136.932 29.1478Z" fill="#E0E0E0"/>
<path d="M138.715 27.3729C138.692 28.4826 138.25 29.5601 137.448 30.4621C137.299 30.6194 137.527 30.7579 137.694 30.6868C138.453 30.3692 139.125 29.9325 139.672 29.4024C140.723 28.4015 141.457 27.2106 141.813 25.9313L138.715 27.3729Z" fill="#E0E0E0"/>
<path d="M137.484 30.6793L141.084 32.3493C141.084 32.3493 143.104 30.9751 143.104 28.193L139.198 27.9795C139.198 27.9795 139.105 29.7919 137.484 30.6793Z" fill="#E0E0E0"/>
<path d="M147.071 22.4939C147.071 22.6337 147.071 22.7685 147.071 22.8983C147.071 22.9732 147.071 23.0368 147.071 23.108C147.071 23.1791 147.071 23.239 147.099 23.3064C147.127 23.3738 147.099 23.4562 147.132 23.5311C147.185 23.8628 147.282 24.1891 147.42 24.5047C147.44 24.5622 147.464 24.6185 147.494 24.6732C147.528 24.7484 147.567 24.8221 147.61 24.8941C147.646 24.9637 147.688 25.0312 147.735 25.0963C147.772 25.1615 147.816 25.2242 147.865 25.2835L147.912 25.3434C147.994 25.4466 148.084 25.5454 148.181 25.6392C148.232 25.6938 148.288 25.7451 148.348 25.7928L148.525 25.9313C148.585 25.9768 148.649 26.0194 148.715 26.0586C148.779 26.0983 148.846 26.1345 148.915 26.1672C148.985 26.2009 149.05 26.2346 149.124 26.2646L149.338 26.3469L149.561 26.4106C149.697 26.4438 149.835 26.4713 149.974 26.493H150.044C150.121 26.4987 150.199 26.4987 150.276 26.493C150.359 26.5006 150.443 26.5006 150.527 26.493C150.726 26.4929 150.926 26.4766 151.121 26.4443C151.278 26.4229 151.433 26.3941 151.586 26.3582C151.993 26.2574 152.385 26.1179 152.751 25.9425L157.396 23.7782C157.81 23.5855 158.2 23.361 158.561 23.108C158.692 23.0181 158.822 22.9208 158.952 22.8234C159.186 22.6476 159.407 22.4613 159.616 22.2655L159.913 22.0483C159.992 21.9734 160.066 21.8948 160.145 21.8161C160.164 21.7889 160.188 21.7638 160.215 21.7412C160.524 21.4116 160.809 21.0678 161.069 20.7115C161.139 20.6179 161.204 20.5205 161.274 20.4232C161.343 20.3258 161.408 20.2285 161.474 20.1274C161.539 20.0263 161.599 19.9252 161.664 19.8278L161.84 19.5208C161.901 19.4197 161.957 19.3111 162.012 19.2137C162.11 19.034 162.198 18.8393 162.277 18.667C162.277 18.6333 162.31 18.5996 162.323 18.5659C162.375 18.4611 162.416 18.3562 162.458 18.2514C162.542 18.0492 162.616 17.847 162.69 17.6373C162.854 17.1452 162.976 16.6448 163.057 16.1395C163.057 16.0534 163.08 15.971 163.094 15.8849C163.108 15.7988 163.094 15.7389 163.118 15.664C163.141 15.5891 163.118 15.5142 163.118 15.4393C163.118 15.2995 163.118 15.161 163.118 15.0237C163.118 11.6536 160.559 10.0772 157.41 11.5413L152.765 13.7094C149.63 15.166 147.071 19.1089 147.071 22.4939Z" fill="#E0E0E0"/>
<path d="M164.793 12.9792L161.222 11.3241L159.875 12.0917L164.041 14.125L164.793 12.9792Z" fill="#E0E0E0"/>
<path d="M152.532 27.8335L148.942 26.1672L151.757 25.4895L152.532 27.8335Z" fill="#E0E0E0"/>
<path d="M156.722 24.1414C156.722 24.7406 157.651 25.5569 158.714 25.7104C158.858 25.7328 158.821 25.9875 158.649 26.0848C158.015 26.3624 157.284 26.46 156.573 26.3619C156.111 26.3508 155.662 26.2409 155.27 26.0436C154.878 25.8462 154.558 25.5683 154.344 25.2386L156.722 24.1414Z" fill="#F57C00"/>
<path d="M148.505 9.80013L142.305 12.6871C138.125 14.638 134.707 19.8952 134.707 24.3998C134.707 24.587 134.707 24.7743 134.707 24.939C134.707 25.0401 134.707 25.1262 134.707 25.2236C134.707 25.321 134.73 25.3958 134.744 25.482C134.758 25.5681 134.772 25.6879 134.791 25.7815C134.874 26.3117 135.03 26.8328 135.255 27.3355C135.353 27.5265 135.455 27.7099 135.566 27.8709C135.617 27.9567 135.676 28.0393 135.743 28.1181C135.762 28.1454 135.784 28.1717 135.808 28.1967C135.909 28.3382 136.027 28.4712 136.161 28.5936C136.235 28.661 136.309 28.7359 136.388 28.7958L136.625 28.9831C136.709 29.0355 136.792 29.0991 136.876 29.1516C136.96 29.2049 137.049 29.2537 137.141 29.2976L137.419 29.4249C137.773 29.5788 138.156 29.6838 138.553 29.7357C138.583 29.7274 138.615 29.7274 138.645 29.7357C138.752 29.7357 138.854 29.7357 138.957 29.7357C139.07 29.7412 139.183 29.7412 139.296 29.7357C139.594 29.7367 139.892 29.7103 140.183 29.6571C140.357 29.6292 140.529 29.5942 140.698 29.5522C141.24 29.417 141.76 29.2324 142.25 29.0018C142.227 30.111 141.782 31.1878 140.977 32.0872C140.828 32.2482 141.056 32.3868 141.228 32.3156C141.988 31.9977 142.661 31.5596 143.206 31.0275C144.254 30.0266 144.988 28.8375 145.347 27.5602L144.883 27.7661L148.427 26.1185C148.77 25.9592 149.1 25.7829 149.416 25.5906C149.389 25.4955 149.368 25.3992 149.355 25.3022C149.355 25.2386 149.328 25.145 149.318 25.0476C149.301 24.9646 149.291 24.8808 149.286 24.7967V24.7518C149.281 24.6894 149.281 24.6269 149.286 24.5646C149.286 24.4223 149.286 24.2725 149.286 24.1227C149.286 20.3333 152.072 16.0609 155.658 14.3871L156.053 14.1999C156.015 9.86753 152.639 7.87547 148.505 9.80013Z" fill="#F0F0F0"/>
<path d="M161.022 13.2001L156.378 15.3644C153.234 16.8322 150.67 20.7752 150.67 24.1602C150.67 24.2987 150.67 24.4335 150.67 24.5646C150.67 24.6956 150.67 24.7031 150.67 24.7743C150.67 24.8454 150.67 24.9053 150.693 24.9727C150.701 25.0468 150.713 25.1206 150.73 25.1936C150.781 25.527 150.878 25.8547 151.018 26.171C151.036 26.229 151.061 26.2854 151.093 26.3395C151.124 26.4137 151.161 26.4862 151.204 26.5566C151.241 26.6271 151.283 26.6958 151.329 26.7626C151.368 26.8279 151.413 26.8905 151.464 26.9498C151.475 26.9711 151.489 26.9912 151.506 27.0097C151.594 27.1146 151.682 27.2119 151.775 27.3055C151.829 27.3593 151.886 27.4105 151.947 27.459L152.124 27.5976C152.184 27.6431 152.247 27.6856 152.314 27.7249C152.375 27.7653 152.441 27.8016 152.509 27.8335C152.579 27.8672 152.644 27.9009 152.718 27.9309L152.932 28.0132L153.155 28.0769C153.291 28.1101 153.429 28.1376 153.568 28.1593H153.638C153.715 28.165 153.793 28.165 153.87 28.1593C153.955 28.1688 154.041 28.1688 154.125 28.1593C154.325 28.1602 154.524 28.1451 154.72 28.1143C154.877 28.0926 155.032 28.0638 155.184 28.0282C155.593 27.9289 155.984 27.7893 156.35 27.6126L157.92 26.8861C158.138 27.2124 158.458 27.4864 158.85 27.6804C159.242 27.8744 159.69 27.9815 160.149 27.9908C160.861 28.0874 161.592 27.9885 162.225 27.7099C162.392 27.6238 162.434 27.3692 162.286 27.3355C161.222 27.182 160.298 26.3657 160.298 25.7665L161.004 25.437C161.417 25.2434 161.808 25.019 162.169 24.7668C162.299 24.6769 162.43 24.5795 162.555 24.4822C162.791 24.3064 163.014 24.1201 163.224 23.9243C163.307 23.8456 163.391 23.7707 163.474 23.6809C163.558 23.591 163.628 23.5311 163.707 23.4525L163.776 23.3776C164.086 23.0479 164.371 22.7041 164.631 22.3478L164.84 22.0595C164.91 21.9622 164.975 21.8648 165.04 21.7637C165.105 21.6626 165.16 21.5615 165.225 21.4642L165.407 21.1571C165.467 21.0523 165.518 20.9474 165.574 20.8501C165.671 20.6703 165.764 20.4756 165.843 20.3034L165.885 20.2023C165.936 20.0974 165.982 19.9926 166.02 19.8877C166.108 19.6818 166.178 19.4833 166.256 19.2736C166.42 18.7815 166.542 18.2811 166.623 17.7758C166.623 17.6897 166.647 17.6073 166.656 17.5212C166.665 17.4351 166.656 17.3714 166.679 17.3003C166.702 17.2292 166.679 17.1505 166.679 17.0756C166.679 16.9371 166.679 16.7948 166.679 16.6562C166.73 13.2975 164.167 11.736 161.022 13.2001Z" fill="#F0F0F0"/>
<path d="M123.71 62.7319C121.954 62.2901 120.152 63.4359 118.972 65.75C117.793 68.0641 115.317 73.9504 114.95 75.5193C114.583 77.0882 122.888 80.5032 122.655 80.4133C122.423 80.3235 123.71 62.7319 123.71 62.7319Z" fill="#263238"/>
<path d="M119.85 117.199C119.599 117.274 119.539 117.656 119.502 118.412C119.474 118.985 119.321 119.985 120.152 120.183C120.983 120.382 122.205 120.281 122.739 119.742C123.403 119.068 123.853 118.476 124.801 117.652C125.628 116.941 126.515 116.274 126.849 115.274C127.151 114.368 126.9 113.979 126.134 113.717C125.084 113.342 123.431 114.533 122.609 114.72C121.898 114.881 120.096 117.124 119.85 117.199Z" fill="#263238"/>
<path d="M119.85 116.499V117.427C120.282 117.65 120.782 117.774 121.295 117.785C121.808 117.797 122.315 117.695 122.762 117.491C122.813 117.401 123.064 116.162 123.064 116.162L119.85 116.499Z" fill="#FFA8A7"/>
<path d="M129.18 122.554C129.18 122.554 128.851 123.362 128.674 124.051C128.53 124.613 128.33 125.549 128.572 125.976C128.813 126.403 129.77 126.673 131.242 126.661C132.199 126.661 133.69 127.182 134.707 127.639C135.724 128.095 137.958 128.301 139.068 128.197C140.378 128.073 141.739 127.448 141.952 127.021C142.166 126.594 141.883 126.126 138.789 125.062C138.762 125.062 134.489 123.939 132.989 122.602L129.18 122.554Z" fill="#263238"/>
<path d="M129.181 121.55C129.181 121.55 129.181 122.239 129.181 122.632C129.181 123.025 129.757 123.613 131.252 123.572C132.302 123.542 133.031 123.314 132.989 122.617V121.61L129.181 121.55Z" fill="#FFA8A7"/>
<path d="M119.098 104.168C119.355 102.522 119.811 100.901 120.459 99.3267C120.459 99.3267 120.05 95.1516 119.851 91.1937C119.637 86.9175 119.851 81.5404 119.762 80.477C119.762 80.477 136.877 77.6836 137.183 82.6263C137.49 87.569 136.505 100.15 136.306 102.322C136.106 104.494 135.637 106.415 135.079 109.935C134.522 113.455 132.989 121.61 132.989 121.61C132.398 121.853 131.74 121.975 131.076 121.965C130.412 121.954 129.761 121.812 129.181 121.55C129.181 121.55 127.978 111.665 128.104 109.16C128.201 107.299 128.598 105.456 129.283 103.678L128.675 96.0577C128.387 92.5117 128.085 90.8155 128.015 89.269L127.648 89.1192C127.648 89.1192 127.272 95.2377 127.073 97.4095C126.873 99.5813 126.441 101.663 125.679 105.696C125.001 109.193 122.99 116.596 122.99 116.596C121.035 117.45 119.869 116.488 119.869 116.488C119.869 116.488 118.578 107.201 119.098 104.168Z" fill="#455A64"/>
<path d="M128.015 89.2802C128.015 89.2802 123.863 87.6289 121.787 86.1424C121.787 86.1424 123.715 88.3329 126.25 89.3065C126.25 89.3065 127.151 96.904 127.147 96.7542L127.667 89.2653L128.015 89.2802Z" fill="#37474F"/>
<path d="M131.712 61.1668L130.7 65.6601L125.665 65.3643L126.719 60.2681L131.712 61.1668Z" fill="#FFA8A7"/>
<path d="M120.347 65.0348C120.844 63.8141 122.767 62.4848 124.69 62.7881C127.549 63.1782 130.368 63.7453 133.119 64.4844C134.879 64.9899 136.482 66.218 136.63 70.8911L137.522 84.8056L135.39 85.18L134.647 82.0272L134.303 85.18C132.074 85.6294 128.205 85.2587 125.665 84.8056C120.37 83.8732 119.734 82.1021 119.734 82.1021C119.734 82.1021 119.664 74.2724 119.822 70.8911C119.971 68.0004 120.003 65.8586 120.347 65.0348Z" fill="#37474F"/>
<path d="M135.437 55.8421C135.437 55.8421 136.658 57.2987 136.5 57.4522C136.218 57.6057 135.903 57.7161 135.571 57.778L135.437 55.8421Z" fill="#FFA8A7"/>
<path d="M131.712 51.2289C132.887 51.7082 134.917 52.5919 135.474 56.0556C136.05 59.6128 135.293 60.7586 134.698 61.2304C134.294 61.5487 132.102 61.5674 131.006 61.3016C129.613 60.9683 126.538 60.0209 125.126 58.1936C123.464 56.0443 123.092 53.1648 124.968 52.019C127.602 50.4089 130.718 50.8245 131.712 51.2289Z" fill="#FFA8A7"/>
<path d="M135.72 52.4197C135.334 53.2734 134.684 55.3628 131.981 56.2353C131.981 56.2353 131.595 54.9023 130.207 55.0445C128.818 55.1868 128.581 56.6135 129.436 57.5009C130.29 58.3884 131.117 58.0663 131.117 58.0663C131.117 58.0663 131.303 59.976 129.724 60.841C129.724 60.841 127.815 61.8145 125.794 61.0657C124.866 60.7287 123.598 58.9725 122.845 57.5309C121.248 54.4829 121.02 52.0377 123.43 51.2664C123.728 49.8809 124.503 49.3604 126.059 49.1021C129.408 48.5441 131.939 50.319 134.753 50.0082C136.226 49.8435 136.161 51.4461 135.72 52.4197Z" fill="#37474F"/>
<path d="M123.375 51.7298L121.796 50.944C121.857 50.8559 121.94 50.7787 122.039 50.7169C122.138 50.6552 122.252 50.6104 122.373 50.585C122.495 50.5596 122.621 50.5543 122.745 50.5694C122.869 50.5845 122.988 50.6196 123.095 50.6727C123.201 50.7258 123.294 50.7957 123.366 50.8782C123.438 50.9608 123.489 51.0543 123.515 51.153C123.541 51.2518 123.542 51.3538 123.518 51.4529C123.494 51.552 123.445 51.6462 123.375 51.7298Z" fill="#37474F"/>
<path d="M131.341 62.8031L131.916 64.1473C131.916 64.1473 131.494 64.7465 129.696 64.7764C127.899 64.8064 125.981 64.3458 125.386 63.728C125.251 63.607 125.151 63.4633 125.093 63.3072C125.035 63.1511 125.021 62.9865 125.052 62.8256C125.052 62.8256 125.767 61.5524 126.445 61.6086L126.334 62.1628C126.334 62.1628 126.487 62.6159 128.117 62.9641C130.653 63.507 131.341 62.8031 131.341 62.8031Z" fill="#455A64"/>
<path d="M145.784 71.7374C146.509 71.0671 146.787 69.5806 147.753 68.5621C148.719 67.5436 149.077 66.7984 149.458 67.244C149.964 67.8319 148.822 69.0114 149.077 69.1163C149.333 69.2211 150.275 70.7863 150.373 71.6475C150.47 72.5088 147.637 74.6806 147.637 74.6806L145.784 71.7374Z" fill="#FFA8A7"/>
<path d="M131.341 62.8031C131.458 62.8012 131.573 62.825 131.674 62.8718C131.776 62.9186 131.86 62.9868 131.917 63.0689C132.201 63.4824 132.455 63.9088 132.678 64.3458L131.917 64.1474L131.341 62.8031Z" fill="#455A64"/>
<path d="M148.998 68.9964C148.998 68.9964 152.421 68.7568 152.918 68.9964C153.415 69.2361 153.266 70.4306 152.918 71.1645C152.57 71.8984 150.823 72.374 149.202 73.2577C149.202 73.1229 148.998 68.9964 148.998 68.9964Z" fill="#FFA8A7"/>
<path d="M132.678 64.3608C134.15 64.7764 135.436 65.252 136.811 67.3339C138.576 70.0075 141.92 74.2836 141.92 74.2836L145.77 71.5464C145.77 71.5464 146.351 71.0933 147.433 72.535C147.75 72.9231 147.951 73.3653 148.019 73.8267C148.088 74.2881 148.022 74.7561 147.828 75.1935C147.828 75.1935 143.383 79.3986 142.533 80.0389C141.683 80.6792 140.276 80.1812 139.361 79.1739C138.446 78.1667 132.664 72.344 132.664 72.344C132.664 72.344 129.524 68.9815 132.678 64.3608Z" fill="#37474F"/>
<path d="M172.392 57.3699H161.426C161.012 57.3699 160.615 57.2373 160.323 57.0014C160.03 56.7654 159.866 56.4454 159.866 56.1117V42.0662C159.866 40.9609 160.41 39.9008 161.38 39.1193C162.349 38.3377 163.664 37.8986 165.035 37.8986H168.797C170.165 37.9016 171.477 38.342 172.443 39.1232C173.409 39.9045 173.952 40.9628 173.952 42.0662V56.1117C173.952 56.4454 173.788 56.7654 173.495 57.0014C173.202 57.2373 172.806 57.3699 172.392 57.3699Z" fill="#37474F"/>
<path d="M159.578 52.5769C158.514 55.1045 156.731 62.3762 156.731 62.3762C156.731 62.3762 153.015 66.0383 151.803 66.9258C151.139 67.42 149.644 68.3075 149.644 68.3075L152.361 69.9176C154.814 68.3963 157.118 66.7251 159.253 64.9187C159.728 64.5113 160.061 64.0102 160.219 63.4659L162.077 57.0404C162.077 57.0404 162.077 51.873 163.057 51.1952C164.036 50.5175 164.32 50.3752 164.32 50.3752C163.061 50.3003 160.414 50.5886 159.578 52.5769Z" fill="#F28F8F"/>
<path d="M164.901 50.3003C163.169 50.1393 160.949 50.1692 159.867 51.7307C158.784 53.2921 156.982 61.3652 156.982 61.3652C156.982 61.3652 158.687 62.4324 160.526 62.4137L164.901 50.3003Z" fill="#F57C00"/>
<path d="M160.085 57.8229C160.397 59.0264 160.517 60.2571 160.443 61.485C160.308 63.1027 158.924 65.926 158.924 65.926C158.924 65.926 160.006 66.8846 163.057 66.4989C165.542 66.1881 164.664 60.1333 163.238 58.9725C162.407 58.2799 161.279 57.8688 160.085 57.8229Z" fill="#F57C00"/>
<path opacity="0.3" d="M160.085 57.8229C160.397 59.0264 160.517 60.2571 160.443 61.485C160.308 63.1027 158.924 65.926 158.924 65.926C158.924 65.926 160.006 66.8846 163.057 66.4989C165.542 66.1881 164.664 60.1333 163.238 58.9725C162.407 58.2799 161.279 57.8688 160.085 57.8229Z" fill="black"/>
<path d="M165.825 100.585C165.845 100.861 165.759 101.136 165.579 101.371C165.12 101.983 164.579 102.553 163.967 103.071C163.108 103.82 161.822 104.7 160.897 105.348C160.387 105.722 160.368 106.254 161.102 106.445C162.47 106.713 163.913 106.551 165.138 105.992C166.067 105.595 167.358 103.745 168.119 103.483C168.997 103.165 169.485 103.007 169.782 102.682C170.007 102.497 170.147 102.255 170.18 101.998C170.213 101.74 170.137 101.481 169.963 101.263C169.55 100.641 168.928 99.6861 168.672 99.7947L168.751 99.9894C168.551 100.495 166.842 101.083 165.964 100.944L165.825 100.585Z" fill="#37474F"/>
<path d="M174.775 79.4585C175.169 76.0885 176.303 70.6665 175.141 66.6524L159.722 67.3114C159.295 71.2693 158.793 83.6261 159.332 85.0415C159.954 86.7115 165.514 98.2707 165.834 100.596C165.856 100.869 165.77 101.14 165.588 101.371C165.129 101.985 164.589 102.556 163.976 103.075C163.558 103.449 163.047 103.824 162.509 104.198C162.464 104.252 162.436 104.314 162.43 104.378C162.43 104.752 163.6 104.868 164.288 104.707C165.145 104.464 165.883 104.006 166.396 103.401C166.791 102.978 167.678 102.165 168.254 101.555C168.446 101.366 168.61 101.16 168.741 100.941C168.895 100.666 168.922 100.357 168.816 100.068L168.779 99.9744C168.477 99.2164 168.29 98.432 168.221 97.6379C168.008 95.0879 167.464 89.1979 166.963 87.6289C166.614 86.4857 166.085 85.3832 165.388 84.3488L167.148 73.3063C167.148 73.3063 167.334 83.042 167.882 85.5245C168.314 87.5128 168.481 89.9992 168.988 93.4104C169.452 96.6756 169.991 102.427 169.991 102.427C170.005 102.429 170.019 102.429 170.033 102.427V105.176H172.917V103.58C172.917 102.86 172.991 102.141 173.14 101.431C173.604 99.2593 174.57 94.2903 174.77 92.6091C175.086 89.943 173.892 86.5917 173.892 86.5917C173.892 86.5917 174.389 82.7461 174.775 79.4585Z" fill="#FFA8A7"/>
<path d="M169.34 50.4164C169.34 50.4164 173.488 50.7908 173.985 50.9818C170.093 53.1873 173.246 58.0963 173.246 58.0963L171.755 61.867C173.413 63.5782 174.844 64.5967 175.731 66.4727C176.715 68.5696 177.589 71.6887 177.356 78.0805C173.641 80.3272 162.336 80.0838 157.934 78.0805C157.934 78.0805 158.677 72.4376 159.554 68.0528C160.135 65.1584 161.505 62.0055 161.273 60.9383C159.527 56.6097 159.415 55.8309 159.731 54.8648C160.599 52.1463 164.036 50.3078 164.882 50.3078L169.34 50.4164Z" fill="#F57C00"/>
<path opacity="0.6" d="M169.34 50.4164C169.34 50.4164 173.488 50.7908 173.985 50.9818C170.093 53.1873 173.246 58.0963 173.246 58.0963L171.755 61.867C173.413 63.5782 174.844 64.5967 175.731 66.4727C176.715 68.5696 177.589 71.6887 177.356 78.0805C173.641 80.3272 162.336 80.0838 157.934 78.0805C157.934 78.0805 158.677 72.4376 159.554 68.0528C160.135 65.1584 161.505 62.0055 161.273 60.9383C159.527 56.6097 159.415 55.8309 159.731 54.8648C160.599 52.1463 164.036 50.3078 164.882 50.3078L169.34 50.4164Z" fill="white"/>
<path d="M170.005 104.011V103.678C169.643 104.797 168.918 105.819 167.906 106.64C166.977 107.317 165.723 108.104 165.398 108.864C165.073 109.624 166.889 109.965 168.087 109.867C169.248 109.753 170.318 109.302 171.096 108.598C171.858 107.894 171.844 107.415 172.197 107.025C172.55 106.636 173.372 106.209 173.563 105.76C173.622 105.34 173.565 104.916 173.395 104.516C173.261 104.101 173.112 103.64 172.931 103.678V103.936C172.513 104.201 171.995 104.343 171.463 104.337C171.059 104.344 170 104.273 170.005 104.011Z" fill="#37474F"/>
<path d="M172.916 103.929C172.499 104.194 171.98 104.335 171.449 104.329C171.022 104.329 169.981 104.273 169.986 104.011V103.678C169.624 104.797 168.899 105.819 167.887 106.64L167.185 107.145C166.693 107.587 166.832 107.973 167.989 108.051C169.145 108.13 170.162 107.568 171.035 106.703C171.78 105.833 172.41 104.904 172.916 103.929Z" fill="#FFA8A7"/>
<path d="M162.179 40.194C161.436 40.5497 160.516 42.0662 160.605 45.2191C160.683 47.9001 161.761 48.5629 162.304 48.7538C162.848 48.9448 163.888 48.8287 164.901 48.6939V50.3003C164.901 50.3003 163.507 51.6146 163.586 52.3523C163.665 53.0899 165.611 53.2622 166.926 52.5432C167.875 51.95 168.691 51.2307 169.341 50.4164L169.317 46.7206C169.317 46.7206 169.917 47.1849 170.929 46.4735C171.765 45.8856 172.044 44.8895 171.393 44.3578C171.225 44.2299 171.02 44.1363 170.797 44.0849C170.575 44.0335 170.34 44.0258 170.113 44.0625C169.885 44.0991 169.672 44.179 169.491 44.2955C169.31 44.4121 169.166 44.5618 169.071 44.7323C169.071 44.7323 168.509 43.4704 166.173 42.86C164.065 42.2946 162.917 41.6543 162.179 40.194Z" fill="#FFA8A7"/>
<path d="M164.32 44.5485C164.32 44.6145 164.345 44.679 164.39 44.734C164.435 44.789 164.499 44.8321 164.574 44.8579C164.65 44.8838 164.733 44.8913 164.813 44.8795C164.894 44.8676 164.968 44.837 165.027 44.7914C165.087 44.7458 165.128 44.6872 165.146 44.6229C165.164 44.5586 165.158 44.4914 165.13 44.4297C165.101 44.368 165.05 44.3144 164.984 44.2757C164.918 44.2369 164.839 44.2147 164.757 44.2118C164.701 44.2108 164.645 44.2187 164.593 44.2351C164.54 44.2515 164.493 44.276 164.452 44.3073C164.411 44.3386 164.379 44.376 164.356 44.4174C164.334 44.4588 164.322 44.5033 164.32 44.5485Z" fill="#37474F"/>
<path d="M164.209 46.8179L163.238 47.0682C163.255 47.1203 163.285 47.1691 163.326 47.2117C163.368 47.2542 163.419 47.2897 163.478 47.3158C163.536 47.342 163.601 47.3584 163.667 47.364C163.734 47.3696 163.801 47.3643 163.865 47.3484C163.996 47.3125 164.105 47.2373 164.169 47.1385C164.233 47.0397 164.247 46.9249 164.209 46.8179Z" fill="#F28F8F"/>
<path d="M160.893 43.5111L161.738 43.0396C161.702 42.9936 161.655 42.9539 161.6 42.9229C161.545 42.892 161.482 42.8704 161.416 42.8596C161.35 42.8487 161.282 42.8488 161.216 42.8598C161.15 42.8708 161.087 42.8925 161.032 42.9236C160.919 42.9879 160.841 43.0851 160.815 43.1947C160.789 43.3043 160.817 43.4177 160.893 43.5111Z" fill="#37474F"/>
<path d="M165.537 43.7657L164.688 43.2942C164.723 43.2483 164.77 43.2087 164.825 43.1777C164.881 43.1466 164.943 43.1249 165.009 43.1137C165.075 43.1026 165.143 43.1022 165.209 43.1126C165.275 43.1231 165.338 43.1441 165.393 43.1745C165.506 43.2401 165.583 43.3375 165.61 43.4472C165.637 43.557 165.611 43.6708 165.537 43.7657Z" fill="#37474F"/>
<path d="M161.088 44.3014C161.087 44.3675 161.11 44.4323 161.155 44.4878C161.2 44.5433 161.264 44.587 161.339 44.6134C161.414 44.6399 161.497 44.6479 161.578 44.6365C161.659 44.6251 161.734 44.5948 161.793 44.5493C161.853 44.5039 161.895 44.4453 161.913 44.3809C161.932 44.3165 161.926 44.2491 161.898 44.1872C161.869 44.1253 161.818 44.0715 161.752 44.0326C161.686 43.9937 161.606 43.9713 161.524 43.9684C161.412 43.9664 161.303 44.0002 161.221 44.0626C161.139 44.1249 161.092 44.2108 161.088 44.3014Z" fill="#37474F"/>
<path d="M163.057 44.1107L162.992 46.1402L161.668 45.8107L163.057 44.1107Z" fill="#F28F8F"/>
<path d="M164.9 48.6939C165.969 48.5779 168.151 48.0686 168.514 47.3684C168.376 47.7231 168.107 48.0353 167.743 48.2633C167.083 48.7164 164.9 49.2294 164.9 49.2294V48.6939Z" fill="#F28F8F"/>
<path d="M172.476 59.8113L169.545 63.009L171.756 61.867L172.476 59.8113Z" fill="#F57C00"/>
<path d="M149.388 68.3075C148.761 68.959 148.376 70.2246 148.046 70.6515C147.716 71.0784 147.322 71.4491 148.046 71.5277C148.771 71.6063 149.83 70.4643 150.224 69.7715C150.424 69.3809 150.801 69.0662 151.279 68.8916C150.94 68.798 151.116 67.7009 150.879 67.5473C150.879 67.5473 149.644 67.9555 149.388 68.3075Z" fill="#F28F8F"/>
<path d="M149.203 73.2502C149.858 72.857 149.881 72.374 150.007 71.6063C150.132 70.8387 152.756 70.0075 152.84 70.5804C152.923 71.1533 153.16 71.6326 152.375 72.329C151.59 73.0255 150.401 73.7669 149.203 73.2502Z" fill="#F28F8F"/>
<path d="M169.341 50.4164C169.341 50.4164 173.223 50.6897 173.985 50.9818C174.747 51.2739 176.015 53.0412 174.882 55.6062C173.748 58.1712 172.717 61.1892 172.833 61.7958C172.949 62.4024 175.657 65.5403 175.657 65.5403C174.91 65.9848 174.065 66.3114 173.168 66.5026L171.774 64.0612L172.1 66.6561C170.7 66.9305 169.262 67.0564 167.822 67.0306C167.822 67.0306 166.508 57.0628 169.341 50.4164Z" fill="#F57C00"/>
<path d="M178.908 62.6421C179.219 61.1668 178.908 60.6837 178.267 59.2384L175.016 60.9346C175.282 61.4802 175.439 62.0566 175.48 62.6421C175.452 63.0689 174.732 67.3002 174.059 68.7755C173.938 69.0379 173.699 69.2542 173.39 69.3821C172.721 69.7118 172.114 70.118 171.588 70.5878C171.091 70.9623 170.692 71.0297 170.743 71.157C170.82 71.295 170.957 71.4054 171.128 71.4669C171.3 71.5284 171.493 71.5367 171.672 71.4903C172.076 71.3843 172.464 71.2411 172.828 71.0634C172.506 71.6141 172.076 72.1197 171.556 72.5612C170.362 73.5872 170.255 74.2537 172.485 74.3922C173.878 74.4783 175.044 73.8493 176.302 71.4341C176.692 70.5487 177.013 69.6445 177.264 68.7268C177.942 66.6337 178.601 64.1286 178.908 62.6421Z" fill="#FFA8A7"/>
<path d="M173.985 50.9818C175.55 51.5472 175.996 52.6631 176.576 54.3031C177.157 55.9432 178.977 60.8635 178.977 60.8635C178.977 60.8635 177.417 62.3612 175.262 61.9419L172.475 56.4862C172.475 56.4862 171.175 52.9252 173.985 50.9818Z" fill="#F57C00"/>
</svg>
