<svg width="200" height="127" viewBox="0 0 200 127" fill="none" xmlns="http://www.w3.org/2000/svg">
<path d="M195.474 93.4228L191.528 93.5244L189.525 93.5643C188.854 93.5824 188.18 93.5643 187.51 93.5861H187.377V93.4228L187.359 89.3506V89.1692H187.51L191.492 89.1909C192.821 89.1909 194.147 89.2309 195.474 89.249H195.558V89.3506C195.558 90.0402 195.534 90.7262 195.519 91.4048L195.474 93.4228ZM195.474 93.4228L195.431 91.3722C195.416 90.6971 195.398 90.0293 195.392 89.3615L195.474 89.4631C194.147 89.4813 192.821 89.5212 191.492 89.5212L187.51 89.543L187.66 89.3615V93.4228L187.525 93.2631C188.18 93.2631 188.836 93.2631 189.495 93.2812L191.453 93.3429L195.474 93.4228Z" fill="#EBEBEB"/>
<path d="M191.032 98.5437L187.086 98.6454L185.08 98.6853C184.412 98.6853 183.739 98.6853 183.068 98.7071H182.936V98.5437V94.4825V94.3011H183.086L187.068 94.3265C188.394 94.3265 189.723 94.3664 191.05 94.3845H191.134V94.4825C191.134 95.1721 191.11 95.858 191.095 96.5367L191.032 98.5437ZM191.032 98.5437L190.99 96.4932C190.975 95.8181 190.956 95.1503 190.95 94.4825L191.032 94.5841C189.705 94.6023 188.376 94.6422 187.05 94.6422L183.068 94.664L183.218 94.4825V98.5437L183.083 98.3841C183.739 98.3841 184.394 98.3841 185.053 98.4022L187.029 98.4458L191.032 98.5437Z" fill="#EBEBEB"/>
<path d="M199.916 98.5437L195.97 98.6454L193.967 98.6853C193.296 98.6853 192.623 98.6853 191.952 98.7071H191.82V98.5437L191.802 94.4825V94.3011H191.952L195.934 94.3265C197.263 94.3265 198.59 94.3664 199.916 94.3845H200V94.4825C200 95.1721 199.973 95.858 199.961 96.5367L199.916 98.5437ZM199.916 98.5437L199.874 96.4932C199.874 95.8181 199.841 95.1503 199.835 94.4825L199.916 94.5841C198.59 94.6023 197.263 94.6422 195.934 94.6422L191.952 94.664L192.103 94.4825V98.5437L191.967 98.3841C192.626 98.3841 193.278 98.3841 193.937 98.4022L195.916 98.4458L199.916 98.5437Z" fill="#EBEBEB"/>
<path d="M81.9179 45.0981L77.9721 45.1998L75.9691 45.2397C75.2984 45.2397 74.6248 45.2397 73.9541 45.2397H73.8218V45.0764L73.8037 41.0151V40.8337H73.9541L77.936 40.8554C79.2653 40.8554 80.5916 40.8954 81.9179 40.9135H82.0021V41.0115C82.0021 41.7011 81.975 42.3834 81.96 43.0621L81.9179 45.0981ZM81.9179 45.0981L81.8758 43.0439C81.8758 42.3689 81.8427 41.7011 81.8367 41.0369L81.9179 41.1349C80.5916 41.1349 79.2653 41.193 77.936 41.193L73.9541 41.2184L74.1045 41.0369L74.0894 45.0981L73.9541 44.9348C74.6097 44.9348 75.2653 44.9348 75.924 44.9566L77.9029 44.9965L81.9179 45.0981Z" fill="#EBEBEB"/>
<path d="M77.4698 50.2191L73.524 50.3207L71.518 50.3607C70.8503 50.3607 70.1767 50.3607 69.506 50.3788H69.3737V50.2155L69.3496 46.1615V45.9801H69.5L73.4819 46.0018C74.8082 46.0018 76.1375 46.0418 77.4638 46.0599H77.548V46.1615C77.548 46.8511 77.5239 47.5334 77.5089 48.2121L77.4698 50.2191ZM77.4698 50.2191L77.4277 48.1649C77.4126 47.4899 77.3946 46.8221 77.3886 46.1579L77.4698 46.2559C76.1435 46.274 74.8142 46.314 73.4879 46.314L69.506 46.3394L69.6564 46.1579L69.6504 50.2191L69.515 50.0558C70.1706 50.0558 70.8263 50.0558 71.4849 50.0776L73.4608 50.1175L77.4698 50.2191Z" fill="#EBEBEB"/>
<path d="M86.3593 50.2191L82.4135 50.3207L80.4105 50.3607C79.7398 50.3607 79.0692 50.3607 78.3955 50.3788H78.2632V50.2155L78.2451 46.1615V45.9801H78.3955L82.3774 46.0018C83.7067 46.0018 85.033 46.0418 86.3593 46.0599H86.4435V46.1615C86.4435 46.8511 86.4164 47.5334 86.4044 48.2121L86.3593 50.2191ZM86.3593 50.2191L86.3172 48.1649C86.3172 47.4899 86.2841 46.8221 86.2781 46.1579L86.3593 46.2559C85.033 46.274 83.7067 46.314 82.3774 46.314L78.3955 46.3394L78.5459 46.1579L78.5308 50.2191L78.3955 50.0558C79.0541 50.0558 79.7068 50.0558 80.3654 50.0776L82.3443 50.1175L86.3593 50.2191Z" fill="#EBEBEB"/>
<path d="M16.9835 71.9697L13.0377 72.0714L11.0317 72.1113C10.3641 72.1113 9.69038 72.1113 9.01971 72.1294H8.89941V71.9661V67.9049V67.7234H9.04979L13.0317 67.7452C14.358 67.7452 15.6873 67.7851 17.0136 67.8033H17.0978V67.9013C17.0978 68.5908 17.0737 69.2731 17.0587 69.9518L16.9835 71.9697ZM16.9835 71.9697L16.9414 69.9155C16.9414 69.2405 16.9083 68.5727 16.9023 67.9085L16.9835 68.0065C15.6572 68.0247 14.3279 68.0646 13.0016 68.0646L9.01971 68.09L9.17009 67.9085L9.15505 71.9697L9.01971 71.8064C9.67534 71.8064 10.331 71.8064 10.9896 71.8282L12.9655 71.8681L16.9835 71.9697Z" fill="#EBEBEB"/>
<path d="M149.006 45.0945L145.06 45.1961L143.057 45.236C142.386 45.2542 141.713 45.2361 141.042 45.2542H140.91V45.0909L140.892 41.0296V40.8482H141.042L145.024 40.87C146.353 40.87 147.679 40.9135 149.006 40.9317H149.09V41.0296C149.09 41.7192 149.066 42.4052 149.051 43.0802L149.006 45.0945ZM149.006 45.0945L148.964 43.0439C148.949 42.3652 148.931 41.6974 148.925 41.0333L149.006 41.1313C147.679 41.1494 146.353 41.1893 145.024 41.193L141.042 41.2147L141.192 41.0333L141.177 45.0945L141.042 44.9312C141.698 44.9312 142.353 44.9312 143.012 44.953L144.991 44.9929L149.006 45.0945Z" fill="#EBEBEB"/>
<path d="M195.014 5.65087L191.068 5.7525L189.062 5.79242C188.395 5.79242 187.721 5.79242 187.05 5.8142H186.918V5.65087V1.58965V1.40818H187.068L191.05 1.42996C192.377 1.42996 193.706 1.47351 195.032 1.49165H195.116V1.58965C195.116 2.27922 195.092 2.96517 195.077 3.64022L195.014 5.65087ZM195.014 5.65087L194.972 3.6003C194.957 2.92161 194.939 2.25382 194.933 1.58965L195.014 1.68764C193.688 1.68764 192.358 1.74571 191.032 1.74934L187.05 1.77111L187.201 1.58965L187.186 5.65087L187.05 5.48756C187.706 5.48756 188.362 5.48755 189.02 5.50933L190.996 5.54925L195.014 5.65087Z" fill="#EBEBEB"/>
<path d="M199.456 10.7719L195.51 10.8735L193.507 10.9134C192.837 10.9316 192.163 10.9134 191.492 10.9316H191.36V10.7682L191.342 6.70701V6.52554H191.492L195.474 6.54732C196.803 6.54732 198.13 6.59087 199.456 6.60902H199.54V6.70701C199.54 7.39658 199.513 8.08253 199.498 8.75759L199.456 10.7719ZM199.456 10.7719L199.414 8.72129C199.414 8.0426 199.381 7.37481 199.375 6.71064L199.456 6.80863C198.13 6.82678 196.803 6.8667 195.474 6.87033L191.492 6.89211L191.643 6.71064V10.7719L191.507 10.6085C192.163 10.6085 192.818 10.6085 193.477 10.6303L195.456 10.6702L199.456 10.7719Z" fill="#EBEBEB"/>
<path d="M8.09912 5.65451L4.15031 5.75613L2.14734 5.79605C1.47968 5.79605 0.806003 5.79605 0.135337 5.81782H0V5.65451V1.59328V1.41181H0.153381L4.13528 1.43722C5.46157 1.43722 6.78787 1.47714 8.11717 1.49529H8.19837V1.59328C8.19837 2.28285 8.17131 2.9688 8.15928 3.64748L8.09912 5.65451ZM8.09912 5.65451L8.05401 3.60393C8.05401 2.92525 8.02093 2.25745 8.01492 1.59328L8.09912 1.69127C6.76982 1.71305 5.44353 1.74934 4.11723 1.75297L0.135337 1.77475L0.28571 1.59328L0.267665 5.65451L0.135337 5.51296C0.790966 5.51296 1.44359 5.51296 2.10222 5.51296L4.08114 5.55288L8.09912 5.65451Z" fill="#EBEBEB"/>
<path d="M105.643 56.0297C105.274 56.4504 104.816 56.7404 104.32 56.8681C104.019 56.9624 103.685 57.0169 103.366 57.0858H102.278C101.83 57.0024 101.376 56.937 100.939 56.8318C99.3097 56.4097 97.766 55.6003 96.3981 54.4509C92.796 51.5772 89.761 47.7834 87.508 43.3379C86.7527 41.871 86.2324 40.2459 85.9742 38.5472C85.9081 38.1008 85.8569 37.6507 85.7998 37.2007V35.8869C85.89 35.3824 85.9622 34.8707 86.0735 34.3735C86.1832 33.9068 86.3903 33.4819 86.675 33.1395C86.7291 33.1975 86.7772 33.2447 86.8253 33.3028C88.5577 35.3909 90.291 37.479 92.0253 39.567C92.0814 39.6234 92.1215 39.6996 92.1398 39.7849C92.1582 39.8702 92.1539 39.9603 92.1275 40.0425C91.9957 40.5599 91.978 41.1099 92.0761 41.6382C92.1742 42.1664 92.3847 42.6547 92.6869 43.0548C94.1662 45.0826 95.7503 46.9954 97.4297 48.7819C97.7645 49.1488 98.1728 49.4037 98.6144 49.5215C99.0559 49.6392 99.5153 49.6157 99.947 49.4533C100.073 49.4134 100.163 49.388 100.272 49.5187C102.042 51.6672 103.817 53.811 105.595 55.9499C105.604 55.9607 105.616 55.9934 105.643 56.0297Z" fill="#EBEBEB"/>
<path d="M109.048 51.337V51.7725C108.891 52.0453 108.721 52.307 108.539 52.5564C108.004 53.2279 107.451 53.8775 106.906 54.5344L106.738 54.7268L101.391 48.2774C102.091 47.4427 102.789 46.5898 103.511 45.7587C103.589 45.671 103.681 45.6033 103.781 45.5593C103.882 45.5154 103.988 45.4963 104.095 45.5031C104.202 45.5098 104.306 45.5424 104.402 45.5988C104.498 45.6551 104.584 45.7342 104.654 45.8313C105.057 46.3031 105.448 46.7858 105.857 47.2612C106.786 48.3863 107.721 49.5042 108.642 50.6365C108.792 50.8568 108.928 51.091 109.048 51.337Z" fill="#EBEBEB"/>
<path d="M95.0296 35.9195C94.368 36.6926 93.6913 37.4475 93.0357 38.1951L87.7305 31.7966C87.8478 31.6696 87.9831 31.5353 88.1064 31.3901C88.5936 30.8058 89.0718 30.207 89.568 29.6335C89.7696 29.4201 89.9815 29.2214 90.2026 29.0383H90.5665C90.7693 29.1886 90.9623 29.3573 91.144 29.5428C92.4432 31.0962 93.7374 32.6568 95.0266 34.2246C95.5138 34.8126 95.5138 35.3425 95.0296 35.9195Z" fill="#EBEBEB"/>
<path d="M6.12012 39.4799H40.9256V12.8333H6.12012V39.4799Z" fill="#EBEBEB"/>
<path d="M47.437 39.4799H40.9258V31.2958L47.437 39.4799Z" fill="#EBEBEB"/>
<path d="M36.8959 17.439H10.1475V17.9471H36.8959V17.439Z" fill="white"/>
<path d="M23.9728 20.1755H10.1475V20.6836H23.9728V20.1755Z" fill="white"/>
<path d="M31.7772 25.6449H10.1475V26.153H31.7772V25.6449Z" fill="white"/>
<path d="M36.8959 28.3778H10.1475V28.8859H36.8959V28.3778Z" fill="white"/>
<path d="M36.8959 31.1107H10.1475V31.6188H36.8959V31.1107Z" fill="white"/>
<path d="M19.6511 33.8472H10.1475V34.3553H19.6511V33.8472Z" fill="white"/>
<path d="M193.93 50.1211H159.125V73.6211H193.93V50.1211Z" fill="#DBDBDB"/>
<path d="M152.614 73.6247H159.125V65.4406L152.614 73.6247Z" fill="#DBDBDB"/>
<path d="M186.52 62.3919H163.233V62.9H186.52V62.3919Z" fill="white"/>
<path d="M181.732 65.1284H163.233V65.6366H181.732V65.1284Z" fill="white"/>
<path d="M183.128 56.9225H163.233V57.4306H183.128V56.9225Z" fill="white"/>
<path d="M189.209 54.1896H163.233V54.6977H189.209V54.1896Z" fill="white"/>
<path d="M183.651 67.8613H163.233V68.3694H183.651V67.8613Z" fill="white"/>
<path d="M176.346 25.144H112.435V28.5266H176.346V25.144Z" fill="#EBEBEB"/>
<path d="M118.82 28.5302H116.017V39.7158H118.82V28.5302Z" fill="#EBEBEB"/>
<path d="M118.82 28.5302H116.017V31.989H118.82V28.5302Z" fill="#DBDBDB"/>
<path d="M172.764 28.5302H169.961V39.7158H172.764V28.5302Z" fill="#EBEBEB"/>
<path d="M172.764 28.5302H169.961V31.989H172.764V28.5302Z" fill="#DBDBDB"/>
<path d="M128.864 25.144V3.58941L124.365 3.58941V25.144H128.864Z" fill="#C7C7C7"/>
<path d="M128.864 4.80524V2.43529L124.365 2.43529V4.80524H128.864Z" fill="#DBDBDB"/>
<path d="M128.861 8.7213V7.843H124.362V8.7213H128.861Z" fill="#DBDBDB"/>
<path d="M129.424 22.3204V19.9505H124.365V22.3204H129.424Z" fill="#DBDBDB"/>
<path d="M132.007 25.144V0L128.864 0V25.144H132.007Z" fill="#DBDBDB"/>
<path d="M131.366 12.0349V2.36269H129.481V12.0349H131.366Z" fill="#EBEBEB"/>
<path d="M154.362 22.4582L139.544 4.78139L137.334 7.4786L152.152 25.1554L154.362 22.4582Z" fill="#C7C7C7"/>
<path d="M150.451 18.8435L144.751 12.0437L143.425 13.6621L149.125 20.4618L150.451 18.8435Z" fill="#DBDBDB"/>
<path d="M137.342 25.1513V6.05011H132.004V25.1513H137.342Z" fill="#A6A6A6"/>
<path d="M137.342 23.1225V21.3441H132.004V23.1225H137.342Z" fill="#C7C7C7"/>
<path d="M137.342 20.1791V19.4895H132.004V20.1791H137.342Z" fill="#C7C7C7"/>
<path d="M124.365 25.1513V7.20061H120.678V25.1513H124.365Z" fill="#A6A6A6"/>
<path d="M124.365 23.2459V21.5728H120.678V23.2459H124.365Z" fill="#C7C7C7"/>
<path d="M124.365 12.572V10.8989H120.678V12.572H124.365Z" fill="#C7C7C7"/>
<path d="M124.365 14.3685V13.7189H120.678V14.3685H124.365Z" fill="#C7C7C7"/>
<path d="M169.628 16.7821L169.228 18.0632L168.981 18.8435L168.578 20.1283L167.008 25.1477H158.518L156.942 20.1283L156.539 18.8435L156.296 18.0632L155.893 16.7821L159.026 11.2691L157.402 7.63612H168.127L166.494 11.2691L169.628 16.7821Z" fill="#DBDBDB"/>
<path d="M169.628 16.7821L169.228 18.0632H156.296L155.893 16.7821H169.628Z" fill="#A6A6A6"/>
<path d="M168.981 18.8435L168.578 20.1283H156.942L156.539 18.8435H168.981Z" fill="#A6A6A6"/>
<path d="M4.0332 122.969L28.0328 122.882L52.0295 122.849L100.026 122.791L148.022 122.849L172.019 122.882L196.018 122.969L172.019 123.06L148.022 123.093L100.026 123.151L52.0295 123.093L28.0328 123.06L4.0332 122.969Z" fill="#263238"/>
<path d="M97.4209 122.962H134.311L126.957 71.3274H99.3697L97.4209 122.962Z" fill="#DBDBDB"/>
<path d="M97.4209 122.962H100.657L102.47 71.3274H99.3697L97.4209 122.962Z" fill="#A6A6A6"/>
<path d="M129.475 81.4496C133.649 92.7005 143.737 111.373 148.251 106.746C155.003 99.8285 159.574 84.5273 161.378 78.3392C162.392 74.8732 147.761 69.0735 146.864 72.2202C145.589 76.6915 143.589 86.0371 142.431 87.3618C141.83 88.055 137.036 79.9361 133.409 76.0854C128.173 70.5362 128.143 77.8565 129.475 81.4496Z" fill="#AD6359"/>
<path d="M165.032 73.1311C163.73 76.6661 158.716 82.6436 157.05 83.5255C155.384 84.4075 146.584 74.8151 146.767 72.5577C146.951 70.3002 152.202 58.4759 155.11 56.6612C158.018 54.8465 166.382 69.4655 165.032 73.1311Z" fill="#AD6359"/>
<path d="M147.457 70.0752C147.457 70.0752 147.667 65.045 146.614 60.7914C145.73 57.2165 144.085 52.0302 145.658 51.3841C148.894 50.0594 152.996 62.998 152.996 62.998C152.996 62.998 154.049 69.059 150.942 70.714C148.993 71.752 147.457 70.0752 147.457 70.0752Z" fill="#AD6359"/>
<path d="M151.105 60.5337C151.315 62.5698 153.183 61.1035 153.183 61.1035C153.183 61.1035 150.918 64.007 151.808 65.9922C152.675 67.9121 154.876 66.043 155.035 65.9124C154.915 66.0684 152.894 68.7904 153.962 70.685C155.072 72.6521 157.014 70.322 157.141 70.1696C157.066 70.3547 156.121 72.8626 157.204 74.082C159.063 76.1689 161.625 69.8393 163.598 69.1316C163.598 69.1316 164.975 73.0259 165.032 73.1239C165.032 73.1239 167.574 67.1572 166.635 63.9997C166.504 63.5384 166.246 63.145 165.904 62.8844C165.562 62.6238 165.157 62.5115 164.756 62.5661C164.756 62.5661 165.751 60.7515 164.951 59.2271C164.536 58.4468 163.147 58.5485 163.147 58.5485C163.147 58.5485 163.893 57.0568 163.111 55.7575C162.488 54.7159 161.18 54.9808 161.18 54.9808C161.18 54.9808 161.345 53.1444 160.425 52.3314C158.554 50.6909 150.651 56.1749 151.105 60.5337Z" fill="#AD6359"/>
<path d="M160.954 54.9917C160.981 54.9736 160.954 54.9264 160.939 54.9373C157.973 55.9753 154.981 58.2037 153.074 61.1688C153.011 61.2668 153.113 61.4302 153.201 61.3394C155.664 58.7444 157.995 56.6866 160.954 54.9917Z" fill="#263238"/>
<path d="M163.164 58.5013C163.197 58.4831 163.164 58.4178 163.137 58.4287C160.085 59.5175 156.774 62.1524 154.906 65.8725C154.843 65.9995 154.891 66.1918 154.975 66.0539C156.371 63.7021 160.494 60.0147 163.164 58.5013Z" fill="#263238"/>
<path d="M157.083 70.4781C158.987 66.9939 161.624 64.5949 164.629 62.6024C164.665 62.577 164.629 62.5153 164.596 62.5262C162.905 63.0162 161.101 64.526 159.784 65.8471C158.537 67.0422 157.572 68.6116 156.987 70.3982C156.96 70.4781 157.044 70.5579 157.083 70.4781Z" fill="#263238"/>
<path d="M153.122 61.0999C153.047 61.216 153.273 61.2196 153.2 61.3394C152.9 61.8403 151.291 65.0522 152.028 66.0576C152.629 66.8596 153.919 66.4532 154.37 66.0576L155.498 65.074L154.722 66.4858C154.373 67.1044 154.109 67.7871 153.94 68.5074C153.847 68.8354 153.812 69.1836 153.839 69.5289C153.865 69.8743 153.952 70.2089 154.094 70.5107C154.226 70.7904 154.435 71.0063 154.684 71.122C154.934 71.2377 155.208 71.2461 155.462 71.1459C156.028 70.911 156.534 70.5048 156.933 69.9663L158.076 68.5146L157.39 70.3293C157.198 70.8313 157.06 71.3606 156.978 71.9044C156.886 72.4157 156.92 72.9482 157.077 73.436C157.155 73.6507 157.28 73.8353 157.439 73.9692C157.599 74.1032 157.786 74.1811 157.979 74.1945C158.419 74.1407 158.836 73.9368 159.182 73.6066C159.942 72.9064 160.655 72.1358 161.315 71.3019C161.66 70.8955 162.006 70.4853 162.37 70.0934C162.712 69.6806 163.122 69.3592 163.573 69.1497C163.144 69.412 162.762 69.7733 162.448 70.2131C162.115 70.6305 161.796 71.066 161.477 71.5052C160.851 72.4118 160.156 73.2465 159.402 73.9985C158.998 74.4125 158.502 74.676 157.976 74.7571C157.686 74.7604 157.402 74.6625 157.157 74.4751C156.912 74.2877 156.717 74.0189 156.596 73.7009C156.385 73.1022 156.328 72.4413 156.43 71.8028C156.511 71.1955 156.658 70.6037 156.867 70.0426L157.324 70.4055C156.86 71.0509 156.265 71.5389 155.597 71.8209C155.223 71.9654 154.819 71.9474 154.455 71.7701C154.102 71.5839 153.805 71.2741 153.6 70.8809C153.421 70.498 153.312 70.0735 153.278 69.6356C153.245 69.1977 153.289 68.7562 153.408 68.3404C153.6 67.5516 153.9 66.807 154.295 66.1374L154.647 66.5511C154.046 67.023 152.65 67.669 151.6 66.5693C150.44 64.8671 152.68 61.6515 153.122 61.0999Z" fill="#263238"/>
<path d="M153.183 61.1035C152.858 61.26 152.515 61.3567 152.166 61.3902C152.026 61.4077 151.885 61.3795 151.757 61.3087C151.629 61.2378 151.519 61.1269 151.438 60.9874C151.297 60.6516 151.239 60.2732 151.273 59.8986C151.291 59.4848 151.327 59.0529 151.381 58.6065C151.152 58.9712 150.99 59.3907 150.906 59.8369C150.848 60.0777 150.83 60.3299 150.854 60.579C150.877 60.8282 150.941 61.0693 151.041 61.2886C151.173 61.5164 151.359 61.691 151.574 61.7895C151.781 61.8711 152.003 61.8812 152.214 61.8185C152.592 61.7093 152.93 61.459 153.183 61.1035Z" fill="#263238"/>
<path d="M145.974 72.5577L161.203 85.3584C161.203 85.3584 152.106 108.103 146.485 108.042C140.864 107.98 132.744 90.9439 129.944 83.58C127.144 76.2161 128.813 69.9772 134.479 76.6843C140.145 83.3913 142.175 86.1568 142.359 86.0661C142.702 85.8991 145.974 72.5577 145.974 72.5577Z" fill="#F57C00"/>
<path d="M161.204 85.3584C161.204 85.3584 154.888 101.131 149.538 106.372C148.464 107.425 147.433 108.053 146.485 108.038C140.864 107.98 132.744 90.9403 129.929 83.58C128.188 79.0215 128.173 74.895 129.755 74.0058C130.732 73.4578 132.311 74.1328 134.467 76.6951C140.182 83.4493 142.161 86.1641 142.347 86.0733C142.702 85.8991 145.977 72.5613 145.977 72.5613L161.204 85.3584Z" fill="#F57C00"/>
<path d="M151.779 103.687C151.592 103.948 151.403 104.202 151.213 104.449C149.499 105.751 147.577 106.601 145.571 106.942C145.018 107.016 144.461 107.042 143.905 107.022L143.559 106.761C144.223 106.809 144.889 106.788 145.55 106.699C146.341 106.595 147.12 106.378 147.869 106.053L148.437 105.828L148.988 105.548C149.171 105.454 149.361 105.374 149.538 105.265L150.07 104.939C150.663 104.568 151.233 104.15 151.779 103.687ZM140.224 83.649C138.486 84.6029 136.901 85.9186 135.541 87.536C134.659 88.5845 133.844 89.7116 133.102 90.9076C133.138 90.9875 133.177 91.0709 133.22 91.1508C133.97 89.9346 134.798 88.7904 135.695 87.7283C136.834 86.3774 138.132 85.2365 139.547 84.3422L140.08 84.0155C140.177 83.9557 140.278 83.9024 140.38 83.8558L140.224 83.649ZM153.379 84.8067C151.934 83.9536 150.423 83.2764 148.867 82.7852C148.705 82.738 148.543 82.6908 148.377 82.6509C148.272 82.6218 148.164 82.5928 148.058 82.571C146.744 82.2386 145.394 82.1553 144.058 82.3242C143.863 82.3569 143.67 82.3932 143.475 82.4368C143.454 82.5202 143.43 82.6073 143.409 82.6872C143.631 82.64 143.857 82.6001 144.083 82.5674C145.322 82.4094 146.575 82.4717 147.8 82.7525L148.128 82.8251C148.359 82.8832 148.591 82.9449 148.822 83.0138C150.365 83.4935 151.864 84.1574 153.297 84.9954C155.445 86.2666 157.528 87.6906 159.535 89.2599C159.565 89.1982 159.592 89.1365 159.616 89.0784C157.609 87.5061 155.526 86.0796 153.379 84.8067ZM154.958 80.1103C152.519 80.2318 150.143 81.077 148.04 82.571L147.782 82.7525C147.251 83.1366 146.738 83.5558 146.245 84.0083C143.667 86.3746 141.61 89.416 139.653 92.4755C138.672 94.0107 137.71 95.5568 136.693 97.0521C136.621 97.161 136.546 97.2662 136.471 97.3751L136.585 97.5747C136.672 97.4513 136.759 97.3279 136.844 97.2118C137.866 95.7129 138.831 94.1668 139.815 92.6352C141.773 89.5865 143.827 86.5669 146.377 84.2333C146.93 83.7244 147.509 83.2578 148.11 82.836C148.191 82.7743 148.275 82.7162 148.359 82.6618C149.06 82.1874 149.79 81.7796 150.543 81.4423L151.105 81.1955C151.291 81.1157 151.487 81.0612 151.679 80.9923L152.254 80.7999L152.855 80.6584C153.632 80.4471 154.426 80.3472 155.222 80.3608H155.258L154.958 80.1103ZM136.266 78.8437C135.215 79.4072 134.117 79.8319 132.991 80.1103L132.405 80.2483C132.209 80.2918 132.011 80.3063 131.803 80.339L131.202 80.4225L130.6 80.4515C130.051 80.4975 129.499 80.4854 128.952 80.4152L129.006 80.6547C131.548 80.8787 134.096 80.3244 136.413 79.0433C136.38 78.9744 136.323 78.909 136.266 78.8437ZM131.929 74.3361C130.864 75.2091 129.76 76.01 128.621 76.7351C128.621 76.833 128.621 76.931 128.621 77.0327C129.836 76.2658 131.011 75.4101 132.14 74.4704C132.068 74.4232 131.998 74.376 131.929 74.3361Z" fill="white"/>
<path d="M157.603 87.4924C157.2 87.0896 156.794 86.6976 156.385 86.3056C155.555 85.5144 154.725 84.7269 153.895 83.9429C152.241 82.3859 150.551 80.8834 148.849 79.4063C147.883 78.5642 146.933 77.6787 145.937 76.8911C145.933 76.8868 145.927 76.8837 145.922 76.8819C145.916 76.8802 145.91 76.8798 145.904 76.8808C145.898 76.8818 145.892 76.8842 145.887 76.8878C145.882 76.8915 145.878 76.8963 145.874 76.902C145.871 76.9077 145.868 76.9142 145.867 76.9212C145.865 76.9281 145.865 76.9353 145.866 76.9424C145.867 76.9494 145.869 76.9563 145.872 76.9624C145.875 76.9686 145.879 76.9739 145.883 76.9782C146.674 77.8202 147.522 78.5896 148.343 79.3917C149.164 80.1938 149.979 80.9995 150.813 81.7835C152.469 83.3368 154.145 84.8599 155.841 86.3528C156.313 86.7738 156.779 87.2166 157.27 87.6122C157.519 87.8154 157.757 88.0404 158.009 88.2364C158.262 88.4324 158.533 88.5994 158.779 88.8208C158.785 88.8246 158.792 88.8259 158.798 88.8244C158.804 88.8229 158.81 88.8187 158.814 88.8126C158.818 88.8064 158.82 88.7987 158.82 88.7909C158.819 88.7831 158.817 88.7756 158.812 88.7699C158.4 88.3526 158.015 87.8989 157.603 87.4924Z" fill="#263238"/>
<path d="M142.476 85.6596C141.894 87.5556 141.416 89.4954 141.044 91.4665C140.846 92.4392 140.689 93.4228 140.536 94.4027C140.373 95.3765 140.265 96.3622 140.211 97.3533C140.211 97.3896 140.256 97.3896 140.262 97.3533C140.515 96.4061 140.701 95.4189 140.882 94.4499C141.062 93.4808 141.267 92.5045 141.447 91.5464C141.811 89.5938 142.238 87.6594 142.554 85.6959C142.556 85.6897 142.557 85.6831 142.557 85.6765C142.556 85.6698 142.555 85.6633 142.553 85.6572C142.551 85.6512 142.547 85.6457 142.544 85.6411C142.54 85.6365 142.535 85.633 142.53 85.6306C142.525 85.6282 142.519 85.627 142.514 85.6272C142.508 85.6274 142.503 85.6289 142.498 85.6316C142.493 85.6343 142.488 85.6381 142.484 85.6429C142.481 85.6477 142.478 85.6534 142.476 85.6596Z" fill="#263238"/>
<path opacity="0.1" d="M149.538 106.372C148.464 107.425 147.433 108.053 146.485 108.038C140.864 107.98 132.744 90.9403 129.929 83.58C128.188 79.0215 128.173 74.895 129.755 74.0058L149.538 106.372Z" fill="black"/>
<path d="M140.819 122.962H104.257C103.854 122.069 109.845 83.4239 122.176 72.5395C124.913 70.126 129.767 71.6794 131.114 74.0276C137.899 85.8266 140.819 122.962 140.819 122.962Z" fill="#F57C00"/>
<path d="M138.918 105.806C138.005 105.416 137.11 104.967 136.238 104.46C135.014 103.752 133.832 102.968 132.656 102.14L132.485 102.017C131.282 101.157 130.079 100.246 128.9 99.3277L128.731 99.197L127.931 98.5728C125.225 96.4787 122.56 94.3228 119.67 92.6461C118.241 91.784 116.724 91.1543 115.159 90.7733C114.373 90.6042 113.573 90.5506 112.777 90.6137C112.578 90.6137 112.383 90.6645 112.175 90.6971C112.04 90.7298 111.905 90.7516 111.766 90.7842C111.787 90.7262 111.805 90.6717 111.829 90.6137C111.938 90.5882 112.049 90.5665 112.157 90.5374C112.356 90.5084 112.557 90.4721 112.759 90.454C113.563 90.3888 114.371 90.4412 115.165 90.61C116.747 90.9877 118.28 91.6188 119.724 92.4864C122.629 94.1631 125.312 96.319 128.013 98.4058L128.807 99.0192L128.978 99.1499C130.181 100.083 131.384 101.008 132.632 101.883L132.804 102.006C133.946 102.808 135.11 103.57 136.307 104.256C137.143 104.739 138 105.169 138.873 105.545L138.918 105.806ZM135.664 87.3799L135.54 87.5215C133.222 90.2471 131.489 93.5716 129.856 96.896C129.511 97.605 129.165 98.3127 128.816 99.0192C128.789 99.0809 128.762 99.139 128.731 99.197C128.289 100.097 127.844 100.994 127.381 101.875C126.975 102.652 126.551 103.418 126.1 104.158C126.058 104.227 126.019 104.296 125.977 104.362C125.52 105.106 125.028 105.817 124.503 106.492C123.956 107.193 123.351 107.825 122.698 108.379L122.455 108.586C122.374 108.655 122.283 108.71 122.199 108.771L121.685 109.134C121.33 109.35 120.965 109.538 120.59 109.697C119.073 110.305 117.485 110.615 115.887 110.615C114.294 110.607 112.706 110.389 111.153 109.965C109.649 109.581 108.19 109.065 106.72 108.55C106.72 108.608 106.696 108.666 106.681 108.72C108.148 109.239 109.622 109.762 111.12 110.15C112.692 110.583 114.298 110.807 115.911 110.818C117.527 110.819 119.133 110.508 120.668 109.896C121.052 109.737 121.425 109.547 121.787 109.327L122.314 108.964C122.402 108.906 122.489 108.843 122.572 108.775L122.822 108.564C123.484 108.005 124.098 107.365 124.653 106.655C125.213 105.932 125.737 105.17 126.223 104.372C126.268 104.304 126.307 104.238 126.347 104.169C126.774 103.465 127.177 102.743 127.55 102.01C128.016 101.128 128.452 100.231 128.903 99.335L128.99 99.1571L130.034 97.0303C131.67 93.7095 133.402 90.414 135.697 87.7211L135.736 87.6775C135.709 87.5723 135.685 87.4743 135.664 87.3799ZM137.399 95.9996C137.167 96.3625 136.933 96.7037 136.695 97.0521C135.699 98.5627 134.587 99.9554 133.372 101.211C133.131 101.44 132.891 101.669 132.641 101.883L132.485 102.017C132.137 102.313 131.772 102.58 131.393 102.815L131.131 102.986C131.044 103.044 130.948 103.084 130.858 103.135L130.31 103.418C129.937 103.581 129.555 103.713 129.168 103.814C128.235 104.054 127.285 104.176 126.331 104.176H126.1C125.535 104.176 124.969 104.122 124.407 104.049C122.82 103.808 121.259 103.357 119.754 102.703C118.25 102.075 116.768 101.302 115.294 100.525C113.827 99.7246 112.321 99.0349 110.783 98.4603C110.329 98.3042 109.881 98.1663 109.399 98.0647L109.354 98.2207C109.823 98.326 110.29 98.4603 110.744 98.62C112.273 99.1964 113.77 99.8873 115.228 100.689C116.702 101.454 118.175 102.231 119.694 102.866C121.212 103.525 122.785 103.983 124.386 104.231C124.915 104.304 125.444 104.351 125.974 104.362C126.052 104.362 126.127 104.362 126.205 104.362C127.215 104.381 128.224 104.267 129.213 104.02C129.608 103.915 129.998 103.78 130.38 103.618L130.939 103.327C131.032 103.276 131.125 103.236 131.216 103.178L131.483 103.004C131.894 102.752 132.288 102.462 132.662 102.137L132.819 102.003C133.047 101.803 133.273 101.592 133.495 101.378C134.722 100.117 135.846 98.7172 136.852 97.1973C137.052 96.8997 137.253 96.5984 137.453 96.2936C137.435 96.1992 137.417 96.0976 137.399 95.9996ZM133.622 79.9398C133.411 80.0015 133.201 80.0595 132.99 80.1104L132.404 80.2483C132.208 80.2918 132.01 80.3063 131.802 80.339L131.201 80.4225L130.599 80.4515C129.805 80.5135 129.007 80.4624 128.223 80.2991C126.993 80.0425 125.801 79.5667 124.686 78.8873L124.386 78.7094C124.175 78.5788 123.968 78.4409 123.763 78.2993C122.386 77.3239 121.095 76.1833 119.908 74.895L119.775 75.0547C120.973 76.3567 122.276 77.5117 123.664 78.5025C123.808 78.6042 123.965 78.7022 124.103 78.7965L124.404 78.978C125.593 79.7309 126.871 80.2585 128.193 80.5422C130.026 80.8527 131.891 80.7294 133.685 80.1793C133.673 80.0995 133.646 80.0196 133.622 79.9398ZM131.48 74.6954C129.883 75.9882 128.179 77.0769 126.395 77.9436C125.748 78.2478 125.086 78.5036 124.413 78.7094L124.13 78.7965C123.348 79.0159 122.554 79.1651 121.754 79.2429L121.153 79.2901C120.954 79.3083 120.756 79.2901 120.551 79.2901H119.95L119.348 79.232C118.624 79.1815 117.906 79.0367 117.207 78.8002C117.165 78.8691 117.123 78.9381 117.084 79.0107C119.485 79.7386 122 79.7274 124.398 78.978L124.698 78.8873C125.298 78.6955 125.889 78.4629 126.467 78.1904C128.26 77.3178 129.973 76.2232 131.58 74.924L131.48 74.6954ZM140.476 119.166C140.175 119.166 139.85 119.198 139.537 119.209H139.513L139.33 119.227C137.789 119.422 136.291 119.96 134.912 120.813C133.925 121.435 132.983 122.154 132.094 122.962H132.283C133.131 122.204 134.029 121.529 134.966 120.944C136.357 120.087 137.869 119.554 139.423 119.373H139.534H139.606C139.907 119.373 140.19 119.333 140.479 119.336C140.485 119.271 140.482 119.22 140.476 119.166ZM140.632 120.835C140.305 120.334 139.967 119.842 139.619 119.358C139.585 119.307 139.549 119.26 139.513 119.213L139.39 119.039C138.339 117.561 137.131 116.257 135.796 115.162C135.119 114.629 134.389 114.199 133.625 113.881C133.435 113.805 133.237 113.74 133.044 113.674C132.852 113.609 132.65 113.558 132.443 113.526C132.046 113.435 131.64 113.428 131.24 113.38C129.623 113.309 128.01 113.619 126.491 114.291C124.986 114.982 123.549 115.87 122.205 116.941C119.799 118.81 117.607 121.009 115.264 122.962H115.363C117.694 121.042 119.874 118.883 122.256 117.053C123.595 115.99 125.027 115.11 126.527 114.429C128.031 113.765 129.627 113.461 131.228 113.533C131.622 113.584 132.025 113.591 132.416 113.682C132.614 113.714 132.804 113.783 132.999 113.831C133.195 113.878 133.384 113.958 133.57 114.034C134.324 114.349 135.042 114.775 135.709 115.304C137.032 116.392 138.228 117.688 139.267 119.158C139.285 119.184 139.303 119.206 139.318 119.231L139.423 119.373C139.844 119.964 140.256 120.567 140.653 121.187C140.656 121.071 140.644 120.959 140.626 120.835H140.632Z" fill="white"/>
<path d="M117.321 77.2758C109.878 87.6666 99.8447 106.02 103.944 110.078C110.684 116.748 130.368 120.603 134.885 121.249C136.834 121.532 140.737 106.158 139.435 104.169C138.133 102.18 117.321 100.776 117.18 99.2333C117.099 98.3587 120.259 90.7516 122.293 81.4205C124.629 70.6632 119.417 74.347 117.321 77.2758Z" fill="#AD6359"/>
<path d="M136.025 102.903C136.025 102.903 141.998 102.848 145.904 103.033C148.085 103.135 151.808 103.716 153.381 104.677C155.733 106.111 164.809 113.932 163.288 116.629C161.907 119.068 154.816 111.156 154.816 111.156C154.816 111.156 162.557 118.378 160.449 120.955C158.34 123.532 151.312 113.304 151.312 113.304C151.312 113.304 159.131 120.926 156.608 123.176C154.701 124.864 147.904 116.037 147.904 116.037C147.904 116.037 154.584 122.653 152.686 124.493C150.581 126.526 143.889 118.854 143.889 118.854C138.416 122.548 134.566 121.605 131.86 120.541C131.225 120.269 136.025 102.903 136.025 102.903Z" fill="#AD6359"/>
<path d="M152.272 108.452C153.207 109.261 154.157 110.071 155.029 110.992C155.902 111.914 156.747 112.84 157.547 113.841C159.505 116.295 160.413 118.197 160.344 118.088C158.768 115.478 155.688 112.179 154.816 111.272C153.944 110.364 153.111 109.41 152.242 108.506C152.22 108.466 152.251 108.434 152.272 108.452Z" fill="#263238"/>
<path d="M149.505 112.194C150.66 113.282 151.842 114.32 152.958 115.478C154.073 116.636 155.583 118.305 156.627 119.547C156.705 119.641 156.627 119.823 156.543 119.732C155.46 118.541 153.851 116.915 152.756 115.74C151.661 114.564 150.606 113.341 149.481 112.219C149.463 112.215 149.487 112.176 149.505 112.194Z" fill="#263238"/>
<path d="M146.641 114.887C148.479 116.451 150.076 118.422 151.604 120.4C151.682 120.498 151.604 120.512 151.508 120.418C149.887 118.549 148.623 117.068 146.596 114.974C146.572 114.93 146.611 114.854 146.641 114.887Z" fill="#263238"/>
<path d="M135.186 102.674C137.911 102.652 145.914 102.627 148.633 102.881C151.038 103.102 153.02 103.726 155.038 105.338C159.369 108.793 162.16 112.851 162.858 114.048C163.279 114.774 163.889 115.946 163.333 116.759C162.65 117.747 160.139 116.781 157.49 113.889C157.393 113.783 157.453 113.718 157.553 113.816C161.273 117.445 162.753 117.032 163.141 116.411C163.393 116.008 163.141 115.322 162.924 114.778C162.562 114.007 162.119 113.296 161.607 112.662C159.898 110.456 158.007 108.465 155.965 106.721C153.776 104.749 151.169 103.568 148.446 103.313C145.661 103.037 137.956 103.124 135.174 102.801C135.117 102.779 135.126 102.678 135.186 102.674Z" fill="#263238"/>
<path d="M160.891 119.503C160.738 118.607 160.202 117.786 159.778 117.046C159.263 116.114 158.672 115.247 158.013 114.458C157.986 114.426 157.935 114.458 157.962 114.509C158.523 115.301 159.044 116.132 159.523 116.999C159.777 117.476 160.008 117.97 160.214 118.48C160.41 118.97 160.642 119.536 160.539 120.095C160.347 121.162 159.222 121.136 158.557 120.85C158.127 120.654 157.712 120.411 157.318 120.124C156.782 119.711 156.273 119.249 155.796 118.741C155.757 118.697 155.649 118.716 155.691 118.763C156.684 119.902 158.563 122.272 160.097 121.405C160.392 121.248 160.632 120.973 160.776 120.626C160.921 120.279 160.962 119.882 160.891 119.503Z" fill="#263238"/>
<path d="M136.115 101.97L128.961 121.568C128.961 121.568 103.957 114.756 102.507 109.029C101.057 103.302 108.892 87.9787 115.962 78.4118C122.916 69.0118 123.944 75.3886 122.215 82.6581C120.486 89.9277 117.65 98.3078 117.965 98.9357C118.281 99.5636 136.115 101.97 136.115 101.97Z" fill="#F57C00"/>
<path d="M119.574 92.3993C119.556 92.4537 119.541 92.5118 119.523 92.5662C118.134 91.7418 116.662 91.1391 115.144 90.7733C114.359 90.6042 113.559 90.5506 112.762 90.6136C112.564 90.6136 112.368 90.6645 112.161 90.6971C111.953 90.7298 111.77 90.7697 111.577 90.835C111.186 90.9367 110.817 91.1181 110.435 91.2597C108.961 91.9364 107.609 92.9493 106.453 94.243L106.642 93.8474C107.745 92.6722 109.014 91.7464 110.389 91.1145C110.774 90.9693 111.15 90.7842 111.547 90.6826C111.743 90.6173 111.944 90.5882 112.149 90.5374C112.353 90.4866 112.549 90.4721 112.75 90.454C113.555 90.3888 114.362 90.4412 115.156 90.61C116.687 90.9721 118.172 91.5736 119.574 92.3993ZM132.807 102.006L132.636 101.883L131.95 101.393L131.535 101.335C131.836 101.563 132.164 101.796 132.479 102.017L132.651 102.14C133.553 102.776 134.455 103.385 135.382 103.955L135.454 103.755C134.564 103.2 133.682 102.616 132.807 102.006ZM127.926 100.805C127.746 101.168 127.562 101.531 127.376 101.875C126.97 102.652 126.546 103.418 126.095 104.158C126.052 104.227 126.013 104.296 125.971 104.362C125.515 105.106 125.023 105.817 124.498 106.492C123.95 107.193 123.346 107.825 122.693 108.379L122.449 108.586C122.368 108.655 122.278 108.71 122.194 108.771L121.68 109.134C121.325 109.35 120.959 109.538 120.585 109.697C119.068 110.305 117.48 110.615 115.881 110.615C114.29 110.607 112.705 110.389 111.153 109.965C109.586 109.562 108.05 109.014 106.507 108.474C105.138 107.995 103.761 107.512 102.354 107.196C102.354 107.254 102.354 107.312 102.354 107.367C103.746 107.682 105.108 108.169 106.471 108.644C108.011 109.189 109.553 109.733 111.126 110.15C112.698 110.583 114.305 110.807 115.917 110.818C117.534 110.819 119.14 110.508 120.675 109.896C121.058 109.737 121.432 109.547 121.794 109.327L122.32 108.964C122.409 108.906 122.495 108.843 122.579 108.775L122.828 108.564C123.491 108.005 124.105 107.365 124.66 106.655C125.22 105.932 125.744 105.17 126.23 104.372C126.275 104.304 126.314 104.238 126.353 104.169C126.78 103.465 127.183 102.743 127.556 102.01C127.761 101.625 127.959 101.233 128.158 100.845L127.926 100.805ZM133.015 101.531C132.891 101.647 132.765 101.763 132.636 101.872L132.479 102.006C132.131 102.303 131.767 102.569 131.388 102.805L131.126 102.975C131.039 103.033 130.943 103.073 130.852 103.124L130.305 103.407C129.932 103.57 129.55 103.702 129.162 103.803C128.23 104.044 127.279 104.165 126.326 104.166H126.095C125.529 104.166 124.964 104.111 124.401 104.039C122.814 103.797 121.254 103.346 119.749 102.692C118.245 102.064 116.762 101.291 115.289 100.514C113.822 99.7137 112.315 99.024 110.777 98.4494C109.235 97.9159 107.59 97.6255 105.993 98.003C105.484 98.1262 104.993 98.3326 104.531 98.6163C104.501 98.6889 104.471 98.7651 104.444 98.8377C104.938 98.5197 105.468 98.2899 106.017 98.1554C107.587 97.7925 109.211 98.0756 110.738 98.6091C112.267 99.1855 113.765 99.8764 115.222 100.678C116.696 101.444 118.17 102.22 119.689 102.855C121.208 103.519 122.784 103.98 124.386 104.231C124.916 104.303 125.445 104.351 125.974 104.362C126.052 104.362 126.128 104.362 126.206 104.362C127.216 104.381 128.224 104.267 129.213 104.02C129.609 103.915 129.998 103.78 130.38 103.618L130.94 103.327C131.033 103.276 131.126 103.236 131.216 103.178L131.484 103.004C131.895 102.752 132.289 102.462 132.663 102.137L132.819 102.002C132.976 101.865 133.12 101.719 133.288 101.574L133.015 101.531ZM119.92 74.8768C119.791 74.7389 119.665 74.6046 119.538 74.4631L119.376 74.5901L119.797 75.0438C120.776 76.1019 121.822 77.0665 122.925 77.9291C122.925 77.8384 122.925 77.7476 122.925 77.6605C121.869 76.8282 120.867 75.9013 119.926 74.8877L119.92 74.8768ZM121.749 79.232L121.147 79.2792C120.949 79.2974 120.75 79.2792 120.546 79.2792H119.944L119.343 79.2212C118.547 79.1638 117.76 78.9957 116.997 78.7203C116.663 78.6005 116.332 78.4626 116.007 78.3029L115.935 78.4009L115.866 78.4953C116.217 78.6726 116.575 78.8265 116.94 78.9562C118.845 79.57 120.834 79.7034 122.783 79.3482C122.783 79.2575 122.804 79.1704 122.816 79.0796C122.483 79.1595 122.119 79.2103 121.755 79.2429L121.749 79.232ZM131.24 113.37C129.623 113.302 128.01 113.615 126.492 114.291C124.987 114.982 123.549 115.87 122.206 116.941C121.454 117.529 120.72 118.146 119.995 118.781L120.113 118.821C120.816 118.207 121.529 117.616 122.26 117.053C123.599 115.99 125.031 115.11 126.531 114.429C128.034 113.765 129.631 113.461 131.231 113.533C131.439 113.558 131.646 113.573 131.854 113.595L131.911 113.442C131.697 113.42 131.469 113.406 131.246 113.38L131.24 113.37Z" fill="white"/>
<path d="M126.091 118.327C126.335 117.768 126.569 117.209 126.804 116.647C127.275 115.507 127.744 114.365 128.211 113.221C129.138 110.949 130.016 108.648 130.861 106.325C131.345 105.011 131.871 103.712 132.307 102.373C132.313 102.359 132.313 102.344 132.309 102.33C132.305 102.316 132.296 102.305 132.285 102.298C132.274 102.292 132.261 102.291 132.249 102.296C132.238 102.302 132.228 102.312 132.223 102.326C131.703 103.432 131.252 104.59 130.771 105.726C130.289 106.862 129.799 107.987 129.336 109.134C128.414 111.406 127.52 113.696 126.653 116.004C126.41 116.651 126.145 117.289 125.926 117.95C125.811 118.287 125.679 118.614 125.568 118.955C125.456 119.296 125.372 119.645 125.267 119.982C125.266 119.986 125.265 119.99 125.265 119.994C125.265 119.998 125.265 120.001 125.266 120.005C125.267 120.009 125.269 120.012 125.271 120.015C125.273 120.018 125.276 120.02 125.279 120.022C125.282 120.024 125.285 120.025 125.288 120.025C125.292 120.025 125.295 120.025 125.298 120.023C125.301 120.022 125.304 120.02 125.306 120.017C125.309 120.014 125.311 120.011 125.312 120.008C125.556 119.445 125.841 118.901 126.091 118.327Z" fill="#263238"/>
<path d="M129.499 120.222L128.997 121.594L128.982 121.637H128.934C126.567 121.107 124.215 120.472 121.878 119.764C119.541 119.057 117.223 118.255 114.928 117.362C112.625 116.483 110.367 115.444 108.164 114.248C107.059 113.648 105.992 112.952 104.97 112.165C104.461 111.764 103.979 111.313 103.53 110.818C103.066 110.339 102.712 109.726 102.498 109.036C102.764 109.684 103.152 110.247 103.632 110.68C104.107 111.12 104.61 111.512 105.139 111.853C106.183 112.553 107.262 113.177 108.369 113.722C110.579 114.829 112.85 115.772 115.132 116.658C117.415 117.543 119.719 118.367 122.029 119.158C124.338 119.95 126.657 120.734 128.979 121.485L128.919 121.521L129.499 120.222Z" fill="#263238"/>
<path d="M135.83 102.732L136.079 101.952L136.106 102.006C133.598 101.807 131.093 101.563 128.588 101.248C126.083 100.932 123.592 100.587 121.102 100.137C120.48 100.021 119.857 99.8975 119.235 99.7523C118.934 99.6761 118.612 99.6035 118.29 99.4946C118.209 99.4656 118.131 99.4366 118.044 99.3966C117.994 99.3769 117.945 99.3514 117.899 99.3204C117.864 99.2977 117.831 99.271 117.8 99.2406C117.768 99.2078 117.74 99.1685 117.719 99.1244C117.707 99.0961 117.695 99.067 117.686 99.0373C117.684 99.0229 117.684 99.0082 117.686 98.9938C117.674 98.8556 117.68 98.716 117.704 98.58C117.719 98.4821 117.734 98.3768 117.755 98.2861C118.074 96.7799 118.477 95.3572 118.886 93.9309C119.704 91.0601 120.594 88.2256 121.532 85.4092C120.807 88.3127 120.065 91.2161 119.325 94.1196C118.97 95.5713 118.579 97.0231 118.305 98.4748C118.287 98.5655 118.278 98.649 118.263 98.7361C118.248 98.8232 118.263 98.9248 118.248 98.8885C118.245 98.8693 118.239 98.8509 118.23 98.8341C118.23 98.7978 118.176 98.7615 118.188 98.7688C118.173 98.7688 118.2 98.776 118.188 98.7688L118.263 98.8051L118.462 98.8813C118.762 98.9756 119.063 99.0446 119.364 99.1172C119.965 99.2515 120.594 99.3676 121.21 99.4801C122.45 99.7051 123.691 99.9169 124.934 100.115L128.666 100.721C131.153 101.121 133.64 101.549 136.128 101.988H136.173L136.155 102.035L135.83 102.732Z" fill="#263238"/>
<path d="M121.799 87.2674C121.623 87.7794 121.4 88.2663 121.135 88.7191C120.885 89.1824 120.581 89.5993 120.232 89.9567C120.461 89.474 120.705 89.0167 120.963 88.5631C121.214 88.1062 121.494 87.6731 121.799 87.2674Z" fill="#263238"/>
<path d="M129.087 80.564C126.964 81.2899 123.138 77.5408 121.568 74.4159C121.46 74.2018 121.887 65.3752 121.821 63.615C121.821 63.2521 131.066 65.7926 131.066 65.7926C131.066 65.7926 130.305 69.5308 130.437 72.5976C130.447 72.8589 131.135 79.8599 129.087 80.564Z" fill="#AD6359"/>
<path d="M121.68 69.1425C126.007 72.8299 130.224 71.4145 130.401 71.3491C130.473 69.4783 130.687 67.6194 131.042 65.7962C131.042 65.7962 121.779 63.2557 121.794 63.6186C121.848 64.4425 121.773 66.8233 121.68 69.1425Z" fill="#263238"/>
<path d="M131.02 58.523C131.258 61.1289 132.987 63.0379 134.879 62.7839C136.771 62.5298 138.115 60.2179 137.886 57.6157C137.658 55.0135 135.922 53.1008 134.028 53.3549C132.133 53.6089 130.783 55.9208 131.02 58.523Z" fill="#455A64"/>
<path d="M129.926 58.8352C130.191 61.7386 132.112 63.8546 134.218 63.5751C136.323 63.2956 137.827 60.7224 137.553 57.8226C137.279 54.9228 135.369 52.8032 133.261 53.0827C131.153 53.3621 129.661 55.939 129.926 58.8352Z" fill="#C7C7C7"/>
<path d="M120.54 50.3534C119.529 54.2658 121.187 65.5966 123.481 68.1372C126.811 71.8209 132.29 72.2093 134.889 67.375C137.409 62.6859 135.033 47.9689 132.465 45.6571C128.684 42.2455 122.032 44.5791 120.54 50.3534Z" fill="#AD6359"/>
<path d="M128.341 57.4669C128.341 57.4415 128.299 57.5141 128.305 57.5468C128.443 58.3017 128.5 59.1981 127.971 59.5828C127.953 59.5828 127.971 59.6336 127.971 59.6227C128.66 59.3433 128.575 58.1565 128.341 57.4669Z" fill="#263238"/>
<path d="M127.652 56.8027C126.624 56.9443 126.934 59.4195 127.887 59.2888C128.84 59.1582 128.516 56.6866 127.652 56.8027Z" fill="#263238"/>
<path d="M131.992 56.8717C131.992 56.8427 132.046 56.9007 132.049 56.9334C132.124 57.7028 132.32 58.5666 132.924 58.719C132.942 58.719 132.948 58.7626 132.924 58.7626C132.205 58.7698 131.962 57.6157 131.992 56.8717Z" fill="#263238"/>
<path d="M132.458 55.9607C133.469 55.6813 133.857 58.1383 132.921 58.3997C131.986 58.661 131.604 56.2039 132.458 55.9607Z" fill="#263238"/>
<path d="M126.702 55.8192C126.96 55.6756 127.211 55.5144 127.454 55.3365C127.738 55.2112 127.98 54.9765 128.143 54.6687C128.178 54.5597 128.182 54.4398 128.155 54.3275C128.128 54.2152 128.071 54.117 127.993 54.0481C127.821 53.9397 127.629 53.8887 127.436 53.9002C127.243 53.9116 127.056 53.9853 126.895 54.1134C126.532 54.3106 126.244 54.6639 126.086 55.1042C126.054 55.207 126.048 55.3186 126.068 55.4255C126.089 55.5323 126.134 55.6297 126.2 55.7057C126.265 55.7816 126.348 55.8328 126.437 55.853C126.526 55.8732 126.619 55.8614 126.702 55.8192Z" fill="#263238"/>
<path d="M133.108 54.578C132.824 54.561 132.541 54.5259 132.26 54.4727C131.958 54.4864 131.661 54.3792 131.415 54.1678C131.347 54.0831 131.305 53.9736 131.294 53.8566C131.284 53.7397 131.306 53.6219 131.358 53.5218C131.484 53.3444 131.646 53.2103 131.829 53.1332C132.012 53.0561 132.208 53.0386 132.398 53.0827C132.795 53.1026 133.172 53.3006 133.454 53.638C133.514 53.7187 133.554 53.8189 133.568 53.9264C133.583 54.034 133.571 54.1442 133.534 54.2437C133.498 54.3432 133.438 54.4278 133.362 54.4871C133.286 54.5465 133.198 54.578 133.108 54.578Z" fill="#263238"/>
<path d="M128.69 64.6494C128.865 64.8018 129.048 65.0123 129.292 65.0123C129.527 64.9643 129.752 64.8567 129.95 64.6966C129.954 64.6913 129.959 64.6879 129.965 64.6872C129.97 64.6865 129.976 64.6886 129.98 64.6929C129.985 64.6973 129.988 64.7035 129.988 64.7103C129.989 64.7171 129.987 64.7239 129.983 64.7292C129.912 64.8972 129.804 65.0384 129.671 65.1375C129.538 65.2367 129.385 65.29 129.229 65.2918C129.094 65.2753 128.967 65.211 128.863 65.1069C128.759 65.0028 128.683 64.8638 128.645 64.7074C128.618 64.6712 128.663 64.6276 128.69 64.6494Z" fill="#263238"/>
<path d="M129.069 62.2359C129.268 62.5092 129.512 62.73 129.785 62.8843C130.058 63.0385 130.355 63.123 130.657 63.1323C130.921 63.1449 131.185 63.1119 131.441 63.0343C131.491 63.0234 131.539 63.0064 131.586 62.9835C131.632 62.9694 131.677 62.9524 131.721 62.9327C131.754 62.9193 131.783 62.8932 131.802 62.8585C131.822 62.8238 131.831 62.7823 131.829 62.7403C131.828 62.7142 131.823 62.6885 131.814 62.6641V62.5988C131.751 62.0072 131.592 61.118 131.592 61.118C131.784 61.1942 132.759 61.5209 132.705 61.216C132.26 58.6755 131.763 55.8736 130.876 53.4746C130.87 53.4588 130.86 53.4462 130.846 53.4389C130.833 53.4317 130.819 53.4304 130.805 53.4352C130.791 53.44 130.779 53.4507 130.771 53.4653C130.763 53.4798 130.76 53.4973 130.762 53.5146C131.111 55.9644 131.814 58.3234 132.199 60.7732C131.853 60.6505 131.493 60.5882 131.132 60.5881C131.066 60.6244 131.466 62.2976 131.475 62.5661C131.476 62.5757 131.476 62.5856 131.475 62.5952C130.669 62.871 130.013 62.6859 129.132 62.1669C129.066 62.1306 129.023 62.1814 129.069 62.2359Z" fill="#263238"/>
<path d="M131.114 62.7875C130.9 63.2572 130.589 63.6523 130.212 63.9344C130.001 64.0793 129.758 64.1426 129.517 64.1159C128.991 64.0469 128.915 63.488 128.939 62.9908C128.959 62.7264 129.005 62.4658 129.075 62.2141C129.687 62.6622 130.401 62.8631 131.114 62.7875Z" fill="#263238"/>
<path d="M130.209 63.9453C129.998 64.0901 129.755 64.1535 129.514 64.1267C128.988 64.0578 128.912 63.4989 128.937 63.0016C129.499 62.9581 130.082 63.3065 130.209 63.9453Z" fill="#FF99BA"/>
<path opacity="0.2" d="M122.079 54.3784C121.709 55.5034 120.948 58.1456 120.515 58.3307C120.103 54.6578 120.088 51.3261 120.843 49.2791C121.155 48.4337 121.593 47.6648 122.136 47.0108C122.199 47.9943 122.473 53.2024 122.079 54.3784Z" fill="#263238"/>
<path d="M130.215 49.1267C129.957 49.6653 129.589 50.1151 129.146 50.4328C128.703 50.7506 128.2 50.9257 127.685 50.9414C127.161 50.9579 126.642 50.8126 126.177 50.5191C125.712 50.2257 125.317 49.7939 125.03 49.2646C125.028 49.2613 125.026 49.2584 125.023 49.256C125.021 49.2536 125.018 49.2519 125.015 49.2509C125.012 49.2499 125.009 49.2496 125.006 49.2501C125.002 49.2506 124.999 49.2518 124.997 49.2537C124.994 49.2556 124.991 49.2582 124.989 49.2612C124.988 49.2643 124.986 49.2677 124.985 49.2714C124.984 49.2751 124.984 49.279 124.985 49.2828C124.985 49.2866 124.986 49.2903 124.988 49.2937C125.249 49.8844 125.64 50.3775 126.117 50.7197C126.594 51.062 127.139 51.2403 127.694 51.2353C128.238 51.1983 128.764 50.9894 129.22 50.6294C129.675 50.2695 130.044 49.7713 130.29 49.1848C130.296 49.1727 130.298 49.1581 130.296 49.1442C130.293 49.1302 130.286 49.1181 130.276 49.1104C130.266 49.1027 130.254 49.1001 130.243 49.1031C130.231 49.1062 130.221 49.1147 130.215 49.1267Z" fill="#263238"/>
<path d="M136.488 43.2871C136.055 42.3227 135.353 41.5744 134.507 41.1748C133.334 40.6159 132.158 40.9897 130.994 41.3926C130.987 41.3926 130.981 41.3956 130.977 41.4011C130.972 41.4065 130.97 41.4139 130.97 41.4216C130.97 41.4293 130.972 41.4367 130.977 41.4421C130.981 41.4476 130.987 41.4506 130.994 41.4506C131.983 41.1131 133.006 40.8409 134.016 41.2111C134.853 41.5131 135.577 42.154 136.067 43.0258C136.546 43.9285 136.738 45.0088 136.611 46.069C136.483 47.1293 136.044 48.0987 135.373 48.8001C134.977 49.1918 134.519 49.4817 134.027 49.6521C133.536 49.8225 133.02 49.8697 132.513 49.7909C132.473 49.7909 132.455 49.8562 132.498 49.8635C133.188 50.0049 133.898 49.9111 134.547 49.5925C135.196 49.274 135.759 48.7434 136.172 48.0602C136.585 47.3771 136.832 46.5686 136.885 45.7254C136.939 44.8822 136.796 44.0378 136.473 43.2871H136.488Z" fill="#263238"/>
<path d="M120.266 52.6145C120.266 52.6145 118.092 49.2428 119.144 46.8076C119.746 45.4248 122.335 45.0437 122.335 45.0437C122.335 45.0437 122.937 43.4432 124.985 42.4052C127.033 41.3672 129.797 41.9769 129.797 41.9769C129.797 41.9769 131.634 40.1332 133.739 41.0478C136.675 42.3253 137.048 47.3011 134.594 49.4425C132.867 50.9486 130.016 49.4751 130.016 49.4751C129.776 49.5659 127.52 51.9322 125.222 49.6203C125.222 49.6203 123.914 51.6092 122.353 50.7381C122.205 51.2705 121.926 51.7357 121.553 52.0711C121.18 52.4065 120.731 52.5961 120.266 52.6145Z" fill="#263238"/>
<path d="M122.497 59.5901C122.497 59.5901 120.335 55.9607 118.969 56.9007C117.604 57.8407 119.27 63.1142 120.882 63.7965C121.084 63.9039 121.303 63.961 121.524 63.9641C121.745 63.9672 121.964 63.9164 122.169 63.8148C122.373 63.7131 122.559 63.5626 122.714 63.3724C122.869 63.1821 122.991 62.956 123.071 62.7077L122.497 59.5901Z" fill="#AD6359"/>
<path d="M119.475 58.4033C119.448 58.4033 119.444 58.4432 119.475 58.4541C120.614 58.9912 121.225 60.247 121.658 61.5535C121.315 61.0527 120.855 60.7841 120.299 61.2777C120.269 61.3031 120.299 61.3576 120.329 61.3503C120.527 61.2741 120.74 61.2733 120.938 61.3479C121.137 61.4226 121.311 61.5691 121.438 61.7677C121.652 62.1055 121.835 62.4706 121.983 62.8565C122.037 62.9762 122.217 62.9073 122.178 62.7694V62.7367C122.178 60.9729 121.026 58.5521 119.475 58.4033Z" fill="#263238"/>
<path d="M120.696 57.0495C120.696 57.0495 119.526 51.4241 120.437 47.9762C121.451 44.1436 125.273 40.3909 129.79 41.9842C129.79 41.9842 124.777 42.7645 122.341 47.8201C121.222 50.1429 122.296 56.8499 122.296 56.8499L120.696 57.0495Z" fill="#C7C7C7"/>
<path d="M125.55 58.9441C126.007 61.8475 124.675 64.584 122.569 65.0704C120.464 65.5567 118.383 63.6186 117.923 60.7152C117.463 57.8117 118.798 55.0752 120.903 54.5889C123.008 54.1025 125.09 56.0478 125.55 58.9441Z" fill="#C7C7C7"/>
<path d="M124.413 59.0384C124.825 61.6407 123.625 64.1195 121.733 64.5441C119.841 64.9688 117.971 63.2194 117.559 60.6208C117.147 58.0222 118.344 55.5397 120.235 55.1151C122.127 54.6905 123.998 56.4326 124.413 59.0384Z" fill="#455A64"/>
<path d="M5.0791 122.962H41.9688L34.6125 71.3273H7.02794L5.0791 122.962Z" fill="#DBDBDB"/>
<path d="M5.0791 122.962H8.31214L10.1286 71.3273H7.02794L5.0791 122.962Z" fill="#A6A6A6"/>
<path d="M26.9434 48.8073C23.5179 52.9194 22.5345 59.6953 22.5345 59.6953C22.5345 59.6953 19.2503 66.5148 20.1676 70.2204C20.4102 71.2711 20.8604 72.235 21.4795 73.0296C22.0987 73.8242 22.8683 74.4257 23.7224 74.7825L23.3976 72.7355C23.3976 72.7355 24.4983 75.3668 28.1765 76.4266C31.8546 77.4863 36.7207 76.1217 39.253 74.5756C40.7539 73.6689 42.0346 72.3085 42.9702 70.6269L42.0229 73.6029C42.0229 73.6029 45.5928 73.4505 47.713 68.8667C49.8333 64.2828 43.7432 57.6956 43.2259 56.2765C42.7086 54.8574 42.053 44.5174 33.0396 46.2994C33.0516 46.274 29.3133 45.9764 26.9434 48.8073Z" fill="#263238"/>
<path d="M22.4324 74.4885C21.4941 73.6429 20.5678 72.6738 20.0505 71.4762C19.4865 70.2348 19.2862 68.7999 19.4821 67.404C19.7317 65.7309 20.4626 64.2538 21.1723 62.8129C21.8821 61.3721 22.7362 59.9095 23.449 58.396C23.4881 58.3126 23.3828 58.2436 23.3347 58.3089C22.5338 59.4439 21.7868 60.6326 21.0971 61.8693C20.3916 63.0001 19.7981 64.2267 19.3287 65.524C18.8901 66.7186 18.746 68.0404 18.9137 69.3312C19.0911 70.3804 19.4771 71.3619 20.0385 72.1911C20.7032 73.1892 21.5422 73.828 22.3843 74.5792C22.4324 74.6264 22.4836 74.5357 22.4324 74.4885Z" fill="#263238"/>
<path d="M48.486 64.1267C47.4033 60.3196 44.5762 57.9024 42.8409 54.5816C41.9086 52.7851 41.1838 50.7962 39.9688 49.2356C39.9357 49.192 39.8756 49.261 39.9056 49.3045C40.9041 50.7091 41.4816 52.4004 42.2033 54.0227C42.9724 55.6191 43.871 57.1194 44.886 58.5013C46.6725 61.0854 48.8108 64.1449 48.4017 67.7633C48.2123 69.4328 47.3942 71.2838 45.9747 71.8028C45.9206 71.8246 45.9537 71.9334 46.0078 71.9044C46.5676 71.6332 47.0758 71.2271 47.5014 70.7111C47.9269 70.1951 48.2609 69.5799 48.4829 68.903C48.9613 67.3634 48.9624 65.6671 48.486 64.1267Z" fill="#263238"/>
<path d="M48.6157 65.1502C48.7134 63.7083 48.4381 62.2653 47.8278 61.02C47.2052 59.7933 46.2278 58.9078 45.2504 58.1166C44.1226 57.2129 42.9346 56.3527 42.2188 54.9191C42.1888 54.8574 42.1166 54.9191 42.1437 54.9808C43.2805 57.3471 45.4519 58.4505 46.9045 60.443C48.5736 62.7186 48.5766 66.0321 47.4278 68.6344C46.6977 70.2206 45.6671 71.5762 44.4203 72.5904C44.3993 72.5904 44.4203 72.6448 44.4444 72.6267C46.5707 70.9426 48.4443 68.3513 48.6157 65.1502Z" fill="#263238"/>
<path d="M34.9855 82.4948C44.1132 88.5413 55.0394 96.1302 61.734 94.3446C64.7024 93.5534 78.0315 72.467 78.5969 70.028C79.0811 67.9339 67.0121 59.503 65.6648 61.1543C63.3911 63.9235 57.2438 79.5151 56.3416 79.7764C55.4394 80.0378 47.7763 78.1614 39.8005 76.4229C32.1254 74.7607 28.6488 78.2993 34.9855 82.4948Z" fill="#EB9481"/>
<path d="M77.3006 72.6557C78.3411 71.0733 82.5877 63.3138 83.3666 60.8349C84.1456 58.3561 85.9681 51.0357 84.4583 50.1139C82.9486 49.192 82.2809 51.2789 82.2809 51.2789C82.2809 51.2789 82.6448 48.0379 81.0539 47.2866C79.4629 46.5354 78.5005 49.8272 78.5005 49.8272C78.5005 49.8272 78.672 46.4664 77.0389 45.8349C75.4059 45.2034 74.9006 48.7384 74.9006 48.7384C74.9006 48.7384 75.1773 45.6752 73.6555 45.8349C71.827 46.049 71.851 51.7689 70.8165 54.4255C70.5819 55.028 65.3398 66.2499 65.3398 66.2499L77.3006 72.6557Z" fill="#EB9481"/>
<path d="M74.937 48.4516C74.937 52.658 74.3355 54.5017 72.531 58.0077C72.4949 58.073 72.5701 58.1529 72.6152 58.0875C74.6603 54.8502 75.6888 52.6726 75.1174 48.4408C75.0783 48.2339 74.937 48.252 74.937 48.4516Z" fill="#263238"/>
<path d="M78.4829 49.4969C78.1822 53.8521 77.5386 55.87 75.8514 59.7135C75.8273 59.7679 75.9025 59.8224 75.9296 59.7679C77.8453 56.1676 78.8318 53.961 78.6633 49.5513C78.6724 49.3517 78.4979 49.2973 78.4829 49.4969Z" fill="#263238"/>
<path d="M82.1784 51.4712C81.628 55.674 81.0085 57.9097 78.9754 61.3866C78.9701 61.3945 78.9661 61.4035 78.9637 61.4132C78.9612 61.423 78.9604 61.4332 78.9613 61.4433C78.9621 61.4534 78.9646 61.4632 78.9686 61.4722C78.9725 61.4811 78.9779 61.489 78.9845 61.4955C78.991 61.5019 78.9985 61.5067 79.0065 61.5097C79.0146 61.5126 79.0231 61.5136 79.0314 61.5126C79.0398 61.5116 79.0479 61.5086 79.0554 61.5038C79.0628 61.499 79.0693 61.4925 79.0747 61.4846C81.4355 58.1819 82.2265 55.4018 82.2837 51.5039C82.2806 51.2426 82.2145 51.2063 82.1784 51.4712Z" fill="#263238"/>
<path d="M62.7566 67.5202C62.7566 67.5202 62.501 62.2613 62.8138 59.9203C63.1265 57.5794 66.943 49.3699 68.4467 50.2627C70.4046 51.4204 68.9731 56.683 67.9926 59.1509C67.9926 59.1509 72.5219 61.8149 72.173 65.8616C71.8241 69.9083 62.7566 67.5202 62.7566 67.5202Z" fill="#EB9481"/>
<path d="M68.9102 50.7926C70.065 53.4021 68.6094 56.5414 67.8034 59.0203C67.7902 59.0561 67.7845 59.0952 67.7865 59.1343C67.7886 59.1734 67.7985 59.2113 67.8153 59.2448C67.8322 59.2783 67.8555 59.3064 67.8832 59.3267C67.911 59.347 67.9424 59.3589 67.9748 59.3614C69.8124 60.6317 72.0981 63.0706 72.2936 65.7563C72.2936 65.7727 72.2989 65.7884 72.3085 65.7999C72.3181 65.8115 72.3311 65.818 72.3447 65.818C72.3582 65.818 72.3712 65.8115 72.3808 65.7999C72.3904 65.7884 72.3958 65.7727 72.3958 65.7563C72.5101 62.8528 70.4259 60.2252 68.3417 58.9876C69.1959 56.4471 70.5462 53.2351 68.9432 50.778C68.9222 50.7672 68.9041 50.778 68.9102 50.7926Z" fill="#263238"/>
<path d="M54.1698 78.9163L43.1835 90.0293C43.1835 90.0293 36.4768 85.8193 31.5235 80.9814C26.5702 76.1435 32.0558 73.7917 40.561 75.5156C49.0661 77.2395 54.1698 78.9163 54.1698 78.9163Z" fill="#F57C00"/>
<path d="M41.1573 81.1483C40.846 80.6356 40.4856 80.169 40.0836 79.7583C40.5285 80.9121 41.1712 81.9388 41.9693 82.7706C41.7537 82.1924 41.481 81.6477 41.1573 81.1483ZM31.5334 80.9886L31.6657 81.112C31.7529 80.9995 31.8401 80.8798 31.9213 80.7491C31.783 80.8253 31.6537 80.9052 31.5273 81.0032L31.5334 80.9886ZM49.9241 81.0612C49.4043 80.9692 48.8776 80.9497 48.3542 81.0032C48.8451 81.2267 49.3557 81.3814 49.8759 81.4641C50.3954 81.5592 50.9223 81.5799 51.4458 81.5258C50.9532 81.3001 50.4405 81.1442 49.918 81.0612H49.9241ZM46.2459 76.7641C46.2391 77.0064 46.2462 77.2489 46.267 77.49C46.3403 77.2722 46.4026 77.0491 46.4534 76.8222L46.2459 76.7641Z" fill="white"/>
<path d="M40.7238 87.6557C42.9583 85.0644 45.3463 82.6581 47.7673 80.3136C48.453 79.653 49.1507 79.007 49.8725 78.3864C49.8936 78.3683 49.9206 78.3864 49.8996 78.4191C48.7628 79.6857 47.5808 80.8943 46.4049 82.1101C45.229 83.3259 44.038 84.5418 42.832 85.7213C42.1493 86.3891 41.4696 87.0569 40.7779 87.7065C40.7358 87.7319 40.6967 87.6884 40.7238 87.6557Z" fill="#263238"/>
<path d="M47.8515 85.3076L43.1809 90.0257C43.1809 90.0257 36.4742 85.8193 31.5209 80.9814C29.7615 79.2647 29.3194 77.8638 29.8578 76.8439L47.8515 85.3076Z" fill="#263238"/>
<path d="M45.5901 122.918H10.5801C10.5801 122.918 18.186 87.4706 25.2265 77.49C25.3829 77.2613 25.5453 77.0436 25.7077 76.8403C25.7408 76.7931 25.7708 76.7605 25.8039 76.7205C26.3489 76.0179 26.9835 75.4249 27.6836 74.9639C27.8069 74.8841 27.9302 74.8079 28.0595 74.7426C30.7662 73.2364 33.6354 74.4849 35.7015 76.6189C36.3571 77.294 43.7796 88.9587 44.4232 93.3901C44.9916 97.3134 42.7961 101.527 42.7961 101.527L45.5901 122.918Z" fill="#F57C00"/>
<path d="M37.5513 100.01C36.0606 100.185 34.5828 100.495 33.1303 100.935C32.4085 101.168 31.7047 101.436 30.998 101.723C30.6461 101.868 30.2942 101.999 29.9394 102.126C29.5699 102.271 29.1871 102.361 28.7995 102.394C28.7923 102.394 28.7855 102.398 28.7804 102.404C28.7753 102.41 28.7725 102.418 28.7725 102.427C28.7725 102.436 28.7753 102.444 28.7804 102.45C28.7855 102.456 28.7923 102.46 28.7995 102.46C29.1667 102.479 29.5345 102.466 29.9003 102.423C30.2524 102.37 30.6011 102.288 30.9439 102.177C31.6777 101.948 32.3995 101.683 33.1303 101.451C34.604 100.979 36.0746 100.507 37.5723 100.162C37.5891 100.159 37.604 100.148 37.6139 100.131C37.6238 100.114 37.6277 100.094 37.625 100.074C37.6222 100.053 37.6128 100.035 37.599 100.023C37.5852 100.011 37.568 100.007 37.5513 100.01Z" fill="#263238"/>
<path d="M41.25 101.567C40.0197 101.424 38.7837 101.365 37.5478 101.389C36.9463 101.407 36.3178 101.465 35.7012 101.542C35.4005 101.581 35.0998 101.625 34.8231 101.672C34.5464 101.719 34.1855 101.828 33.8637 101.875C33.8306 101.875 33.8306 101.944 33.8637 101.941C34.1644 101.908 34.4802 101.941 34.787 101.923L35.7103 101.883C36.3118 101.861 36.9403 101.843 37.5569 101.81C38.7899 101.748 40.02 101.701 41.253 101.687C41.3192 101.69 41.3132 101.574 41.25 101.567Z" fill="#263238"/>
<path d="M21.8998 85.8229C21.7344 85.5689 21.566 85.3184 21.3825 85.0971L21.2532 85.4237C21.3735 85.6487 21.5028 85.8701 21.6351 86.0842C21.9467 86.5934 22.3071 87.0564 22.7088 87.4634C22.4893 86.8827 22.218 86.3327 21.8998 85.8229ZM25.9629 76.5246C25.9016 77.0914 25.8915 77.6645 25.9328 78.234C26.1197 77.6388 26.2459 77.0185 26.3087 76.3866C26.3087 76.2923 26.3298 76.1943 26.3388 76.0999C26.2125 76.2342 26.0862 76.3758 25.9629 76.5246ZM36.5883 88.3344C36.401 88.9288 36.2718 89.5476 36.2033 90.1781C36.1276 90.8065 36.1104 91.4432 36.1522 92.0763C36.341 91.4829 36.4683 90.8636 36.5311 90.2326C36.6137 89.605 36.6329 88.9676 36.5883 88.3344ZM29.8967 108.775C29.7113 109.367 29.5841 109.983 29.5177 110.611C29.4414 111.24 29.4253 111.877 29.4696 112.509C29.8271 111.314 29.9725 110.042 29.8967 108.775ZM18.5224 93.3429C18.3388 93.9395 18.2116 94.5592 18.1435 95.1902C18.0669 95.8174 18.0508 96.4531 18.0953 97.0848C18.2794 96.4898 18.4055 95.8711 18.4713 95.2411C18.5501 94.613 18.5672 93.9758 18.5224 93.3429ZM27.9358 90.7516C27.4161 90.6595 26.8893 90.64 26.3659 90.6935C26.8568 90.917 27.3674 91.0717 27.8877 91.1544C28.4071 91.2495 28.9341 91.2702 29.4576 91.2161C28.9683 90.9863 28.4587 90.8255 27.9388 90.737L27.9358 90.7516ZM40.5311 108.172C40.0104 108.08 39.4826 108.061 38.9582 108.114C39.9485 108.546 41.0028 108.721 42.0529 108.63C41.5629 108.405 41.0534 108.25 40.5341 108.165L40.5311 108.172ZM17.0187 106.499C16.5079 106.41 15.9905 106.388 15.4758 106.434H15.4457H15.4728C15.9586 106.65 16.463 106.8 16.9766 106.88C17.4963 106.972 18.023 106.992 18.5465 106.938C18.053 106.721 17.5403 106.574 17.0187 106.499ZM30.2275 121.485C29.7078 121.393 29.181 121.373 28.6576 121.427C29.6487 121.859 30.7044 122.033 31.7553 121.938C31.258 121.717 30.7414 121.565 30.2155 121.485H30.2275ZM16.0202 119.648C15.4995 119.556 14.9717 119.537 14.4473 119.59C14.9385 119.811 15.4491 119.963 15.969 120.044C16.4894 120.141 17.0177 120.161 17.542 120.102C17.0468 119.88 16.5322 119.728 16.0081 119.648H16.0202ZM30.5703 81.729C30.1467 82.1092 29.7602 82.5463 29.4185 83.032C29.8983 82.7684 30.3523 82.441 30.7718 82.0557C31.1947 81.6768 31.5784 81.2382 31.9147 80.7491C31.4381 81.0151 30.9872 81.3437 30.5703 81.729ZM34.3176 101.157C33.895 101.532 33.5113 101.967 33.1748 102.453C33.6532 102.191 34.1045 101.862 34.5191 101.473C34.9425 101.099 35.3263 100.664 35.662 100.177C35.1839 100.442 34.7328 100.774 34.3176 101.164V101.157ZM21.178 113.032C20.7529 113.406 20.368 113.843 20.0321 114.331C20.5088 114.065 20.9596 113.737 21.3765 113.351C21.7993 112.973 22.1856 112.538 22.5283 112.056C22.0455 112.313 21.5918 112.644 21.178 113.039V113.032ZM43.0002 95.9488C42.6889 95.436 42.3286 94.9694 41.9266 94.5587C42.3714 95.7125 43.0141 96.7393 43.8122 97.5711C43.5962 96.9954 43.3236 96.4531 43.0002 95.956V95.9488ZM38.5221 117.932C38.2083 117.421 37.8482 116.955 37.4484 116.542C37.6593 117.124 37.9311 117.672 38.2574 118.171C38.5681 118.682 38.9286 119.147 39.3311 119.554C39.1118 118.979 38.8405 118.435 38.5221 117.932ZM25.3373 100.641C25.0252 100.13 24.6649 99.6631 24.2637 99.2515C24.4769 99.8334 24.7497 100.381 25.0757 100.881C25.3855 101.393 25.7461 101.857 26.1493 102.264C25.9303 101.688 25.6579 101.144 25.3373 100.641Z" fill="white"/>
<path d="M24.5106 77.7658C17.7769 84.3167 0.532039 110.277 4.4207 116.277C8.30937 122.276 34.1556 119.543 41.6592 116.705C43.8908 115.863 37.8037 98.7724 35.3917 97.9848C33.3827 97.3279 22.243 101.302 22.0265 100.525C21.7828 99.6471 24.7783 94.7874 28.5858 84.2587C32.9767 72.1149 27.485 74.8732 24.5106 77.7658Z" fill="#EB9481"/>
<path d="M47.5566 96.5585C52.7024 97.2844 53.9325 98.4131 58.5429 96.2355C61.5685 94.8092 63.6226 96.5258 61.4091 99.6072C57.8001 104.648 50.9912 105.414 48.5702 104.848L47.5566 96.5585Z" fill="#EB9481"/>
<path d="M33.124 98.2026C33.124 98.2026 39.5089 96.2101 45.0547 96.319C48.8922 96.3952 57.2229 97.6836 62.877 109.7C64.2183 112.549 64.4559 117.761 60.862 114.056C58.3116 111.432 57.3522 108.837 55.638 107.635C55.638 107.635 55.2861 114.302 52.8681 115.816C50.7532 117.135 48.5633 118.272 46.3148 119.216C46.0766 118.76 45.8636 118.284 45.6772 117.794C45.6772 117.794 43.3073 118.948 39.6623 117.347L33.124 98.2026Z" fill="#EB9481"/>
<path d="M48.7085 97.0993C50.2123 98.7252 53.316 102.231 55.0242 106.173C56.937 110.55 59.6437 119.601 56.952 121.274C54.9791 122.501 53.6919 119.151 53.6919 119.151C53.6919 119.151 54.1581 123.18 52.1882 123.815C50.3837 124.396 49.5145 121.732 49.5145 121.732C49.5145 121.732 49.4484 124.232 47.6198 124.388C45.4184 124.57 45.9176 119.307 43.5537 117.162C43.0214 116.68 48.7085 97.0993 48.7085 97.0993Z" fill="#EB9481"/>
<path d="M50.868 107.86C52.071 109.675 53.9085 114.611 53.7522 119.086C53.7522 119.187 53.683 119.238 53.671 119.144C53.1068 115.269 52.1545 111.491 50.8349 107.893C50.8313 107.888 50.8296 107.881 50.8302 107.874C50.8307 107.867 50.8335 107.861 50.8379 107.857C50.8423 107.852 50.8479 107.85 50.8536 107.851C50.8592 107.852 50.8644 107.855 50.868 107.86Z" fill="#263238"/>
<path d="M47.2617 110.299C48.1639 111.987 49.8752 117.195 49.5865 121.713C49.5865 121.815 49.5113 121.859 49.5022 121.764C49.1048 117.857 48.341 114.017 47.2256 110.317C47.2255 110.312 47.2267 110.307 47.229 110.303C47.2313 110.299 47.2347 110.295 47.2385 110.293C47.2424 110.292 47.2467 110.291 47.2508 110.292C47.255 110.293 47.2587 110.296 47.2617 110.299Z" fill="#263238"/>
<path d="M55.6473 107.606C57.151 108.695 57.9901 109.976 59.1089 111.548C59.6557 112.335 60.238 113.085 60.8532 113.794C61.4186 114.429 62.2517 115.384 63.0998 114.93C63.572 114.676 63.7013 113.994 63.7404 113.428C63.7774 112.791 63.7005 112.152 63.5148 111.555C63.5148 111.526 63.5509 111.504 63.5599 111.537C63.7445 112.064 63.866 112.62 63.9208 113.188C63.9923 113.722 63.9283 114.27 63.7374 114.76C63.2682 115.761 62.1855 115.573 61.5058 115.046C61.1038 114.71 60.73 114.327 60.3901 113.903C60.0562 113.508 59.7374 113.094 59.4277 112.673C58.7931 111.802 58.2006 110.891 57.5751 110.016C56.962 109.182 56.305 108.396 55.6082 107.664C55.5811 107.635 55.6172 107.584 55.6473 107.606Z" fill="#263238"/>
<path d="M57.5592 115.54C57.3817 114.295 56.1066 108.945 55.6013 107.642C55.5981 107.636 55.5973 107.628 55.599 107.62C55.6007 107.613 55.6047 107.606 55.6103 107.603C55.6159 107.599 55.6225 107.598 55.6287 107.6C55.6349 107.602 55.6402 107.607 55.6434 107.613C56.5968 109.454 57.7998 113.921 58.0103 115.297C58.2208 116.672 58.4223 118.374 58.1306 119.728C57.6915 121.768 56.4885 121.804 56.0524 121.775C55.5373 121.73 55.0503 121.474 54.672 121.049C54.2411 120.507 53.9055 119.865 53.6855 119.162C53.6855 119.129 53.7126 119.1 53.7277 119.133C54.1427 120.12 54.9457 121.22 55.896 121.361C56.1065 121.401 56.3213 121.389 56.5279 121.327C56.7345 121.264 56.9287 121.153 57.099 120.998C57.456 120.586 57.6771 120.032 57.7216 119.438C57.8527 118.137 57.7978 116.818 57.5592 115.54Z" fill="#263238"/>
<path d="M49.5863 121.713C49.7698 122.029 50.0735 123.027 50.8043 123.448C51.0585 123.623 51.344 123.721 51.6364 123.733C51.9287 123.745 52.2191 123.671 52.4825 123.517C52.9849 123.141 53.3462 122.543 53.49 121.851C53.6116 120.966 53.6769 120.07 53.6855 119.173C53.6855 119.129 53.7306 119.126 53.7336 119.173C53.8273 120.146 53.7989 121.131 53.6494 122.095C53.5788 122.472 53.4463 122.828 53.2599 123.143C53.0734 123.458 52.8367 123.725 52.5637 123.927C52.2745 124.118 51.9473 124.208 51.6182 124.188C51.2892 124.169 50.9711 124.039 50.6991 123.815C50.4254 123.586 49.6314 122.552 49.4961 121.739C49.4991 121.713 49.5773 121.699 49.5863 121.713Z" fill="#263238"/>
<path d="M43.7853 116.843C44.0027 117.134 44.1914 117.454 44.3477 117.797C44.5251 118.16 44.6935 118.505 44.8529 118.868C45.1697 119.602 45.4227 120.373 45.6078 121.169C45.8003 121.967 45.9506 122.839 46.4048 123.495C46.6173 123.82 46.9092 124.056 47.239 124.169C47.5689 124.283 47.9199 124.268 48.2423 124.127C48.5837 123.963 48.8675 123.662 49.0453 123.274C49.2515 122.856 49.3893 122.394 49.4513 121.913C49.45 121.909 49.4495 121.904 49.45 121.899C49.4505 121.895 49.4519 121.89 49.4541 121.886C49.4564 121.883 49.4593 121.879 49.4628 121.877C49.4662 121.875 49.47 121.874 49.4739 121.874C49.4778 121.874 49.4816 121.875 49.485 121.877C49.4885 121.879 49.4914 121.883 49.4937 121.886C49.4959 121.89 49.4973 121.895 49.4978 121.899C49.4983 121.904 49.4978 121.909 49.4965 121.913C49.4708 122.349 49.4083 122.781 49.31 123.201C49.1963 123.579 49.0024 123.915 48.7476 124.174C48.4805 124.42 48.1624 124.573 47.8281 124.615C47.4939 124.657 47.1564 124.588 46.8529 124.414C46.1792 124.051 45.8003 123.23 45.5657 122.418C45.304 121.514 45.1296 120.581 44.8319 119.688C44.6785 119.216 44.5311 118.745 44.3447 118.291C44.1582 117.837 43.8995 117.365 43.7432 116.879C43.7251 116.85 43.7612 116.81 43.7853 116.843Z" fill="#263238"/>
<path d="M41.4366 117.968C42.3874 118.134 43.349 118.191 44.3087 118.139C44.3388 118.139 44.3568 118.244 44.3268 118.251C43.851 118.359 43.367 118.404 42.8832 118.385C42.3927 118.36 41.9081 118.247 41.4456 118.048C41.4065 118.022 41.4065 117.961 41.4366 117.968Z" fill="#263238"/>
<path d="M11.9059 104.412C13.5136 103.476 15.175 102.68 16.8773 102.032C18.5618 101.396 20.2827 100.911 22.0261 100.58C23.0216 100.38 24.02 100.239 25.0336 100.09C25.0636 100.09 25.0696 100.141 25.0336 100.144C23.2818 100.487 21.5476 100.949 19.8397 101.531C18.1394 102.09 16.4492 102.686 14.7691 103.32C13.8187 103.683 12.8804 104.089 11.939 104.485C11.9059 104.514 11.8759 104.438 11.9059 104.412Z" fill="#263238"/>
<path d="M10.4414 93.528L24.6938 95.3971C24.6938 95.3971 28.3299 87.4126 30.2216 80.0559C32.1133 72.6992 26.7419 74.1292 20.4653 81.2608C14.1887 88.3925 10.4414 93.528 10.4414 93.528Z" fill="#F57C00"/>
<path d="M10.4414 93.528L24.6938 95.3971C24.6938 95.3971 28.3299 87.4126 30.2216 80.0559C32.1133 72.6992 26.7419 74.1292 20.4653 81.2608C14.1887 88.3925 10.4414 93.528 10.4414 93.528Z" fill="#F57C00"/>
<path d="M25.9866 76.285C25.9881 76.3031 25.9881 76.3214 25.9866 76.3395C25.9103 76.9679 25.8942 77.6048 25.9385 78.2376C26.1254 77.6425 26.2516 77.0222 26.3144 76.3903C26.3144 76.2814 26.3385 76.1761 26.3475 76.0673L25.9866 76.285ZM18.5221 93.3429C18.3915 93.7388 18.2909 94.1482 18.2213 94.566L18.5221 94.6023C18.5551 94.1834 18.5551 93.7618 18.5221 93.3429ZM13.5778 89.4704L13.4395 89.6446C13.5958 89.6446 13.7402 89.6446 13.9116 89.6119C13.7973 89.5575 13.6891 89.5103 13.5778 89.4704ZM26.3686 90.679C26.4528 90.7189 26.54 90.7588 26.6272 90.7915C26.6428 90.7442 26.6609 90.6981 26.6814 90.6536C26.5791 90.6572 26.4738 90.6645 26.3686 90.679ZM21.8995 85.8229C21.5857 85.3127 21.2256 84.8464 20.8258 84.4329C21.0373 85.0163 21.3091 85.5651 21.6348 86.0661C21.9464 86.5753 22.3068 87.0382 22.7085 87.4452C22.488 86.8709 22.2168 86.327 21.8995 85.8229Z" fill="white"/>
<path d="M24.1168 95.2374C24.195 95.2374 24.7183 95.2374 24.7183 95.2374C24.7815 95.016 26.0085 91.6081 26.3093 90.8822C26.9288 89.3906 27.6205 87.9388 28.2942 86.4835C28.3153 86.4363 28.3754 86.4835 28.3544 86.5161C27.8792 87.7864 27.422 89.0567 26.9378 90.3342C27.0581 90.1636 27.1784 89.993 27.2957 89.8188C27.5333 89.4559 27.7499 89.093 27.9754 88.7083C27.9965 88.6756 28.0386 88.7082 28.0235 88.7482C27.8083 89.2732 27.5363 89.7613 27.2145 90.1999C27.078 90.3925 26.9302 90.5733 26.7724 90.7407C26.7333 90.8459 26.6942 90.9548 26.6521 91.0564C26.3514 91.7823 24.8687 95.4407 24.8146 95.437L24.1289 95.3354C24.0777 95.3499 24.0777 95.2338 24.1168 95.2374Z" fill="#263238"/>
<path d="M13.1274 90.6064C16.219 90.8568 19.3017 91.3685 22.3663 91.9492C23.2365 92.1162 24.1006 92.3061 24.9588 92.519C24.9828 92.519 24.9828 92.5698 24.9588 92.5662C23.4189 92.4029 21.8821 92.1634 20.3453 91.9347C18.8085 91.7061 17.2596 91.4593 15.7228 91.1653C14.8567 91.0056 13.9875 90.8459 13.1244 90.6681C13.0883 90.6717 13.0883 90.6027 13.1274 90.6064Z" fill="#263238"/>
<path d="M29.5088 75.2325C29.5629 75.9874 31.8907 81.2354 34.6786 81.5584C35.5809 81.6601 36.2756 75.7043 36.2756 75.7043L36.4079 75.2797L38.2816 69.3203L32.8381 63.6404L32.0471 62.8783C32.0471 62.8783 31.623 64.5477 31.1148 66.6346C31.0907 66.7326 31.0637 66.8306 31.0396 66.9322C31.0155 67.0338 30.9794 67.1609 30.9524 67.2697C30.8742 67.5819 30.793 67.8976 30.7208 68.217C30.6637 68.4602 30.6065 68.6961 30.5524 68.9429C30.4982 69.1897 30.4441 69.451 30.384 69.705C29.9883 71.5213 29.6959 73.3681 29.5088 75.2325Z" fill="#EB9481"/>
<path d="M31.1152 66.6346C31.4252 68.4526 32.0592 70.1675 32.9732 71.6603C33.8872 73.1531 35.0594 74.3882 36.4084 75.2797L38.282 69.3203L32.8385 63.6404L32.0476 62.8783C32.0476 62.8783 31.6235 64.5477 31.1152 66.6346Z" fill="#263238"/>
<path d="M39.93 60.1671C40.4082 62.7077 42.3029 64.3808 44.1615 63.8763C46.0201 63.3718 47.1359 60.8857 46.6577 58.3307C46.1795 55.7756 44.2848 54.1134 42.4262 54.6215C40.5676 55.1296 39.4518 57.6085 39.93 60.1671Z" fill="#455A64"/>
<path d="M38.8681 60.6244C39.4034 63.4662 41.5087 65.3135 43.5778 64.751C45.647 64.1884 46.886 61.4265 46.3537 58.5811C45.8214 55.7357 43.7132 53.892 41.647 54.4546C39.5809 55.0171 38.3358 57.7754 38.8681 60.6244Z" fill="#C7C7C7"/>
<path d="M44.949 56.9878C47.4753 67.7488 42.4197 70.7793 40.4949 71.4471C38.7476 72.0423 32.7387 73.7989 29.3041 63.4081C25.8696 53.0173 29.2169 48.1976 33.1507 46.5825C37.0845 44.9675 42.4227 46.2232 44.949 56.9878Z" fill="#EB9481"/>
<path d="M41.8456 55.6341C41.6338 55.6595 41.4209 55.6704 41.2081 55.6668C40.9843 55.7183 40.7526 55.6788 40.5494 55.5543C40.4916 55.5003 40.4502 55.4247 40.4317 55.3394C40.4132 55.254 40.4186 55.1637 40.4472 55.0824C40.5239 54.9329 40.6324 54.8109 40.7615 54.7292C40.8906 54.6475 41.0354 54.6091 41.181 54.6179C41.4773 54.5781 41.7752 54.6726 42.0171 54.8828C42.0693 54.9355 42.1078 55.0052 42.1281 55.0836C42.1484 55.162 42.1495 55.2458 42.1315 55.325C42.1134 55.4041 42.0769 55.4754 42.0262 55.5302C41.9755 55.585 41.9128 55.6211 41.8456 55.6341Z" fill="#263238"/>
<path d="M35.9658 58.1383C36.1702 58.0619 36.371 57.9723 36.5673 57.8698C36.79 57.8104 36.9906 57.6652 37.1388 57.456C37.1739 57.3787 37.187 57.2896 37.1762 57.2024C37.1653 57.1152 37.131 57.0347 37.0786 56.9733C36.9593 56.872 36.8198 56.8109 36.6745 56.7962C36.5291 56.7815 36.3831 56.8138 36.2516 56.8898C35.9663 56.9934 35.723 57.221 35.5689 57.5286C35.5372 57.6012 35.5236 57.6832 35.5298 57.7649C35.5359 57.8466 35.5615 57.9243 35.6035 57.9888C35.6455 58.0533 35.702 58.1017 35.7663 58.1283C35.8306 58.1548 35.8999 58.1583 35.9658 58.1383Z" fill="#263238"/>
<path d="M37.7705 60.0365C37.7705 60.0074 37.7314 60.0873 37.7404 60.1163C37.9329 60.8422 38.0411 61.7132 37.5599 62.1451C37.5449 62.1451 37.5599 62.1923 37.575 62.185C38.2126 61.8403 38.0441 60.6789 37.7705 60.0365Z" fill="#263238"/>
<path d="M37.0427 59.4558C36.0442 59.7026 36.5254 62.0907 37.4517 61.862C38.378 61.6334 37.8788 59.2489 37.0427 59.4558Z" fill="#263238"/>
<path d="M36.6791 59.6953C36.5348 59.8841 36.4115 60.1708 36.21 60.2579C36.0085 60.345 35.7408 60.1599 35.5363 59.9639C35.5152 59.9458 35.5002 59.9639 35.5062 60.0038C35.5934 60.4611 35.834 60.8894 36.2551 60.8386C36.6761 60.7878 36.8235 60.3087 36.8235 59.8187C36.8265 59.728 36.7393 59.6227 36.6791 59.6953Z" fill="#263238"/>
<path d="M41.2861 58.7263C41.2861 58.6973 41.3433 58.7481 41.3463 58.7771C41.4726 59.5247 41.7192 60.3559 42.3237 60.443C42.3418 60.443 42.3478 60.4829 42.3237 60.4865C41.626 60.5627 41.3072 59.4558 41.2861 58.7263Z" fill="#263238"/>
<path d="M41.6803 57.7972C42.6487 57.4342 43.1841 59.7933 42.2818 60.1381C41.3796 60.4829 40.8713 58.1057 41.6803 57.7972Z" fill="#263238"/>
<path d="M42.1314 57.8153C42.3149 57.8879 42.5194 58.0658 42.7088 58.0186C42.8983 57.9714 43.0276 57.6556 43.1088 57.3617C43.1088 57.3326 43.1389 57.3617 43.1449 57.3617C43.2592 57.8117 43.2442 58.3234 42.9013 58.5303C42.5585 58.7372 42.2607 58.4105 42.0682 57.9895C42.0322 57.9315 42.0562 57.7754 42.1314 57.8153Z" fill="#263238"/>
<path d="M39.1601 66.0031C39.3345 66.1447 39.521 66.366 39.7616 66.3189C39.9916 66.2587 40.2088 66.1412 40.3992 65.9741C40.4027 65.9688 40.4079 65.9654 40.4136 65.9647C40.4192 65.9641 40.4248 65.9661 40.4292 65.9705C40.4336 65.9748 40.4364 65.981 40.437 65.9878C40.4375 65.9947 40.4358 66.0014 40.4322 66.0067C40.3671 66.1745 40.2657 66.318 40.1387 66.4222C40.0116 66.5263 39.8637 66.5871 39.7104 66.5983C39.5762 66.5902 39.4471 66.5336 39.3399 66.4359C39.2326 66.3382 39.1522 66.2039 39.1089 66.0503C39.0879 66.0104 39.133 65.985 39.1601 66.0031Z" fill="#263238"/>
<path d="M41.1782 62.3157C41.1782 62.3157 41.5361 63.3791 41.6474 63.8981C41.6474 63.9489 40.1677 64.82 39.2113 63.7529C39.2013 63.7447 39.1945 63.7321 39.1922 63.7178C39.19 63.7035 39.1925 63.6887 39.1993 63.6767C39.2061 63.6647 39.2165 63.6564 39.2284 63.6537C39.2402 63.6509 39.2525 63.654 39.2624 63.6622C39.9074 63.9457 40.6111 63.9699 41.2684 63.7311C41.2684 63.5787 40.6008 61.9346 40.6669 61.9165C41.0089 61.8486 41.3568 61.8364 41.7015 61.8802C41.0038 59.6409 40.0173 57.554 39.3527 55.3075C39.3468 55.2908 39.3462 55.2722 39.3512 55.2551C39.3561 55.238 39.3661 55.2238 39.3793 55.2152C39.3924 55.2065 39.4078 55.2041 39.4223 55.2085C39.4369 55.2128 39.4496 55.2235 39.4579 55.2385C40.6218 57.3399 41.4699 59.8986 42.2368 62.1887C42.3391 62.4681 41.3797 62.352 41.1782 62.3157Z" fill="#263238"/>
<path d="M41.265 63.9816C41.1053 64.4633 40.8465 64.8879 40.5131 65.2155C40.326 65.385 40.1004 65.4813 39.8665 65.4914C39.3523 65.4914 39.2169 64.9796 39.1989 64.4969C39.1916 64.2414 39.2088 63.9856 39.25 63.7348C39.8825 64.0751 40.5888 64.1616 41.265 63.9816Z" fill="#263238"/>
<path d="M40.5135 65.2156C40.3263 65.385 40.1007 65.4813 39.8669 65.4914C39.3526 65.4914 39.2173 64.9796 39.1992 64.4969C39.7255 64.3844 40.327 64.6312 40.5135 65.2156Z" fill="#FF99BA"/>
<path d="M29.7348 63.0488C31.4611 63.1831 31.6596 58.4178 31.6596 58.4178C31.6596 58.4178 38.8775 56.389 39.1361 49.1739C39.1361 49.1739 40.6188 53.6525 44.5496 55.4381C44.5496 55.4381 43.897 47.5987 38.658 46.4519C38.658 46.4519 32.1077 44.1073 28.8145 50.5095C25.5213 56.9116 28.5769 62.9581 29.7348 63.0488Z" fill="#263238"/>
<path d="M39.1357 48.6404C39.2782 49.7412 39.2239 50.8661 38.9763 51.9394C38.7426 53.0303 38.3226 54.0501 37.7432 54.9336C37.6012 55.1558 37.4475 55.3667 37.2831 55.5651L37.0425 55.8736C36.9583 55.968 36.868 56.0551 36.7778 56.1458C36.5974 56.32 36.4229 56.5088 36.2365 56.6721C36.05 56.8354 35.8455 56.9697 35.635 57.1149C35.5357 57.1838 35.4395 57.26 35.3342 57.3254L35.0335 57.4996L34.4049 57.8444C33.9719 58.0258 33.5328 58.1783 33.0967 58.3234C33.5027 58.073 33.9237 57.8734 34.3237 57.623L34.9102 57.2237L35.2109 57.0241C35.3042 56.9515 35.3914 56.8681 35.4816 56.7882C35.6621 56.6285 35.8425 56.4725 36.026 56.32C36.2094 56.1676 36.3568 55.9571 36.5222 55.7938L36.7718 55.5288L36.9944 55.2312C37.1474 55.0407 37.291 54.8396 37.4244 54.6288C37.971 53.7873 38.3951 52.8399 38.6785 51.8269C38.8236 51.3184 38.9343 50.7965 39.0094 50.2663C39.0894 49.7296 39.1316 49.1857 39.1357 48.6404Z" fill="#263238"/>
<path d="M31.0213 62.9363C31.0213 62.9363 28.489 59.9639 27.3371 61.1217C26.1853 62.2794 28.4679 66.9032 30.089 67.2298C30.2944 67.2894 30.5077 67.2983 30.716 67.2559C30.9243 67.2134 31.1234 67.1206 31.3012 66.983C31.479 66.8453 31.632 66.6657 31.7508 66.4549C31.8696 66.2441 31.9519 66.0065 31.9927 65.7563L31.0213 62.9363Z" fill="#EB9481"/>
<path d="M28.0201 62.4246C28.0145 62.4246 28.0091 62.4273 28.0052 62.432C28.0012 62.4368 27.999 62.4433 27.999 62.45C27.999 62.4567 28.0012 62.4632 28.0052 62.468C28.0091 62.4727 28.0145 62.4754 28.0201 62.4754C29.1659 62.7476 29.9118 63.8074 30.5012 64.947C30.1103 64.5477 29.6381 64.3881 29.184 64.947C29.1599 64.9796 29.184 65.0232 29.2231 65.0087C29.3987 64.8945 29.5993 64.8485 29.7974 64.8771C29.9955 64.9057 30.1814 65.0074 30.3298 65.1684C30.5767 65.4386 30.7986 65.7404 30.9915 66.0684C31.0576 66.1737 31.22 66.0684 31.1629 65.9487L31.1478 65.9196C30.9133 64.3082 29.4967 62.254 28.0201 62.4246Z" fill="#263238"/>
<path d="M29.289 61.4227C29.289 61.4227 27.6469 56.142 28.2153 52.6942C28.8469 48.8543 32.7897 44.4737 37.2979 46.1142C37.2979 46.1142 31.9356 47.0832 30.0409 52.284C29.1687 54.6794 30.8168 61.0199 30.8168 61.0199L29.289 61.4227Z" fill="#C7C7C7"/>
<path d="M31.8215 68.9489C33.8117 68.2008 34.8521 65.3744 34.1453 62.6358C33.4385 59.8972 31.2521 58.2836 29.2618 59.0316C27.2716 59.7797 26.2312 62.6062 26.938 65.3448C27.6448 68.0833 29.8312 69.697 31.8215 68.9489Z" fill="#C7C7C7"/>
<path d="M33.0612 62.8565C33.6957 65.3172 32.7604 67.8577 30.9559 68.5291C29.1514 69.2006 27.2026 67.7525 26.565 65.2918C25.9274 62.8311 26.8658 60.2905 28.6702 59.6155C30.4747 58.9404 32.4266 60.4103 33.0612 62.8565Z" fill="#455A64"/>
<path d="M36.387 75.316L34.7328 80.3535L29.5299 74.0203L28.0713 76.0673C28.0713 76.0673 33.184 86.1496 33.202 85.6923L34.9043 81.3371L37.3945 84.3385L37.1689 76.7822L36.387 75.316Z" fill="#EBEBEB"/>
<path d="M37.4697 80.6003C37.3945 79.3554 37.3524 78.0924 37.2321 76.8512C37.2321 76.8076 37.169 76.7895 37.1599 76.8512C36.9584 78.0561 37.2562 82.8287 37.2562 83.972C37.1539 83.8413 34.9494 81.3298 34.9284 81.3697C34.5585 82.0593 33.3104 85.2241 33.2262 85.5108C32.4172 83.9103 28.9946 77.5988 28.0413 76.0745C28.0356 76.0676 28.0281 76.0631 28.0201 76.0619C28.0121 76.0607 28.004 76.0627 27.997 76.0678C27.9901 76.0728 27.9847 76.0805 27.9819 76.0896C27.979 76.0987 27.9787 76.1088 27.9811 76.1181C28.6939 77.8093 33.1149 86.1387 33.178 86.1169C33.8357 84.624 34.43 83.0916 34.9585 81.5258C35.3314 82.0738 37.5569 84.9083 37.5629 84.7232C37.5908 83.3479 37.5597 81.9718 37.4697 80.6003Z" fill="#263238"/>
<path d="M66.4871 41.7519C66.3066 43.8396 65.6489 45.8258 64.5874 47.4887C63.526 49.1516 62.1025 50.4259 60.4758 51.1693C58.8491 51.9127 57.0833 52.0961 55.3753 51.6989C53.6673 51.3016 52.0844 50.3395 50.8031 48.9198L46.1055 49.7509L48.4573 44.8513C47.925 43.2576 47.7002 41.5387 47.7997 39.8246C47.8993 38.1105 48.3207 36.4463 49.0321 34.9578C49.7435 33.4693 50.7261 32.1957 51.9057 31.2332C53.0852 30.2708 54.4308 29.6448 55.8404 29.4027C57.2501 29.1606 58.6869 29.3086 60.0421 29.8357C61.3974 30.3627 62.6355 31.2549 63.6627 32.4448C64.69 33.6346 65.4795 35.0909 65.9714 36.7034C66.4633 38.3159 66.6448 40.0423 66.5022 41.7519H66.4871Z" fill="white"/>
<path d="M66.4867 41.7518C66.3048 43.8407 65.6492 45.8286 64.5919 47.497C64.0726 48.3304 63.4521 49.0645 62.7514 49.6746C62.0595 50.3075 61.2971 50.8194 60.4867 51.1953C59.6757 51.5782 58.8244 51.8225 57.9575 51.9212C57.5245 51.969 57.0893 51.9787 56.6552 51.9502C56.2192 51.9377 55.7848 51.8831 55.356 51.7869C53.6237 51.4106 52.0126 50.4593 50.7034 49.0395L50.8147 49.0794L46.123 49.9505L45.7832 50.0122L45.9546 49.6492L48.2975 44.7387V44.9347C47.7466 43.3106 47.5124 41.5554 47.6131 39.8047C47.7137 38.054 48.1465 36.3547 48.8779 34.8379C49.6082 33.3268 50.6128 32.0351 51.8162 31.0598C53.0186 30.0989 54.3856 29.4789 55.8148 29.2464C57.2441 29.0138 58.6983 29.1747 60.0687 29.7169C61.4223 30.2751 62.6554 31.1915 63.6777 32.399C64.7013 33.6003 65.486 35.066 65.9725 36.686C66.459 38.306 66.6348 40.038 66.4867 41.7518ZM66.4867 41.7518C66.6367 40.0456 66.4601 38.3207 65.9705 36.7099C65.4809 35.0991 64.6914 33.6454 63.6628 32.461C62.6343 31.2765 61.394 30.3928 60.0378 29.8781C58.6815 29.3633 57.2454 29.2312 55.8402 29.4919C54.448 29.7443 53.122 30.3774 51.9636 31.3429C50.8163 32.314 49.8578 33.5747 49.1546 35.0375C48.4626 36.5056 48.0554 38.1439 47.9637 39.8293C47.872 41.5146 48.0982 43.2031 48.6253 44.7678L48.6583 44.8694L48.6132 44.9601L46.2494 49.8525L46.0809 49.5512L50.7816 48.7564H50.8478L50.8929 48.8109C52.1525 50.2297 53.7146 51.1973 55.4041 51.6054C55.8235 51.707 56.2489 51.7689 56.6763 51.7905C57.1038 51.8268 57.5329 51.8268 57.9605 51.7905C58.8179 51.7098 59.662 51.4863 60.4687 51.1264C61.28 50.7737 62.0433 50.2771 62.7333 49.6529C63.4386 49.0468 64.0616 48.3122 64.5799 47.4753C65.6404 45.8159 66.3002 43.8352 66.4867 41.7518Z" fill="#263238"/>
<path d="M61.2472 42.289C61.875 42.289 62.384 41.6748 62.384 40.9171C62.384 40.1595 61.875 39.5453 61.2472 39.5453C60.6193 39.5453 60.1104 40.1595 60.1104 40.9171C60.1104 41.6748 60.6193 42.289 61.2472 42.289Z" fill="#263238"/>
<path d="M57.173 42.289C57.8008 42.289 58.3098 41.6748 58.3098 40.9171C58.3098 40.1595 57.8008 39.5453 57.173 39.5453C56.5451 39.5453 56.0361 40.1595 56.0361 40.9171C56.0361 41.6748 56.5451 42.289 57.173 42.289Z" fill="#263238"/>
<path d="M53.1007 42.289C53.7285 42.289 54.2375 41.6748 54.2375 40.9171C54.2375 40.1595 53.7285 39.5453 53.1007 39.5453C52.4728 39.5453 51.9639 40.1595 51.9639 40.9171C51.9639 41.6748 52.4728 42.289 53.1007 42.289Z" fill="#263238"/>
<path d="M159.875 41.7519C159.694 43.8396 159.037 45.8258 157.975 47.4887C156.914 49.1516 155.49 50.4259 153.863 51.1693C152.237 51.9127 150.471 52.0961 148.763 51.6989C147.055 51.3016 145.472 50.3395 144.191 48.9198L139.493 49.7509L141.842 44.8513C141.307 43.2568 141.081 41.5364 141.179 39.8204C141.277 38.1044 141.698 36.438 142.409 34.9474C143.121 33.4568 144.104 32.1812 145.284 31.2173C146.465 30.2534 147.812 29.6265 149.223 29.3841C150.634 29.1417 152.072 29.2902 153.429 29.8184C154.785 30.3465 156.024 31.2404 157.052 32.4323C158.08 33.6242 158.869 35.0828 159.36 36.6975C159.851 38.3122 160.031 40.0407 159.887 41.7519H159.875Z" fill="white"/>
<path d="M159.875 41.7519C159.692 43.8404 159.037 45.8279 157.98 47.4971C157.716 47.9103 157.432 48.3041 157.129 48.6767C156.816 49.0385 156.485 49.3767 156.137 49.6893C155.446 50.3236 154.683 50.8356 153.872 51.2099C153.062 51.5929 152.212 51.8373 151.346 51.9358C150.912 51.9836 150.476 51.9933 150.041 51.9649C149.605 51.9522 149.17 51.8976 148.741 51.8015C147.011 51.418 145.403 50.4603 144.098 49.036L144.209 49.0759L139.518 49.9469L139.178 50.0086L139.349 49.6457L141.686 44.7352V44.9312C141.135 43.3072 140.901 41.5523 141.001 39.8017C141.101 38.0512 141.533 36.3517 142.263 34.8344C142.995 33.3231 144 32.0314 145.205 31.0562C146.407 30.0953 147.774 29.4754 149.203 29.2428C150.633 29.0103 152.087 29.1711 153.457 29.7134C154.811 30.2711 156.044 31.1875 157.066 32.3955C158.091 33.5966 158.876 35.0629 159.363 36.6837C159.849 38.3045 160.024 40.0375 159.875 41.7519ZM159.875 41.7519C160.025 40.0457 159.849 38.3208 159.359 36.71C158.869 35.0992 158.08 33.6455 157.051 32.4611C156.023 31.2766 154.783 30.3929 153.426 29.8782C152.07 29.3634 150.634 29.2313 149.229 29.492C147.836 29.7444 146.511 30.3775 145.352 31.343C144.205 32.3141 143.246 33.5748 142.543 35.0376C141.846 36.5051 141.435 38.1445 141.34 39.832C141.252 41.516 141.477 43.2025 141.999 44.7679L142.035 44.8695L141.99 44.9602L139.626 49.8526L139.457 49.5513L144.158 48.7565H144.224L144.269 48.811C145.525 50.2268 147.081 51.1943 148.766 51.6055C149.185 51.7071 149.61 51.769 150.038 51.7906C150.465 51.8269 150.894 51.8269 151.322 51.7906C152.179 51.7099 153.023 51.4864 153.83 51.1265C154.641 50.7731 155.404 50.2765 156.095 49.653C156.798 49.0457 157.42 48.3112 157.938 47.4754C159.011 45.8208 159.681 43.8393 159.875 41.7519Z" fill="#263238"/>
<path d="M154.62 42.289C155.248 42.289 155.757 41.6748 155.757 40.9171C155.757 40.1595 155.248 39.5453 154.62 39.5453C153.992 39.5453 153.483 40.1595 153.483 40.9171C153.483 41.6748 153.992 42.289 154.62 42.289Z" fill="#263238"/>
<path d="M150.549 42.289C151.177 42.289 151.686 41.6748 151.686 40.9171C151.686 40.1595 151.177 39.5453 150.549 39.5453C149.921 39.5453 149.412 40.1595 149.412 40.9171C149.412 41.6748 149.921 42.289 150.549 42.289Z" fill="#263238"/>
<path d="M147.613 40.9171C147.614 41.1886 147.548 41.4542 147.423 41.6803C147.299 41.9064 147.121 42.0828 146.914 42.1872C146.706 42.2916 146.477 42.3193 146.257 42.2667C146.036 42.2142 145.833 42.0838 145.674 41.8921C145.515 41.7004 145.406 41.456 145.362 41.1898C145.318 40.9235 145.34 40.6475 145.426 40.3966C145.512 40.1457 145.658 39.9312 145.845 39.7803C146.032 39.6294 146.252 39.5489 146.477 39.5489C146.778 39.5489 147.066 39.6929 147.279 39.9494C147.493 40.2059 147.613 40.5539 147.613 40.9171Z" fill="#263238"/>
<path d="M50.9436 122.076H48.9316V123.662H50.9436V122.076Z" fill="#455A64"/>
<path d="M53.554 121.971H51.542V123.557H53.554V121.971Z" fill="#455A64"/>
<path d="M56.1643 121.866H54.1523V123.452H56.1643V121.866Z" fill="#455A64"/>
<path d="M58.7718 121.761H56.7598V123.347H58.7718V121.761Z" fill="#455A64"/>
<path d="M61.3821 121.655H59.3701V123.241H61.3821V121.655Z" fill="#455A64"/>
<path d="M63.9934 121.554H61.9814V123.14H63.9934V121.554Z" fill="#455A64"/>
<path d="M66.6009 121.448H64.5889V123.035H66.6009V121.448Z" fill="#455A64"/>
<path d="M69.2112 121.343H67.1992V122.929H69.2112V121.343Z" fill="#455A64"/>
<path d="M71.8186 121.238H69.8066V122.824H71.8186V121.238Z" fill="#455A64"/>
<path d="M72.3118 124.573H48.4385V122.643L72.3118 121.84V124.573Z" fill="#37474F"/>
<path d="M95.614 116.966H56.2041L62.4717 81.5584H101.882L95.614 116.966Z" fill="#455A64"/>
<path d="M97.0721 116.966H57.6592L63.9268 81.5584H103.34L97.0721 116.966Z" fill="#37474F"/>
<path d="M83.9052 97.2118C83.7844 98.0178 83.4381 98.7494 82.9241 99.2845C82.4101 99.8195 81.7596 100.126 81.0812 100.152C80.7751 100.163 80.4707 100.091 80.1911 99.9398C79.9115 99.789 79.6638 99.5636 79.4667 99.2807C79.2696 98.9978 79.1282 98.6647 79.0531 98.3063C78.978 97.948 78.9712 97.5738 79.0331 97.2118C79.1527 96.4054 79.4981 95.673 80.0116 95.1372C80.5252 94.6014 81.1756 94.2947 81.8541 94.2684C82.1608 94.2562 82.4658 94.3282 82.7461 94.479C83.0264 94.6298 83.2746 94.8554 83.4721 95.1389C83.6696 95.4223 83.8112 95.7561 83.8863 96.1152C83.9613 96.4743 83.9678 96.8492 83.9052 97.2118Z" fill="#263238"/>
<path d="M85.9261 126.214H66.543V124.396L85.9261 123.641V126.214Z" fill="#455A64"/>
<path d="M91.196 126.21H80.7871L74.5195 106.369H84.9284L91.196 126.21Z" fill="#455A64"/>
<path d="M92.9068 126.21H82.501L76.2334 106.369H86.6392L92.9068 126.21Z" fill="#263238"/>
<path d="M47.6954 126.697H27.7198C26.0145 126.697 28.4806 120.835 34.7061 118.589C40.9316 116.342 49.6653 124.497 47.6954 126.697Z" fill="#37474F"/>
<path d="M39.876 126.697C39.8894 126.029 39.9805 125.367 40.1466 124.729C40.307 124.085 40.5323 123.467 40.8173 122.889C41.1031 122.308 41.4611 121.783 41.879 121.332C42.2933 120.885 42.7698 120.53 43.2865 120.283C43.0729 120.494 42.8293 120.646 42.6338 120.875L42.3331 121.191L42.0504 121.554C41.6809 122.021 41.357 122.537 41.085 123.093C40.8084 123.648 40.571 124.231 40.3752 124.835C40.1746 125.441 40.0078 126.063 39.876 126.697Z" fill="#263238"/>
<path d="M42.2275 121.118C43.4162 121.572 44.5408 122.242 45.5628 123.103C46.08 123.535 46.5482 124.046 46.9553 124.624C47.3823 125.199 47.6421 125.927 47.6951 126.697C47.5295 125.987 47.2121 125.342 46.7748 124.827C46.3487 124.304 45.8825 123.83 45.3824 123.412C44.8861 122.98 44.3658 122.592 43.8365 122.211C43.3072 121.83 42.7749 121.47 42.2275 121.118Z" fill="#263238"/>
<path d="M143.231 122.076H141.219V123.662H143.231V122.076Z" fill="#455A64"/>
<path d="M145.841 121.971H143.829V123.557H145.841V121.971Z" fill="#455A64"/>
<path d="M148.451 121.866H146.439V123.452H148.451V121.866Z" fill="#455A64"/>
<path d="M151.059 121.761H149.047V123.347H151.059V121.761Z" fill="#455A64"/>
<path d="M153.67 121.655H151.658V123.241H153.67V121.655Z" fill="#455A64"/>
<path d="M156.281 121.554H154.269V123.14H156.281V121.554Z" fill="#455A64"/>
<path d="M158.888 121.448H156.876V123.035H158.888V121.448Z" fill="#455A64"/>
<path d="M161.498 121.343H159.486V122.929H161.498V121.343Z" fill="#455A64"/>
<path d="M164.109 121.238H162.097V122.824H164.109V121.238Z" fill="#455A64"/>
<path d="M164.602 124.573H140.729V122.643L164.602 121.84V124.573Z" fill="#37474F"/>
<path d="M187.901 116.966H148.491L154.759 81.5584H194.169L187.901 116.966Z" fill="#455A64"/>
<path d="M189.359 116.966H149.949L156.217 81.5584H195.627L189.359 116.966Z" fill="#37474F"/>
<path d="M176.193 97.2118C176.073 98.0172 175.727 98.7484 175.213 99.2834C174.7 99.8183 174.05 100.125 173.372 100.152C173.066 100.164 172.761 100.092 172.481 99.941C172.201 99.7904 171.953 99.5652 171.756 99.2822C171.558 98.9992 171.417 98.6659 171.341 98.3072C171.266 97.9486 171.259 97.5741 171.321 97.2118C171.441 96.4057 171.787 95.6736 172.3 95.138C172.814 94.6023 173.464 94.2953 174.142 94.2684C174.449 94.2562 174.754 94.3282 175.034 94.479C175.314 94.6298 175.563 94.8554 175.76 95.1389C175.958 95.4223 176.099 95.7561 176.174 96.1152C176.249 96.4743 176.256 96.8492 176.193 97.2118Z" fill="#263238"/>
<path d="M178.214 126.214H158.831V124.396L178.214 123.641V126.214Z" fill="#455A64"/>
<path d="M183.483 126.21H173.074L166.807 106.369H177.216L183.483 126.21Z" fill="#455A64"/>
<path d="M185.197 126.21H174.788L168.521 106.369H178.929L185.197 126.21Z" fill="#263238"/>
<path d="M139.992 126.697H120.007C118.302 126.697 120.768 120.835 126.993 118.589C133.219 116.342 141.952 124.497 139.992 126.697Z" fill="#37474F"/>
<path d="M132.148 126.697C132.163 126.029 132.254 125.367 132.419 124.729C132.581 124.086 132.806 123.468 133.09 122.889C133.377 122.309 133.735 121.785 134.151 121.332C134.566 120.885 135.042 120.53 135.559 120.283C135.345 120.494 135.102 120.646 134.906 120.875L134.606 121.191L134.323 121.554C133.952 122.02 133.627 122.536 133.354 123.093C133.078 123.648 132.84 124.231 132.645 124.835C132.445 125.441 132.279 126.063 132.148 126.697Z" fill="#263238"/>
<path d="M134.516 121.118C135.704 121.572 136.829 122.242 137.851 123.103C138.368 123.536 138.837 124.047 139.246 124.624C139.672 125.195 139.934 125.917 139.992 126.682C139.826 125.972 139.507 125.328 139.069 124.813C138.643 124.289 138.177 123.815 137.676 123.397C137.183 122.966 136.66 122.577 136.131 122.196C135.601 121.815 135.066 121.47 134.516 121.118Z" fill="#263238"/>
</svg>
