<svg width="250" height="187" viewBox="0 0 250 187" fill="none" xmlns="http://www.w3.org/2000/svg">
<path d="M250 163.7H0V163.825H250V163.7Z" fill="#EBEBEB"/>
<path d="M224.95 171.745H208.39V171.87H224.95V171.745Z" fill="#EBEBEB"/>
<path d="M165.61 173.105H161.265V173.23H165.61V173.105Z" fill="#EBEBEB"/>
<path d="M207.89 167.105H198.295V167.23H207.89V167.105Z" fill="#EBEBEB"/>
<path d="M47.8255 167.945H26.2305V168.07H47.8255V167.945Z" fill="#EBEBEB"/>
<path d="M55.4453 167.945H52.2803V168.07H55.4453V167.945Z" fill="#EBEBEB"/>
<path d="M112.574 170.055H65.7344V170.18H112.574V170.055Z" fill="#EBEBEB"/>
<path d="M118.5 141.4H21.9555C21.1991 141.399 20.4742 141.097 19.9399 140.562C19.4056 140.027 19.1055 139.301 19.1055 138.545V2.83C19.1121 2.07801 19.4151 1.35899 19.9487 0.829109C20.4823 0.299229 21.2035 0.00128819 21.9555 0H118.5C119.258 0 119.984 0.300794 120.519 0.83621C121.055 1.37163 121.355 2.09781 121.355 2.855V138.545C121.355 139.302 121.055 140.028 120.519 140.564C119.984 141.099 119.258 141.4 118.5 141.4ZM21.9555 0.1C21.2323 0.101325 20.5392 0.389533 20.0283 0.901363C19.5174 1.41319 19.2305 2.10682 19.2305 2.83V138.545C19.2305 139.268 19.5174 139.962 20.0283 140.474C20.5392 140.985 21.2323 141.274 21.9555 141.275H118.5C119.224 141.274 119.918 140.986 120.429 140.474C120.941 139.962 121.229 139.269 121.23 138.545V2.83C121.229 2.10636 120.941 1.41275 120.429 0.901058C119.918 0.38937 119.224 0.101322 118.5 0.1H21.9555Z" fill="#EBEBEB"/>
<path d="M226.655 141.4H130.105C129.348 141.399 128.623 141.097 128.088 140.562C127.553 140.027 127.251 139.302 127.25 138.545V2.83C127.258 2.07756 127.562 1.35854 128.096 0.828796C128.631 0.299054 129.353 0.00127414 130.105 0H226.655C227.406 0.00260225 228.126 0.301125 228.659 0.830864C229.191 1.3606 229.493 2.07888 229.5 2.83V138.545C229.5 139.3 229.201 140.025 228.667 140.56C228.134 141.095 227.41 141.397 226.655 141.4ZM130.105 0.1C129.381 0.101322 128.688 0.38937 128.176 0.901058C127.664 1.41275 127.376 2.10636 127.375 2.83V138.545C127.376 139.269 127.664 139.962 128.176 140.474C128.688 140.986 129.381 141.274 130.105 141.275H226.655C227.379 141.274 228.072 140.986 228.584 140.474C229.096 139.962 229.384 139.269 229.385 138.545V2.83C229.384 2.10636 229.096 1.41275 228.584 0.901058C228.072 0.38937 227.379 0.101322 226.655 0.1H130.105Z" fill="#EBEBEB"/>
<path d="M42.2998 46.25L60.6948 35.545H74.8698L93.5748 45.745V115.105H42.2998V46.25Z" fill="#E0E0E0"/>
<path d="M94.0998 115.105H42.2998V46.25L42.8298 45.75C49.6416 39.1853 58.7396 35.5275 68.1998 35.55C77.6603 35.5285 86.7589 39.1841 93.5748 45.745L94.0748 46.245L94.0998 115.105ZM45.7348 111.665H90.6648V47.725C84.5339 42.1032 76.518 38.9844 68.1998 38.9844C59.8816 38.9844 51.8657 42.1032 45.7348 47.725V111.665Z" fill="#FAFAFA"/>
<path d="M66.9109 112.08H69.4909V89.06H91.3159V86.485H69.4909V62.94H91.3159V60.365H69.4909V38.54H66.9109V60.365H45.0859V62.94H66.9109V86.485H45.0859V89.06H66.9109V112.08Z" fill="#F0F0F0"/>
<path d="M95.82 116.82H40.585V45.55L41.085 45.05C48.282 37.8693 58.0334 33.8366 68.2 33.8366C78.3665 33.8366 88.118 37.8693 95.315 45.05L95.815 45.55L95.82 116.82ZM44 113.385H92.36V47C85.8542 40.7647 77.1913 37.2836 68.18 37.2836C59.1687 37.2836 50.5057 40.7647 44 47V113.385Z" fill="#F0F0F0"/>
<path d="M171.42 43.05C171.42 43.05 171.92 39.75 169.515 37.635C167.11 35.52 167.32 34.26 168.015 34.1C168.71 33.94 169.335 36.05 170.395 36.63C170.395 36.63 170.425 33.63 169.35 32.505C168.275 31.38 167.715 28.535 168.735 28.505C169.755 28.475 169.865 30.205 170.075 31.445C170.285 32.685 171.425 34.445 171.425 34.445C171.425 34.445 171.65 31.75 172.345 30.635C173.04 29.52 171.185 26.99 171.9 25.875C172.615 24.76 173.9 26.875 173.78 29.26C173.66 31.645 172.085 34.18 172.455 36.665C172.455 36.665 173.155 34.92 173.785 34.765C174.415 34.61 175.045 33.45 175.47 33.02C175.895 32.59 176.42 34.075 175.47 35.45C174.52 36.825 172.085 40.505 172.47 43.45L171.42 43.05Z" fill="#E6E6E6"/>
<path d="M170 41.55L169.195 46.5C169.135 46.8609 169.155 47.2306 169.253 47.583C169.352 47.9354 169.526 48.2618 169.765 48.5394C170.003 48.8169 170.3 49.0387 170.633 49.1891C170.967 49.3396 171.329 49.415 171.695 49.41H172.5C172.866 49.415 173.228 49.3396 173.562 49.1891C173.895 49.0387 174.192 48.8169 174.43 48.5394C174.669 48.2618 174.843 47.9354 174.942 47.583C175.04 47.2306 175.06 46.8609 175 46.5L174.215 41.555L170 41.55Z" fill="#E6E6E6"/>
<path d="M181.9 47.58H126.2V50.44H181.9V47.58Z" fill="#E0E0E0"/>
<path d="M131.22 37.03H128.765V47.58H131.22V37.03Z" fill="#EBEBEB"/>
<path d="M143.085 37.03H140.63V47.58H143.085V37.03Z" fill="#EBEBEB"/>
<path d="M156.555 36.7654L154.136 37.1824L155.928 47.5791L158.347 47.162L156.555 36.7654Z" fill="#EBEBEB"/>
<path d="M134.26 38.42H131.805V47.58H134.26V38.42Z" fill="#EBEBEB"/>
<path d="M139.9 38.42H137.445V47.58H139.9V38.42Z" fill="#EBEBEB"/>
<path d="M154.136 38.42H151.681V47.58H154.136V38.42Z" fill="#EBEBEB"/>
<path d="M146.309 38.1003L143.912 38.6329L145.899 47.5747L148.296 47.0421L146.309 38.1003Z" fill="#EBEBEB"/>
<path d="M136.38 36.505H135.155V47.58H136.38V36.505Z" fill="#EBEBEB"/>
<path d="M150.975 36.505H149.75V47.58H150.975V36.505Z" fill="#EBEBEB"/>
<path d="M126.199 71.81H181.899V68.95H126.199V71.81Z" fill="#E0E0E0"/>
<path d="M176.88 68.945H179.335V58.395H176.88V68.945Z" fill="#EBEBEB"/>
<path d="M165.015 68.945H167.47V58.395H165.015V68.945Z" fill="#EBEBEB"/>
<path d="M149.754 68.5267L152.173 68.9437L153.965 58.547L151.546 58.13L149.754 68.5267Z" fill="#EBEBEB"/>
<path d="M173.84 68.945H176.295V59.785H173.84V68.945Z" fill="#EBEBEB"/>
<path d="M168.205 68.945H170.66V59.785H168.205V68.945Z" fill="#EBEBEB"/>
<path d="M153.965 68.945H156.42V59.785H153.965V68.945Z" fill="#EBEBEB"/>
<path d="M159.815 68.4034L162.212 68.936L164.199 59.9942L161.803 59.4616L159.815 68.4034Z" fill="#EBEBEB"/>
<path d="M171.724 68.95H172.949V57.875H171.724V68.95Z" fill="#EBEBEB"/>
<path d="M157.125 68.95H158.35V57.875H157.125V68.95Z" fill="#EBEBEB"/>
<path d="M131.545 68.85H143.5V60.595H131.545V68.85Z" fill="#EBEBEB"/>
<path d="M125.001 186.28C178.542 186.28 221.946 183.746 221.946 180.62C221.946 177.494 178.542 174.96 125.001 174.96C71.4594 174.96 28.0557 177.494 28.0557 180.62C28.0557 183.746 71.4594 186.28 125.001 186.28Z" fill="#F5F5F5"/>
<path d="M212.16 179.385H193.35L190.85 161.095H214.66L212.16 179.385Z" fill="#263238"/>
<path d="M202.499 161.125C202.499 161.125 199.864 148.68 204.659 141.94C209.454 135.2 200.324 141.865 199.274 148.17C199.274 148.17 197.704 136.89 202.354 128.955C207.004 121.02 198.304 127.535 197.564 135.71C197.564 135.71 196.139 125.65 198.274 119.99C200.409 114.33 196.694 117.99 195.274 121.52C193.854 125.05 195.719 133.845 195.719 133.845C195.719 133.845 191.999 117.61 188.469 118.9C184.939 120.19 193.749 130.83 194.969 136.36C194.969 136.36 190.809 128.915 187.649 130.465C184.489 132.015 192.539 132.785 196.229 143.89L197.524 149.095C197.524 149.095 193.689 141.745 191.184 144.065C188.679 146.385 198.614 150.385 200.919 161.52L202.499 161.125Z" fill="#F57C00"/>
<path d="M202 161.84C202 161.84 201.45 146.15 193.695 139.5C185.94 132.85 198.865 138.115 202 145.36C202 145.36 200.525 131.36 192.59 123.255C184.655 115.15 197.02 120.35 200.34 129.925C200.34 129.925 199.05 117.425 194.805 111.31C190.56 105.195 196.095 108.42 198.865 112.24C201.635 116.06 202 127.145 202 127.145C202 127.145 201.635 106.59 206.245 107.085C210.855 107.58 203.48 122.945 203.665 129.935C203.665 129.935 206.43 119.775 210.665 120.69C214.9 121.605 205.5 124.93 204.4 139.325V145.945C204.4 145.945 206.8 136 210.5 138.03C214.2 140.06 203.5 147.815 204.04 161.84H202Z" fill="#F57C00"/>
<path opacity="0.2" d="M202 161.84C202 161.84 201.45 146.15 193.695 139.5C185.94 132.85 198.865 138.115 202 145.36C202 145.36 200.525 131.36 192.59 123.255C184.655 115.15 197.02 120.35 200.34 129.925C200.34 129.925 199.05 117.425 194.805 111.31C190.56 105.195 196.095 108.42 198.865 112.24C201.635 116.06 202 127.145 202 127.145C202 127.145 201.635 106.59 206.245 107.085C210.855 107.58 203.48 122.945 203.665 129.935C203.665 129.935 206.43 119.775 210.665 120.69C214.9 121.605 205.5 124.93 204.4 139.325V145.945C204.4 145.945 206.8 136 210.5 138.03C214.2 140.06 203.5 147.815 204.04 161.84H202Z" fill="white"/>
<path d="M188.5 159.61V161.35C188.501 161.908 188.724 162.443 189.118 162.837C189.512 163.231 190.047 163.454 190.605 163.455H215.155C215.713 163.454 216.248 163.231 216.642 162.837C217.036 162.443 217.259 161.908 217.26 161.35V159.61H188.5Z" fill="#263238"/>
<path opacity="0.2" d="M188.5 159.61V161.35C188.501 161.908 188.724 162.443 189.118 162.837C189.512 163.231 190.047 163.454 190.605 163.455H215.155C215.713 163.454 216.248 163.231 216.642 162.837C217.036 162.443 217.259 161.908 217.26 161.35V159.61H188.5Z" fill="white"/>
<path d="M126.92 100.96C126.822 100.071 127.007 99.1726 127.45 98.395L133.695 98.42L135.195 96.35L141.56 95.76L141.995 98.76V98.79L142.435 101.82L136.16 103.045L134.14 101.5L128.14 103.285C127.494 102.666 127.061 101.857 126.905 100.975L126.92 100.96Z" fill="#F57C00"/>
<path opacity="0.2" d="M127.445 98.38C127.385 99.22 127.645 100.06 128.635 100.195C129.646 100.241 130.659 100.187 131.66 100.035L131.74 100.58C131.74 100.58 128.9 101.08 128.525 101.365C128.15 101.65 128.155 103.285 128.155 103.285L134.155 101.5C134.155 101.5 135.825 100.27 135.745 99.705C135.665 99.14 133.705 98.405 133.705 98.405L127.445 98.38Z" fill="black"/>
<path opacity="0.2" d="M139.12 95.97L140.38 96.285C140.38 96.285 137.955 99.44 137.29 101.865C137.874 100.931 138.517 100.036 139.215 99.185L140.715 101.37L139.715 102.37L142.44 101.84L141.56 95.755L139.12 95.97Z" fill="black"/>
<path d="M141.86 94.09L144.035 93.775C145.005 93.635 146.095 95.59 146.46 98.14C146.825 100.69 146.34 102.875 145.365 103.015L143.195 103.33C142.22 103.47 141.135 101.515 140.765 98.965C140.395 96.415 140.89 94.23 141.86 94.09Z" fill="#263238"/>
<path opacity="0.4" d="M142.94 98.65C143.305 101.2 144.39 103.15 145.365 103.015C146.34 102.88 146.83 100.695 146.46 98.14C146.09 95.585 145.005 93.64 144.035 93.775C143.065 93.91 142.57 96.1 142.94 98.65Z" fill="black"/>
<path d="M134.279 179.385L134.314 179.17L135.294 167.77H139.444L136.474 179.385H134.279Z" fill="#263238"/>
<path d="M172.745 179.385L172.71 179.17L171.73 167.77H167.58L170.55 179.385H172.745Z" fill="#263238"/>
<g opacity="0.4">
<path d="M134.279 179.385L134.314 179.17L135.294 167.77H139.444L136.474 179.385H134.279Z" fill="white"/>
<path d="M172.745 179.385L172.71 179.17L171.73 167.77H167.58L170.55 179.385H172.745Z" fill="white"/>
</g>
<path d="M128.81 179.385L128.845 179.17L130.735 167.77H134.885L131.005 179.385H128.81Z" fill="#263238"/>
<path d="M178.215 179.385L178.18 179.17L176.29 167.77H172.14L176.02 179.385H178.215Z" fill="#263238"/>
<g opacity="0.6">
<path d="M128.81 179.385L128.845 179.17L130.735 167.77H134.885L131.005 179.385H128.81Z" fill="white"/>
<path d="M178.215 179.385L178.18 179.17L176.29 167.77H172.14L176.02 179.385H178.215Z" fill="white"/>
</g>
<path d="M179.005 99.52H128.02C127.018 99.52 126.205 100.333 126.205 101.335V168.5C126.205 169.502 127.018 170.315 128.02 170.315H179.005C180.007 170.315 180.82 169.502 180.82 168.5V101.335C180.82 100.333 180.007 99.52 179.005 99.52Z" fill="#F57C00"/>
<path opacity="0.4" d="M179.005 99.52H128.02C127.018 99.52 126.205 100.333 126.205 101.335V168.5C126.205 169.502 127.018 170.315 128.02 170.315H179.005C180.007 170.315 180.82 169.502 180.82 168.5V101.335C180.82 100.333 180.007 99.52 179.005 99.52Z" fill="white"/>
<path opacity="0.5" d="M178.595 114.95H128.43V140.505H178.595V114.95Z" fill="white"/>
<path opacity="0.5" d="M178.595 142.21H128.43V167.765H178.595V142.21Z" fill="white"/>
<path opacity="0.5" d="M178.595 102.06H128.43V113.25H178.595V102.06Z" fill="white"/>
<path opacity="0.5" d="M157.615 103.92H149.41C149.163 103.92 148.922 103.851 148.713 103.72C148.504 103.589 148.337 103.402 148.23 103.18L147.68 102.06H159.345L158.795 103.18C158.687 103.402 158.52 103.589 158.311 103.72C158.102 103.851 157.861 103.92 157.615 103.92Z" fill="black"/>
<path opacity="0.5" d="M157.615 116.81H149.41C149.164 116.81 148.923 116.741 148.715 116.611C148.506 116.481 148.338 116.296 148.23 116.075L147.68 114.95H159.345L158.795 116.075C158.686 116.296 158.518 116.481 158.31 116.611C158.101 116.741 157.86 116.81 157.615 116.81Z" fill="black"/>
<path opacity="0.5" d="M157.615 144.07H149.41C149.164 144.07 148.923 144.001 148.715 143.871C148.506 143.741 148.338 143.556 148.23 143.335L147.68 142.21H159.345L158.795 143.335C158.686 143.556 158.518 143.741 158.31 143.871C158.101 144.001 157.86 144.07 157.615 144.07Z" fill="black"/>
<path d="M166.13 100.155L164.745 96.725L168.305 84.46L169.135 88.75L169.605 79.385L173.25 96.855L172.26 100.155H166.13Z" fill="#F57C00"/>
<path opacity="0.2" d="M168.305 84.46V91.845L169.135 88.75L170.68 92.44L169.675 79.72L169.135 88.75L168.305 84.46Z" fill="black"/>
<path opacity="0.2" d="M168.305 91.845L169.605 94.715L170.68 92.44L169.135 88.75L168.305 92.01" fill="white"/>
<path opacity="0.2" d="M168.305 84.46L167.185 91.73L164.745 96.725L168.305 84.46Z" fill="white"/>
<path opacity="0.2" d="M169.604 79.385L171.404 92.44L173.249 96.855L169.604 79.385Z" fill="white"/>
<path opacity="0.2" d="M165.82 99.39L167.45 96.855L169.605 98.965L171.075 97.25L172.49 99.39L172.26 100.155H166.13L165.82 99.39Z" fill="black"/>
<path d="M174.5 99.39H163.5V102.635H174.5V99.39Z" fill="#263238"/>
<path opacity="0.5" d="M171.075 100.52H166.92V101.51H171.075V100.52Z" fill="white"/>
<path d="M65.6006 171.94L64.7656 169.58C65.0306 169.49 91.1606 160.18 97.4006 153.185C100.321 149.915 103.901 142.005 107.326 134.35C111.716 124.6 115.506 116.18 118.951 114.08C121.316 112.64 123.136 112.365 124.526 113.255C126.836 114.755 126.691 118.87 126.241 122.72L123.741 122.435C124.396 116.805 123.551 115.61 123.156 115.36C122.761 115.11 121.596 115.36 120.231 116.215C117.446 117.915 113.271 127.19 109.586 135.375C105.901 143.56 102.421 151.29 99.2506 154.85C92.6056 162.32 66.7006 171.55 65.6006 171.94Z" fill="#263238"/>
<g opacity="0.2">
<path d="M65.6006 171.94L64.7656 169.58C65.0306 169.49 91.1606 160.18 97.4006 153.185C100.321 149.915 103.901 142.005 107.326 134.35C111.716 124.6 115.506 116.18 118.951 114.08C121.316 112.64 123.136 112.365 124.526 113.255C126.836 114.755 126.691 118.87 126.241 122.72L123.741 122.435C124.396 116.805 123.551 115.61 123.156 115.36C122.761 115.11 121.596 115.36 120.231 116.215C117.446 117.915 113.271 127.19 109.586 135.375C105.901 143.56 102.421 151.29 99.2506 154.85C92.6056 162.32 66.7006 171.55 65.6006 171.94Z" fill="white"/>
</g>
<path d="M64.9144 179.38H46.4144C45.9071 179.378 45.4051 179.276 44.9372 179.08C44.4693 178.884 44.0447 178.597 43.6876 178.237C43.3305 177.877 43.0479 177.449 42.856 176.98C42.6642 176.51 42.5668 176.007 42.5694 175.5V168.63C42.5694 167.918 42.71 167.213 42.9832 166.556C43.2564 165.898 43.6568 165.301 44.1613 164.799C44.6659 164.297 45.2647 163.899 45.9233 163.629C46.582 163.359 47.2875 163.222 47.9994 163.225H55.8444C57.5833 163.225 59.2607 163.868 60.5544 165.03L70.4144 173.9C70.4091 175.355 69.8273 176.749 68.7964 177.776C67.7655 178.803 66.3696 179.38 64.9144 179.38Z" fill="#263238"/>
<path opacity="0.2" d="M42.5694 168.63V175.5C42.5705 176.38 42.8719 177.233 43.4237 177.919C43.9756 178.604 44.7448 179.081 45.6044 179.27C45.8751 179.331 46.1519 179.361 46.4294 179.36H64.9294C66.2536 179.361 67.5332 178.882 68.5309 178.011C69.5285 177.14 70.1764 175.937 70.3544 174.625C70.3927 174.379 70.4111 174.129 70.4094 173.88L70.0044 173.515L60.5494 165.015C59.2552 163.854 57.5781 163.211 55.8394 163.21H47.9994C47.2862 163.207 46.5794 163.345 45.9198 163.616C45.2602 163.887 44.6607 164.286 44.1559 164.79C43.6512 165.293 43.2511 165.892 42.9788 166.551C42.7065 167.21 42.5674 167.917 42.5694 168.63Z" fill="white"/>
<path opacity="0.2" d="M42.5693 168.63V174.245C43.7493 174.245 44.7443 174.245 44.7443 174.245V170.27C44.741 169.806 44.8299 169.346 45.0059 168.917C45.1819 168.488 45.4414 168.098 45.7694 167.77C46.0974 167.442 46.4873 167.183 46.9165 167.007C47.3456 166.831 47.8055 166.742 48.2693 166.745H54.5343C55.7923 166.745 57.0075 167.202 57.9543 168.03L65.5543 174.66H68.7443L69.9893 173.55L60.5343 165.05C59.2402 163.889 57.563 163.246 55.8243 163.245H47.9993C47.2891 163.242 46.5852 163.378 45.9279 163.647C45.2705 163.916 44.6726 164.312 44.1683 164.812C43.664 165.312 43.2633 165.907 42.9889 166.562C42.7145 167.217 42.572 167.92 42.5693 168.63Z" fill="white"/>
<path d="M45.6055 170.26V179.29C45.8763 179.351 46.153 179.381 46.4305 179.38H64.9305C66.2547 179.381 67.5343 178.902 68.532 178.031C69.5296 177.16 70.1775 175.957 70.3555 174.645H65.7005C65.3919 174.645 65.0903 174.737 64.8333 174.907C64.5763 175.078 64.3753 175.321 64.2555 175.605C64.1356 175.889 63.9346 176.132 63.6776 176.303C63.4206 176.473 63.119 176.565 62.8105 176.565H54.9705C54.6342 176.565 54.3045 176.472 54.0184 176.295C53.7322 176.119 53.501 175.866 53.3505 175.565L51.2705 171.34C51.1133 171.019 50.8693 170.749 50.5661 170.56C50.263 170.37 49.9128 170.27 49.5555 170.27L45.6055 170.26Z" fill="#263238"/>
<path d="M69 176.13H72.365C72.7628 176.13 73.1444 175.972 73.4257 175.691C73.707 175.409 73.865 175.028 73.865 174.63C73.865 174.232 73.707 173.851 73.4257 173.569C73.1444 173.288 72.7628 173.13 72.365 173.13H69C68.6022 173.13 68.2206 173.288 67.9393 173.569C67.658 173.851 67.5 174.232 67.5 174.63C67.5 175.028 67.658 175.409 67.9393 175.691C68.2206 175.972 68.6022 176.13 69 176.13Z" fill="#263238"/>
<path d="M49.2395 177.804C51.2468 175.797 51.2468 172.542 49.2395 170.535C47.2322 168.528 43.9778 168.528 41.9705 170.535C39.9632 172.542 39.9632 175.797 41.9705 177.804C43.9778 179.811 47.2322 179.811 49.2395 177.804Z" fill="#263238"/>
<path opacity="0.1" d="M49.2395 177.804C51.2468 175.797 51.2468 172.542 49.2395 170.535C47.2322 168.528 43.9778 168.528 41.9705 170.535C39.9632 172.542 39.9632 175.797 41.9705 177.804C43.9778 179.811 47.2322 179.811 49.2395 177.804Z" fill="white"/>
<path opacity="0.4" d="M42.5 174.17C42.5 174.783 42.6818 175.382 43.0224 175.892C43.3631 176.402 43.8472 176.799 44.4137 177.034C44.9801 177.269 45.6034 177.33 46.2048 177.21C46.8061 177.091 47.3585 176.796 47.792 176.362C48.2256 175.928 48.5208 175.376 48.6404 174.775C48.76 174.173 48.6987 173.55 48.464 172.984C48.2294 172.417 47.8321 171.933 47.3223 171.592C46.8125 171.252 46.2131 171.07 45.6 171.07C44.7778 171.07 43.9893 171.397 43.408 171.978C42.8266 172.559 42.5 173.348 42.5 174.17Z" fill="black"/>
<path opacity="0.1" d="M69 176.13H72.365C72.7628 176.13 73.1444 175.972 73.4257 175.691C73.707 175.409 73.865 175.028 73.865 174.63C73.865 174.232 73.707 173.851 73.4257 173.569C73.1444 173.288 72.7628 173.13 72.365 173.13H69C68.6022 173.13 68.2206 173.288 67.9393 173.569C67.658 173.851 67.5 174.232 67.5 174.63C67.5 175.028 67.658 175.409 67.9393 175.691C68.2206 175.972 68.6022 176.13 69 176.13Z" fill="white"/>
<path d="M123.621 120.991L109.312 172.521L112.202 173.324L126.512 121.794L123.621 120.991Z" fill="#263238"/>
<path d="M116.45 175.73L113.12 174.5L112.875 171.605C112.875 171.605 111.985 170.5 109.57 170.54L106.84 174.71L102.34 175.4C102.06 175.443 101.797 175.558 101.574 175.733C101.352 175.908 101.178 176.138 101.07 176.4L100.07 178.79L101.11 179.365H117L117.15 176.745C117.157 176.523 117.093 176.305 116.967 176.123C116.841 175.94 116.66 175.802 116.45 175.73Z" fill="#263238"/>
<path opacity="0.2" d="M116.45 175.73L113.12 174.5L112.875 171.605C112.875 171.605 111.985 170.5 109.57 170.54L106.84 174.71L102.34 175.4C102.06 175.443 101.797 175.558 101.574 175.733C101.352 175.908 101.178 176.138 101.07 176.4L100.07 178.79L101.11 179.365H117L117.15 176.745C117.157 176.523 117.093 176.305 116.967 176.123C116.841 175.94 116.66 175.802 116.45 175.73Z" fill="white"/>
<path d="M100.064 178.81H115.839L116.979 179.385H101.104L100.064 178.81Z" fill="#263238"/>
<path d="M125.23 180.78L124.87 182.35C122.07 183.055 118.62 183.64 116.37 183.005C112.03 181.775 111.15 179.75 111.15 179.75C111.15 179.75 116.02 181.285 119.73 179.425L121.075 179.675V181.175L125.23 180.78Z" fill="#F57C00"/>
<path opacity="0.2" d="M125.23 180.78L124.87 182.35L122.71 182.23L120.285 182.625V181.045H118.95L119.94 180.105L119.735 179.425L121.08 179.675V181.175L125.23 180.78Z" fill="black"/>
<path d="M134.574 182.47L134.359 183.275L131.299 182.465L130.099 183.185C129.299 182.265 127.854 181.4 125.689 183.01C125.689 183.01 126.754 179.555 129.634 179.42C131.674 179.325 133.614 181.305 134.574 182.47Z" fill="#F57C00"/>
<path opacity="0.2" d="M130.1 183.185L130.375 182.17L132.105 181.925L131.91 180.595L133.64 182.17L134.575 182.47L134.36 183.275L131.3 182.465L130.1 183.185Z" fill="black"/>
<path d="M149.275 182.695C149.275 182.695 144.32 184.24 140.775 181.325C139.145 182.066 137.476 182.717 135.775 183.275L136.205 180.775L135.33 179.775L138.18 176.775L136.29 176.195C137.585 174.62 140.02 172.59 143.005 174.59C144.714 173.658 146.624 173.154 148.57 173.12L147.965 173.76H148.965V174.55L149.61 175.02C149.61 175.08 149.61 175.135 149.635 175.195H147L149.645 175.735C149.664 176.151 149.585 176.565 149.415 176.945C149.569 177.284 149.7 177.633 149.805 177.99C150.185 179.24 150.5 181.245 149.275 182.695Z" fill="#F57C00"/>
<path opacity="0.2" d="M136.255 176.22L139.62 176.505V177.78L140.6 178.78L139.13 179.14L140.6 179.915L139.275 181.07L136.905 180.745L137.2 181.655L135.74 183.275L136.17 180.775L135.295 179.785L138.145 176.8L136.255 176.22Z" fill="black"/>
<path opacity="0.2" d="M142.97 174.615C141.255 175.515 139.62 177.78 139.62 177.78V176.5C140.04 175.786 140.576 175.148 141.205 174.61C142 174.085 142.97 174.615 142.97 174.615Z" fill="black"/>
<path opacity="0.2" d="M149.816 178.03C146.961 176.575 144.281 178.375 143.431 179.75C143.134 180.199 142.739 180.574 142.275 180.847C141.812 181.12 141.292 181.283 140.756 181.325C143.256 180 143.101 177.775 145.256 176.735C145.914 176.439 146.634 176.306 147.355 176.347C148.075 176.388 148.775 176.602 149.396 176.97C149.561 177.313 149.701 177.667 149.816 178.03Z" fill="black"/>
<path d="M151.555 182.625L152.41 170.57L159.535 170.24L164.94 171.23L163.62 182.54L157.555 182.965L151.555 182.625Z" fill="#263238"/>
<path opacity="0.2" d="M152.41 170.57L158.94 171.56L157.96 182.94L151.555 182.625L152.41 170.57Z" fill="white"/>
<path opacity="0.2" d="M158.94 171.56L164.94 171.23L163.62 182.54L157.96 182.94L158.94 171.56Z" fill="black"/>
<path d="M154.5 172.35C153.185 172.22 153.185 175.385 153.185 175.385L152 176.08L153.185 176.755L152.325 178.21L151.075 179.415H152.325L151.715 180.06C151.715 180.06 152.985 181.32 154.37 181.315C153.994 180.898 153.719 180.4 153.568 179.86C153.416 179.32 153.391 178.752 153.495 178.2C153.845 176.3 154.24 176.07 154.24 176.07C153.964 175.89 153.747 175.633 153.614 175.331C153.482 175.029 153.441 174.695 153.495 174.37C153.674 173.63 154.018 172.939 154.5 172.35Z" fill="#F57C00"/>
<path opacity="0.2" d="M154.5 172.35C153.185 172.22 153.185 175.385 153.185 175.385L152 176.08L153.185 176.755L152.325 178.21L151.075 179.415H152.325L151.715 180.06C151.715 180.06 152.985 181.32 154.37 181.315C153.994 180.898 153.719 180.4 153.568 179.86C153.416 179.32 153.391 178.752 153.495 178.2C153.845 176.3 154.24 176.07 154.24 176.07C153.964 175.89 153.747 175.633 153.614 175.331C153.482 175.029 153.441 174.695 153.495 174.37C153.674 173.63 154.018 172.939 154.5 172.35Z" fill="black"/>
<path d="M153.204 172.22C154.259 171.69 155.644 172.02 155.974 172.815C156.304 173.61 155.974 176.08 155.974 176.08C156.351 177.153 156.52 178.288 156.474 179.425C156.319 180.99 154.404 181.325 154.404 181.325C155.043 180.827 155.542 180.172 155.854 179.425C156.449 178.1 155.524 176.08 155.524 176.08L155.264 175.45V174.66L154.859 174.38L155.589 173.735L155.264 173.105L154.209 172.815L154.534 172.35L153.204 172.22Z" fill="#F57C00"/>
<path opacity="0.2" d="M161.45 174.38L160.785 180.13H161.84L162.5 174.38H161.45Z" fill="white"/>
<path d="M136.865 184.88L137.945 184.155L140.345 184.88L139.445 185.405L136.865 184.88Z" fill="#F57C00"/>
<path d="M122.939 185.405L123.994 184.155C123.994 184.155 124.389 185.01 124.994 184.78C125.45 184.558 125.863 184.256 126.214 183.89L126.904 184.78C126.904 184.78 124.719 186.2 122.939 185.405Z" fill="#F57C00"/>
<path d="M151.095 184.35C151.36 184.02 153.515 184.35 153.515 184.35L155.905 183.89L157.16 184.155H157.96L155.575 184.78H157.425L155.25 185.645L153.515 185.405C153.859 185.214 154.192 185.006 154.515 184.78C154.38 184.815 151.545 184.78 151.545 184.78L151.095 184.35Z" fill="#F57C00"/>
<path d="M107.314 184.77L109.424 184.155L110.214 184.46L109.619 184.78L107.314 184.77Z" fill="#F57C00"/>
<path d="M111.984 61.225L106.939 67.245L115.574 62.665L111.984 61.225Z" fill="#F57C00"/>
<path opacity="0.7" d="M111.984 61.225L106.939 67.245L115.574 62.665L111.984 61.225Z" fill="white"/>
<path d="M125.063 43.3283L109.762 40.6715C108.178 40.3966 106.672 41.4574 106.397 43.0408L103.74 58.3419C103.465 59.9254 104.526 61.4319 106.109 61.7068L121.41 64.3635C122.994 64.6385 124.5 63.5777 124.775 61.9942L127.432 46.6932C127.707 45.1097 126.646 43.6032 125.063 43.3283Z" fill="#F57C00"/>
<path opacity="0.7" d="M125.063 43.3283L109.762 40.6715C108.178 40.3966 106.672 41.4574 106.397 43.0408L103.74 58.3419C103.465 59.9254 104.526 61.4319 106.109 61.7068L121.41 64.3635C122.994 64.6385 124.5 63.5777 124.775 61.9942L127.432 46.6932C127.707 45.1097 126.646 43.6032 125.063 43.3283Z" fill="white"/>
<path d="M113.499 56.78C113.529 56.6105 113.593 56.4488 113.686 56.3046C113.78 56.1604 113.902 56.0367 114.045 55.9409C114.188 55.8451 114.349 55.7793 114.518 55.7473C114.687 55.7154 114.861 55.718 115.029 55.755C115.211 55.7622 115.39 55.8083 115.553 55.8902C115.716 55.9721 115.859 56.0879 115.974 56.2297C116.089 56.3716 116.172 56.5364 116.217 56.7129C116.263 56.8894 116.271 57.0737 116.239 57.2534C116.208 57.4331 116.139 57.604 116.036 57.7547C115.933 57.9054 115.8 58.0325 115.644 58.1273C115.488 58.2221 115.314 58.2826 115.133 58.3046C114.952 58.3266 114.768 58.3097 114.594 58.255C114.424 58.2325 114.261 58.1761 114.113 58.0892C113.965 58.0023 113.837 57.8866 113.735 57.7491C113.633 57.6115 113.559 57.4549 113.519 57.2884C113.478 57.122 113.472 56.9491 113.499 56.78ZM115.389 46.57L117.794 46.99L116.064 54.53L114.454 54.25L115.389 46.57Z" fill="#263238"/>
<path d="M89.1357 81.775C89.1357 81.775 93.5857 90.46 94.7557 91.775C95.9257 93.09 106.611 97.425 106.611 97.425L107.796 98.74L113.601 99.5L115.601 95.54C115.601 95.54 108.876 94.075 108.216 94.085C107.556 94.095 107.371 95.015 107.371 95.015C107.371 95.015 98.5007 90.015 97.8707 89.345C97.2407 88.675 94.6107 80.845 94.6107 80.845L89.1357 81.775Z" fill="#EBB376"/>
<path d="M97.3445 86.15L91.3445 87.695L88.6444 83.825L86.5645 80.825L89.1694 78.9L93.5294 75.68C94.5744 76.5 97.3445 86.15 97.3445 86.15Z" fill="#263238"/>
<path opacity="0.2" d="M88.6347 83.825L86.5547 80.825L89.1597 78.9C89.2097 79.895 89.2447 82.27 88.6347 83.825Z" fill="black"/>
<path d="M60.1748 175.595H63.8798L64.1848 167.02H60.4748L60.1748 175.595Z" fill="#EBB376"/>
<path d="M64.3907 175.17H59.8907C59.8165 175.169 59.7443 175.193 59.6867 175.24C59.6291 175.287 59.5898 175.352 59.5757 175.425L58.8457 178.72C58.8302 178.79 58.8289 178.863 58.8417 178.934C58.8545 179.004 58.8812 179.072 58.9203 179.132C58.9593 179.193 59.0099 179.245 59.0692 179.286C59.1285 179.327 59.1953 179.355 59.2657 179.37H59.3856C60.8406 179.345 61.8856 179.255 63.7256 179.255C64.8556 179.255 68.2257 179.375 69.8057 179.375C71.3857 179.375 71.5607 177.84 70.9257 177.695C68.0707 177.075 65.9257 176.195 65.0107 175.395C64.8399 175.244 64.6183 175.164 64.3907 175.17Z" fill="#F57C00"/>
<path d="M64.645 175.68C64.6273 175.677 64.6113 175.667 64.5995 175.654C64.5877 175.64 64.5808 175.623 64.58 175.605C64.5776 175.588 64.5801 175.572 64.5872 175.556C64.5943 175.541 64.6057 175.529 64.62 175.52C64.755 175.435 65.95 174.705 66.36 174.915C66.4063 174.937 66.4452 174.971 66.4719 175.015C66.4986 175.058 66.5118 175.109 66.51 175.16C66.5237 175.248 66.5137 175.337 66.4812 175.42C66.4487 175.503 66.3948 175.575 66.325 175.63C66.1169 175.772 65.8664 175.84 65.615 175.82C65.2874 175.811 64.9619 175.764 64.645 175.68ZM64.9 175.56C65.3327 175.704 65.8036 175.681 66.22 175.495C66.2633 175.456 66.2964 175.407 66.3164 175.352C66.3364 175.297 66.3428 175.238 66.335 175.18C66.335 175.11 66.305 175.075 66.28 175.075C66.2423 175.065 66.2027 175.065 66.165 175.075C65.7166 175.156 65.2874 175.32 64.9 175.56Z" fill="#F57C00"/>
<path d="M64.6202 175.7C64.6072 175.691 64.5966 175.679 64.5896 175.665C64.5826 175.651 64.5793 175.636 64.5802 175.62C64.5802 175.57 64.6752 174.505 65.1052 174.155C65.1549 174.11 65.2138 174.077 65.2778 174.058C65.3418 174.039 65.4092 174.035 65.4752 174.045C65.5413 174.045 65.6054 174.068 65.6565 174.11C65.7076 174.152 65.7425 174.21 65.7552 174.275C65.8352 174.665 65.0952 175.48 64.7102 175.685H64.6702C64.6555 175.695 64.638 175.7 64.6202 175.7ZM65.2152 174.26C64.9549 174.593 64.8031 174.998 64.7802 175.42C65.1602 175.13 65.6302 174.515 65.5852 174.275C65.5852 174.25 65.5852 174.185 65.4552 174.185H65.4152C65.3415 174.184 65.2702 174.211 65.2152 174.26Z" fill="#F57C00"/>
<path opacity="0.2" d="M60.4753 167.025H64.1853L64.0253 171.45H60.3203L60.4753 167.025Z" fill="black"/>
<path d="M79.2402 175.875L83.0652 176.28L83.7802 168.04L79.9602 167.635L79.2402 175.875Z" fill="#EBB376"/>
<path d="M83.4658 175.05H78.9658C78.8917 175.049 78.8195 175.073 78.7619 175.12C78.7043 175.167 78.665 175.232 78.6508 175.305L77.9208 178.6C77.9054 178.67 77.9041 178.743 77.9169 178.814C77.9297 178.884 77.9564 178.952 77.9955 179.012C78.0345 179.073 78.0851 179.125 78.1444 179.166C78.2037 179.207 78.2704 179.235 78.3408 179.25C78.3807 179.255 78.421 179.255 78.4608 179.25C79.9158 179.25 80.9608 179.14 82.8058 179.14C83.9308 179.14 87.3058 179.255 88.8808 179.255C90.4558 179.255 90.6358 177.72 90.0008 177.58C87.1458 176.96 85.0008 176.08 84.0858 175.275C83.9151 175.124 83.6935 175.044 83.4658 175.05Z" fill="#F57C00"/>
<path d="M83.72 175.565C83.703 175.56 83.6877 175.551 83.6762 175.537C83.6646 175.524 83.6572 175.508 83.655 175.49C83.6513 175.473 83.6538 175.455 83.662 175.439C83.6703 175.424 83.6837 175.412 83.7 175.405C83.83 175.32 85.025 174.585 85.435 174.795C85.4813 174.817 85.5202 174.851 85.5469 174.895C85.5735 174.938 85.5868 174.989 85.585 175.04C85.5971 175.128 85.587 175.217 85.5556 175.3C85.5241 175.383 85.4723 175.457 85.405 175.515C85.1942 175.655 84.9423 175.721 84.69 175.7C84.3627 175.69 84.0375 175.645 83.72 175.565ZM83.975 175.44C84.4069 175.589 84.8797 175.566 85.295 175.375C85.3386 175.336 85.3719 175.287 85.392 175.232C85.4121 175.177 85.4182 175.118 85.41 175.06C85.41 174.99 85.38 174.955 85.355 174.955C85.3189 174.945 85.281 174.945 85.245 174.955C84.8033 175.038 84.3811 175.202 84 175.44H83.975Z" fill="#F57C00"/>
<path d="M83.6993 175.585C83.6856 175.577 83.6744 175.565 83.6665 175.551C83.6586 175.537 83.6544 175.521 83.6543 175.505C83.6543 175.45 83.7493 174.385 84.1793 174.04C84.2302 173.997 84.2892 173.965 84.3527 173.945C84.4162 173.925 84.4831 173.919 84.5493 173.925C84.616 173.925 84.6808 173.947 84.7327 173.989C84.7846 174.031 84.8205 174.09 84.8343 174.155C84.9093 174.545 84.1693 175.36 83.7843 175.57H83.7443C83.7312 175.579 83.7155 175.585 83.6993 175.585ZM84.2893 174.14C84.0307 174.474 83.879 174.878 83.8543 175.3C84.2343 175.015 84.7043 174.395 84.6593 174.155C84.6593 174.155 84.6593 174.065 84.5293 174.065H84.4993C84.4226 174.064 84.348 174.091 84.2893 174.14Z" fill="#F57C00"/>
<path opacity="0.2" d="M79.96 167.635L83.78 168.04L83.405 172.29L79.585 171.885L79.96 167.635Z" fill="black"/>
<path d="M85.1802 170.27L78.5252 169.445C78.5252 169.445 78.8602 146.06 76.6602 127.505C76.6152 127.125 76.5702 126.745 76.5202 126.37C76.4702 125.995 76.4152 125.555 76.3652 125.15C76.3152 124.745 76.2602 124.38 76.2002 124C75.4752 118.875 74.5202 114.305 73.2702 110.945C72.7702 116.945 72.2702 123.23 71.7202 128.075C71.6852 128.415 71.6452 128.745 71.6102 129.075C71.5752 129.405 71.5302 129.79 71.4902 130.13C71.4502 130.47 71.4102 130.795 71.3702 131.13C71.2752 131.88 71.1852 132.57 71.0952 133.19C69.3852 144.965 65.7252 170.69 65.7252 170.69H58.9502C58.9502 170.69 60.3352 146.06 60.9502 134.485C61.0952 131.92 61.2202 128.735 61.3302 125.265C61.3302 124.92 61.3302 124.58 61.3652 124.23C61.4002 123.88 61.3652 123.495 61.4002 123.12C61.4352 122.745 61.4002 122.43 61.4252 122.08C61.7902 109.08 61.9602 93.69 61.9802 91.795H81.6352C83.8873 104.379 85.3982 117.084 86.1602 129.845L86.2202 130.935C86.2202 131.32 86.2652 131.71 86.2852 132.1C86.3052 132.49 86.3202 132.82 86.3352 133.185C86.9202 145 86.7902 157.925 85.1802 170.27Z" fill="#F57C00"/>
<path d="M85.9401 171.82L77.7051 170.595L77.9551 168.315L86.5251 169.44L85.9401 171.82Z" fill="#F57C00"/>
<path d="M66.5398 170.735H58.5498V168.35L66.8398 168.195L66.5398 170.735Z" fill="#F57C00"/>
<g opacity="0.2">
<path d="M85.9401 171.82L77.7051 170.595L77.9551 168.315L86.5251 169.44L85.9401 171.82Z" fill="white"/>
</g>
<g opacity="0.2">
<path d="M66.5398 170.735H58.5498V168.35L66.8398 168.195L66.5398 170.735Z" fill="white"/>
</g>
<path opacity="0.5" d="M64.3907 175.17H59.8907C59.8165 175.169 59.7443 175.193 59.6867 175.24C59.6291 175.287 59.5898 175.352 59.5757 175.425L58.8457 178.72C58.8302 178.79 58.8289 178.863 58.8417 178.934C58.8545 179.004 58.8812 179.072 58.9203 179.132C58.9593 179.193 59.0099 179.245 59.0692 179.286C59.1285 179.327 59.1953 179.355 59.2657 179.37H59.3856C60.8406 179.345 61.8856 179.255 63.7256 179.255C64.8556 179.255 68.2257 179.375 69.8057 179.375C71.3857 179.375 71.5607 177.84 70.9257 177.695C68.0707 177.075 65.9257 176.195 65.0107 175.395C64.8399 175.244 64.6183 175.164 64.3907 175.17Z" fill="white"/>
<path opacity="0.5" d="M83.4658 175.05H78.9658C78.8917 175.049 78.8195 175.073 78.7619 175.12C78.7043 175.167 78.665 175.232 78.6508 175.305L77.9208 178.6C77.9054 178.67 77.9041 178.743 77.9169 178.814C77.9297 178.884 77.9564 178.952 77.9955 179.012C78.0345 179.073 78.0851 179.125 78.1444 179.166C78.2037 179.207 78.2704 179.235 78.3408 179.25C78.3807 179.255 78.421 179.255 78.4608 179.25C79.9158 179.25 80.9608 179.14 82.8058 179.14C83.9308 179.14 87.3058 179.255 88.8808 179.255C90.4558 179.255 90.6358 177.72 90.0008 177.58C87.1458 176.96 85.0008 176.08 84.0858 175.275C83.9151 175.124 83.6935 175.044 83.4658 175.05Z" fill="white"/>
<path d="M82.7898 95.34L61.2148 93.255C61.2148 93.255 62.5048 81.895 68.3548 74.03C69.5644 72.368 71.0213 70.9011 72.6748 69.68C73.2276 69.2729 73.8072 68.9038 74.4098 68.575C74.4098 68.575 85.2148 68.97 93.5198 75.695C93.4998 75.695 81.8998 84.67 82.7898 95.34Z" fill="#263238"/>
<path opacity="0.4" d="M82.7898 95.34L61.2148 93.255C61.2148 93.255 62.5048 81.895 68.3548 74.03C69.5644 72.368 71.0213 70.9011 72.6748 69.68C73.2276 69.2729 73.8072 68.9038 74.4098 68.575C74.4098 68.575 85.2148 68.97 93.5198 75.695C93.4998 75.695 81.8998 84.67 82.7898 95.34Z" fill="white"/>
<path opacity="0.2" d="M73.2705 110.95C74.236 113.718 74.9702 116.561 75.4655 119.45C76.0155 111.95 73.8155 103.95 73.8155 103.95L73.2705 110.95Z" fill="black"/>
<path d="M89.3398 69.46C87.7398 72.5 88.3398 73.06 88.3398 73.06C88.0107 73.5099 87.6298 73.9194 87.2048 74.28C86.2948 75.055 84.9098 75.835 83.3248 75.335C80.5098 74.445 80.0098 69.895 80.0098 69.895H80.1748C81.7798 69.895 83.1198 68.425 83.8698 67.395C84.0838 67.0953 84.2824 66.7849 84.4648 66.465L84.5098 66.385L84.6148 66.415L90.1748 68C89.8448 68.54 89.5698 69.025 89.3398 69.46Z" fill="#EBB376"/>
<path opacity="0.2" d="M89.3407 69.46C87.7407 72.5 88.3407 73.06 88.3407 73.06C88.0117 73.5099 87.6307 73.9194 87.2057 74.28C84.5757 72.955 84.8457 69.055 84.8457 69.055C84.8457 69.055 83.8457 67.44 83.8457 67.395C84.0598 67.0953 84.2584 66.7849 84.4407 66.465L84.4857 66.385L84.5907 66.415L90.1757 68C89.8457 68.54 89.5707 69.025 89.3407 69.46Z" fill="black"/>
<path d="M96.5548 61.15C96.5548 61.15 96.4998 66.31 93.4998 67.815C90.4998 69.32 92.0298 59.945 92.0298 59.945L96.5548 61.15Z" fill="#EBB376"/>
<path opacity="0.4" d="M96.5548 61.15C96.5548 61.15 96.4998 66.31 93.4998 67.815C90.4998 69.32 92.0298 59.945 92.0298 59.945L96.5548 61.15Z" fill="black"/>
<path d="M85.1157 70.565C85.5412 71.4848 86.257 72.2394 87.1531 72.7128C88.0493 73.1861 89.0761 73.3521 90.0757 73.185C91.374 72.9964 92.551 72.3184 93.3657 71.29C93.4807 71.1479 93.5876 70.9993 93.6857 70.845C95.5007 67.98 97.2157 60.465 93.8557 60.12C91.1057 59.835 88.6107 58.49 86.7807 60.57C86.2569 61.1597 85.8815 61.866 85.6857 62.63C84.7057 66.165 83.9607 68.195 85.1157 70.565Z" fill="#EBB376"/>
<path d="M90.6191 65.4C90.5598 65.5046 90.5433 65.6282 90.5731 65.7448C90.603 65.8613 90.6768 65.9618 90.7791 66.025C90.9691 66.09 91.1941 65.905 91.2791 65.625C91.3641 65.345 91.2791 65.065 91.1191 65C90.9591 64.935 90.7191 65.115 90.6191 65.4Z" fill="#263238"/>
<path d="M93.8151 66.5C93.7001 66.775 93.8151 67.065 93.9751 67.125C94.1351 67.185 94.3901 67.01 94.4751 66.73C94.5601 66.45 94.5001 66.165 94.3151 66.105C94.1301 66.045 93.9051 66.225 93.8151 66.5Z" fill="#263238"/>
<path d="M92.7501 66.285C92.7945 67.2626 92.9711 68.2298 93.2751 69.16C93.0336 69.2331 92.7789 69.2522 92.5292 69.216C92.2795 69.1797 92.0408 69.0889 91.8301 68.95L92.7501 66.285Z" fill="#D58745"/>
<path d="M91.5701 63.5C91.5428 63.4842 91.5117 63.4759 91.4801 63.4759C91.4486 63.4759 91.4175 63.4842 91.3901 63.5C91.2083 63.6233 91.0006 63.7032 90.783 63.7335C90.5654 63.7639 90.3438 63.7438 90.1351 63.675C90.0933 63.6598 90.0473 63.6611 90.0064 63.6786C89.9656 63.6962 89.9329 63.7286 89.9151 63.7693C89.8972 63.8101 89.8956 63.8561 89.9105 63.898C89.9253 63.9399 89.9556 63.9746 89.9951 63.995C90.2566 64.0891 90.5368 64.1197 90.8124 64.084C91.088 64.0484 91.3512 63.9476 91.5801 63.79C91.6191 63.7653 91.6467 63.7263 91.657 63.6813C91.6673 63.6364 91.6594 63.5892 91.6351 63.55C91.6164 63.5298 91.5945 63.5129 91.5701 63.5Z" fill="#263238"/>
<path d="M94.8097 64.445C94.7774 64.4331 94.742 64.4331 94.7097 64.445C94.6663 64.4588 94.63 64.489 94.6086 64.5292C94.5871 64.5693 94.5821 64.6162 94.5947 64.66C94.6728 64.9276 94.8139 65.1725 95.0062 65.3743C95.1984 65.5761 95.4362 65.729 95.6997 65.82C95.7441 65.8323 95.7916 65.8267 95.8319 65.8042C95.8721 65.7817 95.9019 65.7443 95.9147 65.7C95.927 65.6556 95.9214 65.6081 95.8989 65.5678C95.8764 65.5276 95.839 65.4978 95.7947 65.485C95.5882 65.4073 95.4028 65.2822 95.2534 65.1198C95.1041 64.9574 94.9949 64.7623 94.9347 64.55C94.9239 64.5237 94.907 64.5003 94.8852 64.482C94.8634 64.4637 94.8375 64.451 94.8097 64.445Z" fill="#263238"/>
<path d="M89.7097 59.17L89.4497 60.78C89.1516 60.8303 88.8833 60.9909 88.6981 61.2299C88.5128 61.4689 88.4242 61.7687 88.4497 62.07C88.5747 63.52 87.2497 65.33 86.0097 65.85C86.0097 65.85 86.1447 65.275 85.6297 65.27C85.1147 65.265 84.3897 68.27 84.9147 69.925C84.9147 69.925 83.4847 67.995 83.5797 64.675C83.6747 61.6 84.1147 59.725 84.8097 58.38L89.7097 59.17Z" fill="#EBB376"/>
<path opacity="0.4" d="M89.7097 59.17L89.4497 60.78C89.1516 60.8303 88.8833 60.9909 88.6981 61.2299C88.5128 61.4689 88.4242 61.7687 88.4497 62.07C88.5747 63.52 87.2497 65.33 86.0097 65.85C86.0097 65.85 86.1447 65.275 85.6297 65.27C85.1147 65.265 84.3897 68.27 84.9147 69.925C84.9147 69.925 83.4847 67.995 83.5797 64.675C83.6747 61.6 84.1147 59.725 84.8097 58.38L89.7097 59.17Z" fill="black"/>
<path d="M84.1503 60.1C85.8698 60.6062 87.6588 60.8357 89.4503 60.78C94.5903 60.735 96.3453 62.96 96.3453 62.96C96.7439 62.719 97.0848 62.3935 97.344 62.0065C97.6032 61.6195 97.7743 61.1803 97.8453 60.72C97.9703 59.265 96.0403 58.645 96.0403 58.645C96.0403 58.645 95.7453 56.93 94.5403 56.195C93.3353 55.46 91.7753 56.42 91.7753 56.42C91.7753 56.42 90.4353 54.53 88.4453 54.615C87.778 54.6252 87.1344 54.8642 86.622 55.2919C86.1097 55.7196 85.7596 56.3102 85.6303 56.965C85.6303 56.965 83.3553 56.765 83.1853 57.925C83.0153 59.085 84.1503 60.1 84.1503 60.1Z" fill="#263238"/>
<path d="M83.194 64.955C83.3115 65.8731 83.7879 66.7073 84.519 67.275C85.489 68.015 86.429 67.275 86.519 66.1C86.609 65.1 86.229 63.42 85.064 63.14C84.8116 63.0828 84.5489 63.0894 84.2997 63.1594C84.0505 63.2294 83.8227 63.3604 83.637 63.5407C83.4513 63.7209 83.3135 63.9447 83.2361 64.1916C83.1588 64.4386 83.1443 64.701 83.194 64.955Z" fill="#EBB376"/>
<path d="M89.1309 70.94C89.6228 70.4569 90.2128 70.0851 90.8609 69.85C90.8609 69.85 90.7659 69.74 90.6009 69.57C90.1259 69.095 89.1259 68.185 88.4159 68.305C88.3537 68.3122 88.293 68.3291 88.2359 68.355C87.9207 68.5092 87.6594 68.7549 87.4859 69.06C87.0709 69.75 87.2009 70.69 89.1309 70.94Z" fill="#263238"/>
<path d="M88.4141 68.3L90.2141 69.89L90.5991 69.565C90.1241 69.09 89.1241 68.18 88.4141 68.3Z" fill="white"/>
<path d="M89.1309 70.94C89.1659 69.94 88.0759 69.325 87.4859 69.06C87.0709 69.75 87.2009 70.69 89.1309 70.94Z" fill="#DE5753"/>
<path opacity="0.2" d="M80.1995 86.15C80.1995 86.15 70.6995 82.65 68.3545 74.03C69.5641 72.368 71.0209 70.9011 72.6745 69.68C75.9445 71.68 79.6745 75.495 79.6745 75.495C79.6745 75.495 81.2495 83.815 80.1995 86.15Z" fill="black"/>
<path d="M73.5352 78.2C73.5352 78.2 76.4952 87.5 77.4352 88.97C78.3752 90.44 88.1952 96.5 88.1952 96.5L89.1502 98L94.7402 99.74L97.3452 96.16C97.3452 96.16 90.9552 93.61 90.3002 93.505C89.6452 93.4 89.3002 94.285 89.3002 94.285C89.3002 94.285 81.3752 87.88 80.8602 87.13C80.3452 86.38 79.0502 78.185 79.0502 78.185L73.5352 78.2Z" fill="#EBB376"/>
<path d="M74.4104 68.58C70.5354 69.42 72.0254 78.96 73.8754 82.14L79.9104 80.315C79.9104 80.315 80.5004 67.26 74.4104 68.58Z" fill="#263238"/>
<path opacity="0.4" d="M71.7208 128.075C71.6858 128.415 71.6458 128.745 71.6108 129.075L61.4258 123.115C61.4258 122.77 61.4258 122.425 61.4508 122.075L71.7208 128.075Z" fill="white"/>
<path opacity="0.4" d="M71.5009 130.125C71.4609 130.465 71.4209 130.79 71.3809 131.125L61.3809 125.27C61.3809 124.925 61.3809 124.585 61.4159 124.235L71.5009 130.125Z" fill="white"/>
<path opacity="0.4" d="M86.2452 130.925L76.3652 125.15C76.3102 124.765 76.2602 124.38 76.2002 124L86.2002 129.835L86.2452 130.925Z" fill="white"/>
<path opacity="0.4" d="M86.3595 133.175L76.6595 127.5C76.6145 127.12 76.5695 126.74 76.5195 126.365L86.3095 132.085C86.3245 132.45 86.3445 132.81 86.3595 133.175Z" fill="white"/>
</svg>
