<svg width="425" height="217" viewBox="0 0 425 217" fill="none" xmlns="http://www.w3.org/2000/svg">
<path d="M414.299 105.401L374.937 96.6942C373.877 96.4596 372.843 96.9487 372.629 97.7865L367.909 116.211C367.694 117.049 368.38 117.918 369.44 118.153L408.802 126.86C409.862 127.095 410.896 126.606 411.111 125.768L415.831 107.343C416.045 106.505 415.36 105.636 414.299 105.401Z" fill="#F57C00"/>
<path opacity="0.2" d="M373.079 98.6063L389.185 113.835C389.802 114.415 390.587 114.832 391.441 115.035C392.295 115.238 393.18 115.217 393.984 114.975L414.81 108.74L393.933 116.04C393.021 116.359 391.994 116.402 391.005 116.162C390.017 115.922 389.119 115.412 388.447 114.708L373.079 98.6063Z" fill="black"/>
<path d="M347.56 101.803C345.699 95.184 346.647 80.8927 351.865 75.5273C357.084 70.162 354.639 76.6291 354.639 76.6291C354.639 76.6291 359.041 69.9313 362.383 69.4344C365.725 68.9374 363.579 72.9671 363.579 72.9671C363.579 72.9671 369.084 67.8709 372.267 67.4437C375.45 67.0166 373.427 70.8705 373.427 70.8705C373.427 70.8705 377.778 66.2207 380.588 67.4284C383.397 68.6362 358.59 93.2419 357.66 101.404C356.73 109.566 349.441 108.481 347.56 101.803Z" fill="#F57C00"/>
<path opacity="0.4" d="M347.56 101.803C345.699 95.184 346.647 80.8927 351.865 75.5273C357.084 70.162 354.639 76.6291 354.639 76.6291C354.639 76.6291 359.041 69.9313 362.383 69.4344C365.725 68.9374 363.579 72.9671 363.579 72.9671C363.579 72.9671 369.084 67.8709 372.267 67.4437C375.45 67.0166 373.427 70.8705 373.427 70.8705C373.427 70.8705 377.778 66.2207 380.588 67.4284C383.397 68.6362 358.59 93.2419 357.66 101.404C356.73 109.566 349.441 108.481 347.56 101.803Z" fill="white"/>
<path d="M373.589 94.8898L378.527 96.4114C378.605 96.4345 378.673 96.4795 378.721 96.5391C378.769 96.5986 378.794 96.6692 378.792 96.7395C378.79 96.8098 378.761 96.8757 378.709 96.9264C378.657 96.9771 378.587 97.0098 378.508 97.0191L374.053 97.5893L375.433 100.507C375.468 100.575 375.477 100.65 375.46 100.72C375.442 100.79 375.399 100.851 375.336 100.895C375.274 100.939 375.195 100.963 375.112 100.963C375.029 100.963 374.947 100.939 374.877 100.896L371.513 98.8808L373.589 94.8898Z" fill="#F57C00"/>
<path opacity="0.3" d="M373.589 94.8898L378.527 96.4114C378.605 96.4345 378.673 96.4795 378.721 96.5391C378.769 96.5986 378.794 96.6692 378.792 96.7395C378.79 96.8098 378.761 96.8757 378.709 96.9264C378.657 96.9771 378.587 97.0098 378.508 97.0191L374.053 97.5893L375.433 100.507C375.468 100.575 375.477 100.65 375.46 100.72C375.442 100.79 375.399 100.851 375.336 100.895C375.274 100.939 375.195 100.963 375.112 100.963C375.029 100.963 374.947 100.939 374.877 100.896L371.513 98.8808L373.589 94.8898Z" fill="white"/>
<path d="M309.399 92.6089C309.399 92.6089 313.968 87.8777 323.473 88.4229C323.473 88.4229 329.473 98.2716 337.51 100.332C341.922 101.461 351.095 99.4316 357.69 95.8407C365.512 91.5704 369.749 90.7153 372.309 93.3097C374.868 95.9041 374.144 99.288 367.988 102.041C361.831 104.795 360.041 116.203 348.075 118.757C336.109 121.311 326.069 111.77 325.889 101.648C321.376 97.3664 315.653 94.2287 309.399 92.6089Z" fill="#F57C00"/>
<path opacity="0.5" d="M309.399 92.6089C309.399 92.6089 313.968 87.8777 323.473 88.4229C323.473 88.4229 329.473 98.2716 337.51 100.332C341.922 101.461 351.095 99.4316 357.69 95.8407C365.512 91.5704 369.749 90.7153 372.309 93.3097C374.868 95.9041 374.144 99.288 367.988 102.041C361.831 104.795 360.041 116.203 348.075 118.757C336.109 121.311 326.069 111.77 325.889 101.648C321.376 97.3664 315.653 94.2287 309.399 92.6089Z" fill="white"/>
<path d="M370.248 95.3747C370.283 95.4792 370.283 95.5883 370.248 95.6883C370.213 95.7883 370.143 95.8746 370.049 95.9363C369.955 95.998 369.84 96.0323 369.718 96.035C369.597 96.0376 369.475 96.0085 369.367 95.9512C369.26 95.8939 369.172 95.811 369.114 95.7131C369.057 95.6152 369.033 95.5065 369.045 95.401C369.057 95.2954 369.104 95.1976 369.182 95.12C369.259 95.0424 369.363 94.9885 369.479 94.965C369.636 94.9335 369.805 94.9589 369.949 95.0358C370.093 95.1126 370.201 95.2345 370.248 95.3747Z" fill="#263238"/>
<path d="M342.042 111.436C335.529 114.599 319.562 117.235 311.735 114.128C303.907 111.02 311.885 111.565 311.885 111.565C311.885 111.565 302.914 109.46 301.085 106.764C299.256 104.068 304.515 104.882 304.515 104.882C304.515 104.882 296.868 101.473 295.153 98.9056C293.438 96.3386 298.441 97.103 298.441 97.103C298.441 97.103 291.668 94.568 291.962 91.8872C292.256 89.2065 328.524 104.233 337.772 103.065C347.021 101.897 348.64 108.232 342.042 111.436Z" fill="#F57C00"/>
<path opacity="0.4" d="M342.042 111.436C335.529 114.599 319.562 117.235 311.735 114.128C303.907 111.02 311.885 111.565 311.885 111.565C311.885 111.565 302.914 109.46 301.085 106.764C299.256 104.068 304.515 104.882 304.515 104.882C304.515 104.882 296.868 101.473 295.153 98.9056C293.438 96.3386 298.441 97.103 298.441 97.103C298.441 97.103 291.668 94.568 291.962 91.8872C292.256 89.2065 328.524 104.233 337.772 103.065C347.021 101.897 348.64 108.232 342.042 111.436Z" fill="white"/>
<path d="M285.664 93.3214C285.615 93.3437 285.561 93.3548 285.504 93.3537C284.134 93.2087 282.744 93.093 281.35 93.004C281.212 92.9936 281.079 92.9359 280.982 92.843C280.884 92.7502 280.829 92.6299 280.828 92.5078C280.829 92.3858 280.885 92.2728 280.983 92.1931C281.081 92.1133 281.214 92.0732 281.352 92.0812C282.8 92.1594 284.167 92.2925 285.575 92.5068C285.698 92.5185 285.815 92.5686 285.906 92.648C285.996 92.7275 286.054 92.8309 286.068 92.9396C286.082 93.0483 286.052 93.1551 285.983 93.2405C285.914 93.326 285.811 93.3844 285.692 93.4053L285.664 93.3214Z" fill="#F57C00"/>
<path d="M133.27 133.28C132.996 133.265 132.732 133.23 132.536 133.183C132.339 133.136 132.225 133.081 132.218 133.029C132.218 132.978 132.325 132.934 132.517 132.908C132.708 132.882 132.969 132.875 133.244 132.889C138.756 133.182 144.252 133.387 149.675 133.504C149.947 133.51 150.227 133.537 150.455 133.579C150.683 133.621 150.84 133.674 150.894 133.728C150.922 133.755 150.922 133.781 150.895 133.805C150.868 133.829 150.815 133.85 150.737 133.867C150.659 133.884 150.56 133.896 150.444 133.904C150.328 133.911 150.198 133.913 150.062 133.91C144.52 133.791 138.903 133.58 133.27 133.28ZM116.646 132.186C111.055 131.763 105.504 131.28 100.022 130.74C99.7511 130.713 99.5144 130.669 99.364 130.617C99.2136 130.565 99.1616 130.509 99.2195 130.461C99.2854 130.415 99.4527 130.381 99.6856 130.367C99.9186 130.353 100.199 130.36 100.467 130.385C105.862 130.914 111.318 131.392 116.813 131.817C117.06 131.838 117.284 131.874 117.445 131.919C117.607 131.964 117.695 132.014 117.695 132.061C117.695 132.107 117.606 132.148 117.444 132.174C117.283 132.201 117.059 132.212 116.812 132.206L116.646 132.186ZM165.886 133.894C165.687 133.883 165.491 133.862 165.324 133.832C165.157 133.802 165.025 133.766 164.944 133.727C164.885 133.701 164.851 133.673 164.845 133.647C164.84 133.621 164.862 133.596 164.912 133.575C164.961 133.553 165.036 133.535 165.132 133.522C165.228 133.508 165.344 133.5 165.471 133.497C170.505 133.371 175.178 133.084 179.329 132.644C179.542 132.626 179.807 132.627 180.073 132.646C180.338 132.666 180.584 132.703 180.76 132.751C180.935 132.798 181.028 132.852 181.02 132.902C181.012 132.951 180.902 132.993 180.714 133.018C176.396 133.471 171.547 133.769 166.329 133.903C166.176 133.911 166.005 133.91 165.83 133.901L165.886 133.894ZM84.1756 128.983C84.0664 128.982 83.9523 128.976 83.8431 128.965C78.5794 128.344 73.2882 127.665 68.1633 126.958C67.9362 126.921 67.7656 126.872 67.6847 126.821C67.6039 126.77 67.6185 126.72 67.7259 126.681C67.8332 126.643 68.0255 126.618 68.2654 126.611C68.5052 126.605 68.7753 126.618 69.0232 126.648C74.065 127.344 79.2731 128.014 84.5091 128.633C84.7683 128.665 84.9802 128.713 85.0992 128.766C85.2183 128.82 85.235 128.874 85.1457 128.918C85.0673 128.95 84.9326 128.973 84.7594 128.984C84.5863 128.996 84.3827 128.996 84.1756 128.983ZM53.7033 124.759C53.5407 124.76 53.3671 124.75 53.2046 124.732C48.2462 123.936 43.4264 123.106 38.9392 122.269C38.8283 122.248 38.7339 122.224 38.6613 122.198C38.5888 122.173 38.5396 122.146 38.5165 122.12C38.4934 122.093 38.4969 122.068 38.5267 122.045C38.5566 122.022 38.6123 122.001 38.6906 121.985C38.7688 121.968 38.8682 121.956 38.983 121.949C39.0978 121.942 39.2257 121.94 39.3595 121.943C39.4933 121.946 39.6304 121.954 39.7628 121.967C39.8953 121.98 40.0206 121.998 40.1315 122.018C44.5633 122.842 49.2999 123.662 54.2306 124.451C54.3499 124.47 54.4548 124.493 54.5391 124.518C54.6234 124.543 54.6854 124.569 54.7214 124.596C54.7575 124.622 54.7669 124.649 54.7491 124.673C54.7313 124.698 54.6867 124.719 54.6179 124.738C54.5006 124.765 54.3326 124.782 54.1352 124.787C53.9378 124.791 53.7199 124.784 53.5093 124.764L53.7033 124.759ZM190.695 131.211C190.533 131.211 190.359 131.202 190.196 131.183C190.077 131.164 189.972 131.142 189.888 131.117C189.804 131.092 189.742 131.065 189.706 131.039C189.67 131.012 189.66 130.986 189.678 130.961C189.696 130.937 189.74 130.915 189.809 130.897C190.669 130.664 191.473 130.418 192.194 130.157C193.738 129.607 194.946 129.012 195.802 128.38C195.874 128.333 196.046 128.3 196.284 128.286C196.521 128.272 196.805 128.279 197.076 128.305C197.344 128.334 197.572 128.379 197.711 128.431C197.851 128.484 197.892 128.539 197.824 128.586C196.918 129.238 195.664 129.853 194.078 130.423C193.329 130.693 192.497 130.953 191.61 131.195C191.491 131.221 191.322 131.238 191.124 131.241C190.926 131.245 190.709 131.236 190.501 131.216L190.695 131.211ZM26.3925 119.647C26.1486 119.633 25.9136 119.603 25.7276 119.563C21.5097 118.629 17.5582 117.656 13.9021 116.65C13.7109 116.602 13.604 116.547 13.6042 116.495C13.6043 116.444 13.7115 116.4 13.9028 116.374C14.0948 116.35 14.3537 116.344 14.6234 116.359C14.8931 116.374 15.1519 116.408 15.3436 116.455C18.9336 117.44 22.811 118.394 26.9476 119.309C27.1387 119.357 27.2456 119.412 27.2455 119.464C27.2454 119.515 27.1382 119.558 26.9469 119.585C26.8781 119.609 26.7742 119.628 26.6439 119.639C26.5136 119.651 26.3608 119.655 26.1985 119.652L26.3925 119.647ZM198.691 125.653C198.554 125.645 198.418 125.633 198.292 125.616C198.166 125.599 198.051 125.578 197.956 125.554C197.86 125.53 197.786 125.504 197.736 125.477C197.686 125.451 197.662 125.424 197.666 125.398C197.628 124.363 197.121 123.305 196.15 122.234C196.101 122.18 196.161 122.131 196.317 122.097C196.472 122.063 196.711 122.047 196.982 122.052C197.257 122.059 197.536 122.087 197.763 122.13C197.99 122.173 198.147 122.227 198.201 122.281C199.195 123.375 199.711 124.457 199.744 125.514C199.744 125.567 199.633 125.611 199.435 125.637C199.238 125.663 198.97 125.669 198.691 125.653ZM193.165 119.185C192.941 119.172 192.723 119.146 192.544 119.111C192.364 119.075 192.233 119.033 192.168 118.989C190.757 118.001 189.014 116.938 186.883 115.739C186.83 115.712 186.804 115.684 186.807 115.658C186.809 115.632 186.84 115.608 186.897 115.588C186.954 115.567 187.036 115.55 187.139 115.538C187.241 115.527 187.362 115.52 187.494 115.518C187.751 115.516 188.034 115.534 188.282 115.569C188.53 115.604 188.724 115.654 188.823 115.707C190.982 116.918 192.725 118.002 194.163 118.986C194.241 119.04 194.212 119.092 194.083 119.13C193.953 119.169 193.733 119.191 193.47 119.191L193.165 119.185ZM181.709 112.651C181.517 112.64 181.328 112.62 181.166 112.591C181.004 112.563 180.875 112.528 180.795 112.491C179.024 111.561 176.616 110.471 174.097 109.318L174.097 109.266C174.025 109.216 174.042 109.169 174.145 109.131C174.248 109.094 174.43 109.069 174.658 109.062C174.886 109.054 175.146 109.065 175.388 109.091C175.631 109.117 175.842 109.157 175.982 109.205L175.982 109.257C178.528 110.437 180.909 111.51 182.68 112.424C182.792 112.48 182.796 112.535 182.692 112.579C182.588 112.623 182.385 112.651 182.125 112.658L181.709 112.651ZM167.87 106.166C167.666 106.155 167.465 106.134 167.292 106.104C167.119 106.074 166.983 106.037 166.901 105.997C164.41 104.773 162.417 103.701 160.84 102.725C160.751 102.671 160.768 102.618 160.887 102.578C161.007 102.538 161.219 102.514 161.478 102.511C161.743 102.509 162.031 102.529 162.281 102.566C162.53 102.604 162.719 102.655 162.808 102.71C164.357 103.674 166.322 104.734 168.813 105.948C168.867 105.975 168.896 106.001 168.897 106.027C168.899 106.053 168.873 106.077 168.821 106.098C168.769 106.118 168.693 106.136 168.596 106.148C168.5 106.161 168.385 106.169 168.258 106.172C168.165 106.185 168.052 106.193 167.925 106.195L167.87 106.166ZM157.744 99.6486C157.496 99.6341 157.258 99.6038 157.07 99.5629C156.883 99.5221 156.759 99.4733 156.72 99.4252C156.246 98.8423 156.006 98.2662 156.004 97.7025C155.982 97.1977 156.225 96.7085 156.728 96.2418C156.808 96.2002 156.975 96.1706 157.199 96.1586C157.422 96.1467 157.685 96.1532 157.939 96.1769C158.192 96.2007 158.418 96.24 158.572 96.2874C158.727 96.3349 158.8 96.3871 158.778 96.4341C158.297 96.8762 158.064 97.3399 158.082 97.8184C158.09 98.3632 158.32 98.9196 158.77 99.4825C158.803 99.535 158.733 99.5822 158.574 99.6147C158.414 99.6473 158.178 99.6627 157.911 99.6579L157.744 99.6486ZM164.992 94.1526C164.751 94.1404 164.515 94.1125 164.327 94.0739C164.135 94.0264 164.029 93.9711 164.029 93.9197C164.029 93.8683 164.136 93.8249 164.327 93.7987C168.049 93.1917 172.577 92.7722 177.66 92.5635C177.903 92.5528 178.187 92.5633 178.451 92.5926C178.716 92.6218 178.939 92.6677 179.073 92.7202C179.193 92.7733 179.214 92.8277 179.131 92.8724C179.049 92.917 178.869 92.9484 178.629 92.9603C173.788 93.1594 169.477 93.5592 165.934 94.1376C165.842 94.1612 165.712 94.1776 165.557 94.1854C165.401 94.1931 165.225 94.1918 165.047 94.1816L164.992 94.1526ZM276.717 97.8394L276.495 97.827C271.176 97.3225 265.663 96.8384 260.094 96.3927C259.958 96.382 259.828 96.3665 259.71 96.3472C259.592 96.3279 259.489 96.3051 259.406 96.2802C259.324 96.2553 259.264 96.2288 259.23 96.2021C259.196 96.1755 259.188 96.1494 259.208 96.1252C259.225 96.1008 259.268 96.0788 259.336 96.0605C259.405 96.0421 259.495 96.0278 259.604 96.0184C259.712 96.009 259.836 96.0046 259.968 96.0056C260.1 96.0065 260.237 96.0127 260.372 96.0239C265.913 96.468 271.454 96.9537 276.995 97.4705C277.244 97.4951 277.463 97.5346 277.612 97.5817C277.761 97.6287 277.831 97.6802 277.807 97.7265C277.783 97.7727 277.668 97.8107 277.483 97.8332C277.298 97.8558 277.055 97.8615 276.8 97.8492L276.717 97.8394ZM193.594 92.7615C193.459 92.7567 193.323 92.7468 193.193 92.7324C193.063 92.718 192.942 92.6994 192.837 92.6776C192.731 92.6558 192.644 92.6313 192.579 92.6054C192.514 92.5795 192.473 92.5528 192.458 92.5267C192.444 92.5007 192.456 92.4758 192.494 92.4536C192.532 92.4314 192.596 92.4122 192.681 92.3971C192.766 92.3821 192.871 92.3715 192.989 92.366C193.108 92.3604 193.239 92.36 193.373 92.3648C198.846 92.4399 204.404 92.5989 209.999 92.8403C210.274 92.8528 210.544 92.8852 210.751 92.9308C210.958 92.9763 211.086 93.0312 211.107 93.0839C211.119 93.1102 211.102 93.1351 211.059 93.1571C211.016 93.1792 210.947 93.1979 210.857 93.2123C210.766 93.2266 210.656 93.2362 210.532 93.2406C210.409 93.2449 210.274 93.2439 210.137 93.2375C204.634 92.9973 199.168 92.84 193.788 92.7671L193.594 92.7615ZM243.47 95.1798C238.648 94.8486 232.913 94.4612 226.845 94.1019C226.571 94.0853 226.31 94.0493 226.119 94.0018C225.927 93.9542 225.82 93.8989 225.82 93.8474C225.82 93.8217 225.848 93.7978 225.901 93.7771C225.954 93.7565 226.033 93.7394 226.131 93.727C226.229 93.7145 226.345 93.707 226.473 93.7047C226.601 93.7025 226.737 93.7057 226.874 93.714C232.997 94.0815 238.788 94.4668 243.498 94.7919C243.635 94.8008 243.77 94.8148 243.893 94.8329C244.017 94.851 244.127 94.873 244.218 94.8974C244.308 94.9218 244.377 94.9482 244.42 94.9751C244.463 95.0019 244.479 95.0287 244.467 95.0537C244.488 95.1017 244.418 95.1445 244.27 95.1744C244.123 95.2043 243.908 95.2192 243.663 95.2166L243.47 95.1798Z" fill="#F57C00"/>
<path d="M161.228 190.312C161.141 190.331 161.049 190.329 160.961 190.305C160.873 190.281 160.792 190.237 160.727 190.178C159.729 189.289 158.791 188.35 157.917 187.367C157.874 187.32 157.841 187.266 157.821 187.209C157.801 187.152 157.794 187.092 157.8 187.034C157.806 186.977 157.826 186.921 157.857 186.871C157.889 186.822 157.932 186.779 157.983 186.745C158.087 186.679 158.22 186.652 158.352 186.672C158.485 186.691 158.608 186.755 158.695 186.85C159.548 187.8 160.458 188.711 161.422 189.577C161.492 189.632 161.544 189.702 161.574 189.78C161.603 189.857 161.608 189.938 161.588 190.015C161.568 190.091 161.523 190.16 161.46 190.212C161.396 190.265 161.316 190.299 161.228 190.312Z" fill="#F57C00"/>
</svg>
