<svg width="200" height="181" viewBox="0 0 200 181" fill="none" xmlns="http://www.w3.org/2000/svg">
<path d="M64.3682 0H62.5377V7.58171H64.3682V0Z" fill="#E0E0E0"/>
<path d="M59.3549 2.94422V4.63745L67.5511 4.63745V2.94422L59.3549 2.94422Z" fill="#E0E0E0"/>
<path d="M109.083 37.3468H106.28V48.9723H109.083V37.3468Z" fill="#E0E0E0"/>
<path d="M101.396 41.8647V44.4584H113.963V41.8647H101.396Z" fill="#E0E0E0"/>
<path d="M142.704 3.50201H140.873V11.0837H142.704V3.50201Z" fill="#E0E0E0"/>
<path d="M137.686 6.44226V8.1355H145.883V6.44226H137.686Z" fill="#E0E0E0"/>
<path d="M184.641 17.514H181.837V29.1395H184.641V17.514Z" fill="#E0E0E0"/>
<path d="M176.953 22.028V24.6216H189.521V22.028H176.953Z" fill="#E0E0E0"/>
<path d="M198.729 74.0481H141.786V171.487H198.729V74.0481Z" fill="#F5F5F5"/>
<path d="M192.204 168.252H195.034V112.933H192.204V168.252Z" fill="#E0E0E0"/>
<path d="M187.131 168.252H189.96V112.933H187.131V168.252Z" fill="#E0E0E0"/>
<path d="M182.053 168.252H184.882V112.933H182.053V168.252Z" fill="#E0E0E0"/>
<path d="M176.97 168.252H179.8V112.933H176.97V168.252Z" fill="#E0E0E0"/>
<path d="M172.142 168.252H174.972V112.933H172.142V168.252Z" fill="#E0E0E0"/>
<path d="M167.172 168.252H170.002V112.933H167.172V168.252Z" fill="#E0E0E0"/>
<path d="M162.098 168.252H164.928V112.933H162.098V168.252Z" fill="#E0E0E0"/>
<path d="M156.706 168.252H159.536V112.933H156.706V168.252Z" fill="#E0E0E0"/>
<path d="M151.628 168.252H154.458V112.933H151.628V168.252Z" fill="#E0E0E0"/>
<path d="M146.684 168.252H149.513V112.933H146.684V168.252Z" fill="#E0E0E0"/>
<path d="M192.028 109.61H194.857V80.4505H192.028V109.61Z" fill="#E0E0E0"/>
<path d="M186.95 109.61H189.78V80.4505H186.95V109.61Z" fill="#E0E0E0"/>
<path d="M181.872 109.61H184.702V80.4505H181.872V109.61Z" fill="#E0E0E0"/>
<path d="M176.798 109.61H179.628V80.4505H176.798V109.61Z" fill="#E0E0E0"/>
<path d="M171.97 109.61H174.8V80.4505H171.97V109.61Z" fill="#E0E0E0"/>
<path d="M166.995 109.61H169.825V80.4505H166.995V109.61Z" fill="#E0E0E0"/>
<path d="M161.918 109.61H164.747V80.4505H161.918V109.61Z" fill="#E0E0E0"/>
<path d="M156.232 109.61H159.062V80.4505H156.232V109.61Z" fill="#E0E0E0"/>
<path d="M151.154 109.61H153.984V80.4505H151.154V109.61Z" fill="#E0E0E0"/>
<path d="M146.339 109.61H149.169V80.4505H146.339V109.61Z" fill="#E0E0E0"/>
<path d="M140.288 100.905H100.03V171.487H140.288V100.905Z" fill="#F5F5F5"/>
<path d="M133.763 168.252H136.592V112.933H133.763V168.252Z" fill="#E0E0E0"/>
<path d="M128.68 168.252H131.51V112.933H128.68V168.252Z" fill="#E0E0E0"/>
<path d="M123.607 168.252H126.436L126.436 112.933H123.607V168.252Z" fill="#E0E0E0"/>
<path d="M118.529 168.252H121.358L121.358 112.933H118.529V168.252Z" fill="#E0E0E0"/>
<path d="M113.701 168.252H116.53L116.53 112.933H113.701V168.252Z" fill="#E0E0E0"/>
<path d="M108.73 168.252H111.56L111.56 112.933H108.73V168.252Z" fill="#E0E0E0"/>
<path d="M103.648 168.252H106.478L106.478 112.933H103.648V168.252Z" fill="#E0E0E0"/>
<path d="M133.586 109.61H136.416V104.379H133.586V109.61Z" fill="#E0E0E0"/>
<path d="M128.508 109.61H131.338V104.379H128.508V109.61Z" fill="#E0E0E0"/>
<path d="M123.426 109.61H126.255V104.379H123.426V109.61Z" fill="#E0E0E0"/>
<path d="M118.348 109.61H121.177V104.379H118.348V109.61Z" fill="#E0E0E0"/>
<path d="M113.524 109.61H116.354V104.379H113.524V109.61Z" fill="#E0E0E0"/>
<path d="M108.554 109.61H111.383V104.379H108.554V109.61Z" fill="#E0E0E0"/>
<path d="M103.476 109.61H106.305V104.379H103.476V109.61Z" fill="#E0E0E0"/>
<path d="M141.89 171.949C141.83 171.949 141.778 150.076 141.778 123.104C141.778 96.1319 141.83 74.2513 141.89 74.2513C141.95 74.2513 142.002 96.12 142.002 123.104C142.002 150.088 141.955 171.949 141.89 171.949Z" fill="#E0E0E0"/>
<path d="M193.445 43.1594H150.241V74.2512H193.445V43.1594Z" fill="#F5F5F5"/>
<path d="M160.737 69.845H163.567V49.7493H160.737V69.845Z" fill="#E0E0E0"/>
<path d="M155.664 69.845H158.493V49.7493H155.664V69.845Z" fill="#E0E0E0"/>
<path d="M171.281 69.845H174.111V49.7493H171.281V69.845Z" fill="#E0E0E0"/>
<path d="M166.203 69.845H169.033V49.7493H166.203V69.845Z" fill="#E0E0E0"/>
<path d="M181.82 69.845H184.65V49.7493H181.82V69.845Z" fill="#E0E0E0"/>
<path d="M176.742 69.845H179.572V49.7493H176.742V69.845Z" fill="#E0E0E0"/>
<path d="M187.29 69.845H190.12V49.7493H187.29V69.845Z" fill="#E0E0E0"/>
<path d="M84.8136 108.192H44.556V171.718H84.8136V108.192Z" fill="#F5F5F5"/>
<path d="M51.0812 125.355H48.2515V169.16H51.0812V125.355Z" fill="#E0E0E0"/>
<path d="M56.159 125.355H53.3293V169.16H56.159V125.355Z" fill="#E0E0E0"/>
<path d="M61.2369 125.355H58.4072V169.16H61.2369V125.355Z" fill="#E0E0E0"/>
<path d="M66.3149 125.355H63.4852V169.16H66.3149V125.355Z" fill="#E0E0E0"/>
<path d="M71.1431 125.355H68.3134V169.16H71.1431V125.355Z" fill="#E0E0E0"/>
<path d="M76.1134 125.355H73.2837V169.16H76.1134V125.355Z" fill="#E0E0E0"/>
<path d="M81.1914 125.355H78.3617V169.16H81.1914V125.355Z" fill="#E0E0E0"/>
<path d="M51.2577 112.156H48.428V122.722H51.2577V112.156Z" fill="#E0E0E0"/>
<path d="M56.3357 112.156H53.506V122.722H56.3357V112.156Z" fill="#E0E0E0"/>
<path d="M61.4136 112.156H58.5839V122.722H61.4136V112.156Z" fill="#E0E0E0"/>
<path d="M66.4916 112.156H63.6619V122.722H66.4916V112.156Z" fill="#E0E0E0"/>
<path d="M71.3197 112.156H68.49V122.722H71.3197V112.156Z" fill="#E0E0E0"/>
<path d="M76.2899 112.156H73.4602V122.722H76.2899V112.156Z" fill="#E0E0E0"/>
<path d="M81.3679 112.156H78.5382V122.722H81.3679V112.156Z" fill="#E0E0E0"/>
<path d="M46.6965 50.5261H3.76001V171.718H46.6965V50.5261Z" fill="#F5F5F5"/>
<path d="M31.0793 14.4543H20.5315V16.279H31.0793V14.4543Z" fill="#F5F5F5"/>
<path d="M26.5829 0H24.9032V14.9881H26.5829V0Z" fill="#F5F5F5"/>
<path d="M40.7011 16.279H10.9053V51.1198H40.7011V16.279Z" fill="#F5F5F5"/>
<path d="M17.577 20.5699H14.618V48.7214H17.577V20.5699Z" fill="#E0E0E0"/>
<path d="M22.8831 20.5699H19.9242V48.7214H22.8831V20.5699Z" fill="#E0E0E0"/>
<path d="M28.1937 20.5699H25.2347V48.7214H28.1937V20.5699Z" fill="#E0E0E0"/>
<path d="M33.4999 20.5699H30.541V48.7214H33.4999V20.5699Z" fill="#E0E0E0"/>
<path d="M38.5477 20.5699H35.5887V48.7214H38.5477V20.5699Z" fill="#E0E0E0"/>
<path d="M10.7201 55.4983H7.70093V166.833H10.7201V55.4983Z" fill="#E0E0E0"/>
<path d="M16.1384 55.4983H13.1191V166.833H16.1384V55.4983Z" fill="#E0E0E0"/>
<path d="M21.5523 55.4983H18.5331V166.833H21.5523V55.4983Z" fill="#E0E0E0"/>
<path d="M26.9661 55.4983H23.9469V166.833H26.9661V55.4983Z" fill="#E0E0E0"/>
<path d="M32.1174 55.4983H29.0981V166.833H32.1174V55.4983Z" fill="#E0E0E0"/>
<path d="M37.4192 55.4983H34.4V166.833H37.4192V55.4983Z" fill="#E0E0E0"/>
<path d="M42.8332 55.4983H39.814V166.833H42.8332V55.4983Z" fill="#E0E0E0"/>
<path d="M200 172.088C200 172.144 155.207 172.192 100.004 172.192C44.8015 172.192 0 172.144 0 172.088C0 172.033 44.767 171.977 100 171.977C155.233 171.977 200 172.033 200 172.088Z" fill="#263238"/>
<path d="M138.466 31.1754L134.391 31.8488C132.345 33.9866 129.508 35.3391 126.438 35.6403C123.369 35.9416 120.288 35.1699 117.802 33.4768C115.316 31.7838 113.605 29.2919 113.005 26.4909C112.404 23.69 112.958 20.7825 114.557 18.3401C116.156 15.8977 118.685 14.0969 121.647 13.2917C124.609 12.4865 127.789 12.7352 130.562 13.9889C133.336 15.2425 135.502 17.4104 136.636 20.0665C137.769 22.7226 137.787 25.6748 136.687 28.3428L138.466 31.1754Z" fill="white"/>
<path d="M138.466 31.1755C138.466 31.1755 138.419 31.1117 138.337 30.9882L137.988 30.4424L136.648 28.3587H136.722C136.713 28.3663 136.701 28.3705 136.689 28.3705C136.677 28.3705 136.666 28.3663 136.657 28.3587C136.651 28.3512 136.648 28.3421 136.648 28.3328C136.648 28.3235 136.651 28.3144 136.657 28.3069C137.367 26.5535 137.602 24.6658 137.342 22.8089C137.259 22.2251 137.126 21.6483 136.946 21.0838C136.739 20.4847 136.483 19.9012 136.179 19.3388C135.528 18.0866 134.631 16.9572 133.534 16.0081C132.272 14.9186 130.776 14.0862 129.144 13.5646C127.512 13.0431 125.779 12.844 124.059 12.9802C122.156 13.1547 120.321 13.7313 118.697 14.6654C116.99 15.6441 115.576 17.0029 114.584 18.6176C113.08 21.0495 112.602 23.9101 113.243 26.6483C113.884 29.3865 115.597 31.8084 118.053 33.4476C120.509 35.0868 123.534 35.8271 126.545 35.526C129.556 35.225 132.341 33.9037 134.361 31.8169C134.361 31.8169 134.361 31.8169 134.387 31.8169L137.402 31.3508L138.19 31.2312L138.466 31.1914L138.212 31.2432L137.445 31.3787L134.4 31.9085H134.43C133.073 33.3437 131.348 34.4398 129.413 35.0958C127.011 35.9097 124.397 36.0189 121.926 35.4086C119.456 34.7983 117.248 33.4981 115.606 31.6852C113.963 29.8723 112.964 27.6349 112.746 25.278C112.527 22.921 113.1 20.5591 114.385 18.5141L114.786 17.8965C114.932 17.7013 115.087 17.4981 115.238 17.3188C115.546 16.9406 115.877 16.5788 116.229 16.2352C116.397 16.0599 116.599 15.9125 116.78 15.7531C116.959 15.5885 117.149 15.4341 117.349 15.2909C117.739 15.0009 118.149 14.7347 118.576 14.4941C120.229 13.5449 122.096 12.9601 124.033 12.785C125.785 12.6487 127.547 12.8546 129.207 13.3892C130.867 13.9239 132.387 14.7754 133.668 15.8886C134.776 16.8548 135.68 18.0032 136.334 19.275C136.635 19.8532 136.886 20.4527 137.083 21.0679C137.264 21.6402 137.393 22.2251 137.471 22.8169C137.723 24.694 137.467 26.5998 136.726 28.3627L136.648 28.3229C136.657 28.3161 136.669 28.3124 136.681 28.3124C136.692 28.3124 136.704 28.3161 136.713 28.3229L138.005 30.4623L138.337 31.0042L138.466 31.1755Z" fill="#263238"/>
<path d="M125.006 28.9443L118.951 25.1993L120.364 23.2471L124.425 25.7571L129.473 19.5738L131.501 20.9921L125.006 28.9443Z" fill="#F57C00"/>
<path d="M68.3823 30.0718L70.4109 26.3786C69.5744 24.2874 69.3568 22.0275 69.7808 19.8325C70.2047 17.6374 71.2548 15.587 72.8225 13.8932C74.3901 12.1994 76.4184 10.9236 78.6977 10.1978C80.9769 9.47207 83.4243 9.32262 85.7869 9.76495C87.899 10.1557 89.8797 11.0069 91.5646 12.248C93.2496 13.4891 94.59 15.0842 95.4746 16.9008C96.3593 18.7173 96.7625 20.7029 96.6509 22.6926C96.5393 24.6823 95.916 26.6187 94.8329 28.3408C93.7498 30.0629 92.2381 31.5211 90.4233 32.5942C88.6086 33.6673 86.5432 34.3244 84.3988 34.5108C82.2544 34.6972 80.0929 34.4076 78.0938 33.6661C76.0947 32.9245 74.3157 31.7524 72.9047 30.2471L68.3823 30.0718Z" fill="white"/>
<path d="M83.9716 18.476V27.2033H82.9148V19.584H82.8636L80.733 20.9988V19.9249L82.9148 18.476H83.9716Z" fill="#F57C00"/>
<path d="M68.3823 30.0718H68.6838L69.5452 30.0957L72.8875 30.1993L72.8444 30.2631C72.8375 30.253 72.8353 30.2409 72.8381 30.2293C72.8409 30.2177 72.8486 30.2077 72.8595 30.2013C72.8703 30.195 72.8834 30.1929 72.896 30.1955C72.9085 30.1981 72.9194 30.2052 72.9262 30.2153C74.4111 31.7801 76.294 32.9781 78.4047 33.7013C79.0585 33.9282 79.7312 34.1054 80.4161 34.2312C81.1513 34.3582 81.8955 34.4355 82.6428 34.4623C84.5058 34.5295 86.3634 34.2366 88.0971 33.6023C89.8307 32.9679 91.4023 32.0061 92.7115 30.7783C94.0206 29.5504 95.0386 28.0834 95.7002 26.4711C96.3619 24.8588 96.6529 23.1366 96.5544 21.4144C96.5329 21.1714 96.5329 20.9244 96.5028 20.6814C96.4726 20.4383 96.4209 20.1953 96.3778 19.9523L96.3175 19.5857C96.2917 19.4662 96.2529 19.3467 96.2228 19.2272L96.0204 18.5021C95.9515 18.263 95.8395 18.0319 95.7533 17.7969C95.6692 17.5585 95.5714 17.3245 95.4605 17.0957C95.2385 16.6333 94.9868 16.1836 94.7067 15.7491C94.5603 15.5339 94.4311 15.3108 94.276 15.0997L93.7893 14.4901L93.5395 14.2072L93.2682 13.9283L92.7255 13.3666C91.9703 12.6664 91.1307 12.0488 90.2231 11.5259C88.4631 10.5196 86.4798 9.8944 84.4216 9.69724C82.5539 9.53609 80.6703 9.73624 78.8907 10.285C77.1111 10.8337 75.4745 11.719 74.0848 12.8845C72.8697 13.9022 71.8668 15.1176 71.1259 16.4702C70.9665 16.7929 70.7684 17.0997 70.6478 17.4264L70.2688 18.3865C70.0746 19.0072 69.9193 19.6377 69.8036 20.275C69.4695 22.3347 69.7005 24.439 70.4755 26.3945C70.4798 26.4062 70.4798 26.4188 70.4755 26.4304C69.8079 27.6256 69.2954 28.526 68.9465 29.1515L68.546 29.8567C68.4555 30.0161 68.4039 30.0997 68.4039 30.0997L68.5245 29.8686C68.6106 29.7013 68.7355 29.4702 68.8992 29.1635L70.3894 26.3746V26.4105C69.587 24.4447 69.3365 22.3228 69.6615 20.2431C69.7741 19.5981 69.9265 18.9596 70.118 18.3307L70.5014 17.3586C70.6405 17.027 70.7986 16.7025 70.9751 16.3865C71.7213 15.0143 72.7329 13.7801 73.9599 12.7451C76.5765 10.5508 80.0077 9.37536 83.5382 9.46369C87.0687 9.55201 90.4261 10.8973 92.9107 13.2192L93.462 13.7889L93.742 14.0718L93.9875 14.3785L94.444 15.004C94.5991 15.2152 94.7369 15.4423 94.8747 15.6654C95.1617 16.0935 95.4192 16.538 95.6457 16.9961C95.7749 17.2232 95.8438 17.4742 95.9471 17.7092C96.0505 17.9443 96.1496 18.1833 96.2185 18.4264L96.4209 19.1634C96.4511 19.2829 96.4941 19.4065 96.52 19.53L96.5803 19.9005C96.6233 20.1475 96.6621 20.3945 96.7052 20.6415C96.7483 20.8885 96.7396 21.1395 96.7569 21.3865C96.8547 23.1325 96.558 24.8781 95.8857 26.512C95.2134 28.1459 94.1802 29.6322 92.8522 30.8761C91.5241 32.1199 89.9303 33.094 88.1724 33.7362C86.4146 34.3784 84.5313 34.6745 82.6428 34.6057C81.8862 34.5794 81.1331 34.4981 80.3903 34.3627C77.4616 33.8095 74.8148 32.3715 72.8659 30.275L72.9434 30.2272C72.9508 30.2357 72.9548 30.2462 72.9548 30.2571C72.9548 30.268 72.9508 30.2785 72.9434 30.287H72.9176L69.5452 30.1236L68.6838 30.0798L68.3823 30.0718Z" fill="#263238"/>
<path d="M156.258 166.686V167.14C156.258 167.14 148.019 170.284 147.946 171.738L164.364 171.515L164.062 166.463C162.855 167.016 161.533 167.322 160.186 167.361C158.84 167.399 157.5 167.169 156.258 166.686Z" fill="#263238"/>
<path d="M164.368 171.515L164.295 170.319L148.587 170.977C148.587 170.977 147.859 171.279 147.95 171.774L164.368 171.515Z" fill="#455A64"/>
<path d="M156.207 167.196C156.207 167.268 156.611 167.295 157.008 167.531C157.404 167.766 157.619 168.072 157.692 168.04C157.766 168.009 157.641 167.582 157.154 167.311C156.667 167.04 156.185 167.116 156.207 167.196Z" fill="white"/>
<path d="M154.492 167.865C154.492 167.937 154.824 168.056 155.104 168.367C155.384 168.678 155.461 169.009 155.535 169.005C155.608 169.001 155.66 168.578 155.306 168.208C154.953 167.837 154.492 167.794 154.492 167.865Z" fill="white"/>
<path d="M153.545 169.786C153.618 169.786 153.726 169.427 153.51 169.025C153.295 168.622 152.92 168.463 152.89 168.527C152.86 168.59 153.092 168.801 153.26 169.136C153.428 169.471 153.467 169.778 153.545 169.786Z" fill="white"/>
<path d="M167.999 162.108L161.009 163.917L162.753 167.582L160.94 176.861C160.89 177.116 160.943 177.378 161.089 177.599C161.236 177.819 161.465 177.982 161.732 178.057C161.941 178.111 162.161 178.11 162.369 178.055C162.577 177.999 162.764 177.891 162.908 177.742C164.45 176.148 170.092 170.228 169.959 169.507L169.735 167.578C169.687 167.18 169.27 166.228 169.27 166.14L167.999 162.108Z" fill="#263238"/>
<path d="M161.939 178.104L169.894 168.845L169.933 169.268C169.961 169.441 169.947 169.618 169.891 169.786C169.835 169.954 169.739 170.107 169.61 170.236C168.985 171.168 167.211 173.284 162.938 177.754C162.814 177.882 162.659 177.981 162.485 178.042C162.311 178.103 162.124 178.125 161.939 178.104Z" fill="#455A64"/>
<path d="M164.037 173.539C163.739 173.248 163.383 173.013 162.99 172.845C162.57 172.735 162.132 172.697 161.698 172.734C161.698 172.71 161.818 172.618 162.077 172.567C162.412 172.502 162.76 172.527 163.08 172.638C163.401 172.746 163.68 172.937 163.886 173.188C164.028 173.379 164.062 173.527 164.037 173.539Z" fill="white"/>
<path d="M163.378 174.937C163.045 174.803 162.704 174.688 162.357 174.59C161.995 174.561 161.631 174.551 161.267 174.559C161.429 174.448 161.616 174.374 161.814 174.342C162.013 174.31 162.216 174.322 162.409 174.375C163.076 174.495 163.434 174.905 163.378 174.937Z" fill="white"/>
<path d="M165.333 171.702C164.838 171.459 164.324 171.25 163.795 171.076C163.243 170.971 162.683 170.902 162.12 170.869C162.677 170.687 163.285 170.687 163.843 170.869C164.431 170.974 164.959 171.269 165.333 171.702Z" fill="white"/>
<path d="M162.671 166.323C162.741 166.736 162.768 167.153 162.753 167.571C162.667 168.108 162.542 168.798 162.404 169.543C162.236 170.423 162.073 171.22 161.943 171.798C161.894 172.113 161.811 172.422 161.693 172.722C161.695 172.403 161.731 172.086 161.801 171.774C161.892 171.192 162.029 170.391 162.197 169.507C162.34 168.762 162.477 168.076 162.594 167.547C162.584 167.138 162.61 166.729 162.671 166.323Z" fill="#455A64"/>
<path d="M172.616 106.59C173.167 104.132 174.563 99.6857 174.016 97.6379C172.724 92.8929 170.506 90.1478 167.452 84.1239H165.182L143.397 83.7733L141.614 87.4307C139.633 92.359 138.281 95.2993 137.738 98.9049C137.096 103.056 138.22 109.072 140.718 115.148C146.102 128.26 149.109 138.746 149.332 141.57C149.556 144.395 149.862 147.311 152.696 156.256C154.759 162.786 156.288 166.686 156.288 166.686C158.442 167.81 160.712 168.112 162.783 167.021L169.106 164.766C169.106 164.766 167.168 149.367 164.907 145.28C163.279 142.339 160.6 140.945 161.857 137.112C163.115 133.279 170.928 114.14 172.616 106.59Z" fill="#263238"/>
<path d="M147.119 94.1558C147.151 94.1879 147.179 94.2225 147.205 94.2593L147.446 94.5661L148.368 95.7813L151.813 100.375V100.395V100.415C151.645 102.136 151.581 104.132 151.464 106.359C151.348 108.586 151.223 111.032 151.09 113.662C150.956 116.291 150.78 119.104 150.616 122.048C150.452 124.993 150.263 128.076 149.944 131.244C149.612 133.877 149.32 136.467 149.561 138.953C149.625 139.574 149.707 140.188 149.832 140.789C149.942 141.385 150.101 141.973 150.306 142.546C150.737 143.662 151.279 144.746 151.775 145.797C153.786 150.009 155.651 153.766 157.236 156.933L160.992 164.407L162.004 166.447C162.111 166.674 162.197 166.845 162.262 166.977C162.327 167.108 162.344 167.16 162.344 167.16C162.344 167.16 162.305 167.104 162.241 166.985L161.965 166.463C161.719 165.993 161.371 165.311 160.918 164.443L157.124 156.981C155.539 153.825 153.639 150.068 151.619 145.861C151.12 144.805 150.594 143.738 150.134 142.598C149.926 142.016 149.766 141.421 149.655 140.817C149.526 140.208 149.44 139.59 149.376 138.965C149.13 136.451 149.423 133.845 149.755 131.212C150.073 128.06 150.237 124.973 150.431 122.048C150.625 119.124 150.771 116.291 150.922 113.662C151.072 111.032 151.202 108.582 151.327 106.359C151.452 104.136 151.529 102.136 151.71 100.415V100.451C150.254 98.4586 149.1 96.9008 148.303 95.8251L147.407 94.594L147.183 94.2753C147.157 94.2378 147.135 94.1977 147.119 94.1558Z" fill="#455A64"/>
<path d="M150.022 51.1077L151.361 47.9802L159.333 47.5818L162.589 47.9802L162.947 48.8487L165.156 85.0162C165.156 85.0162 157.434 86.4584 153.575 85.9565C149.716 85.4545 145.172 83.825 145.172 83.825V63.2552L150.022 51.1077Z" fill="#F5F5F5"/>
<path d="M162.021 52.5779C162.021 52.5779 162.021 52.6018 161.965 52.6416L161.793 52.8209C161.642 52.9763 161.414 53.2193 161.112 53.4743C160.29 54.2288 159.419 54.9353 158.502 55.5898L158.463 55.6177L158.433 55.5819C157.571 54.708 156.771 53.783 156.039 52.8129C155.957 52.7054 155.879 52.5938 155.802 52.4942H155.901C155.216 53.3428 154.57 54.1476 153.984 54.8847C153.909 54.9787 153.819 55.0619 153.717 55.1317C153.665 55.1696 153.606 55.1977 153.542 55.2141C153.479 55.2305 153.412 55.235 153.347 55.2273C153.224 55.2027 153.113 55.1444 153.028 55.06C152.942 54.9803 152.877 54.8966 152.808 54.8209L152.05 53.9444L150.965 52.6735L150.676 52.3269C150.641 52.288 150.61 52.2468 150.582 52.2034L150.694 52.3149L150.999 52.6496L152.115 53.8966L152.881 54.7651C153.019 54.9165 153.157 55.0998 153.364 55.1317C153.571 55.1635 153.756 54.9962 153.898 54.8249L155.806 52.4344L155.853 52.3707L155.901 52.4344L156.133 52.7492C156.865 53.7155 157.659 54.6401 158.511 55.5181H158.438C159.356 54.8725 160.235 54.1795 161.069 53.4424C161.375 53.1715 161.607 52.9564 161.771 52.809L161.956 52.6416C161.975 52.6181 161.997 52.5967 162.021 52.5779Z" fill="#263238"/>
<g opacity="0.3">
<path d="M152.912 54.8727C152.912 54.8727 153.924 56.0241 154.204 55.7333C154.484 55.4424 155.987 53.299 156.163 53.2114C156.34 53.1237 158.153 56.1277 158.864 55.9205C159.575 55.7134 162.107 53.3667 162.107 53.3667L162.154 52.4464L158.468 55.55L155.853 52.4544L153.648 55.1038C153.648 55.1038 153.183 55.4544 152.912 54.8727Z" fill="black"/>
</g>
<path d="M154.609 86.1758C154.598 86.0631 154.598 85.9498 154.609 85.8371C154.609 85.5981 154.608 85.2714 154.643 84.865C154.682 84.0044 154.733 82.7893 154.798 81.2793C154.936 78.2634 155.121 74.108 155.293 69.4984C155.466 64.8888 155.59 60.7334 155.681 57.7135C155.724 56.2195 155.763 55.0043 155.789 54.1278C155.806 53.7214 155.819 53.3987 155.827 53.1597C155.827 53.0462 155.837 52.933 155.858 52.821C155.868 52.9337 155.868 53.047 155.858 53.1597V54.1318C155.858 54.9964 155.836 56.2115 155.819 57.7175C155.771 60.7334 155.668 64.8888 155.5 69.5064C155.332 74.1239 155.117 78.2714 154.94 81.2873C154.845 82.7773 154.768 83.9925 154.712 84.873C154.682 85.2714 154.656 85.6021 154.634 85.8451C154.634 85.9557 154.625 86.0662 154.609 86.1758Z" fill="#263238"/>
<g opacity="0.3">
<path d="M147.584 71.578L143.397 97.0004L143.72 99.7534C144.086 100.152 144.823 100.012 145.193 99.6299C145.528 99.2149 145.729 98.7201 145.77 98.2036C147.377 89.4107 148.238 80.4705 147.584 71.578Z" fill="black"/>
</g>
<path d="M141.692 51.2035C140.923 51.4325 140.226 51.8306 139.661 52.3635C139.095 52.8964 138.678 53.5483 138.444 54.2632L133.457 70.5382L137.548 81.6936L141.821 74.9685L144.836 50.6298L141.692 51.2035Z" fill="#F57C00"/>
<path d="M147.455 50.1596L142.717 51.0162L141.39 74.2792C141.39 74.5661 141.7 79.0601 141.7 79.0601L133.517 95.9606C135.343 98.9725 140.279 100.387 143.759 101.14C143.759 101.14 147.282 78.0322 147.511 72.9406C147.739 67.8489 151.275 48.052 151.275 48.052L147.455 50.1596Z" fill="#F57C00"/>
<path d="M134.542 94.0442L134.572 93.9685L134.676 93.7454L135.072 92.8928C135.421 92.1478 135.933 91.0721 136.562 89.7295L141.662 79.0203V79.0442C141.623 77.8928 141.576 76.6975 141.515 75.4585C141.377 72.7055 141.214 70.08 141.106 67.6935C140.998 65.3071 140.93 63.1517 140.908 61.3429C140.886 59.5341 140.908 58.072 140.908 57.064C140.908 56.562 140.93 56.1716 140.938 55.9006C140.938 55.7692 140.938 55.6696 140.938 55.5978C140.938 55.5261 140.938 55.4943 140.938 55.4943C140.938 55.4943 140.938 55.5301 140.938 55.5978V55.9006C140.938 56.1716 140.938 56.562 140.938 57.064C140.938 58.072 140.938 59.5381 140.968 61.3429C140.998 63.1477 141.072 65.2991 141.192 67.6895C141.313 70.08 141.459 72.7015 141.623 75.4545C141.683 76.6776 141.731 77.8768 141.765 79.0402V79.0641L136.631 89.7613C135.985 91.096 135.468 92.1518 135.106 92.9088C134.93 93.2753 134.788 93.5582 134.676 93.7534C134.628 93.849 134.594 93.9207 134.564 93.9725C134.56 93.9972 134.553 94.0213 134.542 94.0442Z" fill="#263238"/>
<path d="M147.287 70.4147C147.287 70.4147 147.287 70.3947 147.265 70.3589L147.222 70.1955C147.183 70.0441 147.132 69.837 147.067 69.57C146.942 69.0242 146.77 68.2314 146.606 67.2393C146.442 66.2473 146.287 65.072 146.175 63.7533C146.063 62.4345 145.951 60.9883 145.874 59.4664C145.848 58.8967 145.818 58.3389 145.792 57.7931L145.753 56.9963C145.753 56.8648 145.753 56.7333 145.753 56.5979V56.3987V56.2991C145.753 56.2991 145.753 56.2672 145.753 56.2473C145.753 56.2273 145.753 56.2473 145.753 56.2114V56.1875C145.753 56.1875 145.805 56.1676 145.814 56.1875C145.822 56.2074 145.844 56.1875 145.857 56.2194H145.775L147.041 55.3987V55.4863L145.654 54.8449H145.615V54.809C145.822 54.0879 146.072 53.4425 146.287 52.8767C146.503 52.311 146.718 51.817 146.877 51.4146C147.037 51.0122 147.183 50.7014 147.278 50.4863C147.325 50.3867 147.364 50.307 147.39 50.2433C147.416 50.1795 147.433 50.1636 147.433 50.1636C147.427 50.1938 147.417 50.2233 147.403 50.2512L147.308 50.4982C147.218 50.7213 147.093 51.0361 146.929 51.4345C146.765 51.8329 146.576 52.3309 146.365 52.9006C146.154 53.4704 145.913 54.0959 145.71 54.8329L145.684 54.7811L147.063 55.3668L147.149 55.4026L147.071 55.4544L145.809 56.2752H145.727C145.727 56.2752 145.771 56.2473 145.766 56.2473C145.769 56.249 145.773 56.2499 145.777 56.2499C145.781 56.2499 145.784 56.249 145.788 56.2473H145.809V56.3947V56.5899L145.831 56.9883C145.831 57.2513 145.857 57.5222 145.87 57.7851C145.895 58.3309 145.926 58.8887 145.951 59.4584C146.029 60.9804 146.124 62.4266 146.244 63.7413C146.365 65.0561 146.511 66.2393 146.675 67.2274C146.839 68.2154 146.989 69.0083 147.106 69.5581C147.162 69.825 147.209 70.0362 147.239 70.1876C147.239 70.2553 147.265 70.3111 147.274 70.3509C147.282 70.3908 147.287 70.4147 147.287 70.4147Z" fill="#263238"/>
<path d="M170.747 81.1676L173.762 53.0201L165.29 50.1476C165.29 50.1476 163.304 48.4583 162.249 47.5858L161.875 52.0002C161.875 52.0002 160.729 70.068 162.533 79.1676C164.338 88.2673 164.084 87.9565 165.402 93.8769C166.362 98.1836 166.522 101.945 167.986 102.323C169.451 102.702 176.755 100.227 176.755 100.227L170.747 81.1676Z" fill="#F57C00"/>
<path d="M173.757 53.0201C173.757 53.0201 177.074 54.1875 177.573 58.1357C177.94 61.052 179.878 77.7095 177.849 79.7852C175.423 82.1978 172.77 84.4057 169.92 86.3828L165.182 80.6816L169.679 76.1079L172.216 55.9285L173.757 53.0201Z" fill="#F57C00"/>
<path d="M164.355 69.4465C164.353 69.428 164.353 69.4093 164.355 69.3908C164.355 69.3509 164.355 69.2991 164.385 69.2354C164.417 69.092 164.46 68.8928 164.515 68.6378C164.618 68.1198 164.773 67.3669 164.915 66.4306C165.217 64.5581 165.475 61.9565 165.622 59.072C165.656 58.392 165.69 57.728 165.725 57.08C165.725 56.7572 165.755 56.4425 165.772 56.1317L165.798 55.6736C165.798 55.5979 165.798 55.5222 165.798 55.4465V55.3389C165.8 55.3217 165.8 55.3043 165.798 55.2871C165.809 55.2905 165.821 55.2905 165.833 55.2871C165.833 55.2871 165.867 55.2871 165.867 55.2871H165.79L164.528 54.4624L164.454 54.4186L164.536 54.3827L165.914 53.7971L165.889 53.8449C165.767 53.3316 165.674 52.813 165.609 52.2911C165.544 51.8289 165.484 51.4345 165.415 51.1158C165.346 50.7971 165.273 50.55 165.221 50.3827L165.152 50.1955C165.152 50.1556 165.131 50.1317 165.152 50.1317C165.164 50.1509 165.174 50.1709 165.182 50.1915C165.182 50.2353 165.23 50.2951 165.26 50.3747C165.351 50.6128 165.424 50.8564 165.479 51.1038C165.557 51.4265 165.626 51.821 165.699 52.2791C165.77 52.7987 165.869 53.3146 165.996 53.825V53.8568H165.962L164.605 54.4823V54.4026L165.871 55.2194H165.79C165.802 55.2094 165.817 55.2026 165.833 55.1995C165.847 55.1963 165.862 55.1963 165.876 55.1995C165.876 55.1995 165.876 55.2234 165.876 55.2353V55.4106C165.876 55.4863 165.876 55.562 165.876 55.6377C165.876 55.7891 165.876 55.9405 165.854 56.0959C165.854 56.4066 165.824 56.7214 165.811 57.0441C165.777 57.6855 165.746 58.3509 165.712 59.0361C165.602 61.5019 165.353 63.9608 164.967 66.4027C164.812 67.339 164.644 68.088 164.536 68.6059C164.472 68.8569 164.424 69.0561 164.385 69.1995C164.368 69.2633 164.355 69.3151 164.347 69.3549C164.364 69.4306 164.36 69.4465 164.355 69.4465Z" fill="#263238"/>
<path d="M176.023 76.7812C176.023 76.7812 175.726 76.598 175.218 76.3828C174.918 76.2487 174.607 76.1381 174.287 76.0522C173.894 75.9514 173.492 75.8847 173.086 75.853C172.679 75.829 172.271 75.8396 171.867 75.8848C171.537 75.9243 171.211 75.991 170.893 76.084C170.351 76.2394 170.032 76.4028 170.032 76.3828C170.097 76.3324 170.17 76.2909 170.247 76.2593C170.332 76.2163 170.42 76.1777 170.51 76.1438C170.628 76.0921 170.748 76.0469 170.872 76.0083C171.192 75.9056 171.523 75.8309 171.858 75.7852C172.683 75.6745 173.524 75.733 174.322 75.9565C174.644 76.0484 174.957 76.1671 175.256 76.3111C175.372 76.3658 175.485 76.427 175.592 76.4944C175.677 76.5402 175.759 76.5907 175.838 76.6458C175.905 76.6842 175.967 76.7296 176.023 76.7812Z" fill="#263238"/>
<g opacity="0.3">
<path d="M165.294 50.5101C165.294 50.5101 166.823 53.809 166.586 54.0958C166.349 54.3827 165.57 54.5659 165.57 54.5659C165.57 54.5659 166.888 55.0958 166.888 55.5619C166.888 56.4942 165.471 62.0082 165.471 62.0082L165.82 55.2711L164.558 54.4743L165.936 53.8807L165.294 50.5101Z" fill="black"/>
</g>
<path d="M171.393 59.7971C171.404 59.8738 171.404 59.9515 171.393 60.0282C171.393 60.1995 171.367 60.4266 171.35 60.6856C171.303 61.2872 171.234 62.1039 171.152 63.1039C170.958 65.1716 170.7 67.9764 170.411 71.0721C170.312 72.0362 170.221 72.9725 170.131 73.8609C170.085 74.3071 170.033 74.7414 169.976 75.1637C169.934 75.5765 169.856 75.9855 169.743 76.3868L166.457 79.5462L165.527 80.4068C165.423 80.5155 165.307 80.6142 165.182 80.7016C165.271 80.5829 165.372 80.4722 165.484 80.3709L166.371 79.4705L169.575 76.3191V76.351C169.677 75.9578 169.747 75.5583 169.786 75.1558C169.838 74.7374 169.885 74.3032 169.933 73.8569C170.019 72.9645 170.109 72.0283 170.204 71.0681C170.519 67.9725 170.803 65.1677 171.01 63.0999C171.122 62.0999 171.216 61.2832 171.281 60.6856C171.315 60.4226 171.346 60.2035 171.367 60.0322C171.365 59.9531 171.374 59.8741 171.393 59.7971Z" fill="#263238"/>
<path d="M134.353 67.6177L131.066 74.3906L127.965 71.1755L123.826 73.8767L128.689 81.0918C130.218 82.9046 131.678 84.1397 133.341 83.9444C133.675 83.9018 134.004 83.8284 134.323 83.7253C136.605 83.0042 138.177 81.5859 138.772 79.4225L140.654 70.6934L134.353 67.6177Z" fill="#F57C00"/>
<path d="M134.693 79.7135C134.665 79.6194 134.643 79.5235 134.628 79.4267C134.594 79.2434 134.534 78.9765 134.452 78.6498C134.37 78.3231 134.258 77.9406 134.111 77.5183C133.965 77.096 133.78 76.6418 133.56 76.1757C133.341 75.7095 133.095 75.2753 132.862 74.8888C132.63 74.5024 132.393 74.1677 132.191 73.8928C131.988 73.6179 131.812 73.3948 131.691 73.2474C131.624 73.1729 131.562 73.0944 131.506 73.0123C131.583 73.0779 131.654 73.15 131.717 73.2275C131.85 73.3709 132.031 73.586 132.242 73.857C132.453 74.1279 132.673 74.4665 132.936 74.849C133.196 75.268 133.433 75.6988 133.646 76.1398C133.866 76.61 134.047 77.0721 134.193 77.4944C134.34 77.9167 134.443 78.2912 134.516 78.6378C134.59 78.9845 134.637 79.2355 134.663 79.4347C134.682 79.5266 134.692 79.6199 134.693 79.7135Z" fill="#263238"/>
<path d="M152.812 24.4821L152.787 24.5861C152.808 24.5661 152.808 24.5181 152.812 24.4821Z" fill="#263238"/>
<path d="M144.849 43.9683C144.905 42.8846 144.466 41.8368 144.095 40.8049C143.725 39.773 143.419 38.6575 143.733 37.6176C144.13 36.3029 145.409 35.3866 146.098 34.1754C146.787 32.9642 146.839 31.5339 146.959 30.1674C147.08 28.8009 147.33 27.3507 148.312 26.3188C149.552 25.012 152.8 24.7769 154.342 25.7849C154.578 33.5618 154.505 41.2631 152.705 48.8647C148.6 49.0281 146.52 48.287 142.941 46.4304C144.082 46.2033 144.793 45.0559 144.849 43.9683Z" fill="#263238"/>
<path d="M162.452 48.8966L163.937 30.0121C163.959 29.5952 163.811 29.186 163.522 28.8652C163.233 28.5445 162.825 28.3353 162.378 28.279L152.903 25.7969C149.854 25.3985 147.713 28.8487 147.433 31.6814C147.123 34.8288 146.877 38.6854 147.209 41.048C147.877 45.801 151.779 46.5062 151.779 46.5062C151.697 48.8488 151.727 48.8966 151.727 48.8966L155.909 52.4345L162.452 48.8966Z" fill="#FFBF9D"/>
<path d="M148.816 35.7931C148.809 35.9511 148.869 36.1054 148.983 36.223C149.097 36.3407 149.257 36.4123 149.427 36.4225C149.511 36.4308 149.595 36.4235 149.675 36.4012C149.755 36.3789 149.83 36.342 149.895 36.2926C149.959 36.2432 150.012 36.1824 150.051 36.1138C150.09 36.0451 150.114 35.9699 150.121 35.8927C150.127 35.7349 150.066 35.5811 149.952 35.4637C149.838 35.3463 149.679 35.2744 149.509 35.2632C149.426 35.2549 149.341 35.2622 149.261 35.2845C149.181 35.3068 149.106 35.3437 149.042 35.3931C148.977 35.4425 148.924 35.5033 148.885 35.572C148.846 35.6407 148.823 35.7158 148.816 35.7931Z" fill="#263238"/>
<path d="M148.269 33.7293C148.346 33.809 148.854 33.4823 149.561 33.5022C150.267 33.5221 150.775 33.8648 150.853 33.7851C150.93 33.7054 150.814 33.6058 150.594 33.4464C150.294 33.2433 149.933 33.1306 149.561 33.1237C149.194 33.113 148.834 33.2107 148.531 33.4026C148.307 33.5341 148.239 33.6775 148.269 33.7293Z" fill="#263238"/>
<path d="M154.837 35.9085C154.83 36.0665 154.89 36.2208 155.004 36.3385C155.118 36.4561 155.278 36.5277 155.448 36.538C155.532 36.5462 155.616 36.5389 155.696 36.5166C155.776 36.4943 155.851 36.4574 155.916 36.408C155.98 36.3587 156.034 36.2979 156.072 36.2292C156.111 36.1605 156.135 36.0853 156.142 36.0081C156.149 35.8501 156.089 35.6957 155.975 35.5781C155.86 35.4605 155.701 35.3889 155.53 35.3786C155.447 35.3698 155.362 35.3767 155.282 35.3987C155.201 35.4208 155.126 35.4577 155.062 35.5072C154.997 35.5567 154.944 35.6177 154.905 35.6866C154.866 35.7556 154.843 35.831 154.837 35.9085Z" fill="#263238"/>
<path d="M155.203 34.016C155.285 34.0957 155.793 33.769 156.495 33.789C157.197 33.8089 157.71 34.1515 157.787 34.0718C157.865 33.9921 157.748 33.8925 157.529 33.7372C157.229 33.5321 156.868 33.418 156.495 33.4105C156.129 33.3997 155.768 33.4974 155.466 33.6894C155.246 33.8368 155.164 33.9802 155.203 34.016Z" fill="#263238"/>
<path d="M152.494 38.7931C152.126 38.673 151.742 38.598 151.352 38.57C151.172 38.5501 151.004 38.5102 150.978 38.3947C150.966 38.2225 151.013 38.0512 151.111 37.9046C151.292 37.5062 151.486 37.1078 151.684 36.6497C152.481 34.8608 153.062 33.3907 152.976 33.3588C152.89 33.3269 152.188 34.7572 151.391 36.5461C151.202 36.9843 151.017 37.4066 150.844 37.809C150.723 38.0072 150.682 38.2387 150.728 38.4624C150.753 38.5212 150.792 38.5741 150.842 38.6174C150.892 38.6608 150.952 38.6935 151.017 38.7134C151.116 38.7409 151.219 38.757 151.322 38.7612C151.71 38.8156 152.103 38.8263 152.494 38.7931Z" fill="#263238"/>
<path d="M151.77 46.5062C154.174 46.6013 156.559 46.0787 158.661 44.9962C158.967 44.3429 157.292 47.3588 151.731 47.7453L151.77 46.5062Z" fill="#FF9A6C"/>
<path d="M152.545 40.3468C152.71 40.1343 152.928 39.9625 153.181 39.8465C153.434 39.7305 153.715 39.6738 153.997 39.6815C154.182 39.6889 154.362 39.7378 154.521 39.8238C154.681 39.9099 154.816 40.0306 154.914 40.1755C155.011 40.3391 155.057 40.5239 155.048 40.7101C155.039 40.8962 154.975 41.0765 154.863 41.2313C154.73 41.3903 154.548 41.5087 154.342 41.5712C154.135 41.6338 153.913 41.6375 153.704 41.5819C153.315 41.4525 152.965 41.2395 152.683 40.9604C152.593 40.8915 152.52 40.806 152.468 40.7094C152.442 40.656 152.432 40.5973 152.439 40.5392C152.446 40.4811 152.469 40.4257 152.507 40.3787" fill="#FF9A6C"/>
<path d="M154.557 39.3069C154.441 39.3069 154.419 40.0041 153.747 40.5021C153.075 41.0001 152.265 40.9005 152.253 40.9882C152.24 41.0758 152.433 41.1316 152.778 41.1475C153.226 41.1647 153.666 41.0365 154.023 40.785C154.364 40.541 154.59 40.1839 154.652 39.789C154.699 39.4742 154.608 39.3069 154.557 39.3069Z" fill="#263238"/>
<path d="M154.975 31.3388C155.039 31.518 155.746 31.4543 156.572 31.5659C157.399 31.6774 158.063 31.9085 158.175 31.7531C158.226 31.6774 158.114 31.5061 157.852 31.3268C157.498 31.1092 157.094 30.9727 156.672 30.9284C156.25 30.8694 155.819 30.9035 155.414 31.028C155.104 31.0997 154.949 31.2352 154.975 31.3388Z" fill="#E0E0E0"/>
<path d="M148.587 31.4703C148.708 31.6217 149.199 31.4703 149.78 31.4703C150.362 31.4703 150.857 31.5978 150.978 31.4464C151.029 31.3707 150.956 31.2232 150.745 31.0758C150.462 30.8948 150.125 30.8001 149.78 30.8049C149.436 30.8034 149.099 30.8993 148.816 31.0798C148.605 31.2472 148.536 31.3985 148.587 31.4703Z" fill="#263238"/>
<path d="M151.766 25.761C152.627 23.8168 154.544 23.4064 156.581 23.2032C158.618 23.0001 161.642 23.7809 163.326 24.7969C164.726 25.586 165.985 26.5726 167.056 27.7212C167.96 28.8009 168.348 30.032 168.925 31.275C169.786 33.2112 169.743 35.3507 169.864 37.4304C170.02 40.0433 170.472 42.6338 171.212 45.1595C171.479 46.0679 171.75 47.1515 170.351 47.6735C170.09 47.7667 169.818 47.8283 169.541 47.8567C167.387 48.0958 165.303 48.7452 162.904 48.8846H161.426C159.553 48.8846 158.592 47.7691 158.657 46.3547C158.851 42.0798 161.103 35.0599 161.353 33.7132C161.366 33.7292 162.146 24.5021 151.766 25.761Z" fill="#263238"/>
<path d="M152.442 25.7212C152.755 25.9625 153.011 26.2598 153.197 26.5953C153.382 26.9309 153.491 27.2976 153.519 27.6734C153.631 28.4184 153.583 29.1833 153.734 29.9204C153.892 30.6611 154.24 31.3558 154.749 31.9459C155.258 32.536 155.913 33.0042 156.659 33.3108C157.137 33.4981 157.787 33.5778 158.084 33.1834C158.067 33.7087 158.222 34.2265 158.53 34.6683C158.837 35.1102 159.283 35.4551 159.807 35.6575C160.565 35.9403 161.414 35.8925 162.21 36.0559C163.007 36.2192 163.843 36.7252 163.886 37.4822L164.222 32.2272L162.624 27.5817L157.714 24.8845L152.442 25.7212Z" fill="#263238"/>
<path d="M161.159 34.3826C160.994 34.2764 160.837 34.1592 160.69 34.032C160.321 33.6535 160.055 33.1985 159.915 32.7053C159.718 31.9731 159.604 31.2241 159.574 30.4702C159.536 29.5403 159.42 28.6145 159.226 27.7013C159.028 26.7787 158.567 25.9218 157.89 25.2192C157.588 24.918 157.223 24.6756 156.818 24.5061C156.464 24.361 156.085 24.2747 155.698 24.2511C155.138 24.2093 154.579 24.3335 154.1 24.6057C154.025 24.6455 153.954 24.6922 153.889 24.7451C153.837 24.7799 153.789 24.82 153.747 24.8646C153.708 24.8994 153.672 24.9367 153.639 24.9762C153.787 24.8489 153.947 24.7342 154.117 24.6336C154.595 24.3795 155.145 24.2682 155.694 24.3148C156.518 24.3696 157.288 24.713 157.847 25.275C158.502 25.9716 158.948 26.8151 159.139 27.7212C159.331 28.6295 159.449 29.5497 159.493 30.4742C159.526 31.2346 159.649 31.9893 159.859 32.7252C160.006 33.2247 160.286 33.6822 160.673 34.0559C160.814 34.1894 160.978 34.2999 161.159 34.3826Z" fill="white"/>
<path d="M165.406 33.7492C165.149 33.7213 164.897 33.6624 164.657 33.5739C164.019 33.2881 163.477 32.8475 163.089 32.299C162.809 31.9312 162.568 31.5389 162.37 31.1276C162.157 30.6492 162.022 30.1445 161.969 29.6296C161.896 29.0878 161.874 28.5101 161.806 27.9125C161.767 27.6177 161.724 27.3109 161.651 27.0081C161.573 26.7003 161.463 26.4001 161.323 26.1117C160.771 25.0063 159.791 24.1331 158.575 23.6655C157.586 23.2908 156.492 23.2223 155.457 23.4702C154.762 23.6288 154.11 23.9207 153.545 24.3268C153.338 24.4739 153.148 24.6394 152.976 24.8208C152.991 24.8126 153.004 24.8018 153.015 24.789L153.127 24.6973C153.174 24.6535 153.235 24.6017 153.308 24.5459C153.381 24.4902 153.467 24.4185 153.571 24.3547C154.138 23.9635 154.786 23.6842 155.474 23.534C156.494 23.3004 157.568 23.3729 158.541 23.7412C159.726 24.2033 160.685 25.0548 161.233 26.1316C161.368 26.4155 161.474 26.7102 161.551 27.0121C161.62 27.3083 161.671 27.6075 161.706 27.9085C161.775 28.4981 161.801 29.0758 161.874 29.6256C161.936 30.1473 162.081 30.6576 162.305 31.1396C162.508 31.5593 162.755 31.9596 163.042 32.3348C163.443 32.8869 164 33.3265 164.652 33.6057C164.833 33.669 165.021 33.7118 165.212 33.7332H165.363L165.406 33.7492Z" fill="#455A64"/>
<path d="M158.084 33.1834C158.084 33.1834 158.084 33.1834 158.084 33.2272C158.084 33.271 158.084 33.3029 158.084 33.3547C158.084 33.4065 158.084 33.4862 158.114 33.5698C158.145 33.6535 158.153 33.7491 158.179 33.8567C158.249 34.119 158.357 34.3711 158.502 34.6057C158.699 34.9177 158.963 35.1889 159.277 35.4025C160.148 35.9296 161.187 36.1671 162.223 36.0758C162.84 36.048 163.452 35.9598 164.049 35.8129C164.701 35.6619 165.327 35.4286 165.91 35.1197L166.026 35.0559H165.893C165.144 34.9582 164.418 34.7511 163.739 34.4424H163.701L163.67 34.526C165.192 34.753 166.752 34.4945 168.094 33.793L168.184 33.7451L168.085 33.7173C167.139 33.4539 166.251 33.0371 165.462 32.4862C164.846 32.0521 164.372 31.4688 164.093 30.8009C163.93 30.36 163.855 29.8959 163.869 29.4304C163.869 29.275 163.89 29.1515 163.899 29.0599V28.9483V28.9164C163.9 28.927 163.9 28.9377 163.899 28.9483V29.0439C163.899 29.1316 163.873 29.2551 163.851 29.4145C163.827 29.8855 163.895 30.3567 164.054 30.8049C164.34 31.4923 164.83 32.0914 165.466 32.534C166.261 33.0928 167.157 33.5177 168.111 33.789V33.7133C166.786 34.4009 165.248 34.6537 163.748 34.4304L163.416 34.3786L163.718 34.5141H163.757C164.435 34.8245 165.161 35.0342 165.91 35.1356V35.0519C165.333 35.3567 164.715 35.5885 164.071 35.7412C163.481 35.8883 162.876 35.9765 162.266 36.0041C161.248 36.0994 160.225 35.8733 159.363 35.3627C159.049 35.1495 158.787 34.8781 158.592 34.5659C158.448 34.3338 158.336 34.0863 158.257 33.8288C158.231 33.7212 158.205 33.6296 158.188 33.5459C158.17 33.4623 158.162 33.3906 158.149 33.3348C158.136 33.279 158.149 33.2392 158.127 33.2073C158.114 33.1982 158.099 33.1902 158.084 33.1834Z" fill="#455A64"/>
<path d="M168.585 46.1157C168.611 46.1157 168.3 43.5818 167.891 40.4663C167.482 37.3507 167.125 34.8248 167.099 34.8248C167.073 34.8248 167.383 37.3587 167.792 40.4743C168.201 43.5898 168.555 46.1157 168.585 46.1157Z" fill="#455A64"/>
<path d="M158.213 81.8689C157.808 81.7915 157.39 81.793 156.985 81.8732C156.58 81.9535 156.197 82.1107 155.862 82.3351C154.794 83.0602 152.963 84.0243 151.124 83.6897C148.269 83.1677 146.718 80.6896 147.356 77.7135C147.993 74.7374 150.435 72.9605 153.295 73.4824C155.143 73.8171 156.443 75.347 157.137 76.3948C157.356 76.7184 157.646 76.9967 157.986 77.2126C158.327 77.4285 158.712 77.5773 159.118 77.6498C159.509 77.7211 159.912 77.7203 160.303 77.6476C160.694 77.5748 161.066 77.4315 161.397 77.2257C161.728 77.02 162.013 76.756 162.233 76.4486C162.454 76.1413 162.607 75.7967 162.684 75.4346L165.854 57.8011L135.998 52.9764L115.591 49.7054L112.404 66.4386C112.081 67.9605 113.464 69.3111 115.109 69.6259C115.514 69.7026 115.932 69.7005 116.336 69.6195C116.74 69.5386 117.122 69.3806 117.456 69.1557C118.524 68.4306 120.359 67.4665 122.194 67.8011C125.054 68.3231 126.604 70.8012 125.967 73.7972C125.33 76.7932 122.883 78.5502 120.023 78.0283C118.18 77.6936 116.875 76.1637 116.181 75.1159C115.962 74.7916 115.673 74.5125 115.332 74.2959C114.992 74.0793 114.606 73.9299 114.2 73.8569C113.809 73.7835 113.406 73.7827 113.014 73.8546C112.622 73.9265 112.25 74.0696 111.919 74.2757C111.587 74.4818 111.303 74.7467 111.084 75.0551C110.864 75.3635 110.713 75.7092 110.638 76.0721L106.814 95.7774L136.842 100.666L154.458 103.534L156.611 103.889L160.595 85.1917C160.679 84.8285 160.684 84.4535 160.609 84.0887C160.534 83.7238 160.382 83.3764 160.16 83.0669C159.938 82.7574 159.652 82.492 159.317 82.2863C158.983 82.0806 158.608 81.9387 158.213 81.8689Z" fill="#455A64"/>
<path d="M128.474 70.6697C128.478 70.5701 128.46 70.4707 128.42 70.378C128.381 70.2853 128.321 70.2012 128.244 70.1311C128.168 70.061 128.076 70.0064 127.976 69.9709C127.875 69.9353 127.767 69.9196 127.66 69.9246C127.41 69.9246 127.087 69.9525 126.691 69.9884C125.661 70.084 122.616 71.4705 122.534 72.0282C122.479 72.2279 122.481 72.4373 122.539 72.6363C122.597 72.8353 122.71 73.0169 122.866 73.1637C122.866 73.1637 122.272 73.8928 122.487 74.4984C122.676 75.0123 123.572 75.1916 123.572 75.1916C123.572 75.1916 122.909 75.9047 123.572 76.4147C123.809 76.59 124.287 76.9286 124.395 77.0442C124.438 77.1969 124.502 77.3442 124.584 77.4824C124.734 77.6766 124.926 77.8389 125.149 77.9585C125.372 78.0781 125.62 78.1521 125.877 78.1757H126.049C126.379 78.2058 126.709 78.1174 126.971 77.9286C128.159 77.088 131.527 74.6497 131.592 73.9725C131.592 73.9725 132.234 73.5103 131.984 73.0282C131.734 72.5462 130.774 72.7533 130.774 72.7533C130.904 72.6563 130.998 72.5232 131.042 72.3735C131.085 72.2238 131.076 72.0651 131.015 71.9207C130.795 71.4107 129.094 71.4545 128.323 71.5501C127.707 71.6218 125.993 71.8808 125.993 71.8808C125.993 71.8808 128.276 71.1557 128.409 70.7971C128.437 70.7574 128.458 70.7146 128.474 70.6697Z" fill="#FFBF9D"/>
<path d="M131.626 73.9884C131.555 74.0386 131.478 74.0826 131.398 74.1199C131.247 74.1956 131.028 74.3031 130.748 74.4306C130.196 74.6856 129.413 75.0043 128.534 75.3191C127.655 75.6338 126.841 75.8848 126.251 76.0601C125.958 76.1478 125.721 76.2115 125.553 76.2593C125.469 76.2848 125.383 76.3048 125.295 76.3191C125.376 76.283 125.459 76.2524 125.545 76.2275L126.234 76.0083C126.82 75.8211 127.621 75.5581 128.504 75.2474C129.387 74.9366 130.162 74.6219 130.722 74.3828L131.385 74.092C131.463 74.0525 131.544 74.0179 131.626 73.9884Z" fill="#FF9A6C"/>
<path d="M130.911 72.7494C130.831 72.7753 130.747 72.7926 130.662 72.8012C130.502 72.8291 130.27 72.8689 129.981 72.9287C129.408 73.0442 128.629 73.2434 127.776 73.4944C127.345 73.6179 126.94 73.7295 126.574 73.845C126.208 73.9606 125.885 74.088 125.618 74.1916C125.351 74.2952 125.136 74.3948 124.985 74.4586C124.911 74.4974 124.833 74.5295 124.752 74.5542L124.808 74.5183L124.972 74.4307C125.114 74.359 125.325 74.2554 125.592 74.1438C125.859 74.0323 126.182 73.9008 126.548 73.7773C126.915 73.6538 127.324 73.5422 127.75 73.4187C128.48 73.2012 129.222 73.019 129.973 72.8729C130.257 72.8211 130.494 72.7892 130.657 72.7693L130.911 72.7494Z" fill="#FF9A6C"/>
<path d="M126.027 71.8967C125.913 71.9684 125.79 72.0285 125.661 72.076C125.429 72.1756 125.101 72.3031 124.739 72.4425C124.378 72.582 124.059 72.7135 123.826 72.8131C123.704 72.8722 123.577 72.9241 123.447 72.9684C123.555 72.8871 123.674 72.8189 123.801 72.7653C124.095 72.616 124.398 72.483 124.709 72.3668C125.071 72.2274 125.398 72.1079 125.635 72.0202C125.762 71.9686 125.893 71.9273 126.027 71.8967Z" fill="#FF9A6C"/>
<path d="M130.554 75.2234C130.508 75.2836 130.456 75.3396 130.399 75.3907C130.291 75.4903 130.132 75.6338 129.929 75.7891C129.525 76.1357 128.939 76.5859 128.301 77.076C128.146 77.1995 127.996 77.331 127.836 77.4425C127.688 77.5539 127.533 77.6564 127.371 77.7493C127.097 77.9112 126.798 78.0322 126.484 78.1079C126.272 78.1607 126.052 78.1782 125.833 78.1597C125.774 78.1572 125.715 78.1506 125.657 78.1397H125.597C125.675 78.1353 125.755 78.1353 125.833 78.1397C126.048 78.1444 126.261 78.1175 126.467 78.0601C126.772 77.9795 127.062 77.8573 127.328 77.6975C127.486 77.6032 127.639 77.5007 127.785 77.3907C127.94 77.2792 128.086 77.1517 128.245 77.0242C128.883 76.5222 129.477 76.0879 129.891 75.7573L130.373 75.3589C130.43 75.3098 130.49 75.2645 130.554 75.2234Z" fill="#FF9A6C"/>
<path d="M164.325 81.8012C164.325 81.8012 163.257 80.7414 162.357 80.5701C161.457 80.3988 160.203 80.5462 159.992 80.4027C159.781 80.2593 159.307 79.6936 158.881 80.0442C158.455 80.3948 157.766 81.7932 159.587 82.4784L160.879 82.6737C160.709 83.2372 160.449 83.7742 160.109 84.2673C159.712 84.6936 154.385 89.1797 154.385 89.1797C154.385 89.1797 153.743 89.61 153.928 90.1637C154.113 90.7175 155.349 90.602 155.349 90.602C155.556 90.833 155.822 91.0119 156.123 91.122C156.424 91.2321 156.751 91.2698 157.072 91.2315C157.569 91.1503 158.055 91.0166 158.519 90.8331C158.787 91.0952 159.141 91.2688 159.526 91.3271C159.911 91.3854 160.307 91.3252 160.651 91.1558C161.892 90.5542 167.181 86.1876 167.181 86.1876L165.85 81.849L164.325 81.8012Z" fill="#FFBF9D"/>
<path d="M165.561 80.9485L164.235 81.8051C165.88 83.3389 167.129 84.7015 166.789 86.5421L169.347 85.582C169.347 85.582 169.567 81.9007 165.561 80.9485Z" fill="#FFBF9D"/>
<path d="M159.368 88.1598C158.866 88.7428 158.255 89.2369 157.563 89.618C156.913 90.0539 156.183 90.379 155.41 90.5781C155.384 90.5184 156.353 90.112 157.442 89.4427C158.532 88.7733 159.32 88.116 159.368 88.1598Z" fill="#FF9A6C"/>
<path d="M161.224 89.108C160.884 89.5982 160.443 90.0214 159.926 90.353C159.408 90.6847 158.825 90.9182 158.209 91.0403C158.188 90.9805 158.963 90.7175 159.79 90.1797C160.617 89.6418 161.159 89.0761 161.224 89.108Z" fill="#FF9A6C"/>
<path d="M85.214 59.1397L86.8334 58.2433L88.9654 63.558L87.2383 64.5461L85.214 59.1397Z" fill="#F5F5F5"/>
<path d="M56.8481 24.8607C56.7558 22.8008 55.8293 20.8485 54.2526 19.3915C52.6759 17.9344 50.5643 17.0794 48.3374 16.9961H47.8809C42.9106 17.0718 40.2101 21.02 40.4298 25.6097L41.0586 44.0958L48.9103 46.8847L51.9467 44.303C51.9467 43.0082 51.9467 40.3189 51.9769 40.3189C52.007 40.3189 56.7706 39.8169 57.0247 35.4145C57.1496 33.2432 57.0161 28.8408 56.8481 24.8607Z" fill="#FFBF9D"/>
<path d="M51.977 40.2752C49.776 40.1881 47.6485 39.5173 45.8481 38.3429C45.8481 38.3429 47.1919 41.7134 51.9641 41.4983L51.977 40.2752Z" fill="#FF9A6C"/>
<path d="M55.2072 28.6615C55.2027 28.8261 55.1282 28.9823 55.0001 29.0964C54.8719 29.2105 54.7002 29.2733 54.5224 29.2711C54.4356 29.2749 54.3489 29.2623 54.2675 29.2342C54.1861 29.2061 54.1118 29.1629 54.049 29.1074C53.9861 29.0519 53.9361 28.9852 53.902 28.9113C53.8679 28.8374 53.8504 28.7578 53.8505 28.6775C53.855 28.5137 53.9288 28.358 54.056 28.2441C54.1833 28.1301 54.3538 28.0668 54.531 28.0679C54.6178 28.0647 54.7045 28.0777 54.7858 28.1059C54.8671 28.1342 54.9415 28.1773 55.0046 28.2327C55.0676 28.288 55.118 28.3545 55.1528 28.4281C55.1876 28.5018 55.2061 28.5812 55.2072 28.6615Z" fill="#263238"/>
<path d="M55.7498 26.769C55.6594 26.8487 55.1598 26.4742 54.4276 26.4503C53.6954 26.4263 53.1355 26.7411 53.0709 26.6534C53.0062 26.5658 53.1268 26.4702 53.368 26.3228C53.6926 26.1315 54.0734 26.0382 54.4577 26.0558C54.8389 26.0692 55.2056 26.1948 55.5043 26.4144C55.724 26.5817 55.7929 26.7331 55.7498 26.769Z" fill="#263238"/>
<path d="M48.8414 28.6615C48.8357 28.8257 48.761 28.9813 48.633 29.0952C48.5051 29.2091 48.3341 29.2722 48.1565 29.2711C48.0697 29.2743 47.9831 29.2614 47.9017 29.2331C47.8204 29.2048 47.746 29.1617 47.683 29.1064C47.6199 29.051 47.5695 28.9846 47.5347 28.9109C47.4999 28.8372 47.4814 28.7579 47.4803 28.6775C47.487 28.5137 47.5621 28.3586 47.6898 28.2449C47.8175 28.1313 47.9879 28.0678 48.1652 28.0679C48.252 28.0647 48.3386 28.0777 48.42 28.1059C48.5013 28.1342 48.5757 28.1773 48.6387 28.2327C48.7018 28.288 48.7522 28.3545 48.787 28.4281C48.8218 28.5018 48.8403 28.5812 48.8414 28.6615Z" fill="#263238"/>
<path d="M48.5658 26.6536C48.4797 26.7293 47.9801 26.3587 47.2479 26.3309C46.5157 26.303 45.9558 26.6257 45.8869 26.538C45.818 26.4504 45.9429 26.3548 46.1841 26.2074C46.5102 26.016 46.8923 25.9227 47.278 25.9404C47.6581 25.9559 48.0237 26.0797 48.3246 26.295C48.54 26.4663 48.6089 26.6177 48.5658 26.6536Z" fill="#263238"/>
<path d="M50.9605 31.9564C51.3508 31.8575 51.7532 31.8053 52.1578 31.801C52.3473 31.801 52.5239 31.7651 52.5627 31.6456C52.5847 31.4686 52.5487 31.2895 52.4593 31.1317C52.3043 30.7054 52.1363 30.2591 51.964 29.793C51.2792 27.8886 50.7925 26.3268 50.8787 26.299C50.9648 26.2711 51.5807 27.797 52.2655 29.7014C52.4292 30.1715 52.5885 30.6177 52.735 31.048C52.8457 31.26 52.8701 31.5019 52.8039 31.7293C52.7735 31.7891 52.7292 31.8419 52.6741 31.8839C52.619 31.926 52.5544 31.9561 52.4852 31.9723C52.3803 31.9921 52.2735 32.0015 52.1665 32.0002C51.764 32.0306 51.3591 32.0159 50.9605 31.9564Z" fill="#263238"/>
<path d="M48.8974 24.542C48.7897 24.7133 48.0876 24.5022 47.2262 24.4544C46.3648 24.4065 45.6326 24.4982 45.5551 24.3189C45.5207 24.2312 45.6714 24.0799 45.9858 23.9524C46.3962 23.7996 46.8388 23.7357 47.28 23.7654C47.7211 23.7951 48.1491 23.9176 48.5313 24.1237C48.8198 24.295 48.9447 24.4623 48.8974 24.542Z" fill="#263238"/>
<path d="M55.8704 24.7809C55.7154 24.9283 55.1253 24.757 54.4061 24.7291C53.6868 24.7013 53.0795 24.8009 52.946 24.6375C52.8857 24.5578 52.9847 24.4064 53.2561 24.267C53.6273 24.1002 54.0381 24.0234 54.4502 24.0436C54.8622 24.0638 55.262 24.1804 55.612 24.3825C55.8618 24.5658 55.9393 24.7052 55.8704 24.7809Z" fill="#263238"/>
<path d="M40.6753 28.8528C40.5935 28.8169 37.4408 27.8328 37.4106 30.8448C37.3805 33.8568 40.6581 33.2671 40.6667 33.1795C40.6753 33.0918 40.6753 28.8528 40.6753 28.8528Z" fill="#FFBF9D"/>
<path d="M39.702 32.032C39.702 32.032 39.646 32.0679 39.5512 32.1077C39.4831 32.1345 39.4099 32.1483 39.3359 32.1483C39.2619 32.1483 39.1886 32.1345 39.1205 32.1077C38.9108 31.983 38.7411 31.8085 38.629 31.6025C38.5169 31.3965 38.4665 31.1665 38.4831 30.9364C38.4769 30.6786 38.5328 30.4228 38.6467 30.1874C38.6792 30.0942 38.7352 30.0094 38.8101 29.9401C38.885 29.8708 38.9766 29.8191 39.0774 29.789C39.1426 29.7748 39.2111 29.7817 39.2714 29.8085C39.3318 29.8353 39.3803 29.8805 39.4091 29.9364C39.4522 30.0241 39.4091 30.0838 39.4478 30.0878C39.4866 30.0918 39.5168 30.036 39.4952 29.9125C39.477 29.837 39.4314 29.7695 39.366 29.7213C39.2777 29.6586 39.1665 29.6301 39.0559 29.6416C38.9212 29.6651 38.7953 29.7203 38.6904 29.802C38.5856 29.8837 38.5052 29.989 38.4572 30.1077C38.3153 30.3668 38.2443 30.6541 38.2505 30.9444C38.2505 31.554 38.5951 32.1396 39.0645 32.2552C39.152 32.2793 39.2442 32.2851 39.3344 32.272C39.4245 32.2589 39.5104 32.2272 39.5857 32.1795C39.6761 32.1038 39.702 32.04 39.702 32.032Z" fill="#FF9A6C"/>
<path d="M48.6605 32.3747C48.7725 32.3747 48.7768 33.06 49.4229 33.5699C50.0689 34.0799 50.8614 33.9683 50.8657 34.0759C50.87 34.1835 50.6891 34.2114 50.3532 34.2193C49.9128 34.2231 49.4854 34.0818 49.1472 33.8209C48.8197 33.5763 48.6081 33.2234 48.5571 32.8369C48.527 32.5341 48.6088 32.3707 48.6605 32.3747Z" fill="#263238"/>
<path d="M63.4292 20.8925C63.3714 20.7214 63.2429 20.5782 63.0717 20.4941C62.6932 20.329 62.2739 20.2602 61.8571 20.2949C60.8181 20.2676 59.7998 20.0195 58.881 19.5698C59.2049 19.4275 59.5028 19.2393 59.7639 19.0121C60.0451 18.779 60.2511 18.4784 60.3591 18.1437C60.467 17.809 60.4727 17.4532 60.3755 17.1156C60.3626 17.052 60.333 16.9923 60.2895 16.9416C60.246 16.891 60.1898 16.8509 60.1257 16.8248C59.9147 16.7611 59.7252 16.9523 59.5744 17.1037C59.3834 17.3377 59.1279 17.5199 58.8347 17.6313C58.5415 17.7427 58.2213 17.7793 57.9076 17.7372C57.4734 17.7062 57.0523 17.585 56.6758 17.3826C56.6593 17.3699 56.6448 17.3552 56.6327 17.3387L56.1417 16.8686C54.9272 15.7292 53.8806 14.9403 52.7995 14.522C51.2145 13.9124 48.5571 13.6455 46.8903 14.032C45.2235 14.4184 43.7203 15.6256 43.4705 17.2192C42.5488 16.4782 41.1491 16.4702 40.0249 16.8806H39.9948C38.7285 17.279 37.9963 18.5101 37.6087 19.6973C37.6087 19.7611 37.5699 19.8288 37.5484 19.8925C37.1141 20.5191 36.5232 21.0397 35.8256 21.4105C35.705 21.4742 35.5629 21.5539 35.5457 21.6854C35.5518 21.7494 35.5746 21.8111 35.6121 21.8652C35.6496 21.9193 35.7007 21.9643 35.761 21.9961C36.0644 22.1958 36.4113 22.3318 36.7775 22.3945C36.6584 22.6709 36.5143 22.9374 36.3468 23.1914C36.2046 23.4145 36.0323 23.6814 36.1529 23.9125C36.2036 24 36.2817 24.0713 36.3771 24.1168C36.4725 24.1623 36.5805 24.18 36.687 24.1675C36.8995 24.1264 37.1004 24.045 37.2771 23.9284L36.8464 24.8607C37.3042 24.9351 37.7744 24.9105 38.2203 24.789C38.4744 25.9045 38.651 27.9762 38.9525 28.7292C39.8139 28.7531 40.0292 28.6695 40.4643 28.8049C41.0285 28.9842 40.8002 29.9085 41.5367 29.6535C41.9114 29.5221 42.5058 28.2193 42.635 27.8647C43.4959 25.5248 43.8043 23.0413 43.5395 20.5818C44.0725 20.0782 44.7038 19.6727 45.4001 19.3866L45.3441 19.4344C46.6836 19.036 48.1953 18.6137 49.453 19.2033C50.4307 19.6655 50.9949 20.6137 51.7184 21.3706C52.3284 22.0634 53.0902 22.6286 53.9537 23.0289C54.8171 23.4293 55.7625 23.6558 56.7275 23.6934C56.8998 25.024 56.9256 27.2033 56.9816 28.4464L58.1617 25.9723C58.2565 25.8248 58.334 25.6774 58.4115 25.534L58.4374 25.4902C58.5522 25.2506 58.6801 25.0165 58.8207 24.789C58.9787 24.8889 59.1682 24.9372 59.3592 24.9264C59.5502 24.9156 59.732 24.8463 59.8756 24.7293C60.0193 24.6124 60.1168 24.4545 60.1528 24.2807C60.1887 24.1068 60.161 23.9268 60.074 23.7691C59.9635 23.618 59.8284 23.4836 59.6735 23.3706C59.8359 23.5204 60.0376 23.6286 60.2589 23.6845C60.4801 23.7404 60.7133 23.742 60.9354 23.6894C61.1526 23.6269 61.3417 23.5004 61.4739 23.3292C61.6061 23.158 61.6741 22.9515 61.6676 22.7412C61.6525 22.598 61.5967 22.461 61.5059 22.3442C61.4152 22.2274 61.2927 22.1348 61.1508 22.0758C61.7474 22.1277 62.3472 22.014 62.8736 21.7491C63.2052 21.5738 63.5412 21.287 63.4292 20.8925Z" fill="#263238"/>
<path d="M44.9651 17.7411C44.793 17.8618 44.6317 17.995 44.4827 18.1396C44.1007 18.5575 43.8425 19.0599 43.7333 19.5977C43.645 19.9654 43.5988 20.3406 43.5954 20.7173C43.5954 21.1157 43.6213 21.5619 43.6471 22.0201C43.6797 22.5017 43.6797 22.9847 43.6471 23.4663C43.6295 23.7236 43.5907 23.9794 43.5308 24.2312C43.4848 24.4998 43.3663 24.7533 43.1863 24.9683C43.1022 25.0534 42.9957 25.1169 42.8772 25.1526C42.7587 25.1882 42.6321 25.1947 42.5101 25.1715C42.2769 25.1265 42.0655 25.0133 41.9071 24.8487C41.6596 24.5141 41.5111 24.1254 41.4764 23.7213H41.5798C41.4315 24.0521 41.2312 24.3609 40.9854 24.6376C40.75 24.8968 40.4148 25.0612 40.0508 25.0958C39.882 25.109 39.7124 25.0801 39.5598 25.0121C39.4214 24.9406 39.3079 24.8342 39.2324 24.7053C39.1599 24.5837 39.1256 24.4457 39.1334 24.3069C39.1417 24.179 39.1981 24.0578 39.2927 23.9643L39.3401 24.0081C39.0532 24.3069 38.7008 24.546 38.3064 24.7093C38.1729 24.7651 38.0609 24.797 37.9877 24.8209C37.9511 24.8315 37.9137 24.8395 37.8757 24.8448L37.9834 24.8009C38.0523 24.777 38.16 24.7372 38.2935 24.6774C38.6744 24.5051 39.0141 24.2639 39.2927 23.9683L39.3401 24.0081C39.2597 24.1 39.2127 24.213 39.2057 24.331C39.1988 24.449 39.2322 24.5661 39.3013 24.6655C39.3707 24.78 39.4737 24.8739 39.5985 24.9364C39.733 24.9942 39.8814 25.0189 40.0292 25.0081C40.3655 24.9697 40.6735 24.8145 40.8906 24.5738C41.1271 24.3013 41.3187 23.9979 41.4592 23.6734L41.5324 23.534L41.5625 23.6854C41.6001 24.0742 41.7488 24.4468 41.9932 24.7651C42.1342 24.9123 42.3232 25.013 42.5316 25.0519C42.6356 25.0726 42.7436 25.0677 42.8449 25.0376C42.9462 25.0076 43.0372 24.9534 43.1087 24.8806C43.2767 24.6798 43.3865 24.4425 43.4275 24.1914C43.4852 23.9459 43.524 23.6969 43.5437 23.4464C43.5762 22.9674 43.5762 22.487 43.5437 22.0081C43.5179 21.5499 43.4921 21.1117 43.505 20.7013C43.5124 20.319 43.5629 19.9385 43.6557 19.5659C43.7743 19.0258 44.0447 18.5243 44.4396 18.1117C44.5896 17.9603 44.7676 17.8349 44.9651 17.7411Z" fill="#455A64"/>
<path d="M59.6779 22.1754L59.6391 22.2033L59.5185 22.283C59.4535 22.3263 59.386 22.3662 59.3161 22.4025C59.2211 22.4524 59.1234 22.4977 59.0232 22.538C58.3809 22.801 57.6774 22.9106 56.9774 22.8567C55.9353 22.7841 54.9387 22.4324 54.1089 21.8448C53.107 21.1195 52.276 20.2125 51.6669 19.1794C51.3266 18.6416 51.0467 18.0917 50.7452 17.5858C50.4655 17.0908 50.1117 16.6348 49.6943 16.2312C49.3189 15.8635 48.8493 15.5894 48.3289 15.4344C48.0939 15.372 47.8498 15.3438 47.6054 15.3507C47.3784 15.3602 47.1539 15.3977 46.9378 15.4623C46.5664 15.5768 46.2247 15.7613 45.9342 16.0041C45.7167 16.1891 45.5334 16.4058 45.3916 16.6455C45.2756 16.8546 45.1902 17.077 45.1375 17.3069C45.1375 17.3069 45.1375 17.3069 45.1375 17.2591C45.1375 17.2113 45.1374 17.1794 45.159 17.1236C45.2005 16.9512 45.2641 16.784 45.3485 16.6256C45.4875 16.3783 45.6711 16.1546 45.8912 15.9643C46.1846 15.7123 46.5326 15.5208 46.9119 15.4025C47.135 15.3349 47.3667 15.2947 47.6011 15.283C47.8555 15.2741 48.1098 15.3023 48.3548 15.3666C48.8901 15.5191 49.3758 15.7931 49.7675 16.1635C50.1933 16.5725 50.5544 17.0352 50.8399 17.538C51.15 18.0479 51.4257 18.5977 51.7616 19.1316C52.3663 20.1526 53.1847 21.0519 54.1692 21.777C54.9823 22.3577 55.9584 22.7103 56.9817 22.793C57.6712 22.8505 58.3656 22.7535 59.006 22.5101C59.2365 22.4101 59.4608 22.2983 59.6779 22.1754Z" fill="#455A64"/>
<path d="M60.1345 20.2551C60.1345 20.2551 60.0785 20.2989 59.9622 20.3626C59.7996 20.4531 59.6297 20.5317 59.454 20.5977C59.193 20.6965 58.9236 20.7751 58.6485 20.8328C58.3095 20.8979 57.9652 20.9365 57.6192 20.9483C57.2729 20.9508 56.927 20.9254 56.5855 20.8726C56.3083 20.8251 56.0359 20.7557 55.7715 20.6654C55.5937 20.6071 55.4209 20.5365 55.2546 20.4543C55.1893 20.4279 55.1284 20.393 55.0737 20.3507C55.0737 20.3507 55.3451 20.4622 55.7973 20.5977C56.062 20.676 56.3327 20.7359 56.607 20.777C56.9418 20.8252 57.2804 20.8479 57.6192 20.8447C57.9578 20.8353 58.295 20.7993 58.627 20.7371C58.8977 20.686 59.164 20.6168 59.4238 20.53C59.8674 20.3746 60.1258 20.2391 60.1345 20.2551Z" fill="#455A64"/>
<path d="M54.9488 158.431L55.0177 166.977C55.0177 166.977 64.4285 169.766 64.6094 171.359L46.7009 172.076L46.0032 158.766L54.9488 158.431Z" fill="#263238"/>
<path d="M49.4444 166.491C49.274 166.547 49.132 166.659 49.0454 166.806C48.9588 166.953 48.9337 167.125 48.9749 167.288C49.0289 167.45 49.1489 167.586 49.3097 167.668C49.4705 167.75 49.6593 167.771 49.8363 167.726C50.0163 167.667 50.1664 167.548 50.2578 167.393C50.3493 167.238 50.3755 167.057 50.3316 166.885C50.2581 166.724 50.1194 166.595 49.9448 166.526C49.7703 166.458 49.5737 166.455 49.397 166.519" fill="#E0E0E0"/>
<path d="M46.7008 172.088V170.746L63.8771 170.559C63.8771 170.559 64.6869 170.849 64.6222 171.355L46.7008 172.088Z" fill="#455A64"/>
<path d="M55.3019 166.893C55.3019 166.973 54.8712 167.029 54.4405 167.292C54.0098 167.555 53.8117 167.917 53.7299 167.889C53.648 167.861 53.7557 167.387 54.2682 167.06C54.7808 166.734 55.3191 166.817 55.3019 166.893Z" fill="white"/>
<path d="M57.2142 167.535C57.24 167.614 56.8653 167.766 56.5853 168.12C56.3054 168.475 56.2365 168.837 56.1546 168.837C56.0728 168.837 55.991 168.383 56.3528 167.949C56.7146 167.515 57.2099 167.459 57.2142 167.535Z" fill="white"/>
<path d="M58.3771 169.586C58.2996 169.606 58.1617 169.208 58.3771 168.758C58.5924 168.307 58.9801 168.112 59.0231 168.176C59.0662 168.24 58.8207 168.491 58.657 168.865C58.4934 169.24 58.4675 169.558 58.3771 169.586Z" fill="white"/>
<path d="M55.0521 164.945C55.022 165.021 54.6214 164.925 54.1218 164.977C53.6222 165.029 53.2604 165.188 53.2001 165.12C53.1398 165.053 53.5102 164.75 54.0917 164.694C54.6731 164.638 55.0952 164.881 55.0521 164.945Z" fill="white"/>
<path d="M34.1847 160.26L33.2113 170.563L34.9858 178.929C35.0159 179.072 35.014 179.219 34.9803 179.36C34.9465 179.502 34.8816 179.636 34.7895 179.754C34.6974 179.872 34.5801 179.971 34.4449 180.045C34.3098 180.119 34.1596 180.166 34.0038 180.184C33.8224 180.206 33.6382 180.186 33.4665 180.128C33.2949 180.07 33.1409 179.974 33.0175 179.849C31.4239 178.256 25.5793 172.28 25.6956 171.535C25.8291 170.666 25.9367 160.61 25.9367 160.61L34.1847 160.26Z" fill="#263238"/>
<path d="M34.0038 180.168L25.7429 170.825L25.7128 171.26C25.6857 171.637 25.8048 172.012 26.0487 172.315C26.7034 173.112 28.564 175.335 32.9873 179.833C33.1135 179.963 33.2725 180.061 33.4499 180.119C33.6273 180.178 33.8176 180.195 34.0038 180.168Z" fill="#455A64"/>
<g opacity="0.6">
<path d="M28.2626 167.63C28.3935 167.732 28.479 167.875 28.5029 168.032C28.5267 168.188 28.4872 168.348 28.3918 168.479C28.2876 168.603 28.1355 168.686 27.9671 168.71C27.7988 168.734 27.627 168.697 27.4873 168.606C27.3495 168.498 27.2596 168.347 27.235 168.182C27.2104 168.016 27.2527 167.848 27.3538 167.71C27.4766 167.59 27.6453 167.519 27.824 167.512C28.0027 167.505 28.1771 167.563 28.31 167.674" fill="white"/>
</g>
<path d="M31.7685 175.507C32.0613 175.2 32.4152 174.949 32.8108 174.766C33.2269 174.639 33.6657 174.587 34.1029 174.614C34.1029 174.586 33.978 174.499 33.7196 174.451C33.3785 174.393 33.0266 174.429 32.7074 174.555C32.383 174.679 32.1069 174.892 31.9149 175.164C31.7685 175.347 31.7383 175.499 31.7685 175.507Z" fill="white"/>
<path d="M32.4662 176.937C32.7977 176.786 33.1386 176.653 33.4869 176.539C33.8515 176.499 34.2181 176.478 34.5852 176.475C34.4204 176.365 34.2295 176.294 34.0286 176.267C33.8277 176.24 33.6227 176.258 33.4309 176.32C32.759 176.471 32.4102 176.905 32.4662 176.937Z" fill="white"/>
<path d="M30.4117 173.65C30.9046 173.384 31.4186 173.152 31.9493 172.957C32.5015 172.832 33.063 172.745 33.6291 172.698C33.0517 172.558 32.4432 172.573 31.8749 172.742C31.3066 172.911 30.8021 173.226 30.4204 173.65H30.4117Z" fill="white"/>
<path d="M30.4247 170.495C30.4505 170.558 31.0837 170.359 31.8848 170.379C32.6859 170.399 33.3104 170.614 33.3405 170.554C32.9237 170.266 32.4088 170.124 31.8891 170.156C31.3732 170.108 30.8553 170.228 30.4247 170.495Z" fill="white"/>
<path d="M30.6271 167.467C31.1218 167.348 31.6322 167.294 32.1432 167.308C32.6474 167.389 33.1373 167.533 33.599 167.738C33.599 167.718 33.5042 167.578 33.2587 167.427C32.9299 167.234 32.5566 167.115 32.169 167.08C31.7817 167.043 31.3902 167.092 31.0277 167.224C30.752 167.327 30.6099 167.443 30.6271 167.467Z" fill="white"/>
<path d="M32.1648 166.73C32.2087 166.601 32.2234 166.466 32.2078 166.331C32.1948 165.971 32.104 165.616 31.9408 165.288C31.8456 165.038 31.6639 164.825 31.424 164.682C31.3399 164.641 31.2444 164.626 31.1503 164.637C31.0563 164.648 30.9684 164.686 30.8985 164.746C30.7728 164.869 30.6994 165.03 30.6918 165.2C30.6924 165.548 30.8244 165.885 31.065 166.153C31.3056 166.42 31.6398 166.602 32.0097 166.666C32.3767 166.724 32.754 166.679 33.0932 166.537C33.4323 166.395 33.7179 166.162 33.9134 165.869C33.9633 165.796 33.9952 165.713 34.0071 165.627C34.019 165.541 34.0106 165.454 33.9823 165.371C33.9434 165.291 33.8785 165.225 33.7967 165.18C33.7149 165.136 33.6202 165.117 33.5258 165.124C33.2468 165.162 32.9837 165.268 32.7634 165.431C32.4446 165.635 32.1687 165.892 31.9494 166.188C31.8587 166.29 31.7913 166.408 31.7513 166.535C32.0699 166.165 32.4441 165.839 32.8625 165.566C33.0597 165.433 33.2886 165.346 33.5301 165.312C33.5821 165.305 33.6348 165.315 33.68 165.34C33.7252 165.364 33.7603 165.402 33.7799 165.447C33.7945 165.502 33.7963 165.559 33.7852 165.615C33.774 165.67 33.7502 165.723 33.7153 165.77C33.5381 166.017 33.2874 166.213 32.9933 166.332C32.6993 166.452 32.3742 166.49 32.0571 166.443C31.7448 166.388 31.4618 166.237 31.2545 166.014C31.0471 165.791 30.9277 165.51 30.9157 165.216C30.9187 165.096 30.9658 164.981 31.0493 164.889C31.0869 164.856 31.1353 164.834 31.1872 164.827C31.2391 164.821 31.2919 164.83 31.3378 164.853C31.5335 164.978 31.6837 165.154 31.7685 165.359C31.9871 165.791 32.1213 166.255 32.1648 166.73Z" fill="white"/>
<path d="M64.4199 87.598C65.281 91.138 65.5713 94.7763 65.2813 98.3949C65.0875 100.69 56.719 164.168 56.719 164.168H45.4217L48.596 104.506L47.6743 104.694C47.6743 104.694 41.5024 130.144 40.9941 134.26C40.5634 137.961 35.0074 167.068 35.0074 167.068L24.3433 166.961L28.31 129.391L32.1519 95.2474L33.5947 85.2872L64.4199 87.598Z" fill="#263238"/>
<path d="M85.227 58.2432L74.2485 63.2671L68.0378 48.3029C67.4724 47.0222 66.5786 45.888 65.4336 44.9982C64.2885 44.1083 62.9266 43.4896 61.4653 43.1953C61.0905 43.123 60.7105 43.0764 60.3282 43.0559L64.7688 66.9604C65.641 68.9162 66.8004 70.7516 68.2144 72.4146C69.1404 73.4465 70.9838 74.5301 75.0625 73.3469L88.1816 65.2233L85.227 58.2432Z" fill="#263238"/>
<path d="M40.4987 40.1437L45.9342 44.323L48.7079 46.315L50.112 46.1317L50.8872 44.1716L51.9338 40.3508L53.3982 42.1397L57.3607 49.9206L61.8098 87.5582C61.8098 87.5582 54.0572 89.6618 50.0344 89.9128C46.0117 90.1638 39.6158 89.1518 39.6158 89.1518V69.347L37.3374 49.7334L40.0896 42.2194L40.4987 40.1437Z" fill="#F5F5F5"/>
<path d="M51.9855 89.6617C51.9801 89.6274 51.9801 89.5925 51.9855 89.5581C51.9855 89.4784 51.9855 89.3788 51.9855 89.2474C51.9855 88.9645 51.9596 88.5661 51.9381 88.0521C51.8993 87.0043 51.8477 85.5103 51.7787 83.6697C51.6409 79.9645 51.4213 74.8489 51.1069 69.2035C50.7924 63.558 50.435 58.4464 50.1593 54.7492L49.832 50.3667C49.7932 49.8568 49.7631 49.4584 49.7458 49.1715C49.7458 49.04 49.7458 48.9404 49.7458 48.8607C49.7458 48.7811 49.7458 48.7572 49.7458 48.7532C49.7505 48.7889 49.7505 48.825 49.7458 48.8607C49.7458 48.9364 49.7458 49.04 49.7846 49.1675C49.8105 49.4504 49.8492 49.8488 49.9009 50.3627C50 51.3946 50.1335 52.8886 50.2842 54.7452C50.59 58.4385 50.9604 63.5461 51.2748 69.1955C51.5892 74.8449 51.7917 79.9525 51.8994 83.6657C51.9553 85.5183 51.9941 87.0163 52.007 88.0482C52.007 88.5621 52.007 88.9605 52.007 89.2434V89.5541C51.9898 89.6259 51.9855 89.6617 51.9855 89.6617Z" fill="#263238"/>
<path d="M37.8069 44.0082L38.1945 43.8169L30.4419 47.5739L33.3707 66.1238L34.9987 75.6856L28.9344 98.363C28.9344 98.363 33.4913 101.116 35.774 100.574C36.9929 100.283 38.0351 98.0164 38.8406 96.2315C40.4526 92.6712 41.4985 88.9137 41.9459 85.0761C42.3766 81.2155 42.8073 76.3111 42.5101 72.9565C41.9416 66.7134 41.05 56.4146 40.9682 53.7054C40.8864 50.9962 40.1973 41.0161 40.1973 41.0161L37.8069 44.0082Z" fill="#263238"/>
<path d="M52.1147 40.1715L56.6199 42.4305L60.5737 43.056L65.9058 53.8528L64.8893 73.3748L70.2128 97.4745C70.2128 97.4745 66.3106 98.7534 64.7644 98.2275C63.2182 97.7016 61.1078 94.4666 61.0259 92.5104C60.9441 90.5542 57.9378 71.6059 57.9378 71.6059L55.3794 49.3309C55.1375 47.2071 54.4962 45.1388 53.4844 43.2193L52.1147 40.1715Z" fill="#263238"/>
<path d="M56.6199 43.0559C56.6712 43.103 56.7187 43.1536 56.762 43.2073L57.1669 43.6615L58.6571 45.3906L58.6872 45.4264L58.6485 45.4543L57.3822 46.3428V46.2472L58.8681 46.6814H58.9112V46.7292C58.8854 49.1715 58.8509 52.2512 58.8121 55.5898C58.7475 59.6655 58.6872 63.3508 58.6442 66.0361C58.6183 67.3628 58.5925 68.4265 58.5753 69.1994C58.5753 69.562 58.5753 69.8528 58.5494 70.06C58.5494 70.1516 58.5494 70.2234 58.5494 70.2831C58.5494 70.3429 58.5494 70.3588 58.5494 70.3588C58.5494 70.3588 58.5494 70.3349 58.5494 70.2831C58.5494 70.2313 58.5494 70.1516 58.5494 70.06C58.5494 69.8489 58.5494 69.562 58.5494 69.1994C58.5494 68.4385 58.5494 67.3588 58.5494 66.0321C58.5796 63.3508 58.6183 59.6576 58.6657 55.5858C58.7174 52.2512 58.7648 49.1715 58.7992 46.7252L58.8466 46.785L57.3693 46.3388L57.2573 46.3069L57.3521 46.2432L58.6442 45.3667V45.4344L57.1884 43.6814L56.8051 43.2113C56.7392 43.1639 56.6773 43.1119 56.6199 43.0559Z" fill="#455A64"/>
<path d="M42.1613 69.072C42.1473 69.0497 42.1371 69.0255 42.1312 69.0003L42.0536 68.7812L41.7564 67.9366C41.498 67.2075 41.1104 66.1517 40.6151 64.8529L39.7968 62.7334C39.4734 61.9239 39.1959 61.0994 38.9655 60.2632C38.4654 58.3448 38.0757 56.4031 37.7983 54.4465C37.3978 51.7373 37.135 49.1795 36.98 46.9843V46.9524L37.0058 46.9285L38.2979 45.7891V45.8847L37.0833 45.0321L37.0403 44.9962L37.0747 44.9524L39.2627 42.2074L39.8614 41.4663L40.025 41.2791C40.0421 41.2566 40.0608 41.2353 40.081 41.2153C40.081 41.2153 40.081 41.2432 40.038 41.287L39.8915 41.4863L39.3144 42.2472L37.1609 45.0361V44.9564L38.3798 45.801L38.4444 45.8448L38.3884 45.8926L37.0963 47.044L37.1178 46.9883C37.2901 49.1835 37.5485 51.7373 37.9792 54.4425C38.2536 56.3969 38.636 58.337 39.1249 60.2553C39.3718 61.1344 39.6431 61.9551 39.9389 62.7174L40.74 64.8449C41.2224 66.1477 41.6014 67.2075 41.8297 67.9445C41.9503 68.3151 42.0407 68.6019 42.0967 68.7971C42.1225 68.8888 42.1441 68.9645 42.157 69.0202C42.1699 69.076 42.1613 69.072 42.1613 69.072Z" fill="#455A64"/>
<path d="M62.094 82.6697L63.0631 85.4546L68.5502 84.9885L66.8403 82.3231L62.094 82.6697Z" fill="#263238"/>
<path d="M62.0984 82.6696C62.0984 82.6696 62.2061 82.6696 62.4257 82.6298L63.3862 82.5421C64.2174 82.4704 65.4148 82.3668 66.8318 82.2552H66.8749L66.9007 82.2951L68.6235 84.9525L68.6881 85.0561H68.5589L68.2746 85.08L63.0718 85.5222H63.0201V85.4784C62.7229 84.6059 62.4946 83.8847 62.3396 83.4146C62.2707 83.1875 62.2104 83.0162 62.163 82.8608C62.1413 82.7995 62.1241 82.737 62.1113 82.6736C62.145 82.7394 62.1738 82.8073 62.1974 82.8768L62.4085 83.4385C62.5937 83.9365 62.8392 84.6337 63.145 85.4306L63.0761 85.3867L68.2789 84.9246L68.5589 84.9007L68.4943 85.0162L66.793 82.3509L66.8619 82.3867C65.4751 82.4823 64.2777 82.5501 63.4594 82.5979L62.4774 82.6497C62.2319 82.6696 62.0984 82.6736 62.0984 82.6696Z" fill="#455A64"/>
<g opacity="0.3">
<path d="M58.8294 46.7373L59.7339 47.8927C59.7339 47.8927 59.4797 65.3987 58.5193 69.7454L58.8294 46.7373Z" fill="black"/>
</g>
<path d="M40.4988 43.813C40.5936 43.9501 40.7081 44.0748 40.839 44.1835C41.0716 44.4106 41.4119 44.7333 41.8383 45.1317C42.6997 45.9285 43.8755 47.0003 45.202 48.1795L46.0634 48.9764L46.2099 49.1078L46.2788 48.9325C46.7095 47.825 47.1402 46.821 47.4503 45.9923L47.2909 46.0242L48.4107 46.9564C48.5397 47.0774 48.6844 47.1831 48.8414 47.2712C48.7389 47.1241 48.6158 46.9901 48.4753 46.8728C48.2298 46.6377 47.8681 46.2991 47.4158 45.8847L47.3125 45.7891L47.2565 45.9166C46.9119 46.7413 46.4898 47.7373 46.0247 48.8369L46.24 48.7931L45.3786 47.9963C44.0521 46.801 42.8418 45.7572 41.9545 45.0002C41.5238 44.6018 41.1534 44.315 40.8993 44.1118C40.7803 43.9966 40.6457 43.8962 40.4988 43.813Z" fill="#263238"/>
<path d="M50.6589 46.9006C50.9734 46.3909 51.2413 45.8579 51.46 45.307L51.2834 45.3349C51.9267 46.1105 52.4567 46.9611 52.8598 47.8648C52.933 48.0201 52.9933 48.1755 53.0536 48.3229L53.2001 48.6895L53.3121 48.315C53.5989 47.3389 53.7565 46.3342 53.7815 45.3229C53.8143 44.9122 53.7853 44.4992 53.6954 44.0958C53.6407 44.5004 53.6091 44.9073 53.6006 45.315C53.5214 46.3068 53.3368 47.2889 53.0493 48.2472H53.3077C53.2474 48.0958 53.1828 47.9365 53.1096 47.7771C52.6984 46.8517 52.1379 45.9893 51.4471 45.2193L51.3308 45.0918L51.2662 45.2432C51.0159 45.7797 50.8128 46.3339 50.6589 46.9006Z" fill="#263238"/>
<path d="M51.6367 47.9125L50.5643 49.3747H48.9534L48.092 47.9125L48.9147 46.3069L50.3188 46.1237L51.6367 47.9125Z" fill="#F57C00"/>
<path d="M50.6245 48.6296L55.4828 82.5621L51.3308 87.7693L47.1746 82.2473L49.0136 48.6296H50.6245Z" fill="#F57C00"/>
<path d="M60.0827 85.5223C60.0766 85.7729 60.0939 86.0235 60.1344 86.2713C60.199 86.7972 60.2809 87.4666 60.3799 88.2992C60.479 89.1319 60.6297 90.1877 60.7805 91.3072C60.9701 92.5398 61.2977 93.7509 61.7582 94.9208C62.2621 96.1439 62.9168 97.3471 64.0323 97.9845C64.559 98.2543 65.153 98.3917 65.7551 98.383C66.269 98.3865 66.7823 98.3465 67.2884 98.2634C68.0188 98.1516 68.7387 97.9878 69.4419 97.7734C69.7046 97.7077 69.9588 97.6155 70.1999 97.4985C69.9334 97.5447 69.6702 97.6059 69.4117 97.6818C68.7028 97.8528 67.9837 97.9858 67.2582 98.0802C66.7623 98.1495 66.2608 98.1788 65.7594 98.1678C65.195 98.1749 64.6383 98.0459 64.1442 97.7933C63.1321 97.2076 62.4817 96.0403 61.9907 94.8371C60.9872 92.3869 60.8537 89.9805 60.5479 88.2833C60.4144 87.4626 60.3024 86.7853 60.2163 86.2634C60.1938 86.0134 60.1492 85.7655 60.0827 85.5223Z" fill="#455A64"/>
<path d="M42.2345 86.5183C42.2331 86.594 42.22 86.6691 42.1957 86.7414L42.0277 87.3789C41.8813 87.9287 41.6487 88.7215 41.3472 89.6976C40.5792 92.2443 39.6487 94.7468 38.5606 97.1917C38.2414 97.8898 37.8745 98.5685 37.4623 99.2236C37.2647 99.5389 37.0354 99.8364 36.7775 100.112L36.575 100.303C36.4975 100.363 36.4157 100.415 36.3382 100.471C36.2528 100.522 36.1618 100.564 36.0668 100.598C35.9764 100.626 35.8816 100.634 35.7912 100.654C35.0956 100.749 34.386 100.704 33.7109 100.522C33.1217 100.38 32.5456 100.195 31.9881 99.9686C31.1931 99.6479 30.4231 99.2765 29.6838 98.857C29.4211 98.7096 29.2187 98.5861 29.0895 98.5024C29.0177 98.4633 28.9512 98.4165 28.8914 98.363C28.969 98.3888 29.0428 98.4236 29.111 98.4666L29.7269 98.7853C30.479 99.1756 31.254 99.5267 32.0484 99.8371C32.5969 100.047 33.1612 100.22 33.7367 100.355C34.384 100.522 35.0622 100.56 35.7266 100.467C36.0721 100.414 36.3814 100.238 36.588 99.9765C36.8357 99.709 37.0563 99.4209 37.2469 99.116C37.6505 98.4734 38.0101 97.8081 38.3237 97.1239C39.4078 94.6856 40.3566 92.1976 41.1663 89.6697C41.4764 88.7215 41.7305 87.9446 41.9157 87.3709C41.999 87.1212 42.0679 86.9141 42.1225 86.7494C42.1505 86.6688 42.188 86.5913 42.2345 86.5183Z" fill="#455A64"/>
<path d="M33.7152 46.0798C33.7152 46.0798 27.0523 47.4623 26.2038 52.7611C25.2261 58.8608 24.369 72.821 24.369 72.821L35.7912 58.6735" fill="#263238"/>
<path d="M31.5919 47.295C31.5919 47.295 31.8848 47.5381 32.3241 47.9564C33.473 49.052 34.2694 50.4219 34.624 51.9126C34.7576 52.4823 34.7877 52.8449 34.8136 52.8449C34.8288 52.7591 34.8288 52.6716 34.8136 52.5859C34.8011 52.3531 34.7709 52.1215 34.7231 51.8927C34.4207 50.3655 33.6071 48.9648 32.3973 47.8887C32.216 47.7257 32.0232 47.5739 31.8202 47.4345C31.751 47.379 31.6743 47.3321 31.5919 47.295Z" fill="#263238"/>
<path d="M65.6904 50.3947C65.6172 50.3947 65.3846 55.323 65.1778 61.4067C64.9711 67.4903 64.8591 72.4226 64.9367 72.4226C65.0142 72.4226 65.2381 67.4983 65.4492 61.4146C65.6602 55.3309 65.7636 50.3986 65.6904 50.3947Z" fill="#455A64"/>
<path d="M30.4548 47.574C30.4548 47.574 27.3538 49.5102 27.0092 51.076C26.7163 52.3429 24.2657 71.3948 23.9512 73.7613C23.6368 76.1279 22.4179 81.0602 25.5448 83.0243C27.6467 84.3431 34.2881 85.6658 34.2881 85.6658C33.6334 82.8331 34.9729 80.7614 38.2419 79.1916L33.8014 75.3151L35.7912 58.6736L30.4548 47.574Z" fill="#263238"/>
<path d="M35.0117 75.6776C34.9342 75.6776 33.8488 70.4982 32.5869 64.0879C31.3249 57.6775 30.3601 52.4543 30.4334 52.4543C30.5066 52.4543 31.5962 57.6336 32.8625 64.044C34.1288 70.4544 35.0849 75.6616 35.0117 75.6776Z" fill="#455A64"/>
<path d="M34.1545 71.861C34.1765 72.1905 34.1665 72.5212 34.1244 72.849C34.0813 73.4665 34.0038 74.3311 33.909 75.3271L33.8789 75.2434L34.7403 75.9845C35.7266 76.849 36.6095 77.6419 37.2426 78.2235C37.6005 78.5211 37.9317 78.8448 38.2333 79.1917C37.8433 78.9304 37.4761 78.6414 37.135 78.3271C36.4717 77.7773 35.5715 77.0004 34.5852 76.1359L33.7238 75.3909L33.6851 75.355V75.3072C33.7927 74.3152 33.8918 73.4506 33.9736 72.8371C34.0012 72.5072 34.0618 72.1805 34.1545 71.861Z" fill="#455A64"/>
<path d="M29.3651 77.7733C29.8201 77.0734 30.4802 76.507 31.2688 76.1398C32.0201 75.7113 32.8887 75.4915 33.7712 75.5063C32.9435 75.6892 32.1404 75.9564 31.3765 76.3031C30.6502 76.7241 29.9758 77.217 29.3651 77.7733Z" fill="#455A64"/>
<path d="M44.4612 61.4266C44.4376 61.7935 44.3359 62.1524 44.1619 62.4827C43.9879 62.8131 43.745 63.1084 43.4472 63.3516C43.1494 63.5948 42.8026 63.7812 42.4267 63.9001C42.0508 64.019 41.6532 64.0679 41.2568 64.0442C40.8421 64.0244 40.4365 63.9249 40.0657 63.752C39.6949 63.5791 39.3672 63.3367 39.1033 63.0402C38.272 62.092 36.7689 60.7374 34.8996 60.6497C32.0053 60.4824 29.8389 62.5103 29.6322 65.5462C29.4254 68.582 31.3076 70.841 34.2062 71.0084C36.0755 71.1159 37.7466 69.9446 38.6984 69.1C38.9973 68.8374 39.3518 68.6349 39.7395 68.5053C40.1272 68.3757 40.5397 68.3218 40.951 68.347C41.3475 68.3688 41.7355 68.4629 42.0927 68.6238C42.4498 68.7848 42.769 69.0095 43.032 69.2849C43.2949 69.5604 43.4964 69.8812 43.6249 70.2289C43.7534 70.5766 43.8064 70.9444 43.7807 71.3111L42.4886 90.2515L88.0524 92.0443L89.0387 72.1239C89.0622 71.7571 89.164 71.3982 89.338 71.0678C89.512 70.7375 89.7549 70.4422 90.0526 70.1989C90.3504 69.9557 90.6972 69.7693 91.0731 69.6504C91.4491 69.5316 91.8467 69.4826 92.2431 69.5064C92.6577 69.5262 93.0634 69.6257 93.4342 69.7985C93.8049 69.9714 94.1327 70.2138 94.3966 70.5103C95.2278 71.4586 96.731 72.8131 98.6002 72.9207C101.495 73.088 103.665 71.0601 103.868 68.0243C104.07 64.9884 102.192 62.7294 99.298 62.5621C97.4287 62.4545 95.7533 63.6259 94.8014 64.4705C94.5028 64.7335 94.1484 64.9362 93.7607 65.0658C93.3729 65.1955 92.9603 65.2491 92.5489 65.2235C90.8821 65.1278 89.3316 63.9605 89.4349 62.4346L90.2102 45.5262L45.09 43.7493L44.4612 61.4266Z" fill="#F57C00"/>
<path d="M38.9052 80.5701C38.9052 80.5701 40.249 79.606 41.2482 79.5661C42.2474 79.5263 43.5482 79.8888 43.8066 79.7693C44.065 79.6498 44.668 79.1199 45.0642 79.5621C45.4605 80.0044 45.9256 81.614 43.8497 82.0562H42.4197C42.4929 82.6917 42.6686 83.3134 42.9409 83.9008C43.2854 84.4227 48.1437 90.0801 48.1437 90.0801C48.1437 90.0801 48.751 90.6419 48.4495 91.2036C48.148 91.7654 46.843 91.4427 46.843 91.4427C46.5809 91.6565 46.2644 91.8053 45.9231 91.8749C45.5818 91.9446 45.227 91.933 44.8919 91.8411C44.3758 91.6807 43.8815 91.4655 43.419 91.1997C43.0828 91.4381 42.671 91.5673 42.2475 91.5673C41.8239 91.5673 41.4121 91.4381 41.0759 91.1997C39.8614 90.359 35.016 84.8251 35.016 84.8251L37.2556 80.3988L38.9052 80.5701Z" fill="#FFBF9D"/>
<path d="M37.5484 79.5461L38.9266 80.5621C36.8808 81.9406 35.817 83.6298 35.8299 85.6577L34.0683 84.5302C34.0683 84.5302 33.7496 80.3708 37.5484 79.5461Z" fill="#F5F5F5"/>
<path d="M43.0916 87.7693C43.1475 87.7295 43.8754 88.6299 44.9134 89.614C45.9514 90.598 46.9248 91.2793 46.8774 91.3351C46.6337 91.2332 46.4074 91.099 46.2055 90.9367C45.691 90.58 45.2059 90.1885 44.7541 89.7654C44.3052 89.3398 43.8906 88.8844 43.5136 88.4028C43.3381 88.2133 43.1956 87.9996 43.0916 87.7693Z" fill="#FF9A6C"/>
<path d="M40.684 88.8928C40.74 88.8489 41.2783 89.4505 42.0751 90.0442C42.5997 90.3701 43.0624 90.774 43.4448 91.2394C42.9144 90.9288 42.4104 90.5811 41.9373 90.1995C41.4212 89.854 40.9934 89.4079 40.684 88.8928Z" fill="#FF9A6C"/>
<path d="M87.7294 54.1397C87.7294 54.1397 87.9447 52.7772 91.0415 53.2393C92.9839 53.5302 91.9675 54.6935 91.9675 54.6935C92.1126 54.8095 92.2251 54.9563 92.2953 55.1214C92.3655 55.2865 92.3913 55.4648 92.3706 55.6412C92.3498 55.8175 92.2831 55.9866 92.1761 56.1338C92.0691 56.281 91.9251 56.402 91.7564 56.4864L91.9589 56.6258C91.9589 56.6258 93.5051 57.3429 92.1699 58.6178C92.3052 58.8449 92.3609 59.1053 92.3293 59.363C92.2977 59.6207 92.1803 59.8629 91.9933 60.0561C91.33 60.6736 89.6632 59.8529 89.6632 59.8529C89.6632 59.8529 87.3073 59.8171 87.1738 59.2394C87.1324 59.064 87.1563 58.8809 87.2415 58.7196C87.3267 58.5584 87.4682 58.4285 87.6432 58.3509C88.1855 58.2578 88.7336 58.1966 89.2842 58.1676C89.2842 58.1676 87.2255 58.1477 87.0403 57.7692C86.7086 57.1039 86.7947 56.4226 89.2842 56.5103C89.2842 56.5103 87.4322 56.4744 87.2211 56.1119C87.0101 55.7493 87.2685 55.1995 87.9361 54.9166C88.3294 54.7426 88.7624 54.6592 89.1981 54.6736C89.1981 54.6736 87.4666 55.0003 87.7294 54.1397Z" fill="#FFBF9D"/>
<path d="M91.8727 54.7015C91.3168 54.7623 90.7565 54.7809 90.1973 54.7573C89.6395 54.7951 89.0796 54.7951 88.5219 54.7573C89.0587 54.5859 89.6257 54.5102 90.193 54.5342C90.7592 54.4934 91.3288 54.5502 91.8727 54.7015Z" fill="#FF9A6C"/>
<path d="M91.7909 56.5541C91.2648 56.5933 90.7362 56.5933 90.2102 56.5541C89.6832 56.5825 89.1546 56.5718 88.6295 56.5223C89.1402 56.3677 89.6788 56.3081 90.2145 56.347C90.7497 56.3157 91.2862 56.3862 91.7909 56.5541Z" fill="#FF9A6C"/>
<path d="M92.2086 58.7133C92.1827 58.7691 91.4807 58.4862 90.5633 58.3508C89.6459 58.2153 88.8879 58.2671 88.8793 58.2034C89.4382 58.0457 90.0319 58.0251 90.6021 58.1436C91.1827 58.1984 91.7372 58.395 92.2086 58.7133Z" fill="#FF9A6C"/>
</svg>
