<svg width="250" height="173" viewBox="0 0 250 173" fill="none" xmlns="http://www.w3.org/2000/svg">
<path d="M230.973 155.155H248.155" stroke="#263238" stroke-linecap="round" stroke-linejoin="round"/>
<path d="M13.2471 155.155H227.032" stroke="#263238" stroke-linecap="round" stroke-linejoin="round"/>
<path d="M5.08008 155.155H10.1515" stroke="#263238" stroke-linecap="round" stroke-linejoin="round"/>
<path d="M223.729 112.622C224.317 112.769 224.938 112.669 225.455 112.344C225.973 112.018 226.344 111.493 226.488 110.884L227.948 104.664C228.091 104.055 227.994 103.413 227.679 102.877C227.365 102.342 226.858 101.957 226.27 101.808C225.682 101.661 225.061 101.761 224.545 102.087C224.028 102.412 223.657 102.937 223.514 103.546L222.05 109.758C221.978 110.06 221.964 110.374 222.01 110.682C222.055 110.99 222.159 111.285 222.315 111.551C222.471 111.817 222.676 112.049 222.919 112.232C223.161 112.416 223.437 112.549 223.729 112.622Z" fill="white" stroke="#263238" stroke-linecap="round" stroke-linejoin="round"/>
<path d="M226.055 119.887C226.253 119.943 226.46 119.953 226.662 119.915C226.863 119.877 227.054 119.791 227.219 119.666C227.385 119.54 227.52 119.378 227.616 119.19C227.712 119.002 227.766 118.795 227.773 118.583L228.378 110.77C228.403 110.3 228.273 109.835 228.009 109.453C227.745 109.07 227.362 108.792 226.925 108.665C226.727 108.609 226.519 108.599 226.317 108.638C226.115 108.676 225.924 108.761 225.759 108.887C225.593 109.013 225.458 109.176 225.362 109.365C225.266 109.553 225.213 109.761 225.207 109.973L224.598 117.783C224.572 118.253 224.702 118.718 224.967 119.101C225.232 119.484 225.616 119.761 226.055 119.887Z" fill="white" stroke="#263238" stroke-linecap="round" stroke-linejoin="round"/>
<path d="M209.921 111.248L217.548 109.606C220.231 109.551 222.91 109.854 225.518 110.51L230.644 111.8C230.913 111.868 231.192 111.88 231.466 111.836C231.739 111.792 232.002 111.693 232.239 111.544C232.475 111.395 232.681 111.199 232.845 110.968C233.008 110.736 233.126 110.474 233.192 110.195L234.265 105.624C234.397 105.061 234.307 104.467 234.016 103.972C233.725 103.478 233.256 103.123 232.712 102.986L228.561 101.941C225.419 101.151 222.417 99.8563 219.663 98.1035L214.245 92.8095L209.921 111.248Z" fill="white" stroke="#263238" stroke-linecap="round" stroke-linejoin="round"/>
<path d="M225.697 101.06C226.642 101.401 227.598 101.697 228.56 101.941L232.705 102.986C233.248 103.123 233.717 103.478 234.009 103.972C234.3 104.467 234.39 105.061 234.258 105.624L233.184 110.195C233.119 110.474 233.001 110.736 232.838 110.968C232.674 111.199 232.468 111.395 232.231 111.544C231.995 111.693 231.732 111.792 231.458 111.836C231.185 111.88 230.905 111.868 230.636 111.8L225.511 110.51C224.872 110.347 224.225 110.207 223.571 110.088L225.697 101.06Z" fill="#263238" stroke="#263238" stroke-linecap="round" stroke-linejoin="round"/>
<path d="M208.905 113.509L209.222 113.589C210.13 113.818 211.046 113.241 211.267 112.301L215.733 93.3095C215.954 92.3691 215.397 91.4213 214.488 91.1925L214.172 91.1127C213.263 90.8838 212.348 91.4606 212.127 92.4009L207.661 111.392C207.44 112.332 207.997 113.28 208.905 113.509Z" fill="#F57C00" stroke="#263238" stroke-linecap="round" stroke-linejoin="round"/>
<path d="M206.06 94.3469L207.849 97.2699" stroke="#263238" stroke-width="2" stroke-linecap="round" stroke-linejoin="round"/>
<path d="M203.178 106.606L206.063 104.861" stroke="#263238" stroke-width="2" stroke-linecap="round" stroke-linejoin="round"/>
<path d="M206.328 101.097L202.824 100.215" stroke="#263238" stroke-width="2" stroke-linecap="round" stroke-linejoin="round"/>
<path d="M224.623 116.89L223.396 117.971C223.252 118.101 223.151 118.273 223.106 118.464C223.077 118.584 223.071 118.709 223.089 118.831C223.107 118.953 223.148 119.07 223.21 119.176C223.272 119.282 223.353 119.374 223.45 119.447C223.546 119.52 223.656 119.572 223.772 119.601L227.648 120.579L227.891 116.912L224.623 116.89Z" fill="#263238" stroke="#263238" stroke-linecap="round" stroke-linejoin="round"/>
<path d="M230.898 105.868C230.923 105.763 230.978 105.667 231.056 105.594C231.134 105.52 231.231 105.473 231.335 105.456C231.439 105.44 231.545 105.456 231.641 105.502C231.736 105.548 231.816 105.622 231.871 105.715C231.925 105.808 231.952 105.916 231.948 106.025C231.943 106.134 231.908 106.239 231.846 106.327C231.784 106.415 231.698 106.482 231.6 106.52C231.501 106.558 231.394 106.564 231.291 106.539C231.222 106.522 231.157 106.492 231.1 106.449C231.043 106.406 230.995 106.352 230.958 106.289C230.921 106.227 230.897 106.158 230.887 106.085C230.876 106.013 230.88 105.939 230.898 105.868Z" fill="#F57C00"/>
<path d="M208.125 129.674V125.04H209.438C209.666 125.031 209.891 125.083 210.093 125.192C210.256 125.298 210.381 125.455 210.451 125.64C210.535 125.867 210.575 126.109 210.569 126.351C210.581 126.607 210.53 126.862 210.422 127.092C210.33 127.27 210.182 127.411 210.004 127.492C209.805 127.581 209.59 127.624 209.374 127.618H208.93V129.674H208.125ZM208.941 127.026H209.252C209.375 127.034 209.498 127.011 209.61 126.959C209.651 126.938 209.688 126.908 209.717 126.872C209.747 126.836 209.769 126.793 209.782 126.748C209.817 126.621 209.833 126.49 209.828 126.359C209.832 126.222 209.82 126.085 209.793 125.951C209.784 125.903 209.766 125.858 209.739 125.818C209.713 125.777 209.679 125.743 209.639 125.718C209.527 125.663 209.404 125.638 209.281 125.644H208.969L208.941 127.026Z" fill="#263238"/>
<path d="M211.023 129.674V125.04H212.097C212.357 125.033 212.615 125.071 212.863 125.151C213.058 125.213 213.225 125.345 213.335 125.521C213.458 125.747 213.515 126.004 213.5 126.262C213.501 126.431 213.484 126.598 213.45 126.763C213.42 126.897 213.363 127.023 213.282 127.133C213.195 127.243 213.081 127.326 212.952 127.374L213.575 129.652H212.741L212.201 127.533H211.843V129.652L211.023 129.674ZM211.843 127.026H212.094C212.224 127.032 212.353 127.008 212.473 126.955C212.565 126.908 212.637 126.826 212.673 126.726C212.719 126.596 212.74 126.459 212.734 126.322C212.746 126.139 212.704 125.956 212.612 125.799C212.552 125.735 212.478 125.686 212.396 125.656C212.314 125.625 212.226 125.615 212.14 125.625H211.843V127.026Z" fill="#263238"/>
<path d="M215.297 129.737C215.034 129.752 214.772 129.689 214.542 129.556C214.353 129.434 214.21 129.248 214.137 129.03C214.052 128.769 214.011 128.494 214.016 128.218V126.488C214.011 126.216 214.052 125.946 214.137 125.688C214.211 125.475 214.354 125.294 214.542 125.177C214.779 125.06 215.038 124.999 215.3 124.999C215.563 124.999 215.822 125.06 216.059 125.177C216.246 125.295 216.388 125.475 216.464 125.688C216.552 125.945 216.595 126.216 216.589 126.488V128.226C216.594 128.498 216.551 128.769 216.464 129.026C216.389 129.243 216.246 129.428 216.059 129.552C215.827 129.686 215.563 129.75 215.297 129.737ZM215.297 129.115C215.405 129.125 215.512 129.092 215.597 129.022C215.665 128.956 215.71 128.869 215.726 128.774C215.748 128.66 215.759 128.543 215.758 128.426V126.296C215.76 126.179 215.749 126.062 215.726 125.948C215.71 125.854 215.665 125.768 215.597 125.703C215.508 125.645 215.405 125.614 215.3 125.614C215.195 125.614 215.092 125.645 215.003 125.703C214.935 125.768 214.888 125.853 214.871 125.948C214.848 126.062 214.838 126.179 214.839 126.296V128.426C214.838 128.543 214.849 128.66 214.871 128.774C214.884 128.87 214.93 128.958 215 129.022C215.084 129.091 215.19 129.124 215.297 129.115Z" fill="#263238"/>
<path d="M217.176 129.674L217.254 125.051H218.099L218.732 128.252L219.394 125.051H220.21L220.293 129.674H219.688L219.62 126.459L218.986 129.674H218.496L217.848 126.448L217.791 129.674H217.176Z" fill="#263238"/>
<path d="M222.168 129.737C221.905 129.752 221.643 129.689 221.413 129.556C221.225 129.433 221.084 129.248 221.012 129.03C220.926 128.769 220.885 128.494 220.891 128.218V126.488C220.884 126.216 220.925 125.945 221.012 125.688C221.085 125.475 221.227 125.295 221.413 125.177C221.644 125.047 221.906 124.985 222.168 124.999C222.435 124.985 222.7 125.046 222.934 125.177C223.12 125.296 223.261 125.476 223.335 125.688C223.424 125.945 223.466 126.216 223.46 126.488V128.226C223.465 128.498 223.423 128.769 223.335 129.026C223.262 129.243 223.121 129.428 222.934 129.552C222.701 129.687 222.435 129.751 222.168 129.737ZM222.168 129.115C222.276 129.125 222.384 129.092 222.469 129.022C222.537 128.956 222.582 128.869 222.598 128.774C222.623 128.66 222.635 128.543 222.634 128.426V126.296C222.635 126.179 222.623 126.062 222.598 125.948C222.582 125.854 222.536 125.768 222.469 125.703C222.383 125.637 222.276 125.605 222.168 125.614C222.064 125.606 221.961 125.638 221.878 125.703C221.809 125.767 221.762 125.853 221.746 125.948C221.72 126.062 221.708 126.179 221.71 126.296V128.426C221.709 128.543 221.72 128.66 221.742 128.774C221.757 128.87 221.803 128.957 221.871 129.022C221.956 129.091 222.062 129.124 222.168 129.115Z" fill="#263238"/>
<path d="M224.488 129.674V125.673H223.772V125.04H225.998V125.662H225.282V129.663L224.488 129.674Z" fill="#263238"/>
<path d="M226.434 129.674V125.04H227.24V129.663L226.434 129.674Z" fill="#263238"/>
<path d="M229.14 129.737C228.877 129.75 228.616 129.687 228.385 129.556C228.197 129.433 228.055 129.248 227.984 129.03C227.897 128.769 227.856 128.494 227.862 128.218V126.488C227.855 126.216 227.896 125.945 227.984 125.688C228.057 125.475 228.198 125.295 228.385 125.177C228.622 125.06 228.882 124.999 229.145 124.999C229.409 124.999 229.668 125.06 229.906 125.177C230.091 125.296 230.233 125.476 230.307 125.688C230.396 125.945 230.438 126.216 230.432 126.488V128.226C230.437 128.498 230.395 128.769 230.307 129.026C230.233 129.243 230.092 129.428 229.906 129.552C229.672 129.687 229.407 129.751 229.14 129.737ZM229.14 129.115C229.248 129.125 229.356 129.092 229.441 129.022C229.508 128.955 229.554 128.869 229.573 128.774C229.595 128.66 229.606 128.543 229.605 128.426V126.296C229.606 126.179 229.596 126.062 229.573 125.948C229.554 125.854 229.508 125.769 229.441 125.703C229.354 125.637 229.247 125.605 229.14 125.614C229.036 125.606 228.933 125.638 228.85 125.703C228.78 125.767 228.734 125.853 228.718 125.948C228.692 126.062 228.68 126.179 228.682 126.296V128.426C228.681 128.543 228.692 128.66 228.714 128.774C228.729 128.87 228.774 128.957 228.843 129.022C228.927 129.091 229.033 129.124 229.14 129.115Z" fill="#263238"/>
<path d="M231.033 129.674V125.04H231.602L232.676 127.678V125.04H233.349V129.663H232.819L231.745 126.9V129.663L231.033 129.674Z" fill="#263238"/>
<path d="M230.228 63.5799L228.507 62.2166L226.445 60.5829L220.665 56.0039V56.0002L220.658 55.9965L220.615 55.9632L214.327 60.6755L212.165 62.2907L210.401 63.617L214.466 41.5447L216.403 31.0384L223.553 31.1939L224.087 31.2051L224.502 31.2125L226.209 40.8556L230.228 63.5799Z" fill="#F57C00" stroke="#263238" stroke-linecap="round" stroke-linejoin="round"/>
<path d="M226.209 40.8556C225.95 40.7666 225.671 40.7576 225.407 40.8297C225.049 41.0298 224.956 41.9041 224.563 42.0597C224.169 42.2153 223.546 41.6299 223.131 41.7448C222.716 41.8596 222.473 42.6969 222.057 42.7672C221.642 42.8376 221.148 42.1226 220.726 42.1486C220.304 42.1745 219.892 42.9377 219.47 42.9154C219.048 42.8932 218.7 42.093 218.289 42.0263C217.877 41.9596 217.308 42.6191 216.907 42.5116C216.506 42.4042 216.32 41.541 215.93 41.4002C215.54 41.2595 214.857 41.7707 214.499 41.5706H214.474L216.392 31.0384L223.55 31.1939H224.083H224.498L226.209 40.8556Z" fill="#263238" stroke="#263238" stroke-linecap="round" stroke-linejoin="round"/>
<path d="M208.425 27.1374C208.447 26.6965 207.756 26.189 207.82 25.7629C207.885 25.3369 208.69 25.0591 208.794 24.6515C208.898 24.244 208.328 23.5809 208.475 23.1697C208.622 22.7585 209.47 22.6733 209.656 22.2843C209.842 21.8953 209.416 21.1395 209.656 20.7765C209.896 20.4134 210.73 20.5023 210.988 20.1652C211.245 19.8281 210.988 18.9946 211.278 18.6834C211.567 18.3722 212.38 18.6463 212.709 18.3685C213.038 18.0906 212.938 17.2237 213.289 16.9829C213.64 16.7421 214.363 17.183 214.746 16.9829C215.128 16.7829 215.196 15.9086 215.59 15.7493C215.984 15.59 216.61 16.179 217.022 16.0642C217.433 15.9493 217.677 15.1158 218.095 15.0454C218.514 14.975 219.004 15.6863 219.427 15.6641C219.849 15.6419 220.257 14.875 220.683 14.8972C221.109 14.9195 221.452 15.7197 221.86 15.7826C222.268 15.8456 222.841 15.1936 223.242 15.301C223.643 15.4085 223.829 16.2716 224.219 16.4124C224.609 16.5532 225.293 16.042 225.651 16.242C226.008 16.4421 226.008 17.3127 226.366 17.5497C226.724 17.7868 227.49 17.4201 227.816 17.6942C228.142 17.9684 227.966 18.8056 228.267 19.1316C228.567 19.4576 229.391 19.2465 229.655 19.5836C229.92 19.9207 229.577 20.7209 229.809 21.084C230.042 21.447 230.883 21.4359 231.08 21.8249C231.277 22.2139 230.772 22.9178 230.926 23.3068C231.08 23.6957 231.91 23.8847 232.021 24.307C232.132 24.7293 231.499 25.3073 231.567 25.7407C231.635 26.1742 232.411 26.515 232.433 26.9521C232.454 27.3893 231.717 27.819 231.717 28.2599C231.717 28.7007 232.386 29.2083 232.325 29.6343C232.264 30.0603 231.456 30.3382 231.348 30.7457C231.241 31.1532 231.814 31.8163 231.667 32.2275C231.52 32.6388 230.675 32.7277 230.486 33.1129C230.296 33.4982 230.726 34.2577 230.486 34.6244C230.246 34.9912 229.412 34.8949 229.151 35.2357C228.89 35.5765 229.151 36.4064 228.861 36.7176C228.571 37.0288 227.759 36.7546 227.429 37.0288C227.1 37.3029 227.204 38.1772 226.853 38.4143C226.502 38.6514 225.779 38.2142 225.393 38.4143C225.006 38.6143 224.942 39.4849 224.548 39.6442C224.155 39.8035 223.528 39.2145 223.117 39.3293C222.705 39.4442 222.458 40.2814 222.043 40.3518C221.628 40.4222 221.138 39.7072 220.715 39.7331C220.293 39.7591 219.881 40.5222 219.455 40.5C219.03 40.4778 218.69 39.6776 218.278 39.6109C217.866 39.5442 217.297 40.2036 216.896 40.0925C216.496 39.9814 216.31 39.1256 215.919 38.9811C215.529 38.8366 214.846 39.3516 214.47 39.1552C214.094 38.9589 214.112 38.0809 213.754 37.8475C213.396 37.6141 212.63 37.9734 212.323 37.703C212.015 37.4326 212.172 36.5694 211.875 36.2656C211.578 35.9618 210.748 36.1508 210.483 35.8136C210.218 35.4765 210.562 34.6763 210.329 34.3318C210.096 33.9872 209.255 33.9613 209.059 33.5908C208.862 33.2204 209.366 32.4795 209.212 32.0868C209.059 31.6941 208.232 31.5125 208.139 31.0902C208.046 30.6679 208.658 30.0863 208.59 29.6565C208.522 29.2268 207.745 28.8785 207.724 28.4414C207.702 28.0042 208.407 27.5745 208.425 27.1374Z" fill="#F57C00" stroke="#263238" stroke-linecap="round" stroke-linejoin="round"/>
<path d="M223.088 37.4856C228.301 35.7612 231.177 29.9886 229.511 24.5919C227.845 19.1953 222.268 16.2183 217.055 17.9427C211.841 19.667 208.965 25.4397 210.631 30.8364C212.297 36.233 217.874 39.21 223.088 37.4856Z" fill="#263238" stroke="#263238" stroke-linecap="round" stroke-linejoin="round"/>
<path d="M227.404 32.7168C230.075 28.5229 228.955 22.8822 224.903 20.1179C220.852 17.3535 215.402 18.5124 212.732 22.7063C210.061 26.9002 211.181 32.541 215.233 35.3053C219.284 38.0696 224.734 36.9107 227.404 32.7168Z" fill="white" stroke="#263238" stroke-linecap="round" stroke-linejoin="round"/>
<path d="M213.69 26.3112L213.976 27.2226H214.903L214.152 27.7857L214.438 28.7007L213.69 28.1339L212.938 28.7007L213.225 27.7857L212.477 27.2226H213.404L213.69 26.3112Z" fill="#F57C00" stroke="#263238" stroke-width="0.5" stroke-linecap="round" stroke-linejoin="round"/>
<path d="M216.868 26.3112L217.154 27.2226H218.081L217.333 27.7857L217.616 28.7007L216.868 28.1339L216.12 28.7007L216.406 27.7857L215.655 27.2226H216.581L216.868 26.3112Z" fill="#F57C00" stroke="#263238" stroke-width="0.5" stroke-linecap="round" stroke-linejoin="round"/>
<path d="M220.046 26.3112L220.332 27.2226H221.259L220.511 27.7857L220.798 28.7007L220.046 28.1339L219.298 28.7007L219.584 27.7857L218.836 27.2226H219.76L220.046 26.3112Z" fill="#F57C00" stroke="#263238" stroke-width="0.5" stroke-linecap="round" stroke-linejoin="round"/>
<path d="M223.228 26.3112L223.514 27.2226H224.441L223.689 27.7857L223.976 28.7007L223.228 28.1339L222.476 28.7007L222.762 27.7857L222.014 27.2226H222.941L223.228 26.3112Z" fill="#F57C00" stroke="#263238" stroke-width="0.5" stroke-linecap="round" stroke-linejoin="round"/>
<path d="M226.406 26.3112L226.692 27.2226H227.619L226.868 27.7857L227.157 28.7007L226.406 28.1339L225.658 28.7007L225.944 27.7857L225.193 27.2226H226.12L226.406 26.3112Z" fill="#F57C00" stroke="#263238" stroke-width="0.5" stroke-linecap="round" stroke-linejoin="round"/>
<path d="M214.302 73.5454C214.194 73.4912 214.095 73.4227 214.005 73.3417C213.896 73.2446 213.793 73.1407 213.697 73.0305C213.602 72.9223 213.515 72.8071 213.436 72.6859H213.335C213.072 72.7001 212.81 72.6371 212.58 72.5044C212.392 72.382 212.251 72.1962 212.179 71.9784C212.093 71.7175 212.052 71.4428 212.058 71.167V69.4703C212.051 69.1981 212.092 68.9269 212.179 68.6701C212.252 68.457 212.394 68.2764 212.58 68.1589C212.811 68.0289 213.073 67.9674 213.335 67.981C213.602 67.9665 213.867 68.028 214.101 68.1589C214.289 68.2763 214.431 68.4567 214.506 68.6701C214.593 68.9269 214.634 69.1981 214.627 69.4703V71.2078C214.629 71.4096 214.608 71.6108 214.567 71.8079C214.532 71.975 214.463 72.1328 214.366 72.271C214.275 72.4044 214.152 72.5105 214.008 72.5785L214.155 72.7415L214.309 72.9045C214.356 72.9481 214.406 72.9877 214.459 73.0231L214.302 73.5454ZM213.335 72.0636C213.386 72.0714 213.437 72.0687 213.486 72.0558C213.536 72.0428 213.582 72.0198 213.623 71.9881C213.663 71.9563 213.698 71.9165 213.723 71.871C213.749 71.8254 213.765 71.775 213.772 71.7227C213.794 71.6081 213.805 71.4914 213.804 71.3745V69.2443C213.805 69.1274 213.795 69.0107 213.772 68.8961C213.754 68.8019 213.708 68.7162 213.64 68.6516C213.551 68.5858 213.444 68.5543 213.335 68.5627C213.229 68.5542 213.124 68.5857 213.038 68.6516C212.968 68.7145 212.923 68.8012 212.909 68.8961C212.887 69.0107 212.876 69.1274 212.877 69.2443V71.3745C212.876 71.4914 212.887 71.6081 212.909 71.7227C212.923 71.8194 212.969 71.9083 213.038 71.9746C213.124 72.0405 213.229 72.0721 213.335 72.0636Z" fill="#263238"/>
<path d="M216.456 72.7007C216.188 72.7167 215.92 72.6511 215.687 72.5118C215.502 72.3857 215.366 72.1952 215.304 71.9746C215.23 71.7036 215.195 71.4227 215.2 71.1411V68.0144H215.995V71.2411C215.995 71.3775 216.004 71.5137 216.023 71.6486C216.036 71.7622 216.081 71.8693 216.152 71.9561C216.192 71.9974 216.239 72.0293 216.292 72.0497C216.344 72.0702 216.4 72.0787 216.456 72.0747C216.514 72.0801 216.572 72.0723 216.627 72.0518C216.681 72.0313 216.731 71.9986 216.771 71.9561C216.839 71.8671 216.882 71.7609 216.897 71.6486C216.919 71.514 216.929 71.3777 216.929 71.2411V68.0144H217.716V71.1411C217.721 71.4227 217.686 71.7036 217.612 71.9746C217.551 72.1942 217.416 72.3844 217.233 72.5118C216.998 72.6519 216.728 72.7175 216.456 72.7007Z" fill="#263238"/>
<path d="M218.106 72.6378L219.001 68.0144H219.87L220.765 72.6378H220.01L219.835 71.5708H219.054L218.872 72.6378H218.106ZM219.137 71.0337H219.745L219.441 69.0924L219.137 71.0337Z" fill="#263238"/>
<path d="M221.191 72.6378V68.0144H222.007V72.0635H223.081V72.6452L221.191 72.6378Z" fill="#263238"/>
<path d="M223.514 72.6378V68.0144H224.319V72.6378H223.514Z" fill="#263238"/>
<path d="M225.454 72.6378V68.6368H224.738V68.0144H226.968V68.6368H226.252V72.6378H225.454Z" fill="#263238"/>
<path d="M228.002 72.6378V70.8744L227.097 68.0144H227.845L228.396 69.8667L228.915 68.0144H229.659L228.764 70.8744V72.6378H228.002Z" fill="#263238"/>
<path d="M139.802 11.3407L140.908 19.728L135.751 20.9987C134.337 21.9899 132.86 22.8822 131.331 23.6697C129.241 24.6848 127.77 25.0664 127.036 25.0664C126.302 25.0664 123.597 23.9216 123.597 23.9216C123.597 23.9216 125.44 13.6264 127.534 12.4817C129.627 11.337 135.128 9.68841 139.802 11.3407Z" fill="white" stroke="#263238" stroke-linecap="round" stroke-linejoin="round"/>
<path d="M113.576 11.048C113.576 11.048 122.795 10.4405 124.145 10.4405C125.494 10.4405 128.497 13.9006 128.497 13.9006C128.497 13.9006 133.994 23.3734 133.532 23.9402C132.373 25.3627 131.446 24.3329 131.446 24.3329L131.235 25.3331C131.235 25.3331 130.34 26.4815 125.798 25.8481C121.256 25.2146 119.782 23.7957 118.687 23.5327C117.592 23.2696 111.625 21.5581 111.625 21.5581L113.576 11.048Z" fill="white" stroke="#263238" stroke-linecap="round" stroke-linejoin="round"/>
<path d="M131.445 24.3143L129.928 21.2839" stroke="#263238" stroke-linecap="round" stroke-linejoin="round"/>
<path d="M129.928 25.7184L128.045 22.3657" stroke="#263238" stroke-linecap="round" stroke-linejoin="round"/>
<path d="M137.215 12.1001C137.215 12.1001 127.992 9.17717 126.167 11.211C124.342 13.2449 120.394 18.5833 121.253 19.2205C122.112 19.8577 125.19 17.4385 125.906 16.931C126.447 16.5251 126.942 16.0565 127.38 15.5343C128.236 16.4088 129.299 17.0338 130.463 17.3461C131.627 17.6584 132.85 17.6468 134.008 17.3126" fill="white"/>
<path d="M137.215 12.1001C137.215 12.1001 127.992 9.17717 126.167 11.211C124.342 13.2449 120.394 18.5833 121.253 19.2205C122.112 19.8577 125.19 17.4385 125.906 16.931C126.447 16.5251 126.942 16.0565 127.38 15.5343C128.236 16.4088 129.299 17.0338 130.463 17.3461C131.627 17.6584 132.85 17.6468 134.008 17.3126" stroke="#263238" stroke-linecap="round" stroke-linejoin="round"/>
<path d="M127.086 22.1842C127.086 22.1842 126.202 25.4517 126.56 26.0073C126.694 26.2398 126.898 26.4203 127.14 26.5207C127.383 26.6212 127.651 26.6361 127.902 26.563C128.204 26.4342 128.479 26.2454 128.711 26.0073C128.711 26.0073 128.844 23.2289 128.443 22.5324C128.042 21.8359 127.691 21.3506 127.086 22.1842Z" fill="white" stroke="#263238" stroke-linecap="round" stroke-linejoin="round"/>
<path d="M124.735 22.6028C124.735 22.6028 123.862 25.8703 124.198 26.426C124.332 26.6588 124.537 26.8394 124.78 26.9398C125.023 27.0402 125.292 27.055 125.544 26.9817C125.844 26.8503 126.117 26.6618 126.349 26.426C126.349 26.426 126.482 23.6438 126.081 22.951C125.68 22.2583 125.34 21.7692 124.735 22.6028Z" fill="white" stroke="#263238" stroke-linecap="round" stroke-linejoin="round"/>
<path d="M122.373 22.7176C122.373 22.7176 121.703 25.2257 121.961 25.6517C122.063 25.8283 122.218 25.9656 122.402 26.0425C122.586 26.1195 122.79 26.1318 122.981 26.0777C123.212 25.9783 123.422 25.8336 123.6 25.6517C123.6 25.6517 123.704 23.5178 123.396 22.9844C123.089 22.4509 122.834 22.0804 122.373 22.7176Z" fill="white" stroke="#263238" stroke-linecap="round" stroke-linejoin="round"/>
<path d="M119.585 22.8251C119.585 22.8251 119.059 24.4847 119.263 24.7663C119.357 24.8891 119.483 24.981 119.627 25.031C119.771 25.081 119.925 25.0868 120.072 25.0478C120.249 24.9849 120.414 24.8895 120.558 24.7663C120.558 24.7663 120.641 23.3548 120.397 23.0029C120.154 22.6509 119.95 22.4213 119.585 22.8251Z" fill="white" stroke="#263238" stroke-linecap="round" stroke-linejoin="round"/>
<path d="M141.448 8.75318L137.959 9.50963L140.81 23.5965L144.299 22.84L141.448 8.75318Z" fill="white" stroke="#263238" stroke-linecap="round" stroke-linejoin="round"/>
<path d="M145.952 7.58962L140.368 8.80024L143.548 24.5151L149.132 23.3045L145.952 7.58962Z" fill="#F57C00" stroke="#263238" stroke-linecap="round" stroke-linejoin="round"/>
<path d="M109.389 22.8399L112.878 23.5964L115.729 9.50953L112.24 8.75308L109.389 22.8399Z" fill="white" stroke="#263238" stroke-linecap="round" stroke-linejoin="round"/>
<path d="M104.558 23.304L110.141 24.5147L113.321 8.79977L107.738 7.58916L104.558 23.304Z" fill="#263238" stroke="#263238" stroke-linecap="round" stroke-linejoin="round"/>
<path d="M107.592 34.3502C107.322 34.366 107.053 34.2962 106.822 34.1502C106.638 34.0182 106.501 33.8267 106.432 33.6056C106.356 33.3476 106.318 33.0789 106.321 32.8091V31.1568C106.317 30.8784 106.355 30.601 106.432 30.3344C106.499 30.1143 106.637 29.9246 106.822 29.7972C107.056 29.6598 107.323 29.5955 107.592 29.612C107.84 29.6 108.086 29.6548 108.308 29.7713C108.473 29.8824 108.598 30.0463 108.666 30.2381C108.741 30.4644 108.777 30.7026 108.773 30.9419V31.3124H107.993V30.9419C107.993 30.8243 107.986 30.7067 107.971 30.59C107.965 30.4952 107.929 30.4052 107.867 30.3344C107.827 30.2989 107.779 30.2724 107.728 30.2565C107.677 30.2406 107.623 30.2356 107.57 30.2418C107.516 30.2368 107.461 30.2431 107.409 30.2603C107.356 30.2775 107.308 30.3052 107.266 30.3418C107.198 30.4147 107.154 30.5081 107.141 30.6085C107.123 30.7312 107.115 30.855 107.116 30.979V32.9869C107.112 33.1262 107.124 33.2654 107.152 33.4018C107.17 33.5006 107.223 33.5889 107.3 33.6497C107.377 33.7106 107.474 33.7397 107.57 33.7315C107.623 33.738 107.676 33.7325 107.726 33.7152C107.776 33.6979 107.822 33.6693 107.86 33.6315C107.921 33.5558 107.959 33.4629 107.968 33.3648C107.986 33.2422 107.994 33.1183 107.993 32.9943V32.572H108.773V32.9424C108.78 33.1938 108.745 33.4444 108.669 33.6834C108.607 33.8859 108.481 34.0609 108.311 34.1798C108.092 34.3066 107.842 34.3657 107.592 34.3502Z" fill="#263238"/>
<path d="M110.584 34.3502C110.315 34.3662 110.048 34.3005 109.814 34.1613C109.629 34.0352 109.493 33.8447 109.431 33.6241C109.358 33.3529 109.323 33.0721 109.328 32.7905V29.6601H110.122V32.8869C110.12 33.0233 110.13 33.1596 110.151 33.2944C110.162 33.4092 110.207 33.5177 110.28 33.6056C110.366 33.6797 110.475 33.7202 110.587 33.7202C110.7 33.7202 110.809 33.6797 110.895 33.6056C110.965 33.5159 111.009 33.4083 111.024 33.2944C111.045 33.1596 111.054 33.0233 111.053 32.8869V29.6601H111.844V32.7943C111.849 33.0761 111.813 33.3572 111.736 33.6278C111.677 33.8477 111.544 34.0383 111.36 34.165C111.124 34.3037 110.855 34.3681 110.584 34.3502Z" fill="#263238"/>
<path d="M113.608 34.3502C113.374 34.3583 113.142 34.3021 112.935 34.1872C112.753 34.078 112.609 33.9103 112.527 33.7093C112.428 33.4654 112.375 33.2036 112.373 32.9387L113.071 32.7943C113.076 32.9543 113.097 33.1134 113.136 33.2684C113.162 33.3873 113.217 33.4971 113.297 33.587C113.334 33.6246 113.378 33.6539 113.427 33.673C113.476 33.6922 113.528 33.7007 113.579 33.6982C113.633 33.7034 113.686 33.6949 113.736 33.6736C113.785 33.6523 113.828 33.6188 113.862 33.5759C113.92 33.4833 113.948 33.3747 113.945 33.2647C113.953 33.0889 113.906 32.915 113.812 32.7683C113.708 32.6242 113.588 32.4935 113.454 32.3793L112.892 31.8644C112.741 31.731 112.613 31.5719 112.513 31.3939C112.414 31.1962 112.366 30.9755 112.373 30.753C112.365 30.5977 112.388 30.4424 112.441 30.2969C112.494 30.1514 112.576 30.019 112.681 29.9083C112.915 29.7001 113.218 29.5939 113.526 29.612C113.706 29.6066 113.885 29.6394 114.052 29.7083C114.184 29.7691 114.299 29.8649 114.385 29.9861C114.469 30.1087 114.532 30.2453 114.571 30.3899C114.611 30.5462 114.637 30.7063 114.646 30.8678L113.952 30.9901C113.946 30.8655 113.931 30.7415 113.905 30.6196C113.887 30.519 113.842 30.4255 113.776 30.3492C113.741 30.3155 113.699 30.2896 113.653 30.273C113.608 30.2565 113.56 30.2496 113.511 30.2529C113.459 30.2509 113.407 30.2608 113.359 30.2819C113.311 30.303 113.267 30.3348 113.232 30.3751C113.166 30.4626 113.132 30.5715 113.136 30.6826C113.135 30.8124 113.167 30.9402 113.229 31.0531C113.306 31.1686 113.397 31.2732 113.501 31.3643L114.055 31.8718C114.241 32.0326 114.4 32.2227 114.528 32.4349C114.663 32.6698 114.731 32.9395 114.725 33.2129C114.729 33.4189 114.679 33.6224 114.582 33.8019C114.491 33.9708 114.355 34.1095 114.191 34.202C114.013 34.3039 113.812 34.3551 113.608 34.3502Z" fill="#263238"/>
<path d="M115.655 34.2761V30.2825H114.939V29.6601H117.165V30.2825H116.467V34.2761H115.655Z" fill="#263238"/>
<path d="M118.769 34.3502C118.505 34.3628 118.244 34.2986 118.014 34.165C117.826 34.0439 117.684 33.8594 117.613 33.6426C117.526 33.3817 117.485 33.1071 117.491 32.8313V31.1012C117.484 30.8279 117.526 30.5555 117.613 30.2973C117.686 30.0842 117.827 29.9037 118.014 29.7861C118.252 29.6704 118.511 29.6105 118.774 29.6105C119.037 29.6105 119.297 29.6704 119.535 29.7861C119.72 29.9048 119.862 30.085 119.936 30.2973C120.024 30.5552 120.067 30.8276 120.061 31.1012V32.835C120.066 33.1086 120.024 33.3809 119.936 33.6389C119.861 33.8549 119.72 34.0397 119.535 34.165C119.301 34.2995 119.036 34.3637 118.769 34.3502ZM118.769 33.7278C118.877 33.7359 118.984 33.7029 119.07 33.6352C119.138 33.5674 119.184 33.4794 119.202 33.3833C119.224 33.2687 119.235 33.152 119.234 33.0351V30.9049C119.235 30.788 119.224 30.6712 119.202 30.5567C119.182 30.4644 119.136 30.3805 119.07 30.3158C118.983 30.2494 118.876 30.2178 118.769 30.2269C118.665 30.2189 118.562 30.2505 118.479 30.3158C118.41 30.3784 118.363 30.4633 118.347 30.5567C118.321 30.6708 118.309 30.7877 118.311 30.9049V33.0351C118.31 33.152 118.321 33.2687 118.343 33.3833C118.358 33.4795 118.404 33.568 118.472 33.6352C118.557 33.7018 118.662 33.7346 118.769 33.7278Z" fill="#263238"/>
<path d="M120.651 34.2761L120.727 29.649H121.571L122.208 32.8535L122.867 29.649H123.697L123.769 34.2761H123.16L123.096 31.0605L122.459 34.2761H121.968L121.324 31.0494L121.263 34.2761H120.651Z" fill="#263238"/>
<path d="M124.413 34.2761V29.6601H126.288V30.2566H125.215V31.5865H126.048V32.1756H125.215V33.7056H126.288V34.2761H124.413Z" fill="#263238"/>
<path d="M126.757 34.2761V29.6601H127.831C128.089 29.6536 128.347 29.6912 128.593 29.7713C128.789 29.8341 128.957 29.965 129.069 30.1417C129.189 30.3682 129.245 30.6249 129.23 30.8827C129.233 31.0519 129.217 31.2208 129.184 31.3865C129.153 31.5208 129.096 31.647 129.016 31.757C128.929 31.8671 128.815 31.9514 128.686 32.0015L129.309 34.2798H128.493L127.953 32.1608H127.577V34.2761H126.757ZM127.573 31.6273H127.827C127.951 31.6299 128.073 31.6046 128.185 31.5532C128.279 31.5086 128.353 31.4274 128.389 31.3272C128.433 31.1975 128.454 31.0607 128.45 30.9234C128.463 30.74 128.419 30.5572 128.325 30.4011C128.265 30.3359 128.191 30.2862 128.109 30.256C128.027 30.2258 127.939 30.2158 127.852 30.2269H127.555L127.573 31.6273Z" fill="#263238"/>
<path d="M131.181 34.2761V29.6601H131.997V33.7056H133.07V34.2761H131.181Z" fill="#263238"/>
<path d="M134.66 34.3502C134.396 34.3628 134.134 34.2986 133.904 34.165C133.717 34.0439 133.575 33.8594 133.504 33.6426C133.417 33.3817 133.376 33.1071 133.382 32.8313V31.1012C133.375 30.8279 133.416 30.5555 133.504 30.2973C133.576 30.0842 133.718 29.9037 133.904 29.7861C134.142 29.6704 134.402 29.6105 134.665 29.6105C134.928 29.6105 135.187 29.6704 135.425 29.7861C135.611 29.9048 135.752 30.085 135.826 30.2973C135.916 30.5548 135.959 30.8275 135.952 31.1012V32.835C135.959 33.1087 135.916 33.3814 135.826 33.6389C135.752 33.8549 135.611 34.0397 135.425 34.165C135.192 34.2995 134.927 34.3637 134.66 34.3502ZM134.66 33.7278C134.767 33.7359 134.874 33.7029 134.96 33.6352C135.03 33.5683 135.076 33.4799 135.093 33.3833C135.115 33.2687 135.126 33.152 135.125 33.0351V30.9049C135.126 30.788 135.115 30.6712 135.093 30.5567C135.074 30.4638 135.028 30.3795 134.96 30.3158C134.874 30.2494 134.767 30.2178 134.66 30.2269C134.556 30.2189 134.452 30.2505 134.37 30.3158C134.301 30.3784 134.254 30.4633 134.237 30.5567C134.215 30.6712 134.204 30.788 134.205 30.9049V33.0351C134.203 33.1518 134.213 33.2685 134.234 33.3833C134.249 33.4795 134.294 33.568 134.362 33.6352C134.448 33.7018 134.553 33.7346 134.66 33.7278Z" fill="#263238"/>
<path d="M137.132 34.2761V32.509L136.223 29.6601H136.986L137.537 31.4939L138.056 29.6601H138.8L137.905 32.5201V34.2761H137.132Z" fill="#263238"/>
<path d="M138.797 34.2761L139.691 29.649H140.565L141.456 34.2761H140.701L140.525 33.2092H139.745L139.563 34.2761H138.797ZM139.831 32.672H140.436L140.132 30.7308L139.831 32.672Z" fill="#263238"/>
<path d="M141.882 34.2761V29.6601H142.698V33.7056H143.772V34.2761H141.882Z" fill="#263238"/>
<path d="M144.43 34.2761V30.2825H143.714V29.6601H145.944V30.2825H145.228V34.2761H144.43Z" fill="#263238"/>
<path d="M146.978 34.2761V32.509L146.073 29.649H146.835L147.386 31.4828L147.905 29.649H148.65L147.755 32.509V34.2761H146.978Z" fill="#263238"/>
<path d="M34.7174 38.7476V34.9133L31.0203 34.4873C30.8211 33.6884 30.5164 32.9217 30.1148 32.2089L32.4519 29.1859L29.8321 26.4964L26.926 28.9007C26.2381 28.4827 25.4989 28.1625 24.7285 27.9486L24.3169 24.0883H20.6235L20.2047 27.9115C19.4319 28.12 18.6902 28.4366 18.0001 28.8525L15.0797 26.4334L12.4635 29.1452L14.7898 32.1534C14.3848 32.8653 14.0743 33.6304 13.8664 34.428L10.155 34.854V38.6846L13.8521 39.1107C14.0522 39.9105 14.3568 40.6782 14.7576 41.3927L12.4205 44.4157L15.0403 47.1238L17.9464 44.7158C18.6336 45.1353 19.3729 45.4556 20.1439 45.6679L20.5555 49.5133H24.2597L24.6677 45.6864C25.4403 45.4793 26.182 45.1639 26.8723 44.7491L29.7927 47.1646L32.4089 44.4565L30.0826 41.4483C30.4875 40.7364 30.7981 39.9713 31.006 39.1737L34.7174 38.7476ZM22.438 41.3742C21.5636 41.3749 20.7087 41.1072 19.9814 40.6049C19.2541 40.1027 18.687 39.3884 18.3519 38.5524C18.0168 37.7165 17.9288 36.7964 18.0989 35.9087C18.269 35.0209 18.6897 34.2053 19.3077 33.5651C19.9257 32.9249 20.7133 32.4888 21.5708 32.3119C22.4283 32.1351 23.3172 32.2255 24.125 32.5717C24.9329 32.9178 25.6234 33.5043 26.1093 34.2567C26.5951 35.0092 26.8544 35.8939 26.8544 36.799C26.8544 38.0118 26.3892 39.1749 25.5611 40.0328C24.733 40.8908 23.6096 41.3732 22.438 41.3742Z" fill="#263238" stroke="#263238" stroke-linecap="round" stroke-linejoin="round"/>
<path d="M49.255 31.0568L48.8434 28.5191L46.3381 28.6599C46.1184 28.1549 45.8343 27.6827 45.4935 27.2558L46.7497 24.9849L44.7276 23.503L43.0598 25.4294C42.5597 25.2328 42.0359 25.1081 41.503 25.059L40.8194 22.562L38.3678 22.9844L38.5074 25.5776C38.018 25.8042 37.5605 26.0983 37.1474 26.4519L34.9392 25.1553L33.5076 27.2373L35.3687 28.96C35.1787 29.4776 35.0582 30.0199 35.0108 30.5715L32.5842 31.3124L32.9958 33.8464L35.5011 33.7056C35.7182 34.2111 36.0012 34.6835 36.3421 35.1097L35.1217 37.3806L37.1438 38.8625L38.8116 36.9361C39.3117 37.1327 39.8356 37.2574 40.3684 37.3065L41.052 39.8034L43.5036 39.3811L43.364 36.7879C43.8534 36.5613 44.3109 36.2672 44.724 35.9136L46.9143 37.1806L48.3459 35.0837L46.4849 33.3611C46.6731 32.8428 46.7935 32.3009 46.8428 31.7496L49.255 31.0568ZM41.4028 34.202C40.8248 34.3013 40.2314 34.221 39.6975 33.9714C39.1636 33.7217 38.7132 33.3138 38.4032 32.7992C38.0932 32.2847 37.9374 31.6866 37.9557 31.0804C37.9739 30.4743 38.1653 29.8874 38.5057 29.3938C38.8461 28.9002 39.3202 28.5222 39.868 28.3074C40.4159 28.0926 41.013 28.0507 41.5838 28.1871C42.1547 28.3234 42.6737 28.6318 43.0753 29.0734C43.4768 29.5149 43.743 30.0698 43.84 30.6678C43.9696 31.4694 43.787 32.2914 43.3322 32.9539C42.8774 33.6163 42.1874 34.0651 41.4135 34.202H41.4028Z" fill="#F57C00" stroke="#263238" stroke-linecap="round" stroke-linejoin="round"/>
<path d="M43.4533 54.3997L43.0417 51.862L40.5365 52.0028C40.3167 51.4979 40.0326 51.0257 39.6918 50.5988L40.9158 48.3315L38.8901 46.8497L37.2259 48.7761C36.725 48.582 36.2015 48.4574 35.6691 48.4056L34.9819 45.9087L32.5339 46.3347L32.6699 48.928C32.1814 49.1561 31.7241 49.4501 31.3099 49.8023L29.1196 48.539L27.688 50.6321L29.5491 52.3585C29.3595 52.875 29.2391 53.416 29.1912 53.9663L26.7754 54.6516L27.1834 57.1893L29.6887 57.0448C29.9062 57.5521 30.1904 58.0259 30.5333 58.4526L29.3093 60.7198L31.3314 62.2017L32.9992 60.2753C33.4993 60.4719 34.0231 60.5966 34.556 60.6457L35.2396 63.1464L37.6912 62.7203L37.5552 60.1271C38.0436 59.9023 38.5 59.6094 38.9116 59.2565L41.1055 60.5198L42.5371 58.4267L40.676 56.7003C40.8644 56.1821 40.9847 55.6401 41.0339 55.0888L43.4533 54.3997ZM35.6047 57.5487C35.0258 57.6496 34.4311 57.5705 33.8957 57.3214C33.3603 57.0724 32.9083 56.6645 32.5969 56.1494C32.2855 55.6344 32.1287 55.0353 32.1463 54.428C32.1639 53.8206 32.3552 53.2324 32.6959 52.7376C33.0366 52.2428 33.5114 51.8638 34.0603 51.6484C34.6092 51.4331 35.2074 51.3911 35.7794 51.5278C36.3513 51.6644 36.8712 51.9737 37.2733 52.4163C37.6755 52.859 37.9417 53.4151 38.0383 54.0144C38.1678 54.8171 37.9842 55.6401 37.5279 56.3028C37.0716 56.9654 36.3799 57.4135 35.6047 57.5487Z" fill="white" stroke="#263238" stroke-linecap="round" stroke-linejoin="round"/>
<path d="M20.3263 72.7007C20.0919 72.7106 19.8593 72.6542 19.6534 72.5377C19.4729 72.4276 19.3302 72.2618 19.2454 72.0635C19.1461 71.8195 19.0938 71.5577 19.0916 71.2929L19.8073 71.1484C19.8126 71.3082 19.833 71.467 19.8682 71.6226C19.8943 71.7404 19.9498 71.849 20.0292 71.9375C20.0667 71.9747 20.1111 72.0038 20.1597 72.0229C20.2082 72.042 20.26 72.0507 20.312 72.0486C20.3652 72.0545 20.4191 72.0464 20.4685 72.025C20.5179 72.0037 20.5613 71.9697 20.5947 71.9264C20.6536 71.8345 20.6825 71.7254 20.677 71.6152C20.6844 71.4394 20.638 71.2657 20.5446 71.1188C20.4411 70.98 20.3208 70.8555 20.1867 70.7483L19.6141 70.2111C19.4636 70.0779 19.3364 69.9187 19.2383 69.7406C19.1395 69.5416 19.0915 69.3197 19.0987 69.096C19.0901 68.9408 19.113 68.7854 19.166 68.6399C19.219 68.4944 19.301 68.3621 19.4065 68.2514C19.6406 68.0435 19.9432 67.9373 20.2511 67.955C20.4302 67.9492 20.6084 67.9833 20.7737 68.055C20.9062 68.1158 21.021 68.2117 21.1065 68.3329C21.1911 68.4537 21.2541 68.5892 21.2926 68.733C21.3322 68.8896 21.3585 69.0495 21.3713 69.2109L20.6556 69.3368C20.6497 69.2123 20.6341 69.0884 20.609 68.9664C20.5941 68.8665 20.5504 68.7735 20.4838 68.6996C20.4477 68.6655 20.4053 68.6393 20.3592 68.6227C20.313 68.6062 20.2641 68.5996 20.2153 68.6033C20.163 68.6013 20.1109 68.6112 20.0626 68.6323C20.0144 68.6535 19.9712 68.6853 19.9362 68.7256C19.8701 68.8117 19.8359 68.9194 19.8396 69.0294C19.8375 69.1593 19.8696 69.2874 19.9326 69.3998C20.0098 69.5153 20.1013 69.6199 20.2046 69.711L20.7808 70.2111C20.9648 70.3721 21.1231 70.5621 21.2497 70.7742C21.3866 71.0084 21.455 71.2786 21.4465 71.5522C21.4504 71.7578 21.4023 71.9609 21.3069 72.1413C21.2148 72.3114 21.0784 72.4513 20.9132 72.5451C20.734 72.649 20.5317 72.7027 20.3263 72.7007Z" fill="#263238"/>
<path d="M23.15 72.7007C22.8812 72.7166 22.6138 72.651 22.3806 72.5117C22.1951 72.3856 22.0593 72.1951 21.9976 71.9745C21.9236 71.7035 21.8886 71.4226 21.8938 71.141V68.0143H22.6883V71.241C22.6873 71.3773 22.6957 71.5135 22.7134 71.6485C22.7285 71.762 22.7744 71.8686 22.8458 71.956C22.9315 72.0322 23.0407 72.074 23.1536 72.074C23.2665 72.074 23.3757 72.0322 23.4614 71.956C23.5302 71.8674 23.5747 71.7611 23.5902 71.6485C23.6092 71.5136 23.6188 71.3774 23.6189 71.241V68.0143H24.4098V71.141C24.4158 71.4229 24.3795 71.7041 24.3024 71.9745C24.248 72.1916 24.1213 72.3819 23.9446 72.5117C23.7039 72.6553 23.4271 72.7211 23.15 72.7007Z" fill="#263238"/>
<path d="M25.0469 72.6377V68.0143H26.3496C26.577 68.005 26.8028 68.0574 27.0046 68.1662C27.1673 68.2719 27.2927 68.4291 27.3625 68.6144C27.4465 68.8412 27.4866 69.0829 27.4806 69.3257C27.4925 69.5815 27.442 69.8363 27.3338 70.0667C27.2412 70.2446 27.0938 70.3854 26.9151 70.4668C26.7165 70.5556 26.5015 70.5986 26.2852 70.5927H25.8414V72.6488L25.0469 72.6377ZM25.8629 69.9889H26.1742C26.297 69.9973 26.4199 69.9744 26.5321 69.9222C26.5734 69.9013 26.61 69.8718 26.6396 69.8354C26.6692 69.799 26.6911 69.7567 26.7039 69.711C26.7394 69.5847 26.7551 69.4534 26.7505 69.322C26.7539 69.1852 26.7419 69.0484 26.7147 68.9145C26.6952 68.8187 26.6398 68.7348 26.5608 68.6811C26.4491 68.6266 26.3262 68.6012 26.2029 68.607H25.8915L25.8629 69.9889Z" fill="#263238"/>
<path d="M27.9316 72.6377V68.0143H29.2451C29.4725 68.005 29.6983 68.0574 29.9001 68.1662C30.0628 68.2719 30.1882 68.4291 30.258 68.6144C30.342 68.8412 30.3821 69.0829 30.3761 69.3257C30.388 69.5815 30.3375 69.8363 30.2293 70.0667C30.1367 70.2446 29.9893 70.3854 29.8106 70.4668C29.612 70.5556 29.397 70.5986 29.1807 70.5927H28.7405V72.6488L27.9316 72.6377ZM28.7512 69.9889H29.059C29.1818 69.9973 29.3047 69.9744 29.4169 69.9222C29.4582 69.9013 29.4948 69.8718 29.5244 69.8354C29.554 69.799 29.5759 69.7567 29.5887 69.711C29.6242 69.5847 29.6399 69.4534 29.6352 69.322C29.6387 69.1852 29.6267 69.0484 29.5994 68.9145C29.5799 68.8187 29.5246 68.7348 29.4455 68.6811C29.3338 68.6266 29.211 68.6012 29.0876 68.607H28.7799L28.7512 69.9889Z" fill="#263238"/>
<path d="M32.0545 72.7007C31.7913 72.7152 31.5295 72.6522 31.2994 72.5191C31.1103 72.3969 30.9676 72.2112 30.8949 71.9931C30.8084 71.7322 30.7672 71.4575 30.7733 71.1817V69.4702C30.7661 69.198 30.8074 68.9268 30.8949 68.67C30.9691 68.4566 31.1119 68.2762 31.2994 68.1588C31.5305 68.0288 31.7918 67.9673 32.0545 67.9809C32.3196 67.9659 32.5836 68.0275 32.8168 68.1588C33.0035 68.2771 33.146 68.4572 33.2213 68.67C33.3088 68.9268 33.3501 69.198 33.3429 69.4702V71.2077C33.3491 71.4798 33.3079 71.7509 33.2213 72.0079C33.1464 72.2247 33.0041 72.4097 32.8168 72.5339C32.5825 72.6614 32.3186 72.7191 32.0545 72.7007ZM32.0545 72.0783C32.1618 72.0874 32.2687 72.0558 32.3551 71.9894C32.422 71.9211 32.467 71.8331 32.484 71.7374C32.5062 71.6228 32.517 71.5061 32.5162 71.3892V69.259C32.5173 69.1421 32.5065 69.0254 32.484 68.9108C32.4677 68.817 32.4225 68.7312 32.3551 68.6663C32.2662 68.6084 32.1632 68.5777 32.0581 68.5777C31.953 68.5777 31.85 68.6084 31.761 68.6663C31.6926 68.7309 31.6461 68.8167 31.6286 68.9108C31.6061 69.0254 31.5953 69.1421 31.5964 69.259V71.3892C31.5963 71.5059 31.6059 71.6224 31.625 71.7374C31.6281 71.7905 31.6421 71.8422 31.6662 71.8892C31.6903 71.9361 31.7238 71.9771 31.7645 72.0094C31.8053 72.0418 31.8523 72.0646 31.9023 72.0765C31.9523 72.0884 32.0042 72.089 32.0545 72.0783Z" fill="#263238"/>
<path d="M33.9441 72.6377V68.0143H35.0178C35.2772 68.0076 35.536 68.0451 35.7837 68.1254C35.9782 68.1878 36.1454 68.319 36.2561 68.4959C36.3783 68.7215 36.4354 68.9786 36.4207 69.2368C36.4219 69.4049 36.4051 69.5727 36.3706 69.7369C36.3412 69.8716 36.2838 69.998 36.2024 70.1074C36.1158 70.2171 36.002 70.3003 35.8731 70.3482L36.4959 72.6266H35.6799L35.1395 70.5075H34.7816V72.6266L33.9441 72.6377ZM34.7601 69.9889H35.0142C35.1442 69.9956 35.2739 69.9715 35.3936 69.9185C35.486 69.8709 35.5577 69.7888 35.594 69.6888C35.6378 69.5604 35.6584 69.4248 35.6548 69.2887C35.669 69.1051 35.625 68.9218 35.5296 68.7663C35.4705 68.7008 35.3971 68.6507 35.3155 68.6205C35.234 68.5902 35.1466 68.5805 35.0607 68.5922H34.7601V69.9889Z" fill="#263238"/>
<path d="M37.466 72.6377V68.6367H36.7502V68.0143H38.9764V68.6367H38.2785V72.6377H37.466Z" fill="#263238"/>
<path d="M16.1746 107.128H12.4883V118.512H16.1746V107.128Z" fill="#263238" stroke="#263238" stroke-width="0.5" stroke-linecap="round" stroke-linejoin="round"/>
<path d="M21.969 111.222H18.2827V118.512H21.969V111.222Z" fill="#F57C00" stroke="#263238" stroke-linecap="round" stroke-linejoin="round"/>
<path d="M27.7635 104.635H24.0771V118.512H27.7635V104.635Z" fill="#263238" stroke="#263238" stroke-width="0.5" stroke-linecap="round" stroke-linejoin="round"/>
<path d="M33.5574 107.506H29.8711V118.512H33.5574V107.506Z" fill="#F57C00" stroke="#263238" stroke-linecap="round" stroke-linejoin="round"/>
<path d="M39.3518 104.99H35.6655V118.512H39.3518V104.99Z" fill="#263238" stroke="#263238" stroke-width="0.5" stroke-linecap="round" stroke-linejoin="round"/>
<path d="M45.1426 96.9772H41.4563V118.512H45.1426V96.9772Z" fill="#F57C00" stroke="#263238" stroke-linecap="round" stroke-linejoin="round"/>
<path d="M49.2871 96.7475H51.4452" stroke="#263238" stroke-width="0.5" stroke-linecap="round" stroke-linejoin="round"/>
<path d="M49.2871 101.1H51.4452" stroke="#263238" stroke-width="0.5" stroke-linecap="round" stroke-linejoin="round"/>
<path d="M49.2871 105.457H51.4452" stroke="#263238" stroke-width="0.5" stroke-linecap="round" stroke-linejoin="round"/>
<path d="M49.2871 109.81H51.4452" stroke="#263238" stroke-width="0.5" stroke-linecap="round" stroke-linejoin="round"/>
<path d="M49.2871 114.163H51.4452" stroke="#263238" stroke-width="0.5" stroke-linecap="round" stroke-linejoin="round"/>
<path d="M49.2871 118.516H51.4452" stroke="#263238" stroke-width="0.5" stroke-linecap="round" stroke-linejoin="round"/>
<path d="M14.5962 102.931L20.2474 106.465L26.1204 99.9521L31.9219 100.46L37.548 98.1479L43.9078 89.4827" stroke="#263238" stroke-linecap="round" stroke-linejoin="round"/>
<path d="M15.3085 102.931C15.3085 102.784 15.2666 102.641 15.1879 102.519C15.1093 102.397 14.9975 102.302 14.8667 102.246C14.7359 102.19 14.5919 102.175 14.4531 102.204C14.3142 102.232 14.1867 102.303 14.0866 102.407C13.9865 102.51 13.9183 102.642 13.8907 102.786C13.8631 102.93 13.8773 103.079 13.9314 103.214C13.9856 103.35 14.0774 103.465 14.1951 103.547C14.3128 103.628 14.4512 103.672 14.5927 103.672C14.7826 103.672 14.9646 103.593 15.0989 103.455C15.2331 103.316 15.3085 103.127 15.3085 102.931Z" fill="#263238"/>
<path d="M20.9599 106.465C20.9599 106.318 20.9179 106.175 20.8393 106.053C20.7606 105.931 20.6488 105.836 20.518 105.78C20.3872 105.724 20.2433 105.71 20.1045 105.738C19.9656 105.767 19.8381 105.837 19.738 105.941C19.6379 106.045 19.5697 106.177 19.5421 106.32C19.5145 106.464 19.5286 106.613 19.5828 106.748C19.637 106.884 19.7287 106.999 19.8464 107.081C19.9641 107.162 20.1025 107.206 20.2441 107.206C20.434 107.206 20.616 107.128 20.7502 106.989C20.8845 106.85 20.9599 106.661 20.9599 106.465Z" fill="#263238"/>
<path d="M26.8329 99.9521C26.8329 99.8055 26.791 99.6623 26.7123 99.5404C26.6337 99.4186 26.5219 99.3236 26.3911 99.2675C26.2603 99.2115 26.1164 99.1968 25.9775 99.2254C25.8387 99.254 25.7111 99.3245 25.611 99.4281C25.5109 99.5318 25.4427 99.6638 25.4151 99.8075C25.3875 99.9512 25.4017 100.1 25.4559 100.236C25.51 100.371 25.6018 100.487 25.7195 100.568C25.8372 100.65 25.9756 100.693 26.1172 100.693C26.307 100.693 26.4891 100.615 26.6233 100.476C26.7575 100.337 26.8329 100.149 26.8329 99.9521Z" fill="#263238"/>
<path d="M32.6342 100.46C32.6342 100.313 32.5922 100.17 32.5136 100.048C32.4349 99.9261 32.3231 99.8311 32.1923 99.7751C32.0616 99.719 31.9176 99.7043 31.7788 99.7329C31.6399 99.7615 31.5124 99.8321 31.4123 99.9357C31.3122 100.039 31.244 100.171 31.2164 100.315C31.1888 100.459 31.2029 100.608 31.2571 100.743C31.3113 100.879 31.403 100.994 31.5208 101.076C31.6385 101.157 31.7769 101.201 31.9184 101.201C32.1083 101.201 32.2903 101.122 32.4246 100.984C32.5588 100.845 32.6342 100.656 32.6342 100.46Z" fill="#263238"/>
<path d="M38.2604 98.0331C38.2604 97.8865 38.2185 97.7433 38.1398 97.6214C38.0611 97.4996 37.9494 97.4046 37.8186 97.3485C37.6878 97.2924 37.5439 97.2778 37.405 97.3064C37.2662 97.335 37.1386 97.4055 37.0385 97.5091C36.9384 97.6128 36.8702 97.7448 36.8426 97.8885C36.815 98.0322 36.8292 98.1812 36.8833 98.3166C36.9375 98.452 37.0293 98.5677 37.147 98.6491C37.2647 98.7305 37.4031 98.774 37.5446 98.774C37.7345 98.774 37.9166 98.6959 38.0508 98.557C38.185 98.418 38.2604 98.2296 38.2604 98.0331Z" fill="#263238"/>
<path d="M44.6237 89.4753C44.6237 89.3288 44.5817 89.1855 44.5031 89.0637C44.4244 88.9418 44.3126 88.8469 44.1818 88.7908C44.0511 88.7347 43.9071 88.72 43.7683 88.7486C43.6294 88.7772 43.5019 88.8478 43.4018 88.9514C43.3017 89.055 43.2335 89.1871 43.2059 89.3308C43.1783 89.4745 43.1924 89.6235 43.2466 89.7589C43.3008 89.8943 43.3925 90.01 43.5103 90.0914C43.628 90.1728 43.7664 90.2163 43.9079 90.2163C44.0978 90.2163 44.2798 90.1382 44.4141 89.9992C44.5483 89.8603 44.6237 89.6718 44.6237 89.4753Z" fill="#263238"/>
<path d="M13.8232 129.674V125.04H14.6285V129.663L13.8232 129.674Z" fill="#263238"/>
<path d="M15.3159 129.674L15.3947 125.04H16.2357L16.8728 128.241L17.5349 125.04H18.3509L18.4332 129.663H17.8248L17.7603 126.459L17.1269 129.674H16.633L15.9888 126.448L15.9279 129.674H15.3159Z" fill="#263238"/>
<path d="M19.0596 129.674V125.04H20.373C20.6004 125.031 20.8262 125.083 21.028 125.192C21.1907 125.298 21.3162 125.455 21.3859 125.64C21.4699 125.867 21.5101 126.109 21.504 126.351C21.5154 126.607 21.465 126.862 21.3573 127.092C21.2646 127.27 21.1172 127.411 20.9385 127.492C20.7399 127.581 20.5249 127.624 20.3086 127.618H19.8756V129.674H19.0596ZM19.8756 127.026H20.1869C20.3097 127.034 20.4326 127.011 20.5448 126.959C20.5861 126.938 20.6227 126.908 20.6523 126.872C20.6819 126.836 20.7038 126.793 20.7166 126.748C20.7521 126.621 20.7678 126.49 20.7632 126.359C20.7666 126.222 20.7546 126.085 20.7274 125.951C20.7189 125.903 20.7008 125.858 20.6743 125.818C20.6478 125.777 20.6135 125.743 20.5735 125.718C20.4618 125.663 20.3389 125.638 20.2156 125.644H19.9042L19.8756 127.026Z" fill="#263238"/>
<path d="M21.9478 129.674V125.04H23.0214C23.2809 125.033 23.5397 125.071 23.7873 125.151C23.9819 125.213 24.149 125.345 24.2598 125.521C24.382 125.747 24.4391 126.004 24.4244 126.262C24.4256 126.431 24.4088 126.598 24.3743 126.763C24.3442 126.897 24.2869 127.023 24.2061 127.133C24.1194 127.243 24.0056 127.326 23.8768 127.374L24.5031 129.652H23.6764L23.1288 127.555H22.7709V129.674H21.9478ZM22.7709 127.026H23.0214C23.1514 127.032 23.2812 127.008 23.4008 126.955C23.4933 126.908 23.5649 126.826 23.6012 126.725C23.6472 126.596 23.6679 126.459 23.6621 126.322C23.6743 126.139 23.6318 125.956 23.5404 125.799C23.48 125.734 23.406 125.685 23.324 125.655C23.242 125.624 23.1544 125.614 23.068 125.625H22.7709V127.026Z" fill="#263238"/>
<path d="M26.2316 129.737C25.9684 129.751 25.7067 129.689 25.4765 129.556C25.2874 129.434 25.1447 129.248 25.072 129.03C24.9872 128.768 24.946 128.494 24.9504 128.218V126.488C24.9454 126.216 24.9866 125.946 25.072 125.688C25.1462 125.475 25.289 125.294 25.4765 125.177C25.7134 125.06 25.9726 124.999 26.2352 124.999C26.4978 124.999 26.757 125.06 26.9939 125.177C27.1806 125.295 27.3231 125.475 27.3984 125.688C27.4871 125.945 27.5296 126.216 27.5236 126.488V128.226C27.5287 128.498 27.4863 128.769 27.3984 129.026C27.3235 129.243 27.1812 129.428 26.9939 129.552C26.762 129.688 26.4976 129.752 26.2316 129.737ZM26.2316 129.115C26.3396 129.125 26.4471 129.092 26.5322 129.022C26.5999 128.956 26.645 128.869 26.6611 128.774C26.6833 128.66 26.6941 128.543 26.6933 128.426V126.296C26.6944 126.179 26.6836 126.062 26.6611 125.948C26.6448 125.854 26.5996 125.768 26.5322 125.703C26.4433 125.645 26.3403 125.614 26.2352 125.614C26.1301 125.614 26.0271 125.645 25.9381 125.703C25.8697 125.768 25.8232 125.853 25.8057 125.948C25.7832 126.062 25.7724 126.179 25.7735 126.296V128.426C25.7727 128.543 25.7835 128.66 25.8057 128.774C25.8188 128.87 25.8645 128.958 25.9346 129.022C26.0186 129.091 26.1248 129.124 26.2316 129.115Z" fill="#263238"/>
<path d="M28.7871 129.674L27.8853 125.04H28.601L29.1916 128.311L29.7499 125.04H30.4907L29.5924 129.663L28.7871 129.674Z" fill="#263238"/>
<path d="M30.9485 129.674V125.04H32.8239V125.633H31.7502V126.963H32.5805V127.552H31.7502V129.082H32.8239V129.663L30.9485 129.674Z" fill="#263238"/>
<path d="M33.2964 129.674L33.3751 125.051H34.2233L34.8568 128.252L35.5189 125.051H36.3349L36.4172 129.674H35.8088L35.7444 126.459L35.1109 129.674H34.617L33.9692 126.448L33.9084 129.674H33.2964Z" fill="#263238"/>
<path d="M37.0435 129.674V125.04H38.9188V125.633H37.8451V126.963H38.6755V127.552H37.8451V129.082H38.9188V129.663L37.0435 129.674Z" fill="#263238"/>
<path d="M39.4021 129.674V125.04H39.9712L41.0448 127.678V125.04H41.7392V129.663H41.1987L40.1036 126.9V129.663L39.4021 129.674Z" fill="#263238"/>
<path d="M42.8557 129.674V125.673H42.1399V125.04H44.3696V125.662H43.6538V129.663L42.8557 129.674Z" fill="#263238"/>
<path d="M142.78 153.306H110.913L115.691 135.098H137.999L142.78 153.306Z" fill="#263238" stroke="#263238" stroke-linecap="round" stroke-linejoin="round"/>
<path d="M151.065 153.306H102.628V155.155H151.065V153.306Z" fill="#263238" stroke="#263238" stroke-linecap="round" stroke-linejoin="round"/>
<path d="M195.731 46.4793H57.959V137.01H195.731V46.4793Z" fill="#263238" stroke="#263238" stroke-linecap="round" stroke-linejoin="round"/>
<path d="M191.318 49.932H62.3755V133.561H191.318V49.932Z" fill="#B2B2B2" stroke="#263238" stroke-linecap="round" stroke-linejoin="round"/>
<path d="M101.332 71.0335L92.9788 72.4783L95.6129 112.359L107.72 113.37C107.72 113.37 110.351 98.0367 110.501 95.5472C110.652 93.0576 106.207 74.3788 106.207 74.3788L101.332 71.0335Z" fill="#F57C00" stroke="#263238" stroke-linecap="round" stroke-linejoin="round"/>
<path d="M113.676 133.56C113.951 132.578 114.087 131.56 114.08 130.537C113.984 129.056 113.604 126.792 113.604 126.792L110.176 127.088L111.504 133.56H113.676Z" fill="white" stroke="#263238" stroke-linecap="round" stroke-linejoin="round"/>
<path d="M76.9131 133.56H111.586C111.493 132.771 111.228 130.782 110.953 128.785C110.577 126.218 108.021 108.236 108.021 108.236L82.5392 105.742C82.5392 105.742 76.5981 117.653 75.7714 121.154C74.9447 124.655 76.8129 132.905 76.8129 132.905L76.9131 133.56Z" fill="#263238" stroke="#263238" stroke-linecap="round" stroke-linejoin="round"/>
<path d="M110.502 43.9452C110.502 43.9452 112.456 43.4784 113.282 46.6681C114.109 49.8578 113.132 51.4841 113.508 53.0512C113.884 54.6183 114.692 58.2636 113.712 61.9201C112.731 65.5766 109.224 68.218 109.059 69.5517L108.909 70.8742C108.909 70.8742 108.383 71.4188 106.729 71.2632C105.076 71.1076 103.043 69.8629 103.043 69.8629L103.268 67.2178C103.268 67.2178 106.132 67.2178 106.804 66.6732C107.477 66.1286 110.412 60.7457 110.638 59.2009C110.863 57.6561 111.013 53.2068 110.788 51.8842C110.562 50.5617 108.998 47.8351 108.383 47.6017C107.767 47.3683 104.997 45.3456 104.997 45.3456C104.997 45.3456 108.848 42.9338 110.502 43.9452Z" fill="#263238" stroke="#263238" stroke-linecap="round" stroke-linejoin="round"/>
<path d="M112.381 77.4129C112.381 77.4129 114.789 78.5799 114.864 80.5248C114.939 82.4698 113.583 91.109 113.583 91.7351C113.583 92.3612 112.907 105.276 112.907 105.276L114.363 127.774L110.938 127.974C110.938 127.974 107.95 111.333 108.247 109.325C108.544 107.317 110.351 97.3365 110.502 95.5472C110.652 93.7578 110.276 86.13 110.802 83.8738C111.328 81.6177 112.381 77.4129 112.381 77.4129Z" fill="white" stroke="#263238" stroke-linecap="round" stroke-linejoin="round"/>
<path d="M107.234 45.6419C107.234 45.6419 110.949 47.2127 111.55 49.9393C112.151 52.6659 111.25 56.0853 111.55 58.2673C111.851 60.4494 108.844 65.8952 107.792 67.2178C106.74 68.5403 104.181 68.0735 104.181 68.0735L104.568 72.4339C104.568 72.4339 106.142 77.8797 105.913 79.2801C105.684 80.6804 103.204 82.7365 100.051 82.5476C96.1392 82.3142 94.9331 78.5466 94.9331 78.5466L95.4592 69.9073C95.5907 68.1274 95.5415 66.3382 95.3125 64.5689C94.9367 61.3792 95.7634 56.5521 96.0641 55.7741C96.3647 54.9961 99.1491 51.8065 100.878 50.5617C102.606 49.3169 105.988 45.7457 105.988 45.7457C105.988 45.7457 106.983 45.3122 107.234 45.6419Z" fill="white" stroke="#263238" stroke-linecap="round" stroke-linejoin="round"/>
<path d="M95.3087 71.5411C95.3087 71.5411 83.7344 72.6525 82.0666 73.8305C80.3988 75.0086 82.8182 99.9816 82.8182 99.9816C82.8182 99.9816 73.5129 121.154 73.7956 121.309C74.0784 121.465 78.5306 125.277 83.2691 126.125C88.0076 126.974 94.9222 127.607 94.9222 127.607C94.9222 127.607 97.4024 106.591 97.703 104.957C98.0036 103.323 97.0266 87.1339 97.1769 84.8778C97.3272 82.6217 95.3087 71.5411 95.3087 71.5411Z" fill="white" stroke="#263238" stroke-linecap="round" stroke-linejoin="round"/>
<path d="M95.6418 96.8623C95.9832 97.6936 96.3753 98.5016 96.8158 99.2814" stroke="#263238" stroke-linecap="round" stroke-linejoin="round"/>
<path d="M92.6748 76.7276C93.1723 81.3917 93.9382 88.638 94.1851 91.3424C94.3584 92.9904 94.7498 94.6059 95.3483 96.1436" stroke="#263238" stroke-linecap="round" stroke-linejoin="round"/>
<path d="M92.2275 72.5561C92.2275 72.5561 92.3456 73.6675 92.5246 75.3383" stroke="#263238" stroke-linecap="round" stroke-linejoin="round"/>
<path d="M107.234 45.6419C106.486 46.9645 105.648 48.2309 104.728 49.4318C103.419 51.0581 98.4509 54.396 98.4509 54.396C98.4509 54.396 98.5368 56.2039 98.1861 56.7447C97.8353 57.2856 96.7044 56.9263 96.7044 56.9263C96.7044 56.9263 95.9206 61.3459 96.1819 64.5986C96.4431 67.8513 98.0143 68.7478 97.5777 69.5628C97.141 70.3778 94.3888 72.5265 90.6417 71.0039C86.8945 69.4813 84.9726 67.9328 84.0134 65.4951C83.0543 63.0574 86.4149 50.0653 88.8558 45.9124C91.2966 41.7595 97.141 39.0514 100.716 39.5033C104.292 39.9553 110.659 41.941 111.181 43.4747C111.704 45.0084 107.234 45.6419 107.234 45.6419Z" fill="#263238" stroke="#263238" stroke-linecap="round" stroke-linejoin="round"/>
<path d="M96.0638 55.763C96.0638 55.763 92.6996 59.6381 92.0089 63.8206C91.3181 68.0032 93.3939 69.7962 94.2028 70.1555" stroke="#5C5C5C" stroke-linecap="round" stroke-linejoin="round"/>
<path d="M86.136 63.2501C86.0451 64.0485 86.1183 64.8577 86.3507 65.6248" stroke="#5C5C5C" stroke-linecap="round" stroke-linejoin="round"/>
<path d="M101.865 48.087C101.019 48.8659 100.116 49.5756 99.1633 50.2097C94.593 53.2994 88.4873 57.0152 86.637 61.3533" stroke="#5C5C5C" stroke-linecap="round" stroke-linejoin="round"/>
<path d="M104.371 43.5155C104.371 43.5155 104.757 44.7676 103.025 46.8756" stroke="#5C5C5C" stroke-linecap="round" stroke-linejoin="round"/>
<path d="M104.567 72.4339C104.567 72.4339 110.952 76.4016 112.38 77.4129C113.808 78.4243 111.403 87.9193 111.629 89.7864C111.854 91.6536 112.531 96.0843 111.854 97.9589C111.178 99.8334 110.802 100.997 110.802 100.997L109.524 109.558C109.524 109.558 111.629 125.981 111.554 126.229C111.478 126.477 104.109 127.474 104.109 127.474C104.109 127.474 105.462 110.803 106.217 107.313C106.973 103.823 109.438 98.6739 108.848 92.9169C108.257 87.1598 104.567 72.4339 104.567 72.4339Z" fill="white" stroke="#263238" stroke-linecap="round" stroke-linejoin="round"/>
<path d="M110.362 92.9094C110.268 94.7842 109.831 96.6235 109.073 98.3293" stroke="#263238" stroke-linecap="round" stroke-linejoin="round"/>
<path d="M108.308 75.6199C108.308 75.6199 110.298 86.756 110.398 91.1497" stroke="#263238" stroke-linecap="round" stroke-linejoin="round"/>
<path d="M111.171 87.9193C111.171 87.9193 110.713 84.0331 110.097 81.9919" stroke="#263238" stroke-linecap="round" stroke-linejoin="round"/>
<path d="M105.444 56.3891C105.444 57.0041 105.158 57.5005 104.8 57.5005C104.442 57.5005 104.156 57.0004 104.156 56.3891C104.156 55.7778 104.442 55.2777 104.8 55.2777C105.158 55.2777 105.444 55.763 105.444 56.3891Z" fill="#263238"/>
<path d="M110.917 56.3891C110.917 57.0041 110.63 57.5005 110.272 57.5005C109.914 57.5005 109.625 57.0004 109.625 56.3891C109.625 55.7778 109.914 55.2777 110.272 55.2777C110.63 55.2777 110.917 55.763 110.917 56.3891Z" fill="#263238"/>
<path d="M102.846 54.2812C103.379 53.9172 103.983 53.6788 104.615 53.5828C105.247 53.4868 105.892 53.5355 106.504 53.7255" stroke="#263238" stroke-linecap="round" stroke-linejoin="round"/>
<path d="M111.024 54.2811C110.84 54.0629 110.587 53.9203 110.31 53.8795C110.034 53.8387 109.752 53.9024 109.517 54.0589C109.517 54.0589 108.551 55.3962 108.766 56.2816" stroke="#263238" stroke-linecap="round" stroke-linejoin="round"/>
<path d="M108.873 61.6275L106.826 61.9609" stroke="#263238" stroke-linecap="round" stroke-linejoin="round"/>
<path d="M107.592 63.4094C107.592 63.4094 104.578 64.2985 102.749 61.9609" stroke="#263238" stroke-linecap="round" stroke-linejoin="round"/>
<path d="M104.184 68.0735L101.228 67.0844L103.812 70.3185L104.184 68.0735Z" fill="#263238" stroke="#263238" stroke-linecap="round" stroke-linejoin="round"/>
<path d="M157.647 72.345C156.941 73.4729 156.426 74.7169 156.122 76.0237C155.7 78.0353 155.278 80.3137 155.278 80.3137C155.278 80.3137 157.393 78.5614 157.647 78.4613C157.901 78.3613 157.479 76.1867 157.479 76.1867L158.91 74.9605L157.647 72.345Z" fill="#263238" stroke="#263238" stroke-linecap="round" stroke-linejoin="round"/>
<path d="M158.492 42.8375C158.492 42.8375 156.376 43.6266 155.532 45.2011C154.687 46.7755 152.486 50.4543 152.826 51.6805C153.166 52.9067 153.331 53.4328 153.331 53.4328C153.331 53.4328 150.289 58.949 150.625 59.4751C151.037 60.0057 151.489 60.5012 151.978 60.9569C151.978 60.9569 153.331 67.5215 153.925 67.9587C154.519 68.3958 156.208 68.6589 156.208 68.6589L158.66 71.8115L172.11 66.136L172.281 63.0723C172.281 63.0723 176.848 56.9411 177.439 53.4402C178.029 49.9393 173.716 43.897 169.064 41.5335C164.411 39.1699 159.508 40.474 158.492 42.8375Z" fill="white" stroke="#263238" stroke-linecap="round" stroke-linejoin="round"/>
<path d="M154.118 55.3184C154.699 55.8148 155.414 56.1114 156.165 56.1668" stroke="#263238" stroke-linecap="round" stroke-linejoin="round"/>
<path d="M169.064 41.5261C164.411 39.1625 159.508 40.4739 158.491 42.8375C158.491 42.8375 158.914 43.1894 160.281 43.1005C161.648 43.0116 164.851 41.6187 165.696 42.8375C166.541 44.0563 163.158 45.1159 161.891 46.9534C160.625 48.7909 160.961 48.8798 161.974 50.2875C162.987 51.6953 163.158 52.3029 162.99 52.9141C162.822 53.5254 162.568 54.0515 163.667 54.2293C164.765 54.4071 165.098 51.6027 166.795 52.477C168.491 53.3513 168.742 55.9779 168.147 57.7302C168.002 58.2199 167.763 58.6742 167.444 59.0657C167.124 59.4572 166.732 59.7779 166.29 60.0085C166.29 60.0085 166.541 61.1458 168.402 62.1091C169.622 62.7042 170.947 63.0321 172.295 63.0723C172.295 63.0723 176.862 56.9411 177.453 53.4402C178.043 49.9393 173.716 43.9081 169.064 41.5261Z" fill="#263238" stroke="#263238" stroke-linecap="round" stroke-linejoin="round"/>
<path d="M172.281 57.2115C172.558 57.9411 172.666 58.7278 172.596 59.5084" stroke="#5C5C5C" stroke-linecap="round" stroke-linejoin="round"/>
<path d="M162.661 48.1129C162.661 48.1129 163.259 49.3503 166.598 50.8358C168.481 51.6731 170.252 53.4513 171.379 55.3296" stroke="#5C5C5C" stroke-linecap="round" stroke-linejoin="round"/>
<path d="M171.877 51.8287C171.877 51.8287 174.869 53.681 174.382 57.2782" stroke="#5C5C5C" stroke-linecap="round" stroke-linejoin="round"/>
<path d="M155.55 53.6514C155.55 54.2552 155.303 54.7627 154.999 54.7627C154.694 54.7627 154.451 54.27 154.451 53.6514C154.451 53.0327 154.694 52.54 154.999 52.54C155.303 52.54 155.55 53.0475 155.55 53.6514Z" fill="#263238"/>
<path d="M153.76 51.2433C153.76 51.2433 155.281 49.391 156.623 51.3323" stroke="#263238" stroke-linecap="round" stroke-linejoin="round"/>
<path d="M153.163 61.2236C153.163 61.2236 155.192 61.0495 156.462 59.7418" stroke="#263238" stroke-linecap="round" stroke-linejoin="round"/>
<path d="M166.287 60.0011L165.356 60.2604C164.942 61.5459 164.246 62.7149 163.323 63.6761" fill="white"/>
<path d="M166.287 60.0011L165.356 60.2604C164.942 61.5459 164.246 62.7149 163.323 63.6761" stroke="#263238" stroke-linecap="round" stroke-linejoin="round"/>
<path d="M172.371 64.8134C172.371 64.8134 159.175 70.5075 158.585 71.2077C157.994 71.9078 157.654 72.345 157.654 72.345L158.667 77.9501L174.056 67.44L172.371 64.8134Z" fill="white" stroke="#263238" stroke-linecap="round" stroke-linejoin="round"/>
<path d="M133.994 103.397L134.727 108.973L131.299 109.817C130.355 110.476 129.37 111.069 128.35 111.592C126.965 112.266 125.984 112.518 125.486 112.518C124.989 112.518 123.203 111.759 123.203 111.759C123.203 111.759 124.427 104.916 125.816 104.157C127.204 103.397 130.891 102.297 133.994 103.397Z" fill="white" stroke="#263238" stroke-linecap="round" stroke-linejoin="round"/>
<path d="M116.732 105.735C116.732 105.735 123.175 104.746 123.89 104.642C124.606 104.538 126.482 106.157 126.482 106.157C126.482 106.157 130.121 110.825 129.914 111.166C129.391 112.022 128.822 111.536 128.822 111.536L128.779 112.092C128.779 112.092 128.382 112.781 125.891 112.789C123.4 112.796 122.509 112.162 121.897 112.111C121.285 112.059 116.46 110.784 116.46 110.784L116.732 105.735Z" fill="white" stroke="#263238" stroke-linecap="round" stroke-linejoin="round"/>
<path d="M114.571 105.238L116.936 105.679L116.675 111.199L114.524 111.055L114.571 105.238Z" fill="white" stroke="#263238" stroke-linecap="round" stroke-linejoin="round"/>
<path d="M88.3405 73.4823C88.3405 73.4823 81.6121 72.997 80.202 74.1306C78.7918 75.2642 79.4862 90.2495 80.6744 95.6768C81.8626 101.104 83.491 109.773 84.2533 110.177C85.0156 110.581 114.882 111.833 114.882 111.833L115.197 105.109L92.1592 99.9705L90.5165 78.7503" fill="white"/>
<path d="M88.3405 73.4823C88.3405 73.4823 81.6121 72.997 80.202 74.1306C78.7918 75.2642 79.4862 90.2495 80.6744 95.6768C81.8626 101.104 83.491 109.773 84.2533 110.177C85.0156 110.581 114.882 111.833 114.882 111.833L115.197 105.109L92.1592 99.9705L90.5165 78.7503" stroke="#263238" stroke-linecap="round" stroke-linejoin="round"/>
<path d="M128.84 111.536L127.802 110.025" stroke="#263238" stroke-linecap="round" stroke-linejoin="round"/>
<path d="M128.124 112.411L126.868 110.755" stroke="#263238" stroke-linecap="round" stroke-linejoin="round"/>
<path d="M132.287 103.923C132.287 103.923 126.167 101.978 124.943 103.331C123.719 104.683 121.106 108.232 121.679 108.654C122.251 109.076 124.288 107.469 124.778 107.132C125.138 106.862 125.467 106.55 125.759 106.202C126.327 106.783 127.034 107.199 127.807 107.408C128.581 107.616 129.394 107.609 130.164 107.387" fill="white"/>
<path d="M132.287 103.923C132.287 103.923 126.167 101.978 124.943 103.331C123.719 104.683 121.106 108.232 121.679 108.654C122.251 109.076 124.288 107.469 124.778 107.132C125.138 106.862 125.467 106.55 125.759 106.202C126.327 106.783 127.034 107.199 127.807 107.408C128.581 107.616 129.394 107.609 130.164 107.387" stroke="#263238" stroke-linecap="round" stroke-linejoin="round"/>
<path d="M125.547 110.592C125.547 110.592 124.968 112.766 125.19 113.133C125.279 113.288 125.415 113.408 125.576 113.475C125.738 113.542 125.917 113.552 126.084 113.504C126.283 113.416 126.464 113.29 126.618 113.133C126.618 113.133 126.707 111.281 126.439 110.825C126.17 110.369 125.948 110.051 125.547 110.592Z" fill="white" stroke="#263238" stroke-linecap="round" stroke-linejoin="round"/>
<path d="M123.983 110.881C123.983 110.881 123.403 113.052 123.625 113.422C123.714 113.577 123.849 113.697 124.01 113.764C124.171 113.831 124.349 113.841 124.516 113.793C124.717 113.706 124.899 113.58 125.053 113.422C125.053 113.422 125.143 111.57 124.874 111.114C124.606 110.658 124.388 110.329 123.983 110.881Z" fill="white" stroke="#263238" stroke-linecap="round" stroke-linejoin="round"/>
<path d="M122.412 110.962C122.412 110.962 121.969 112.629 122.14 112.911C122.208 113.03 122.312 113.122 122.435 113.174C122.559 113.225 122.696 113.233 122.824 113.196C122.978 113.13 123.118 113.033 123.236 112.911C123.236 112.911 123.304 111.496 123.1 111.14C122.896 110.784 122.72 110.536 122.412 110.962Z" fill="white" stroke="#263238" stroke-linecap="round" stroke-linejoin="round"/>
<path d="M120.562 111.029C120.562 111.029 120.204 112.14 120.347 112.322C120.41 112.403 120.494 112.464 120.589 112.497C120.684 112.53 120.787 112.533 120.884 112.507C121.002 112.465 121.112 112.403 121.21 112.322C121.21 112.322 121.263 111.381 121.102 111.147C120.941 110.914 120.805 110.747 120.562 111.029Z" fill="white" stroke="#263238" stroke-linecap="round" stroke-linejoin="round"/>
<path d="M133.503 102.805L134.319 110.662L137.011 110.155L136.034 102.297L133.503 102.805Z" fill="white" stroke="#263238" stroke-linecap="round" stroke-linejoin="round"/>
<path d="M135.218 101.793L136.85 111.759L148.027 110.24L149.251 98.9184L135.218 101.793Z" fill="#F57C00" stroke="#263238" stroke-linecap="round" stroke-linejoin="round"/>
<path d="M143.993 110.788L148.027 110.24L149.251 98.9184L146.305 99.5222L143.993 110.788Z" fill="#263238" stroke="#263238" stroke-linecap="round" stroke-linejoin="round"/>
<path d="M177.739 133.56L176.827 115.408C176.827 115.408 180.663 97.9959 179.847 88.3639C179.031 78.7318 172.747 68.6848 172.747 68.6848C172.747 68.6848 157.976 78.228 156.427 79.9173C154.877 81.6066 152.107 84.474 151.291 87.1784C150.475 89.8828 147.293 106.517 147.293 106.517C147.293 106.517 143.947 118.175 142.887 125.188C142.243 129.452 142.322 132.116 142.483 133.553L177.739 133.56Z" fill="#F57C00" stroke="#263238" stroke-linecap="round" stroke-linejoin="round"/>
<path d="M172.192 71.8597C173.204 71.4349 174.193 70.9538 175.155 70.4186" stroke="#263238" stroke-linecap="round" stroke-linejoin="round"/>
<path d="M152.107 91.0349C153.381 88.6491 154.97 85.8151 155.686 84.9519C157.039 83.3774 167.189 74.0973 170.911 72.4339" stroke="#263238" stroke-linecap="round" stroke-linejoin="round"/>
<path d="M150.203 94.6617C150.203 94.6617 150.807 93.4763 151.634 91.9203" stroke="#263238" stroke-linecap="round" stroke-linejoin="round"/>
<path d="M159.587 95.5731C159.587 101.004 158.871 106.38 159.229 111.755C157.375 118.668 154.036 124.81 151.635 131.297" stroke="#263238" stroke-linecap="round" stroke-linejoin="round"/>
<path d="M160.947 84.4295C160.947 84.4295 159.422 86.7931 159.59 91.1683C159.612 91.7054 159.619 92.439 159.615 93.3095" stroke="#263238" stroke-linecap="round" stroke-linejoin="round"/>
<path d="M175.663 86.882C175.663 86.882 172.281 113.852 171.941 116.041C171.698 117.608 166.512 126.181 163.584 130.919" stroke="#263238" stroke-linecap="round" stroke-linejoin="round"/>
<path d="M153.309 125.907L146.391 124.662L146.842 122.48L153.61 123.728" stroke="#263238" stroke-linecap="round" stroke-linejoin="round"/>
</svg>
