<svg width="1434" height="105" viewBox="0 0 1434 105" fill="none" xmlns="http://www.w3.org/2000/svg">
<path d="M0.381706 50.8187C0.127235 52.1275 -0.127235 53.4364 -0.381706 54.7452C23.1066 59.2132 47.2853 63.4933 71.0085 67.5294C167.454 83.5853 264.224 98.3599 361.934 103.277C610.03 121.454 836.496 -16.8133 1083.97 3.26887C1177.54 8.61901 1270.37 23.4428 1362.73 39.485C1386.31 43.6657 1410.6 48.1475 1434 52.782C1410.62 48.0821 1386.34 43.5346 1362.77 39.2881C1270.44 22.9908 1177.67 7.90922 1084.03 2.29504C836.232 -18.4429 609.069 119.197 362.066 100.287C264.651 95.1183 167.959 80.0918 71.6501 63.784C47.9633 59.6866 23.7969 55.3406 0.381706 50.8187Z" fill="#F57C00"/>
</svg>
